<svg width="424" height="444" viewBox="0 0 424 444" fill="none" xmlns="http://www.w3.org/2000/svg">
<path d="M36.3619 26.9998L35.9439 27.6254L36.3619 26.9998ZM20.3035 164.427L20.9798 164.098L20.3035 164.427ZM103.066 238.713L103.796 238.895C103.718 239.209 103.448 239.437 103.125 239.463C102.802 239.488 102.5 239.304 102.373 239.006L103.066 238.713ZM95.6547 147.094L94.9611 147.386L95.6547 147.094ZM59.8321 76.5233L59.1865 76.9097C58.9792 76.5634 59.0821 76.1153 59.4196 75.8941C59.757 75.6728 60.209 75.7572 60.4438 76.0854L59.8321 76.5233ZM114.184 249.855L114.674 250.426C114.421 250.644 114.054 250.668 113.774 250.486C113.494 250.304 113.367 249.96 113.463 249.64L114.184 249.855ZM53.0471 39.3807L53.5963 38.8665L53.0471 39.3807ZM6.71558 126.047L7.41483 126.324L6.71558 126.047ZM422.815 434.839C423.218 434.737 423.627 434.98 423.729 435.383C423.831 435.786 423.587 436.195 423.185 436.297L422.815 434.839ZM35.9439 27.6254C35.8238 27.5451 35.5917 27.4686 35.0633 27.7867C34.527 28.1096 33.8559 28.7536 33.0744 29.7607C31.5223 31.7609 29.6928 34.984 27.7625 39.2097C23.9082 47.647 19.7158 59.9382 16.5599 74.0564C10.2404 102.328 8.1235 137.713 20.9798 164.098L19.6272 164.757C6.54291 137.904 8.74948 102.1 15.0914 73.7282C18.2663 59.5252 22.4891 47.1321 26.3938 38.5844C28.343 34.3176 30.229 30.9731 31.8857 28.8382C32.7086 27.7778 33.5151 26.9625 34.2871 26.4976C35.067 26.0281 35.9736 25.8355 36.7799 26.3743L35.9439 27.6254ZM20.9798 164.098C30.9311 184.521 47.0776 192.782 63.1001 201.084C79.1025 209.376 94.9959 217.716 103.759 238.419L102.373 239.006C93.8429 218.852 78.4272 210.721 62.4078 202.42C46.4085 194.13 29.8205 185.677 19.6272 164.757L20.9798 164.098ZM102.336 238.53C104.782 228.725 105.936 213.056 104.971 196.25C104.006 179.446 100.927 161.587 94.9611 147.386L96.3483 146.803C102.405 161.219 105.502 179.265 106.473 196.163C107.443 213.059 106.291 228.891 103.796 238.895L102.336 238.53ZM94.9611 147.386C85.0925 123.894 73.9911 101.64 59.1865 76.9097L60.4776 76.1368C75.3192 100.929 86.4526 123.247 96.3483 146.803L94.9611 147.386ZM60.4438 76.0854C67.2389 85.5789 77.872 100.573 87.6729 115.923C97.4589 131.249 106.467 147.008 109.96 158.009L108.526 158.465C105.1 147.675 96.1974 132.07 86.4046 116.733C76.6266 101.419 66.0131 86.4516 59.2203 76.9612L60.4438 76.0854ZM109.96 158.009C113.44 168.974 116.537 185.748 117.837 202.875C119.136 219.988 118.65 237.556 114.904 250.071L113.463 249.64C117.129 237.393 117.631 220.046 116.336 202.989C115.042 185.945 111.962 169.29 108.526 158.465L109.96 158.009ZM113.693 249.285C123.772 240.626 139.399 226.563 151.766 208.755C164.135 190.945 173.192 169.465 170.259 145.949L171.752 145.763C174.749 169.79 165.483 191.643 153.002 209.613C140.52 227.586 124.772 241.751 114.674 250.426L113.693 249.285ZM170.259 145.949C166.6 116.604 142.544 95.6505 116.571 79.2206C103.601 71.0158 90.2278 63.9833 78.762 57.6012C67.3429 51.2451 57.7446 45.4986 52.498 39.8949L53.5963 38.8665C58.6512 44.2654 68.0221 49.9011 79.4938 56.2865C90.9188 62.6458 104.358 69.7141 117.376 77.949C143.379 94.3984 168.001 115.68 171.752 145.763L170.259 145.949ZM52.498 39.8949C42.9746 29.7234 41.7488 13.278 48.0414 0.664152L49.3878 1.33585C43.3277 13.4838 44.5725 29.2285 53.5963 38.8665L52.498 39.8949ZM36.7799 26.3743C37.3566 26.7596 37.7231 27.3755 37.9524 28.0809C38.1824 28.7885 38.2966 29.6519 38.3231 30.6328C38.376 32.5957 38.0804 35.171 37.5078 38.227C36.3608 44.3483 34.0724 52.5502 31.0593 61.9576C25.0304 80.7806 16.0672 104.529 7.41483 126.324L6.0163 125.769C14.665 103.983 23.6132 80.2722 29.6263 61.4986C32.6342 52.1078 34.8994 43.9772 36.0288 37.9499C36.5944 34.9315 36.8676 32.4783 36.8189 30.6734C36.7945 29.7705 36.6901 29.0651 36.5214 28.5461C36.3519 28.0247 36.1393 27.7559 35.9439 27.6254L36.7799 26.3743ZM7.41483 126.324C-3.29166 153.293 1.57108 192.682 18.7411 228.95C35.9011 265.197 65.2696 298.142 103.328 312.293L102.804 313.703C64.2765 299.378 34.6565 266.085 17.3811 229.594C0.115814 193.125 -4.90359 153.276 6.0163 125.769L7.41483 126.324ZM103.328 312.293C141.53 326.497 184.342 332.665 218.957 329.427C236.265 327.808 251.478 323.841 263.033 317.39C274.578 310.945 282.435 302.044 285.153 290.539L286.618 290.885C283.778 302.904 275.576 312.11 263.767 318.704C251.967 325.291 236.53 329.294 219.097 330.925C184.228 334.187 141.189 327.975 102.804 313.703L103.328 312.293ZM285.153 290.539C287.824 279.238 281.198 269.455 269.8 262.452C258.415 255.456 242.462 251.383 227.064 251.536C211.653 251.69 196.955 256.073 187.944 265.804C178.98 275.486 175.483 290.646 182.837 312.76L181.409 313.235C173.941 290.778 177.392 274.987 186.84 264.782C196.243 254.626 211.423 250.187 227.049 250.032C242.686 249.876 258.927 254.004 270.588 261.17C282.235 268.326 289.506 278.663 286.618 290.885L285.153 290.539ZM182.837 312.76C212.362 401.536 305.855 464.454 422.815 434.839L423.185 436.297C305.445 466.11 211.178 402.744 181.409 313.235L182.837 312.76Z" fill="#513117"/>
</svg>
