<svg width="51" height="52" viewBox="0 0 51 52" fill="none" xmlns="http://www.w3.org/2000/svg">
<g id="Group">
<path id="Vector" d="M0.109863 25.63C0.109863 39.64 11.5099 51.04 25.5199 51.04C39.5299 51.04 50.9299 39.64 50.9299 25.63C50.9299 11.62 39.5299 0.219971 25.5199 0.219971C11.5099 0.219971 0.109863 11.62 0.109863 25.63ZM2.71985 25.63C2.71985 13.06 12.9499 2.83002 25.5199 2.83002C38.0899 2.83002 48.3198 13.06 48.3198 25.63C48.3198 38.2 38.0899 48.43 25.5199 48.43C12.9499 48.43 2.71985 38.2 2.71985 25.63Z" fill="white"/>
<path id="Vector_2" d="M10.5399 24.1799H33.9398V22.01C33.9398 21.17 34.9599 20.74 35.5599 21.34L39.1799 24.96C39.5499 25.33 39.5499 25.9299 39.1799 26.2999L35.5599 29.9199C34.9599 30.5199 33.9398 30.09 33.9398 29.25V27.08H10.5399C9.73992 27.08 9.08984 26.43 9.08984 25.63C9.08984 24.83 9.73992 24.1799 10.5399 24.1799Z" fill="white"/>
</g>
</svg>
