<svg width="51" height="52" viewBox="0 0 51 52" fill="none" xmlns="http://www.w3.org/2000/svg">
<g id="Group">
<path id="Vector" d="M25.5201 0.219971C11.5101 0.219971 0.110107 11.62 0.110107 25.63C0.110107 39.64 11.5101 51.04 25.5201 51.04C39.5301 51.04 50.9301 39.64 50.9301 25.63C50.9301 11.62 39.5301 0.219971 25.5201 0.219971ZM25.5201 48.42C12.9501 48.42 2.72011 38.19 2.72011 25.62C2.72011 13.05 12.9501 2.82001 25.5201 2.82001C38.0901 2.82001 48.3201 13.05 48.3201 25.62C48.3201 38.19 38.0901 48.42 25.5201 48.42Z" fill="white"/>
<path id="Vector_2" d="M40.51 24.1799H17.11V22.01C17.11 21.17 16.09 20.74 15.49 21.34L11.87 24.96C11.5 25.33 11.5 25.9299 11.87 26.2999L15.49 29.9199C16.09 30.5199 17.11 30.09 17.11 29.25V27.08H40.51C41.31 27.08 41.96 26.43 41.96 25.63C41.96 24.83 41.31 24.1799 40.51 24.1799Z" fill="white"/>
</g>
</svg>
