<svg width="43" height="43" viewBox="0 0 43 43" fill="none" xmlns="http://www.w3.org/2000/svg">
<path d="M17.6484 10.0977H19.723" stroke="#050505" stroke-width="0.691526"/>
<path d="M19.9534 23.297C19.9534 23.6428 19.6652 23.9885 19.2618 23.9885C18.8584 23.9885 18.5703 23.6428 18.5703 23.297C18.5703 22.8936 18.8584 22.6055 19.2618 22.6055C19.6652 22.6055 19.9534 22.8936 19.9534 23.297Z" fill="#050505"/>
<path d="M18.339 21.5684C18.339 21.7413 18.2237 21.9142 18.0508 21.9142C17.878 21.9142 17.7051 21.7413 17.7051 21.5684C17.7051 21.3956 17.878 21.2227 18.0508 21.2227C18.2237 21.2227 18.339 21.3956 18.339 21.5684Z" fill="#231F20"/>
<path d="M17.1283 29.3469C17.1283 29.9808 16.6097 30.4995 15.9758 30.4995C15.2843 30.4995 14.7656 29.9808 14.7656 29.3469C14.7656 28.6554 15.2843 28.1367 15.9758 28.1367C16.6097 28.1367 17.1283 28.6554 17.1283 29.3469Z" stroke="#050505" stroke-width="0.461017" stroke-miterlimit="10"/>
<path d="M22.6603 31.3077C22.6603 31.4805 22.545 31.5958 22.3721 31.5958C22.2569 31.5958 22.084 31.4805 22.084 31.3077C22.084 31.1924 22.2569 31.0195 22.3721 31.0195C22.545 31.0195 22.6603 31.1924 22.6603 31.3077Z" stroke="#050505" stroke-width="0.691526" stroke-miterlimit="10"/>
<path d="M26.9251 27.3293C26.9251 27.7326 26.5793 28.136 26.1183 28.136C25.6573 28.136 25.2539 27.7326 25.2539 27.3293C25.2539 26.8682 25.6573 26.4648 26.1183 26.4648C26.5793 26.4648 26.9251 26.8682 26.9251 27.3293Z" fill="#231F20"/>
<path d="M14.3047 24.505C16.725 25.5999 20.125 26.8101 22.2572 25.6576C24.3894 24.505 26.003 23.8135 27.5589 23.6406" stroke="#050505" stroke-miterlimit="10"/>
<path d="M24.9087 10.1C25.4273 10.1 25.8883 9.63894 25.8883 9.12029C25.8883 8.60165 25.4273 8.14062 24.9087 8.14062H24.39H18.1663H17.6476C17.129 8.14062 16.668 8.60165 16.668 9.12029C16.668 9.63894 17.129 10.1 17.6476 10.1" stroke="#050505"/>
<path d="M24.9088 10.0977H24.3325V16.84L31.9969 31.9384C32.6884 33.6095 31.4783 35.4536 29.6918 35.4536H12.8071C11.0206 35.4536 9.81046 33.6095 10.5596 31.9384L18.1664 16.84V10.2705" stroke="#050505"/>
<path d="M41.678 21.7984C41.678 33.0933 32.5152 42.1984 21.2779 42.1984C9.98303 42.1984 0.820312 33.0933 0.820312 21.7984C0.820312 10.5035 9.98303 1.39844 21.2779 1.39844C32.5152 1.39844 41.678 10.5035 41.678 21.7984Z" stroke="#050505" stroke-miterlimit="10"/>
<path d="M34.8206 6.29688L10.6172 39.0291" stroke="#050505" stroke-miterlimit="10"/>
</svg>
