<svg width="80" height="80" viewBox="0 0 80 80" fill="none" xmlns="http://www.w3.org/2000/svg">
<path d="M66.7497 55.0701C68.3043 54.5519 71.4136 53.2564 71.4136 48.5924C71.4136 45.3103 67.8725 42.9784 65.9723 42.9784H18.9872C15.2733 42.9784 7.5 46.7959 7.5 54.4655C7.5 62.1352 14.5823 67.3346 18.9872 67.3346H65.9723C67.8149 66.9316 71.5 65.1754 71.5 61.3751C71.5 57.5748 68.3331 55.5883 66.7497 55.0701ZM66.7497 55.0701H21.5783M8.76397 49.4508L16.556 29.7284C17.7626 26.6745 20.7128 24.668 23.9964 24.668H29.5M70 45L65.5 35.5" stroke="#513117" stroke-width="2" stroke-linecap="round" stroke-linejoin="round"/>
<path d="M50.2852 33.6652C47.0137 33.6652 38.9728 34.6618 33.0212 35.484C31.0065 35.7623 29.3152 33.8563 29.682 31.8559C30.0952 29.6026 30.4472 26.8756 30.4472 24.2682C30.4472 20.9205 29.8669 15.7506 29.3219 11.7383C29.0529 9.7576 30.8666 8.08991 32.8218 8.50521C37.6463 9.52993 44.3181 10.6948 48.8931 10.6948C53.6324 10.6948 61.4551 10.0004 67.0096 9.41738C68.9879 9.20975 70.5821 11.0716 70.1567 13.0148C69.5957 15.5779 69.0792 18.5832 69.0792 20.7879C69.0792 23.3905 69.799 28.3085 70.4622 32.2035C70.7859 34.1045 69.1606 35.7915 67.252 35.516C61.5158 34.6879 53.5994 33.6652 50.2852 33.6652Z" stroke="#513117" stroke-width="2"/>
</svg>
