<svg width="80" height="80" viewBox="0 0 80 80" fill="none" xmlns="http://www.w3.org/2000/svg">
<path d="M58.6673 61.334V57.334M21.334 61.334V57.334" stroke="#513117" stroke-width="2" stroke-linecap="round"/>
<path d="M13.334 48C13.334 45.515 13.334 44.2725 13.74 43.2924C14.2813 41.9855 15.3195 40.9473 16.6263 40.406C17.6065 40 18.849 40 21.334 40H58.6673C61.1523 40 62.3949 40 63.375 40.406C64.6818 40.9473 65.72 41.9855 66.2613 43.2924C66.6673 44.2725 66.6673 45.515 66.6673 48C66.6673 50.485 66.6673 51.7275 66.2613 52.7076C65.72 54.0145 64.6818 55.0527 63.375 55.594C62.3949 56 61.1523 56 58.6673 56H21.334C18.849 56 17.6065 56 16.6263 55.594C15.3195 55.0527 14.2813 54.0145 13.74 52.7076C13.334 51.7275 13.334 50.485 13.334 48Z" stroke="#513117" stroke-width="2"/>
<path d="M64 39.9993C64 29.9427 64 24.9144 60.8758 21.7902C57.7516 18.666 52.7233 18.666 42.6667 18.666H37.3333C27.2767 18.666 22.2484 18.666 19.1242 21.7902C16 24.9144 16 29.9427 16 39.9993" stroke="#513117" stroke-width="2"/>
<path d="M57.3327 40.0007V36.0007C57.3327 30.9723 57.3327 28.4582 55.7706 26.8961C54.2085 25.334 51.6943 25.334 46.666 25.334H33.3327C28.3044 25.334 25.7902 25.334 24.2281 26.8961C22.666 28.4582 22.666 30.9723 22.666 36.0007V40.0007" stroke="#513117" stroke-width="2"/>
<path d="M40 26.666V39.9993" stroke="#513117" stroke-width="2"/>
</svg>
