<svg width="32" height="33" viewBox="0 0 32 33" fill="none" xmlns="http://www.w3.org/2000/svg">
<path d="M16.0013 29.5846C14.1569 29.5846 12.4235 29.2346 10.8013 28.5346C9.17908 27.8346 7.76797 26.8846 6.56797 25.6846C5.36797 24.4846 4.41797 23.0735 3.71797 21.4513C3.01797 19.8291 2.66797 18.0957 2.66797 16.2513C2.66797 14.4069 3.01797 12.6735 3.71797 11.0513C4.41797 9.42908 5.36797 8.01797 6.56797 6.81797C7.76797 5.61797 9.17908 4.66797 10.8013 3.96797C12.4235 3.26797 14.1569 2.91797 16.0013 2.91797C17.8457 2.91797 19.5791 3.26797 21.2013 3.96797C22.8235 4.66797 24.2346 5.61797 25.4346 6.81797C26.6346 8.01797 27.5846 9.42908 28.2846 11.0513C28.9846 12.6735 29.3346 14.4069 29.3346 16.2513C29.3346 18.0957 28.9846 19.8291 28.2846 21.4513C27.5846 23.0735 26.6346 24.4846 25.4346 25.6846C24.2346 26.8846 22.8235 27.8346 21.2013 28.5346C19.5791 29.2346 17.8457 29.5846 16.0013 29.5846ZM16.0013 26.918C18.9791 26.918 21.5013 25.8846 23.568 23.818C25.6346 21.7513 26.668 19.2291 26.668 16.2513C26.668 13.2735 25.6346 10.7513 23.568 8.68464C21.5013 6.61797 18.9791 5.58464 16.0013 5.58464C13.0235 5.58464 10.5013 6.61797 8.43464 8.68464C6.36797 10.7513 5.33464 13.2735 5.33464 16.2513C5.33464 19.2291 6.36797 21.7513 8.43464 23.818C10.5013 25.8846 13.0235 26.918 16.0013 26.918Z" fill="#513117"/>
</svg>
