<svg width="28" height="28" viewBox="0 0 28 28" fill="none" xmlns="http://www.w3.org/2000/svg">
<path d="M2.33203 3.5L2.64109 3.60302C4.18114 4.11637 4.95116 4.37304 5.3916 4.98411C5.83203 5.59518 5.83203 6.40686 5.83203 8.03021V11.0833C5.83203 14.3832 5.83203 16.0331 6.85716 17.0582C7.88228 18.0833 9.5322 18.0833 12.832 18.0833H22.1654" stroke="#6C6159" stroke-width="1.75" stroke-linecap="round"/>
<path d="M8.75 21C9.7165 21 10.5 21.7835 10.5 22.75C10.5 23.7165 9.7165 24.5 8.75 24.5C7.7835 24.5 7 23.7165 7 22.75C7 21.7835 7.7835 21 8.75 21Z" stroke="#6C6159" stroke-width="1.75"/>
<path d="M19.25 21.0001C20.2165 21.0001 21 21.7836 21 22.7501C21 23.7166 20.2165 24.5001 19.25 24.5001C18.2835 24.5001 17.5 23.7166 17.5 22.7501C17.5 21.7836 18.2835 21.0001 19.25 21.0001Z" stroke="#6C6159" stroke-width="1.75"/>
<path d="M5.83203 7H19.1908C21.5883 7 22.787 7 23.3057 7.78664C23.8244 8.57328 23.3522 9.67509 22.4078 11.8787L21.9078 13.0454C21.4669 14.0742 21.2464 14.5886 20.8081 14.8776C20.3698 15.1667 19.8101 15.1667 18.6908 15.1667H5.83203" stroke="#6C6159" stroke-width="1.75"/>
</svg>
