<svg width="37" height="37" viewBox="0 0 37 37" fill="none" xmlns="http://www.w3.org/2000/svg">
<path d="M3.85606 3.93304C3.26663 3.73656 2.62952 4.05511 2.43304 4.64455C2.23656 5.23399 2.55511 5.8711 3.14455 6.06757L3.54192 6.20003C4.55653 6.53823 5.22733 6.76362 5.7215 6.99352C6.18944 7.21121 6.39175 7.3864 6.52138 7.56625C6.65101 7.7461 6.75324 7.99343 6.81178 8.5062C6.87361 9.04772 6.87531 9.75537 6.87531 10.8249L6.8753 14.8326C6.87527 16.884 6.87525 18.5375 7.05009 19.8379C7.23161 21.1881 7.61996 22.3249 8.52283 23.2278C9.4257 24.1307 10.5625 24.519 11.9127 24.7005C13.2131 24.8754 14.8666 24.8753 16.918 24.8753H27.5003C28.1216 24.8753 28.6253 24.3716 28.6253 23.7503C28.6253 23.129 28.1216 22.6253 27.5003 22.6253H17.0003C14.8472 22.6253 13.3455 22.6229 12.2125 22.4706C11.1118 22.3226 10.529 22.0519 10.1138 21.6368C9.76104 21.284 9.51259 20.8101 9.3551 20.0003H24.5334C25.9725 20.0003 26.692 20.0003 27.2556 19.6287C27.8192 19.2571 28.1026 18.5957 28.6695 17.2729L29.3124 15.7729C30.5266 12.9397 31.1337 11.5231 30.4668 10.5117C29.7999 9.50031 28.2587 9.50031 25.1762 9.50031H9.11788C9.10904 9.03878 9.08966 8.62237 9.04726 8.25098C8.96423 7.52375 8.78332 6.85646 8.34668 6.25065C7.91004 5.64484 7.3342 5.2622 6.67054 4.95346C6.04619 4.66301 5.2522 4.39838 4.31265 4.08523L3.85606 3.93304Z" fill="#513117"/>
<path d="M11.75 27.5004C12.9926 27.5004 14 28.5077 14 29.7504C14 30.993 12.9926 32.0004 11.75 32.0004C10.5074 32.0004 9.5 30.993 9.5 29.7504C9.5 28.5077 10.5074 27.5004 11.75 27.5004Z" fill="#513117"/>
<path d="M25.25 27.5005C26.4926 27.5005 27.5 28.5078 27.5 29.7505C27.5 30.9931 26.4926 32.0005 25.25 32.0005C24.0074 32.0005 23 30.9931 23 29.7505C23 28.5078 24.0074 27.5005 25.25 27.5005Z" fill="#513117"/>
</svg>
