<svg width="28" height="27" viewBox="0 0 28 27" fill="none" xmlns="http://www.w3.org/2000/svg">
<path id="Vector" d="M2.88977 11.0201C3.12977 10.0801 3.68973 9.42004 4.65973 9.23004C5.55973 9.05004 6.43978 9.13004 7.14978 9.85004C7.19978 9.76004 7.17975 9.68004 7.17975 9.60004C7.19975 8.89004 7.12974 8.18003 7.22974 7.47003C7.46974 5.65003 9.04976 4.14008 10.8798 3.96008C11.1298 3.93008 11.3898 3.93005 11.6398 3.93005C13.5398 3.93005 15.4398 3.93005 17.3398 3.93005C19.4098 3.93005 21.0798 5.31007 21.4998 7.32007C21.5998 7.80007 21.5698 8.29008 21.5698 8.77008C21.5698 9.12008 21.5698 9.47007 21.5698 9.82007C21.6598 9.83007 21.6897 9.76004 21.7297 9.73004C22.1497 9.37004 22.6297 9.18004 23.1797 9.17004C23.6697 9.16004 24.1497 9.16009 24.5997 9.40009C25.4497 9.85009 25.8998 10.5501 25.8698 11.5201C25.8398 12.4401 25.3797 13.1001 24.5497 13.4901C24.3497 13.5801 24.2997 13.6901 24.2997 13.8901C24.2997 16.1501 24.2997 18.4201 24.2997 20.6801C24.2997 21.1501 24.1997 21.26 23.7397 21.3C23.5997 21.31 23.5698 21.3801 23.5598 21.5001C23.5598 21.7501 23.5597 21.9901 23.5397 22.2401C23.4897 22.7101 23.2198 22.9701 22.7498 22.9901C22.5298 23.0001 22.2998 23.0001 22.0798 22.9901C21.5698 22.9701 21.2698 22.6501 21.2698 22.1401C21.2698 21.9201 21.2698 21.7101 21.2698 21.4901C21.2698 21.3401 21.2098 21.28 21.0698 21.3C21.0298 21.3 20.9798 21.3 20.9398 21.3C16.5698 21.3 12.1898 21.3 7.81976 21.3C7.5931 21.3 7.47974 21.4168 7.47974 21.6501C7.47974 21.8201 7.47974 21.99 7.47974 22.17C7.47974 22.62 7.21979 22.9301 6.77979 22.9901C6.53979 23.0201 6.28973 23.0201 6.03973 22.9901C5.60973 22.9201 5.34978 22.6301 5.33978 22.1901C5.33978 22.0001 5.32978 21.8 5.33978 21.61C5.35978 21.39 5.28975 21.2801 5.05975 21.3201C4.98975 21.3201 4.92974 21.3201 4.85974 21.3201C4.61974 21.3001 4.45976 21.1401 4.43976 20.9001C4.43976 20.8201 4.43976 20.7401 4.43976 20.6501C4.43976 18.3901 4.43976 16.1401 4.43976 13.8801C4.43976 13.6901 4.38977 13.5901 4.19977 13.5101C3.56977 13.2301 3.15977 12.75 2.94977 12.1C2.92977 12.03 2.89976 11.9601 2.87976 11.8901C2.87976 11.6101 2.87976 11.32 2.87976 11.04L2.88977 11.0201ZM14.3597 14.9601C16.4597 14.9601 18.5597 14.9601 20.6597 14.9601C20.8797 14.9601 20.9598 14.91 20.9498 14.67C20.9498 12.5 20.9498 10.33 20.9498 8.17004C20.9498 7.94004 20.9198 7.71004 20.8898 7.48004C20.6098 5.81004 19.1097 4.53006 17.3497 4.56006C15.3697 4.59006 13.3897 4.56006 11.4097 4.56006C11.2297 4.56006 11.0498 4.56008 10.8698 4.58008C9.02975 4.88008 7.79974 6.32005 7.79974 8.18005C7.79974 10.3301 7.79974 12.4901 7.79974 14.6401C7.79974 14.8467 7.90307 14.9501 8.10974 14.9501C10.1997 14.9501 12.2798 14.9501 14.3698 14.9501L14.3597 14.9601ZM14.3698 20.6901C16.4798 20.6901 18.5898 20.6901 20.6898 20.6901C20.8798 20.6901 20.9498 20.6401 20.9498 20.4401C20.9398 19.7601 20.9398 19.0801 20.9498 18.4001C20.9498 18.2001 20.8898 18.1401 20.6898 18.1401C16.4698 18.1401 12.2597 18.1401 8.03973 18.1401C7.84973 18.1401 7.77979 18.2001 7.77979 18.4001C7.78979 19.0701 7.77979 19.7301 7.77979 20.4001C7.77979 20.5934 7.87977 20.6901 8.07977 20.6901C10.1698 20.6901 12.2697 20.6901 14.3597 20.6901H14.3698ZM14.3698 15.6C12.2698 15.6 10.1698 15.6 8.06976 15.6C7.85976 15.6 7.77973 15.6601 7.78973 15.8801C7.79973 16.3401 7.79973 16.8101 7.78973 17.2701C7.78973 17.4501 7.82979 17.5201 8.02979 17.5201C12.2598 17.5201 16.4897 17.5201 20.7197 17.5201C20.8897 17.5201 20.9598 17.47 20.9498 17.29C20.9398 16.83 20.9498 16.3601 20.9498 15.9001C20.9498 15.6101 20.9498 15.6 20.6498 15.6C18.5598 15.6 16.4598 15.6 14.3698 15.6ZM21.5598 15.91C21.5598 17.4 21.5598 18.8801 21.5598 20.3701C21.5598 20.5834 21.6631 20.6901 21.8698 20.6901C22.3698 20.6901 22.8698 20.6901 23.3698 20.6901C23.5764 20.6901 23.6797 20.5901 23.6797 20.3901C23.6797 18.0701 23.6797 15.7601 23.6797 13.4401C23.6797 13.1801 23.7498 13.0801 24.0098 13.0201C24.7898 12.8401 25.3198 12.1001 25.2598 11.3301C25.1998 10.5201 24.6198 9.92005 23.7598 9.80005C22.3198 9.60005 21.5298 10.5 21.5598 11.67C21.5998 13.08 21.5598 14.5 21.5598 15.91ZM7.17975 15.92C7.17975 14.44 7.17975 12.96 7.17975 11.48C7.17975 10.98 6.99976 10.5501 6.62976 10.2001C6.20976 9.82007 5.69974 9.75008 5.16974 9.77008C4.25974 9.80008 3.57976 10.42 3.49976 11.3C3.41976 12.1 3.97978 12.84 4.83978 13.04C5.04978 13.09 5.06976 13.1901 5.06976 13.3701C5.06976 15.7201 5.06976 18.06 5.06976 20.41C5.06976 20.62 5.11978 20.7001 5.33978 20.6901C5.85978 20.6701 6.38973 20.6701 6.90973 20.6901C7.13973 20.6901 7.19977 20.6301 7.19977 20.4001C7.19977 18.9101 7.19977 17.41 7.19977 15.92H7.17975ZM22.4097 21.3101C22.0564 21.3101 21.8798 21.4868 21.8798 21.8401C21.8798 22.1934 22.0531 22.3701 22.3998 22.3701C22.7464 22.3701 22.9231 22.1934 22.9297 21.8401C22.9364 21.4868 22.7631 21.3134 22.4097 21.3201V21.3101ZM6.86975 21.79C6.86975 21.4634 6.70977 21.3 6.38977 21.3C6.31977 21.3 6.25976 21.3 6.18976 21.3C6.04976 21.29 5.97975 21.3501 5.98975 21.4901C5.98975 21.6801 5.98975 21.86 5.98975 22.05C5.98975 22.33 6.00974 22.35 6.29974 22.35C6.91974 22.35 6.86975 22.39 6.86975 21.79ZM8.65973 12.2701C8.65973 12.4101 8.65973 12.5501 8.65973 12.7001C8.65973 12.9201 8.77978 13.05 8.95978 13.05C9.17978 13.05 9.25978 12.91 9.27979 12.72C9.28979 12.62 9.28973 12.51 9.28973 12.41C9.28973 11.13 9.28974 9.85008 9.29974 8.58008C9.29974 7.93008 9.55978 7.38003 10.0198 6.91003C10.4998 6.41003 11.1098 6.14003 11.7698 5.97003C11.9898 5.91003 12.0897 5.77008 12.0397 5.58008C11.9997 5.41008 11.8498 5.32006 11.6298 5.37006C10.0598 5.74006 8.63978 6.80008 8.64978 8.83008C8.64978 9.42008 8.64978 10.01 8.64978 10.6C8.64978 11.16 8.64978 11.7201 8.64978 12.2801L8.65973 12.2701ZM23.4498 12.6C22.7498 12.6 22.2397 12.2201 22.0997 11.5901C22.0797 11.4901 22.0697 11.4 22.0997 11.3C22.2397 10.74 22.6998 10.3301 23.3098 10.2501C23.8298 10.1801 24.4097 10.5001 24.6697 10.9901C24.9097 11.4401 24.7998 11.9101 24.3898 12.2801C24.1198 12.5101 23.8098 12.62 23.4598 12.6H23.4498ZM23.4498 11.9501C23.5998 11.9501 23.7498 11.93 23.8798 11.86C24.0398 11.76 24.1798 11.6401 24.1898 11.4301C24.1898 11.2201 24.0598 11.0801 23.8898 10.9901C23.5698 10.8301 23.2398 10.83 22.9398 11.04C22.6398 11.24 22.6398 11.58 22.9398 11.8C23.0998 11.92 23.2697 11.9601 23.4697 11.9501H23.4498ZM5.38977 12.6C4.98977 12.6 4.65976 12.5001 4.37976 12.2401C3.86976 11.7501 3.86976 11.09 4.37976 10.6C4.94976 10.06 5.97978 10.1301 6.45978 10.7501C6.90978 11.3201 6.69977 12.1301 6.00977 12.4601C5.79977 12.5601 5.58976 12.61 5.37976 12.6H5.38977ZM5.34973 10.8901C5.10973 10.8901 4.90975 10.9601 4.73975 11.1301C4.56975 11.3101 4.55978 11.5101 4.70978 11.6901C4.99978 12.0501 5.68975 12.0501 5.98975 11.6901C6.13975 11.5101 6.13975 11.3201 5.98975 11.1401C5.81975 10.9401 5.59973 10.8701 5.34973 10.8801V10.8901ZM21.4498 26.8701H7.30975C3.81975 26.8701 0.969727 24.0301 0.969727 20.5301V6.39008C0.969727 2.90008 3.80975 0.0500488 7.30975 0.0500488H21.4498C24.9398 0.0500488 27.7897 2.89008 27.7897 6.39008V20.5301C27.7897 24.0201 24.9498 26.8701 21.4498 26.8701ZM7.15973 0.860046C4.18973 0.860046 1.76978 3.28006 1.76978 6.25006V20.6801C1.76978 23.6501 4.18973 26.0701 7.15973 26.0701H21.5898C24.5598 26.0701 26.9797 23.6501 26.9797 20.6801V6.25006C26.9797 3.28006 24.5598 0.860046 21.5898 0.860046H7.15973Z" fill="white"/>
</svg>
