<svg width="37" height="37" viewBox="0 0 37 37" fill="none" xmlns="http://www.w3.org/2000/svg">
<path fill-rule="evenodd" clip-rule="evenodd" d="M18.4935 36.8854C9.85107 36.8854 5.52987 36.8854 2.84501 34.2006C0.160156 31.5157 0.160156 27.1945 0.160156 18.5521C0.160156 9.90967 0.160156 5.58846 2.84501 2.9036C5.52987 0.21875 9.85107 0.21875 18.4935 0.21875C27.1359 0.21875 31.4571 0.21875 34.142 2.9036C36.8268 5.58846 36.8268 9.90967 36.8268 18.5521C36.8268 27.1945 36.8268 31.5157 34.142 34.2006C31.4571 36.8854 27.1359 36.8854 18.4935 36.8854ZM25.8824 12.9965C26.4194 13.5334 26.4194 14.4041 25.8824 14.941L16.7158 24.1077C16.1788 24.6447 15.3082 24.6447 14.7712 24.1077L11.1046 20.441C10.5676 19.9041 10.5676 19.0334 11.1046 18.4965C11.6415 17.9595 12.5121 17.9595 13.0491 18.4965L15.7435 21.1909L23.9379 12.9965C24.4749 12.4595 25.3455 12.4595 25.8824 12.9965Z" fill="#513117"/>
</svg>
