<svg width="100" height="100" viewBox="0 0 100 100" fill="none" xmlns="http://www.w3.org/2000/svg">
<rect width="100" height="100" rx="50" fill="none"/>
<path d="M62.3281 45.3912C63.6674 37.2853 71.8438 37.9901 73.7469 42.8537C74.9451 42.9946 76.1434 43.4175 77.2712 43.5585C77.0597 45.3207 77.3417 48.2106 75.932 48.1401C74.9452 48.2811 74.2403 48.4926 73.183 48.563C71.7733 50.8186 73.2535 53.6381 73.2535 56.1756C72.901 58.6426 70.575 60.2637 69.3767 62.3078C69.2358 65.1978 69.5177 67.4533 69.3767 70.3433H72.6191" stroke="#523F37" stroke-width="1.12778" stroke-linecap="round" stroke-linejoin="round"/>
<path d="M68.4612 43.5586C69.307 45.8846 68.7431 47.6468 66.7695 48.8451" stroke="#523F37" stroke-width="1.12778" stroke-linecap="round" stroke-linejoin="round"/>
<path d="M55.0675 70.4141C50.6974 70.4846 46.3273 70.4846 41.9571 70.4141C41.1818 61.6033 45.129 57.5856 53.2349 52.9335C52.671 46.8717 54.1512 44.1227 57.8165 41.8672C57.8165 42.7835 57.2526 45.1096 57.2526 46.0964C58.3099 45.7439 59.5787 45.3915 60.1425 45.8849C61.4818 47.0832 61.6932 48.1405 63.5259 48.5634C63.7373 54.0613 61.7637 51.9467 60.8474 53.5679C60.213 55.8939 61.4818 55.8234 60.9884 58.079C60.2835 60.4755 58.8033 60.1936 58.2394 63.0835V70.4141H60.9179" stroke="#523F37" stroke-width="1.12778" stroke-linecap="round" stroke-linejoin="round"/>
<path d="M22.6445 70.626C28.4244 70.5555 45.3411 70.485 51.1209 70.485C57.8171 65.7624 51.2619 59.7711 47.2442 64.5641" stroke="#523F37" stroke-width="1.12778" stroke-linecap="round" stroke-linejoin="round"/>
<path d="M61.623 62.0273C64.1605 62.1683 65.7112 66.327 63.0328 68.5825C63.1737 69.1464 63.1033 69.9923 63.1737 70.4857L66.7685 70.4152" stroke="#523F37" stroke-width="1.12778" stroke-linecap="round" stroke-linejoin="round"/>
<path d="M65.5699 72.0352L78.2574 73.2334L53.0938 81.4098L32.4414 73.4449L41.1817 72.1056" stroke="#523F37" stroke-width="1.12778" stroke-linecap="round" stroke-linejoin="round"/>
<path d="M44.9865 59.2038C44.8925 59.1568 44.7986 59.1333 44.7046 59.1333C44.2112 58.9218 43.9292 58.6399 43.8587 58.1465C43.7883 57.0892 43.7178 55.9614 43.5768 54.9041C42.8014 54.7631 41.8851 54.7631 41.0393 54.6222C39.9115 54.4107 39.4886 53.9173 39.2771 52.7895C39.0657 51.6617 39.3476 50.534 39.841 49.4062C39.9115 50.1815 39.982 50.9569 40.123 51.7322C40.3344 52.9305 40.5459 53.142 41.7442 53.2124C44.7751 53.2124 47.7355 53.142 50.6959 52.5076C51.4008 52.3666 52.1056 52.0847 52.4581 51.5913C52.8105 51.0274 53.0219 50.3225 52.8105 49.7586C52.599 49.1947 51.9647 48.9833 51.1188 49.0538C51.0718 49.0538 51.0013 49.0538 50.9074 49.0538C50.5549 49.1243 50.132 49.0538 49.5681 48.9833C48.3699 48.9128 47.1011 48.6308 45.9028 48.3489C45.4094 48.2079 45.198 47.8555 45.198 47.2211C45.198 45.3885 45.1275 43.4854 45.057 41.6527C44.9865 40.384 44.7751 39.1152 43.6473 38.2694C43.2244 37.9169 43.2244 37.494 43.5768 37.0711C43.9292 36.7187 44.3521 36.7892 44.7046 37.0711C45.1275 37.4235 45.5504 37.8465 45.9733 38.1284C46.4667 38.4808 46.8896 38.4808 47.2421 37.9169C47.3126 37.776 47.4535 37.5645 47.5945 37.5645C48.3699 37.5645 48.3699 37.0006 48.4403 36.5072C48.7693 36.6482 49.0982 36.7657 49.4271 36.8596C49.7796 35.8024 49.7796 35.8024 50.7664 35.9433C51.0483 36.0138 51.5417 35.9433 51.4712 35.4499C51.1893 34.1107 51.7532 33.3354 53.0219 32.8419C54.3612 32.419 55.207 31.4322 55.7004 30.093C55.7709 30.0225 55.8414 29.8815 55.8414 29.811C55.8884 29.858 55.9354 29.905 55.9824 29.952C56.5463 29.811 57.1806 29.5996 57.8855 29.3881C57.1806 29.0357 56.6872 28.7537 56.1938 28.4013C56.5463 28.1898 56.7577 28.0489 57.0397 27.9079C56.0528 27.2031 55.7004 26.2867 55.489 25.2999C55.207 23.8197 54.5022 22.551 53.2334 21.6347C52.3171 20.9298 51.2598 20.4364 50.132 20.2249C49.9206 20.1544 49.7091 19.943 49.3567 19.7315C48.9337 19.5905 48.2994 19.4496 47.7355 19.3086C47.7825 19.4026 47.853 19.5671 47.9469 19.802C43.3653 19.4496 39.7001 23.7492 39.0657 27.344C39.2067 27.2735 39.4181 27.203 39.7001 27.1326C39.1362 29.1062 39.5591 30.7274 40.5459 32.3485C40.9688 32.9124 40.8983 33.5468 40.4049 34.0402C39.982 34.5101 39.5591 34.9565 39.1362 35.3795C38.9952 35.4499 38.7837 35.5909 38.6428 35.6614C37.1626 35.7319 36.0348 36.6482 34.9775 37.5645C32.158 40.102 30.3254 43.2739 29.0566 46.7277C27.5059 50.8159 26.7306 55.1156 26.1667 59.4152C26.0257 60.2611 25.9553 61.1774 25.8848 62.0232C26.0962 62.0232 26.3077 62.0232 26.4487 62.0232C27.5764 61.9527 27.5764 61.9527 27.9289 63.01C28.4223 64.7722 29.4091 65.9 31.3122 66.2524C31.5237 66.2524 31.7351 66.3229 32.0171 66.3934C31.1712 67.0277 30.3254 67.0277 29.4796 67.0982C28.3518 67.2392 27.365 67.4506 26.7306 68.5784C26.6601 68.7194 26.3782 68.8604 26.3077 69.0013C26.1667 69.2833 26.0257 69.5652 25.8848 69.8472C26.1667 69.9882 26.3782 70.5521 26.5896 70.6225C28.6337 70.693 30.6778 70.552 32.6514 70.552C33.2858 70.552 33.9202 70.552 34.4841 70.552C39.2067 70.552 43.8587 70.4816 48.5813 70.4816C49.3332 70.4816 50.085 70.4816 50.8369 70.4816C50.9309 70.4816 51.0248 70.4816 51.1188 70.4816C51.4947 70.4816 51.8942 70.4816 52.3171 70.4816C52.599 70.4816 52.8575 70.4816 53.0924 70.4816H53.1629C53.1629 70.4816 53.1864 70.4581 53.2334 70.4111" stroke="#523F37" stroke-width="1.12778" stroke-linecap="round" stroke-linejoin="round"/>
</svg>
