<svg width="80" height="80" viewBox="0 0 80 80" fill="none" xmlns="http://www.w3.org/2000/svg">
<path d="M63.9193 39.485L40.2124 46.7001C38.0139 47.3692 35.6676 47.3802 33.4629 46.7318L11.8256 40.3679M11.8256 40.3679C10.0601 39.1907 8.88291 36.8361 9.47148 32.7157C9.7628 30.6762 12.4146 28.0067 15.6517 26.8294L39.6746 18.9959C41.6741 18.3439 43.8118 18.2394 45.8653 18.6934L70.6886 24.1806C71.8663 24.7692 72.2268 26.5167 71.8663 27.4181C71.2776 28.8896 69.5117 30.0669 68.334 30.3612M11.8256 40.3679C10.5504 41.4471 8 44.4883 8 48.0201C8 51.5519 8.98099 53.8083 9.47148 54.495L32.0345 63.6689C34.7496 64.7729 37.7788 64.8243 40.5298 63.8133L70.6886 52.7291C71.8663 52.1405 72.1111 50.0776 71.8663 48.6087C71.5719 46.8428 69.3152 45.8618 68.334 45.3713M68.334 30.3612L38.6083 38.602M68.334 30.3612C69.4657 31.9164 71.5719 34.4816 71.5719 38.3077C71.5719 41.5452 69.4133 44.0959 68.334 45.3713M68.334 45.3713L39.4917 54.7893" stroke="#513117" stroke-width="2" stroke-linecap="round" stroke-linejoin="round"/>
</svg>
