<svg width="40" height="40" viewBox="0 0 40 40" fill="none" xmlns="http://www.w3.org/2000/svg">
<path d="M35.8059 11.768C35.3871 10.5321 34.5597 9.68431 33.3341 9.2349C32.8642 9.06126 32.3843 9 31.8838 9C23.917 9 15.9502 9 7.98342 9C6.4207 9 5.24606 9.74561 4.48002 11.104C4.22467 11.5432 4.09195 12.0233 4.03067 12.534C4.03067 12.5646 4.01021 12.585 4 12.6157V26.3941C4.0715 26.6903 4.10221 26.9967 4.20435 27.2827C4.67419 28.5799 5.5628 29.4481 6.89059 29.8464C7.30936 29.969 7.73835 30.0098 8.17754 30.0098C16.1341 30.0098 24.0805 30.0098 32.037 30.0098C33.0482 30.0098 33.9368 29.6523 34.6824 28.968C35.3871 28.3348 35.7957 27.5483 35.9591 26.6291C35.9795 26.5372 35.9898 26.4554 36 26.3635V12.6566C35.9387 12.3604 35.8978 12.054 35.7956 11.768H35.8059ZM31.9961 28.0079C28.9422 28.0079 25.8985 28.0079 22.8446 28.0079C17.9011 28.0079 12.9576 28.0079 8.00387 28.0079C6.93141 28.0079 6.05306 27.1704 6.00199 26.1082C6.00199 26.0571 6.04281 25.9753 6.08366 25.9447C7.06419 25.1991 8.05494 24.4637 9.03547 23.7283C10.3326 22.758 11.6297 21.7775 12.9269 20.797C13.1924 20.6029 13.458 20.4088 13.7134 20.2045C13.7849 20.1433 13.836 20.1535 13.9075 20.2045C14.9595 20.991 16.0013 21.7877 17.0533 22.5639C17.5129 22.9112 17.9623 23.2892 18.4526 23.5752C19.5761 24.2288 20.7098 24.1675 21.7516 23.4117C23.1816 22.3699 24.5809 21.2974 26.0006 20.2352C26.0415 20.2046 26.0926 20.1739 26.1436 20.1433C26.7871 20.6335 27.4306 21.1136 28.0741 21.5937C29.2895 22.5027 30.5049 23.4117 31.7203 24.331C32.4353 24.8723 33.1503 25.4034 33.8652 25.9549C33.9163 25.9958 33.9572 26.0877 33.947 26.1592C33.8755 27.2112 33.0175 28.0284 31.945 28.0284L31.9961 28.0079ZM6.01209 24.7395V14.2703C8.34085 16.0169 10.6595 17.7532 12.9882 19.4998C10.6595 21.2463 8.34085 22.9827 6.01209 24.7293V24.7395ZM27.0016 19.51C29.3303 17.7634 31.6488 16.0271 33.9776 14.2805V24.7497C31.6488 23.0031 29.3303 21.2668 27.0016 19.5202V19.51ZM33.8754 13.106C32.4864 14.1478 31.0871 15.1896 29.698 16.2314C28.1864 17.3651 26.6849 18.4988 25.1835 19.6223C23.8659 20.6029 22.5585 21.5936 21.2409 22.5742C20.4953 23.1359 19.5659 23.1564 18.81 22.6048C17.901 21.9409 17.0022 21.2566 16.1034 20.5824C14.7245 19.5508 13.3355 18.5091 11.9566 17.4672C10.0364 16.0271 8.12641 14.587 6.196 13.157C5.88958 12.9323 6.01216 12.6872 6.08366 12.4523C6.33901 11.5637 7.10508 11.0019 8.03454 11.0019C11.497 11.0019 14.9697 11.0019 18.4321 11.0019H20.0358C24.0192 11.0019 28.0127 11.0019 31.9961 11.0019C33.0379 11.0019 33.8959 11.7884 33.9878 12.82C33.998 12.9425 33.9674 13.0243 33.8652 13.0958L33.8754 13.106Z" fill="#513117"/>
</svg>
