<svg width="80" height="80" viewBox="0 0 80 80" fill="none" xmlns="http://www.w3.org/2000/svg">
<path d="M25.9942 68.988C25.798 67.0495 26.3633 65.2724 27.1941 63.5762C27.6326 62.6877 27.5058 62.1569 26.5596 61.6953C25.498 61.1876 24.5518 60.0799 23.5017 59.9991C22.3363 59.9068 21.7709 61.4761 20.8132 62.1454C19.267 63.2185 17.4554 63.784 15.7591 64.5456C14.9514 64.9033 14.8706 64.3609 15.136 63.7724C16.163 61.5223 16.7976 59.0299 18.8977 57.426C19.9593 56.6182 19.9477 55.9258 19.2438 54.7488C15.1359 47.9293 14.8129 40.8675 18.7361 33.9211C22.6363 27.0323 28.8327 23.7552 36.7022 23.5936C38.4792 23.559 40.1985 23.9168 41.8832 24.413C42.864 24.7015 43.3372 24.413 43.7065 23.5014C44.6642 21.0782 45.6681 18.6781 46.695 16.278C47.0066 15.551 46.9258 14.9049 46.6719 14.1548C45.7834 11.5816 46.8565 9.21621 49.2335 8.29309C51.4259 7.43921 53.9184 8.51231 54.8877 10.7162C55.8569 12.9433 54.9454 15.4356 52.5914 16.5549C51.6914 16.9818 51.1722 17.5473 50.8145 18.4473C49.8452 20.9282 48.7951 23.3745 47.8027 25.8438C47.595 26.34 47.2259 26.8822 47.9067 27.3438C48.5529 27.7938 48.9567 27.3669 49.3606 26.9515C51.3222 24.9783 53.2492 22.9821 55.2454 21.0551C55.9493 20.3743 55.8917 19.555 55.9955 18.7127C56.2263 16.8087 57.5994 15.2049 59.2841 14.7664C61.0957 14.3049 62.9996 14.9626 64.1304 16.4626C65.2035 17.8935 65.2959 19.8436 64.3382 21.4244C63.4727 22.8553 62.1572 23.5706 60.5071 23.5245C59.7456 23.5014 59.2148 23.7206 58.7071 24.2399C56.7917 26.1784 54.8877 28.1285 52.9261 29.9978C52.1761 30.7132 52.2799 31.2325 52.8107 32.0171C61.7996 45.1831 54.53 61.7993 38.7678 64.1186C37.0831 64.3725 35.3637 64.3839 33.6906 64.0262C32.6405 63.7954 31.8906 64.0032 31.6021 65.1225C30.9444 67.6726 29.0289 69.3342 27.3673 71.1805C27.0788 71.5036 26.8018 72.0574 26.3056 71.8843C25.7633 71.6997 26.0288 71.0996 25.9942 70.6842C25.9596 70.1188 25.9942 69.5534 25.9942 68.988ZM51.103 52.3026C52.7992 49.1871 52.8338 49.0601 51.6453 46.2446C49.3837 40.8675 46.0489 36.2865 41.5602 32.5594C39.8179 31.1171 39.8524 31.1055 41.214 29.3862C41.5256 28.9939 42.4026 28.6017 41.8372 28.0478C41.2487 27.4824 40.314 27.217 39.4832 27.7247C39.1139 27.9555 38.86 28.3708 38.5831 28.7286C32.6636 36.3674 30.4366 45.0562 31.3481 54.5874C31.5097 56.2721 31.9714 57.9221 32.3175 59.5837C32.5714 60.7953 33.5636 61.1415 34.5329 60.8992C35.7214 60.5992 34.8907 59.63 34.7407 59.0645C33.4368 54.1605 33.2176 49.2333 34.1868 44.26C34.2907 43.7292 34.2329 42.9676 34.8098 42.7945C35.4329 42.6099 35.7446 43.3369 36.0908 43.7408C39.5986 47.8717 42.0218 52.5565 43.2564 57.8529C43.3603 58.3145 43.268 59.2145 44.1219 59.0068C44.8604 58.8337 45.6796 58.476 45.668 57.4606C45.668 57.0683 45.5296 56.6875 45.4373 56.3067C44.0526 50.9411 41.4909 46.1986 37.8908 41.9984C35.3291 39.0098 35.3522 38.9867 37.1754 35.4673C37.36 35.1211 37.5792 34.7864 37.7523 34.4287C38.237 33.4364 38.8139 33.4825 39.6101 34.1287C41.2371 35.4557 42.7372 36.9212 44.0988 38.5251C47.4451 42.483 49.6952 47.0063 51.0914 52.2796L51.103 52.3026ZM31.8213 27.5862C29.9404 28.2209 28.3365 28.4286 27.4826 29.894C23.4671 36.8405 21.7478 44.3523 22.1632 52.3603C22.267 54.345 23.5478 55.5105 25.1864 56.7221C23.4671 46.1178 25.5787 36.5866 31.8213 27.5862Z" fill="#513117"/>
</svg>
