<svg width="27" height="26" viewBox="0 0 27 26" fill="none" xmlns="http://www.w3.org/2000/svg">
<path id="Vector" d="M20.78 0.25H6.72998C3.53998 0.25 0.939941 2.83998 0.939941 6.03998V20.09C0.939941 23.28 3.53998 25.88 6.72998 25.88H20.78C23.97 25.88 26.5699 23.29 26.5699 20.09V6.03998C26.5699 2.84998 23.98 0.25 20.78 0.25ZM22.65 23.24C22.11 23.26 21.61 22.88 21.42 22.7C21.5 20.1 22.67 15.66 22.97 14.55H23.61C23.45 15.67 22.92 19.64 22.65 23.24ZM3.92004 14.55H4.56006C4.86006 15.66 6.01999 20.1 6.10999 22.7C5.90999 22.88 5.42 23.26 4.87 23.24C4.61 19.64 4.07004 15.67 3.92004 14.55ZM1.71997 12.94H4.98999C4.98999 12.94 5.02002 12.96 5.02002 12.97V13.82C5.02002 13.82 4.99999 13.85 4.98999 13.85H1.71997V12.93V12.94ZM4.75 12.23C4.75 12.23 4.71995 12.24 4.69995 12.25H3.98999C6.61999 10.79 8.49997 8.45999 9.46997 5.42999C10.08 3.49999 10.17 1.82002 10.16 1.02002H13.36C13.21 2.99002 12.16 10.39 4.75 12.23ZM18.0601 5.44C19.0201 8.47 20.91 10.8 23.54 12.26H22.83C22.83 12.26 22.8 12.24 22.78 12.24C15.37 10.4 14.32 3.00003 14.17 1.03003H17.37C17.37 1.83003 17.4599 3.52 18.0699 5.44H18.0601ZM22.52 13.86C22.52 13.86 22.49 13.84 22.49 13.83V12.98C22.49 12.98 22.5 12.95 22.52 12.95H25.79V13.87H22.52V13.86ZM25.79 6.01001V12.26H25.13C25.13 12.26 25.11 12.24 25.1 12.24C18.61 9.55999 18.12 2.82003 18.11 1.03003H20.8101C23.5601 1.03003 25.79 3.27001 25.79 6.01001ZM6.70996 1.02002H9.41003C9.41003 2.81002 8.93004 9.54998 2.42004 12.23C2.41004 12.23 2.40001 12.24 2.39001 12.25H1.72998V6C1.72998 3.25 3.95996 1.02002 6.70996 1.02002ZM1.71997 20.11V14.54H3.16003C3.31003 15.59 3.96994 20.45 4.18994 24.38C2.71994 23.52 1.71997 21.93 1.71997 20.11ZM6.70996 25.1C6.09996 25.1 5.50997 24.97 4.96997 24.77C4.95997 24.5 4.95005 24.23 4.93005 23.96C5.96005 23.96 6.75003 23.1 6.78003 23.06C6.84003 23 6.87 22.91 6.87 22.83C6.83 20.22 5.67995 15.79 5.31995 14.49C5.59995 14.38 5.79004 14.13 5.79004 13.83V12.98C5.79004 12.87 5.75996 12.77 5.70996 12.67C9.08996 11.61 11.61 9.26998 13.01 5.84998C13.36 4.98998 13.61 4.14997 13.77 3.40997C13.94 4.14997 14.18 4.97998 14.53 5.84998C15.93 9.27998 18.45 11.61 21.83 12.67C21.78 12.77 21.75 12.87 21.75 12.98V13.83C21.75 14.12 21.95 14.37 22.22 14.49C21.87 15.79 20.71 20.21 20.67 22.83C20.67 22.91 20.69 22.99 20.76 23.06C20.8 23.1 21.58 23.95 22.61 23.96C22.59 24.23 22.5801 24.51 22.5601 24.77C22.0201 24.97 21.4299 25.1 20.8199 25.1H6.70996ZM23.33 24.39C23.55 20.46 24.21 15.6 24.36 14.55H25.8V20.12C25.8 21.95 24.8 23.53 23.33 24.39Z" fill="white"/>
</svg>
