<svg width="80" height="80" viewBox="0 0 80 80" fill="none" xmlns="http://www.w3.org/2000/svg">
<path d="M9.18913 47.3727C9.18913 50.7028 9.90695 57.5024 10.4142 61.737C10.5557 62.9185 10.339 64.1079 9.87903 65.2052C8.8014 67.7759 7.7889 71.2173 9.18913 71.9952C10.5511 72.7518 13.3852 71.878 15.4385 70.9998C16.4204 70.5798 17.4735 70.3342 18.5404 70.3826C22.2691 70.5515 28.5397 70.7882 32.8456 70.7882C37.1495 70.7882 43.8893 70.0787 47.9565 69.572C49.1243 69.4265 50.3018 69.6279 51.3994 70.0524C53.8043 70.9827 57.1465 71.858 58.6748 70.7882C60.1657 69.7445 58.683 66.8111 57.1149 64.5652C56.3024 63.4016 55.7766 62.045 55.7853 60.6259C55.8137 55.9874 55.9327 48.8774 56.2608 45.9246C56.6471 42.4486 56.0999 34.9813 55.778 31.6821C56.6632 29.2682 58.192 24.054 57.2264 22.5091C56.2608 20.9641 51.3525 23.7965 49.019 25.4058C45.3981 24.7621 37.3356 23.4747 34.0526 23.4747C30.7697 23.4747 20.9369 24.1184 16.4309 24.4403C14.3388 23.4747 9.81675 21.9298 8.46495 23.4747C7.40045 24.6913 8.36172 27.7839 9.36849 30.0651C9.84231 31.1387 10.0984 32.3026 10.0013 33.4721C9.66335 37.5416 9.18913 44.0576 9.18913 47.3727Z" stroke="#513117" stroke-width="2"/>
<path d="M28.0023 24L28.0008 17.3962C28.0003 15.2892 26.7339 13.3081 25.9214 11.3639C25.6178 10.6374 25.5133 9.87559 25.8468 9.23103C26.8806 7.23274 30.6455 8.16858 33.3855 8.96377C33.9848 9.13768 34.6117 9.17144 35.2274 9.07C39.1413 8.42513 46.5713 7.55477 51.1928 8.26563C54.3936 8.75797 58.2877 9.66905 61.3991 10.4734C64.0709 11.1641 66.7908 9.92575 69.5242 9.54549C70.3244 9.43417 71.038 9.64684 71.4698 10.4385C72.2116 11.7981 71.6739 13.8899 70.8954 15.6627C70.1707 17.3131 69.8587 19.1597 70.2818 20.9119C70.8682 23.3399 71.4698 26.5175 71.4698 29.0258C71.4698 32.0138 70.6161 38.4062 69.9514 42.8061C69.6978 44.485 70.2 46.169 71.0082 47.6624C71.8943 49.2998 72.4797 51.1897 71.4698 52.1996C70.3664 53.303 67.9659 52.666 66.0098 51.8014C64.6657 51.2074 63.188 50.8964 61.7422 51.1593L56.0206 52.1996" stroke="#513117" stroke-width="2"/>
</svg>
