<svg width="28" height="28" viewBox="0 0 28 28" fill="none" xmlns="http://www.w3.org/2000/svg">
<path d="M17.4987 14.8737C17.9819 14.8737 18.3737 14.4819 18.3737 13.9987C18.3737 13.5155 17.9819 13.1237 17.4987 13.1237H10.4987C10.0154 13.1237 9.6237 13.5155 9.6237 13.9987C9.6237 14.4819 10.0154 14.8737 10.4987 14.8737H17.4987Z" fill="#6C6159"/>
<path fill-rule="evenodd" clip-rule="evenodd" d="M13.9987 1.45703C7.07213 1.45703 1.45703 7.07213 1.45703 13.9987C1.45703 20.9253 7.07213 26.5404 13.9987 26.5404C20.9253 26.5404 26.5404 20.9253 26.5404 13.9987C26.5404 7.07213 20.9253 1.45703 13.9987 1.45703ZM3.20703 13.9987C3.20703 8.03863 8.03863 3.20703 13.9987 3.20703C19.9588 3.20703 24.7904 8.03863 24.7904 13.9987C24.7904 19.9588 19.9588 24.7904 13.9987 24.7904C8.03863 24.7904 3.20703 19.9588 3.20703 13.9987Z" fill="#6C6159"/>
</svg>
