<svg width="80" height="80" viewBox="0 0 80 80" fill="none" xmlns="http://www.w3.org/2000/svg">
<path d="M32.0662 65.04C30.2062 65.04 28.3362 65.04 26.4762 65.03C23.9062 65.02 22.7962 64.04 22.6262 61.65C22.2462 56.17 21.9562 50.5901 21.6662 45.1901L21.5762 43.42C21.3162 38.51 21.0862 33.47 20.8562 28.02C20.8362 27.58 20.7862 26.25 19.2762 26.25H18.9862C18.6362 26.25 18.3862 26.18 18.2362 26.02C18.0562 25.83 17.9762 25.48 18.0062 24.98C18.0262 24.62 18.0262 24.25 18.0162 23.89C18.0162 23.66 18.0162 23.4201 18.0162 23.1901C18.0662 20.3201 19.0262 19.3501 21.8262 19.3301C23.3662 19.3301 24.9062 19.3101 26.4462 19.3101C27.8562 19.3101 29.2762 19.3101 30.6862 19.3301C31.9662 19.3301 32.4962 18.83 32.5962 17.6C32.7762 15.34 34.1262 14.07 36.3962 14.03C37.5562 14.01 38.7262 14 39.8862 14C41.0462 14 42.2862 14.01 43.4762 14.03C45.8662 14.07 47.1462 15.25 47.2862 17.53C47.3862 19.11 48.2762 19.3301 49.2262 19.3301C50.5462 19.3101 51.7762 19.3101 52.9962 19.3101H57.6662C61.0862 19.3301 61.8762 20.13 61.8762 23.63V24.04C61.8762 24.32 61.8662 24.61 61.8762 24.89C61.9062 25.44 61.8262 25.8 61.6362 26C61.4762 26.16 61.2262 26.24 60.8662 26.24C59.3162 26.24 59.0862 27.2801 59.0462 28.1801C58.6962 36.3301 58.3162 44.47 57.9262 52.62L57.8462 54.48C57.7462 56.77 57.6461 59.1401 57.3961 61.4501C57.1061 64.0701 56.0262 65.01 53.2662 65.01C51.4962 65.01 49.7162 65.01 47.9462 65.01H32.0562L32.0662 65.04ZM46.6362 63.42C48.7262 63.42 50.8162 63.4201 52.9162 63.4501C54.2762 63.4501 55.7362 63.16 55.7562 60.89C55.7562 59.85 55.8462 58.79 55.9162 57.76C55.9562 57.16 56.0062 56.5501 56.0362 55.9501L56.4462 48.04C56.7762 41.65 57.0962 35.25 57.4662 28.86C57.5262 27.85 57.3762 27.22 56.9762 26.8C56.5962 26.4 56.0062 26.2101 55.0962 26.2101H54.9462C52.7962 26.2601 50.6462 26.27 48.4962 26.27C47.1062 26.27 40.0362 26.25 40.0362 26.25C38.6262 26.25 32.9662 26.27 31.5562 26.27C29.2962 26.27 27.0362 26.2601 24.7762 26.2201C23.8062 26.2201 23.2462 26.4 22.8862 26.79C22.5162 27.19 22.3762 27.7701 22.4462 28.6801C22.6962 32.1501 22.8762 35.69 23.0562 39.1L23.2862 43.4601C23.5962 49.2701 23.9062 55.08 24.1662 60.89C24.2462 62.65 25.0362 63.4401 26.7362 63.4401C28.3862 63.4201 29.9562 63.41 31.5262 63.41H38.4162H46.6362V63.42ZM49.2462 24.66C52.2162 24.66 55.1761 24.66 58.1461 24.67C58.8361 24.67 59.4762 24.6301 59.8862 24.2101C60.1862 23.9001 60.3162 23.4501 60.3062 22.8101C60.2562 20.9601 58.9562 20.9601 58.0062 20.9601H40.4962C34.3462 20.9601 22.0362 20.9601 22.0362 20.9601C21.2562 20.9601 20.5462 21.0001 20.0862 21.4701C19.7562 21.8001 19.6062 22.3 19.6162 23C19.6462 24.49 20.5262 24.6801 21.2962 24.6801H21.9362L49.2462 24.67V24.66ZM36.1562 19.3201C36.6762 19.3201 37.1962 19.3301 37.7062 19.3301H42.2262C42.7462 19.3301 44.1462 19.3301 44.1462 19.3301C44.5962 19.3301 45.6362 19.33 45.6962 18.02C45.7562 16.73 45.1462 15.87 44.1162 15.77C42.7262 15.64 41.3162 15.5701 39.9262 15.5701C38.5362 15.5701 37.1162 15.64 35.7362 15.77C34.7262 15.87 34.1462 16.7501 34.2162 18.0701C34.2862 19.3301 35.2862 19.3301 35.6562 19.3301H36.0862H36.1462L36.1562 19.3201ZM47.8462 59.0601C47.2962 59.0301 47.1262 58.7001 47.1362 57.6801C47.1362 57.2201 47.1362 56.7701 47.1362 56.3101V56.03L47.2062 55.74L47.4162 51.0801C47.6962 44.9001 47.9762 38.71 48.2662 32.53C48.2862 32.13 48.3662 31.72 48.4462 31.37C48.5762 30.76 48.9362 30.6901 49.1962 30.6901C49.6662 30.6901 49.9162 30.96 49.9562 31.48C49.9862 31.91 49.9562 32.3501 49.9162 32.8201C49.8962 33.0601 49.8762 33.3 49.8662 33.55L49.5962 39.91C49.4262 43.87 49.2562 47.84 49.0762 51.8C49.0062 53.44 48.9062 55.0801 48.8062 56.7201L48.7362 57.8201C48.6662 58.9201 48.2862 59.0701 47.9262 59.0701H47.8462V59.0601ZM39.9762 59C39.6962 59 39.3162 58.9 39.1762 58.15C39.0762 57.63 39.0662 57.09 39.0662 56.63C39.0662 50.15 39.0662 33.05 39.0662 33.05V32.91C39.0862 32.71 39.0862 32.5 39.0962 32.28C39.1162 31.19 39.2062 30.75 39.9762 30.75C40.2762 30.75 40.4762 30.8201 40.6062 30.9501C40.8762 31.2301 40.8562 31.86 40.8362 32.41C40.8362 32.57 40.8262 32.73 40.8362 32.88C40.8662 35.79 40.8662 38.7 40.8562 41.61V47.0701C40.8562 50.2001 40.8562 53.3301 40.8562 56.4501C40.8562 57.1501 40.8162 57.68 40.7462 58.16C40.6362 58.9 40.2962 58.99 40.0062 58.99H39.9862L39.9762 59ZM32.0562 58.98C31.5562 58.98 31.2862 58.66 31.2362 58.04C31.0962 56.32 30.9862 54.5301 30.8962 52.5701C30.6862 48.1201 30.4862 43.6701 30.2762 39.2201L29.9462 32.02C29.8962 30.98 30.2062 30.7401 30.7262 30.7001H30.7462C31.1562 30.7001 31.4862 30.84 31.5662 31.8C31.7162 33.59 31.8362 35.49 31.9462 37.98C32.1362 42.07 32.3162 46.17 32.4962 50.27L32.7262 55.52H32.7662V56.02C32.7662 56.68 32.7662 57.33 32.7662 57.99C32.7462 58.82 32.4862 58.99 32.0662 59H32.0462L32.0562 58.98Z" fill="#513117"/>
</svg>
