<svg width="40" height="40" viewBox="0 0 40 40" fill="none" xmlns="http://www.w3.org/2000/svg">
<path fill-rule="evenodd" clip-rule="evenodd" d="M30.1514 4.24794C29.2308 3.73244 28.2507 3.68051 27.2146 3.81C26.2305 3.93299 25.0333 4.24419 23.5944 4.61816L20.2307 5.49234C18.7925 5.86605 17.595 6.17723 16.6787 6.54818C15.7153 6.93822 14.8824 7.46226 14.3421 8.36991C13.7984 9.2833 13.7444 10.2597 13.8799 11.2796C14.0077 12.2412 14.3301 13.4081 14.7142 14.7984L15.6185 18.0715C16.0027 19.4624 16.325 20.6292 16.7098 21.5232C17.1183 22.4725 17.6641 23.2806 18.5901 23.7992C19.5107 24.3147 20.4908 24.3666 21.5269 24.2371C22.511 24.1141 23.7083 23.803 25.1471 23.429L28.5109 22.5548C29.9491 22.1811 31.1466 21.8699 32.0628 21.4989C33.0262 21.1089 33.8592 20.5849 34.3995 19.6772C34.9432 18.7638 34.9972 17.7874 34.8617 16.7675C34.7339 15.8059 34.4115 14.639 34.0273 13.2488L33.1231 9.9756C32.7389 8.58467 32.4166 7.41794 32.0318 6.5239C31.6232 5.57462 31.0774 4.76649 30.1514 4.24794ZM24.1416 7.059C25.6832 6.65838 26.7218 6.39105 27.5247 6.2907C28.294 6.19455 28.6623 6.27933 28.93 6.42924C29.1923 6.57612 29.4427 6.83218 29.7354 7.51223C30.0441 8.22947 30.3229 9.22807 30.7367 10.7258L31.594 13.8292C32.0079 15.3273 32.2811 16.3268 32.3834 17.0968C32.4806 17.828 32.3936 18.1593 32.2513 18.3985C32.1055 18.6433 31.8412 18.8916 31.1247 19.1817C30.3784 19.4838 29.3416 19.7559 27.7997 20.1566L24.5999 20.9881C23.0584 21.3888 22.0197 21.6561 21.2169 21.7564C20.4475 21.8526 20.0793 21.7678 19.8116 21.6179C19.5493 21.471 19.2988 21.215 19.0061 20.5349C18.6974 19.8177 18.4187 18.8191 18.0049 17.3213L17.1475 14.2179C16.7336 12.7198 16.4604 11.7203 16.3581 10.9504C16.261 10.2191 16.3479 9.88782 16.4903 9.64868C16.6361 9.40379 16.9004 9.15556 17.6169 8.86546C18.3631 8.56334 19.4 8.29127 20.9418 7.89056L24.1416 7.059Z" fill="#757868"/>
<path fill-rule="evenodd" clip-rule="evenodd" d="M5.3345 7.87449C4.66928 7.68993 3.98038 8.07958 3.79582 8.74481C3.61125 9.41003 4.0009 10.0989 4.66613 10.2835L7.50563 11.0713C8.21496 11.2681 8.7432 11.8039 8.92365 12.4571L12.1758 24.229C12.0509 24.2536 11.926 24.282 11.8013 24.3144C8.50625 25.1708 6.49272 28.4854 7.39727 31.7596C8.29746 35.018 11.7202 36.8973 15.0023 36.0444C17.8745 35.2979 19.7729 32.6837 19.6139 29.8565L33.6481 26.2093C34.3162 26.0356 34.7171 25.3532 34.5435 24.6851C34.3698 24.0169 33.6874 23.616 33.0192 23.7897L18.9557 27.4445C18.1084 25.7989 16.5524 24.6545 14.7781 24.2603L11.3334 11.7914C10.9115 10.2643 9.70214 9.08628 8.174 8.6623L5.3345 7.87449ZM12.4301 26.734C14.4497 26.2092 16.4762 27.3814 16.9966 29.2649C17.5126 31.1327 16.3799 33.1033 14.3735 33.6247C12.3539 34.1496 10.3274 32.9774 9.807 31.0939C9.29099 29.2261 10.4237 27.2555 12.4301 26.734Z" fill="#757868"/>
</svg>
