<svg width="29" height="30" viewBox="0 0 29 30" fill="none" xmlns="http://www.w3.org/2000/svg">
<path id="Vector" d="M28.8801 14.7302V15.3803C28.7501 15.8303 28.4 16.1202 28.08 16.4402C24.06 20.4602 20.05 24.4702 16.03 28.4902C15.74 28.7802 15.4501 29.0802 15.0401 29.1902H14.4201C14.0001 29.0702 13.7101 28.7802 13.4201 28.4802C9.30006 24.3502 5.17006 20.2302 1.04006 16.1002C0.400059 15.4602 0.400059 14.6202 1.04006 13.9802C5.25006 9.77023 9.45005 5.57023 13.6601 1.36023C14.3201 0.700234 15.14 0.700234 15.8 1.36023C19.9 5.46023 24 9.57029 28.11 13.6703C28.42 13.9803 28.7601 14.2802 28.8801 14.7302ZM11.9 15.0702H17.56V18.5403C19.2 16.9003 20.8401 15.2603 22.4501 13.6503C20.8301 12.0303 19.1801 10.3802 17.5401 8.74024C17.5401 8.77024 17.5401 8.83026 17.5401 8.89026C17.5401 9.92026 17.5401 10.9502 17.5401 11.9802C17.5401 12.2502 17.54 12.2002 17.31 12.2002C15.06 12.2002 12.8 12.2002 10.55 12.2002C9.67004 12.2002 9.04006 12.8002 9.04006 13.6902C9.04006 15.5102 9.04006 17.3403 9.04006 19.1603C9.04006 19.2903 9.08006 19.3202 9.20006 19.3202C10.0401 19.3202 10.8801 19.3202 11.7201 19.3202C11.8701 19.3202 11.9 19.2703 11.9 19.1303C11.9 17.8403 11.9 16.5402 11.9 15.2502C11.9 15.1902 11.9 15.1303 11.9 15.0603V15.0702Z" fill="#513117"/>
</svg>
