<svg width="35" height="44" viewBox="0 0 35 44" fill="none" xmlns="http://www.w3.org/2000/svg">
<path id="Vector" d="M33.8501 12.17H24.1101V7.50004C24.1101 7.50004 24.1101 7.47006 24.1101 7.46006C24.1101 7.39006 24.0901 7.33005 24.0701 7.26005C24.0501 7.20005 24.0401 7.13005 24.0101 7.07005C24.0101 7.06005 24.0101 7.04007 24.0001 7.03007C23.9801 6.99007 23.9402 6.96002 23.9102 6.92002C23.8702 6.86002 23.8302 6.81005 23.7802 6.76005C23.7302 6.72005 23.6801 6.69001 23.6301 6.66001C23.5701 6.63001 23.5201 6.59005 23.4601 6.57005C23.4001 6.55005 23.3301 6.54007 23.2601 6.53007C23.2101 6.53007 23.1701 6.50004 23.1201 6.50004H13.3801V1.78007C13.3801 1.43007 13.2001 1.10002 12.8901 0.920024C12.5901 0.740024 12.2102 0.730055 11.9102 0.890055L1.17017 6.61003C1.17017 6.61003 1.10007 6.67005 1.07007 6.70005C1.01007 6.74005 0.950156 6.78006 0.910156 6.83006C0.870156 6.88006 0.840171 6.93003 0.800171 6.99003C0.770171 7.04003 0.730083 7.10001 0.710083 7.16001C0.690083 7.23001 0.680166 7.30004 0.670166 7.37004C0.670166 7.41004 0.640137 7.45004 0.640137 7.50004V36.3901C0.640137 36.9401 1.09014 37.3901 1.64014 37.3901H11.3801V42.06C11.3801 42.61 11.8301 43.06 12.3801 43.06H33.8701C34.4201 43.06 34.8701 42.61 34.8701 42.06V13.17C34.8701 12.62 34.4201 12.17 33.8701 12.17H33.8501ZM22.1101 12.17H16.4102L22.1101 9.16001V12.17ZM11.3601 6.50004H5.62012L11.3601 3.44004V6.50004ZM2.62012 35.38V8.49003H19.0701L11.9001 12.2701C11.9001 12.2701 11.8302 12.33 11.7902 12.36C11.7302 12.4 11.6801 12.44 11.6301 12.49C11.5901 12.54 11.5601 12.5901 11.5201 12.6501C11.4901 12.7001 11.4502 12.76 11.4302 12.82C11.4102 12.89 11.4001 12.9601 11.3901 13.0301C11.3901 13.0801 11.3601 13.12 11.3601 13.16V35.38H2.62012ZM32.8501 41.05H13.3601V14.16H32.8501V41.05Z" fill="#513117"/>
</svg>
