<svg width="120" height="120" viewBox="0 0 120 120" fill="none" xmlns="http://www.w3.org/2000/svg">
<g id="Water consumption">
<path id="Vector" d="M60.2216 107.491C59.3475 107.491 58.4656 107.467 57.5993 107.421C33.7636 106.086 14.7669 87.8775 12.4255 64.1278C12.4099 63.9249 12.3631 63.7609 12.2928 63.5112C12.2538 63.3785 12.207 63.1988 12.1445 62.9647L11.6294 60.9043L8.80413 65.1344C7.56318 66.9998 6.38466 68.7559 5.20615 70.512C4.52714 71.5188 4.02764 71.628 3.70764 71.628C3.50472 71.628 3.28618 71.5812 3.04424 71.4798C2.50571 71.2612 2.17011 70.9569 2.05304 70.5667C1.90475 70.0828 2.06865 69.4349 2.52913 68.7325C5.18273 64.674 8.06268 60.3503 11.3329 55.5113C12.1602 54.2938 12.6831 52.9748 12.9797 51.367C17.2723 28.5538 37.065 12 60.0265 12C70.001 12 79.6476 15.1842 87.9284 21.2094C99.4248 29.5761 106.004 41.0959 107.487 55.4488C107.51 55.6596 107.565 55.8313 107.635 56.0654C107.674 56.1981 107.729 56.362 107.791 56.5883L108.346 58.5707L111.116 54.4107C112.225 52.7405 113.278 51.1562 114.34 49.5797C115.097 48.4636 115.807 47.8939 116.447 47.8939C116.751 47.8939 117.087 48.0188 117.454 48.2685C117.75 48.4715 117.914 48.7134 117.977 49.0412C118.109 49.7904 117.641 50.7582 117.493 50.9611C114.784 54.5357 112.326 58.3522 109.953 62.0516C109.196 63.2379 108.431 64.4165 107.667 65.595C107.112 66.4379 106.988 67.4292 106.855 68.3969C106.808 68.7638 106.761 69.1227 106.683 69.4661C101.946 91.4988 82.4027 107.498 60.2216 107.498V107.491ZM15.5942 60.8496C15.5942 65.4544 16.2967 69.6143 17.8264 73.9226C24.4136 92.5368 40.6318 104.104 60.1436 104.104C62.4148 104.104 64.7406 103.947 67.0508 103.627C84.8065 101.208 100.915 85.4737 103.733 67.796C104.037 65.9072 103.592 64.557 102.266 63.3004C98.8394 60.0615 95.538 56.7133 92.4864 53.5758C91.8542 52.928 91.5888 52.163 91.7683 51.523C91.901 51.0469 92.2834 50.7035 92.8376 50.5553C92.9859 50.5162 93.1342 50.4928 93.2668 50.4928C93.7898 50.4928 94.2971 50.7893 94.9605 51.4762C96.6541 53.2322 98.3477 54.9884 100.158 56.8615L104.022 60.8575L104.186 58.7737C104.451 55.441 103.959 52.8967 103.436 50.5709C98.7301 29.7947 80.951 15.2858 60.206 15.2858C53.1506 15.2858 46.259 16.9482 39.7186 20.2262C27.2545 26.4778 19.3483 36.9751 16.203 51.4295C15.7659 53.4275 16.2576 54.9493 17.7796 56.3697C20.0039 58.4458 22.1892 60.6467 24.2965 62.7852C25.2799 63.7842 26.2633 64.7754 27.2545 65.7588C28.831 67.3276 28.1208 68.069 27.7384 68.4671C27.3638 68.8573 27.0125 69.0524 26.6613 69.0524C26.1852 69.0524 25.5765 68.6935 24.9209 68.0145C23.2194 66.2741 21.5102 64.5413 19.6449 62.6526L15.5864 58.5317V60.834L15.5942 60.8496ZM60.5807 92.092C52.9242 92.092 46.0795 88.5721 41.7947 82.4298C37.8377 76.748 36.8153 69.7158 39.0552 63.6125C42.3098 54.7854 46.8756 46.7465 51.3243 39.3788C53.5642 35.6716 55.9759 32.0738 58.3173 28.5928C58.8402 27.8202 59.4568 27.3753 60.0109 27.3753C60.6353 27.3753 61.127 27.906 61.4236 28.3587C68.2995 38.6063 75.355 49.7826 80.3188 62.0672C82.8944 68.4437 82.4729 75.1557 79.1247 80.9702C75.7296 86.855 69.8136 90.929 63.2889 91.8578C62.4772 91.9749 61.6343 92.0295 61.0724 92.0607C60.8928 92.0763 60.5807 92.092 60.5807 92.092ZM59.1368 33.1429C58.5436 34.0872 57.9583 34.9926 57.3885 35.8823C56.171 37.7789 55.0315 39.574 53.9232 41.4081L53.4706 42.1652C49.1077 49.408 44.5966 56.8927 42.0132 65.1969C40.3118 70.6602 41.3186 76.4825 44.7761 81.181C48.3507 86.0433 54.0169 88.9388 59.9329 88.9388C60.9397 88.9388 61.9621 88.8531 62.9611 88.6892C68.5649 87.7683 73.7784 84.0141 76.5647 78.8864C78.5081 75.3197 80.1315 69.4973 76.8769 62.0438C73.0526 53.2869 68.2215 44.6392 60.7133 33.1429L59.9095 31.9099L59.1212 33.1507L59.1368 33.1429ZM61.447 80.4865C61.5172 79.9401 61.4314 79.5108 61.1972 79.222C60.9007 78.8552 60.3855 78.7303 60.0031 78.6913C54.7818 78.1762 51.8472 75.2728 51.2852 70.0671C51.1291 68.6622 50.4033 68.4827 49.7867 68.4827C49.7087 68.4827 49.6306 68.4827 49.5448 68.4905C48.8033 68.5529 48.1165 68.8339 48.0775 70.4651C48.0229 73.1499 49.256 75.9752 51.4647 78.2308C53.7203 80.541 56.6159 81.8679 59.4021 81.8757C61.0411 81.8757 61.3533 81.2045 61.447 80.4865Z" fill="#513117"/>
</g>
</svg>
