<svg width="80" height="80" viewBox="0 0 80 80" fill="none" xmlns="http://www.w3.org/2000/svg">
<path d="M66.7497 50.0701C68.3043 49.5519 71.4136 48.2564 71.4136 43.5924C71.4136 40.3103 67.8725 37.9784 65.9723 37.9784H18.9872C15.2733 37.9784 7.5 41.7959 7.5 49.4655C7.5 57.1352 14.5823 62.3346 18.9872 62.3346H65.9723C67.8149 61.9316 71.5 60.1754 71.5 56.3751C71.5 52.5748 68.3331 50.5883 66.7497 50.0701ZM66.7497 50.0701H21.5783M8.76397 44.4508L16.556 24.7284C17.7626 21.6745 20.7128 19.668 23.9964 19.668H55.6978C58.849 19.668 61.7066 21.5178 62.9967 24.3928L70 40" stroke="#513117" stroke-width="2" stroke-linecap="round" stroke-linejoin="round"/>
</svg>
