<svg width="100" height="100" viewBox="0 0 100 100" fill="none" xmlns="http://www.w3.org/2000/svg">
<rect width="100" height="100" rx="50" fill="none"/>
<path d="M28 69.5484V58.8339C28 57.6043 29.0539 56.5505 30.342 56.5505C31.6301 56.5505 32.6254 57.6043 32.6254 58.8339V64.6303C32.6254 64.8059 32.801 64.8645 32.8596 64.7474L41.9933 55.7893C42.7544 55.0282 43.9839 55.0282 44.7451 55.7308C45.5648 56.4919 45.6233 57.78 44.8622 58.5997L38.3632 65.2743" stroke="#523F37" stroke-width="1.2" stroke-miterlimit="10" stroke-linecap="round"/>
<path d="M42.8719 60.5901L46.8532 56.6088C47.6144 55.8476 48.7854 55.7891 49.605 56.5502C50.3662 57.3114 50.4247 58.5409 49.6636 59.3606L41.3496 67.7917" stroke="#523F37" stroke-width="1.2" stroke-miterlimit="10" stroke-linecap="round"/>
<path d="M42.6365 72.2396L51.0676 63.75C51.8288 62.9889 51.8288 61.7593 51.1262 60.9396C50.3065 60.0614 48.9599 60.0614 48.1402 60.8811L42.4023 66.736" stroke="#523F37" stroke-width="1.2" stroke-miterlimit="10" stroke-linecap="round"/>
<path d="M43.1055 77.804L51.1853 69.3729C52.0049 68.4947 51.8879 67.2066 51.0096 66.4454C50.2485 65.7429 49.0189 65.8014 48.3163 66.5626L44.1594 70.661" stroke="#523F37" stroke-width="1.2" stroke-miterlimit="10" stroke-linecap="round"/>
<path d="M61.5477 36.293H61.6648C61.6648 39.923 64.5923 42.8505 68.2224 42.8505V42.9676C64.5923 42.9676 61.6648 45.895 61.6648 49.5251H61.5477C61.5477 45.895 58.6203 42.9676 54.9902 42.9676V42.8505C58.6203 42.8505 61.5477 39.923 61.5477 36.293Z" stroke="#523F37" stroke-width="1.2" stroke-linecap="round" stroke-linejoin="round"/>
<path d="M28 52.2187V21.3047H71.3264V77.8047H48.1995" stroke="#523F37" stroke-width="1.2" stroke-linecap="round" stroke-linejoin="round"/>
</svg>
