<svg width="44" height="44" viewBox="0 0 44 44" fill="none" xmlns="http://www.w3.org/2000/svg">
<path d="M42.9 21.9204C42.9 33.5035 33.5035 42.9 21.9796 42.9C10.3965 42.9 1 33.5035 1 21.9204C1 10.3965 10.3965 1 21.9796 1C33.5035 1 42.9 10.3965 42.9 21.9204Z" stroke="#231F20" stroke-miterlimit="10"/>
<path d="M29.6626 22.2148L29.6035 22.2739C29.6429 22.2345 29.6626 22.2148 29.6626 22.2148Z" fill="#231F20"/>
<path d="M29.6626 22.2148L29.6035 22.2739C29.6429 22.2345 29.6626 22.2148 29.6626 22.2148Z" fill="#231F20"/>
<path fill-rule="evenodd" clip-rule="evenodd" d="M21.8617 37.168C21.2708 37.168 20.7192 37.0892 20.207 36.9316C17.6658 36.2816 15.5383 33.9177 14.7701 31.0219C14.7701 30.9628 13.5881 25.6441 12.2289 24.1075C11.7561 23.5166 11.0469 23.0438 10.3969 22.571C8.86033 21.4481 7.79658 20.5026 8.50575 19.3206C8.91943 18.6706 9.74679 18.2569 10.8696 18.2569C12.7608 18.316 15.1838 19.3797 15.952 20.6208L16.0702 20.7981C16.9567 22.2755 18.0204 23.9302 18.9069 24.0484C18.9463 24.0484 18.966 24.0484 18.966 24.0484C19.163 24.0484 19.3403 23.9696 19.4979 23.812L30.3127 12.9381C30.7263 12.5835 31.1991 12.4062 31.731 12.4062C32.2629 12.4062 32.7357 12.5835 33.0902 12.9381C33.5039 13.3518 33.6812 13.8246 33.6812 14.3565C33.6812 14.8883 33.5039 15.3611 33.0902 15.7157L29.7808 19.0843L30.1945 19.2615C30.4309 19.3797 30.6475 19.5176 30.8445 19.6752C31.3764 20.2071 31.5537 20.9754 31.3173 21.6845L31.1991 21.98L31.5537 22.0982C31.8492 22.1573 32.2038 22.3346 32.4402 22.571C32.972 23.1029 33.1493 23.8711 32.9129 24.5803L32.7948 24.8758L33.0902 24.9349C33.4448 25.0531 33.7403 25.2304 34.0358 25.4668C34.3904 25.8213 34.5677 26.3532 34.5677 26.826C34.5677 27.3579 34.3904 27.8898 34.0358 28.2443L28.3625 33.9177C26.1759 36.0452 23.9893 37.168 21.8617 37.168ZM10.8105 19.0252C10.3969 19.0252 9.5695 19.1433 9.15582 19.7343C8.74214 20.3844 9.5695 20.9754 10.8696 21.9209C11.5788 22.4528 12.288 22.9256 12.8199 23.5756C14.2382 25.2304 15.4201 30.2536 15.5383 30.8446C16.2475 33.504 18.1386 35.5724 20.3843 36.1634C20.8571 36.321 21.3299 36.3998 21.8026 36.3998C23.7529 36.3998 25.8213 35.336 27.8306 33.3858L33.4448 27.7125C33.6812 27.4761 33.7994 27.1806 33.7994 26.826C33.7994 26.5305 33.6812 26.235 33.4448 25.9986C33.2675 25.7622 32.972 25.644 32.6175 25.644C32.322 25.644 32.0265 25.7622 31.7901 25.9986L30.6081 27.1806C30.5293 27.2594 30.4309 27.2988 30.3127 27.2988C30.2339 27.2988 30.1551 27.2594 30.0763 27.1806C29.899 27.0624 29.899 26.7669 30.0763 26.6487L31.9083 24.8167C32.322 24.3439 32.322 23.5756 31.9083 23.1029C31.6719 22.9256 31.3764 22.7483 31.0218 22.7483C30.7263 22.7483 30.4309 22.9256 30.1945 23.1029L29.0125 24.2848C28.9337 24.3636 28.8549 24.403 28.7761 24.403C28.6579 24.403 28.5594 24.3636 28.4806 24.2848C28.3034 24.1666 28.3034 23.9302 28.4806 23.7529L30.3127 21.9209C30.7854 21.4481 30.7854 20.739 30.3127 20.2662C30.0763 20.0298 29.7808 19.9116 29.4262 19.9116C29.1307 19.9116 28.8352 20.0298 28.5988 20.2662L27.4169 21.3891C27.3775 21.4678 27.2987 21.5072 27.1805 21.5072C27.0623 21.5072 26.9638 21.4678 26.885 21.3891C26.7668 21.2709 26.7668 21.0345 26.885 20.8572L32.5584 15.1838C32.7947 14.9474 32.9129 14.652 32.9129 14.3565C32.9129 14.0019 32.7947 13.7064 32.5584 13.5291C32.322 13.2927 32.0265 13.1745 31.731 13.1745C31.3764 13.1745 31.0809 13.2927 30.9036 13.5291L20.0888 24.3439C19.7342 24.6591 19.36 24.8167 18.966 24.8167C18.9266 24.8167 18.8872 24.8167 18.8478 24.8167C17.4885 24.6394 16.2475 22.6301 15.361 21.1527L15.3019 21.0345C14.711 20.148 12.7017 19.0843 10.8696 19.0252H10.8105Z" fill="#231F20"/>
<path d="M21.3902 12.7623C21.1539 12.7623 20.9766 12.585 20.9766 12.3486V7.14806C20.9766 6.91167 21.1539 6.73438 21.3902 6.73438C21.5675 6.73438 21.7448 6.91167 21.7448 7.14806V12.3486C21.7448 12.585 21.5675 12.7623 21.3902 12.7623Z" fill="#231F20"/>
<path d="M17.5489 12.7018C17.4307 12.7018 17.3322 12.6821 17.2534 12.6427L13.5303 8.91961C13.4515 8.84081 13.4121 8.74231 13.4121 8.62412C13.4121 8.54532 13.4515 8.46653 13.5303 8.38773C13.6091 8.30894 13.7076 8.26953 13.8258 8.26953C13.944 8.26953 14.0425 8.30894 14.1213 8.38773L17.7853 12.0518C17.8641 12.1306 17.9035 12.229 17.9035 12.3472C17.9035 12.4654 17.8641 12.5639 17.7853 12.6427C17.7065 12.6821 17.6277 12.7018 17.5489 12.7018Z" fill="#231F20"/>
<path d="M25.1715 12.7609C25.0533 12.7609 24.9548 12.7215 24.876 12.6427C24.7972 12.5639 24.7578 12.4654 24.7578 12.3472C24.7578 12.2684 24.7972 12.1897 24.876 12.1109L28.5991 8.38773C28.6779 8.30894 28.7567 8.26953 28.8355 8.26953C28.9537 8.26953 29.0522 8.30894 29.131 8.38773C29.2098 8.46653 29.2492 8.56503 29.2492 8.68322C29.2492 8.76202 29.2098 8.84081 29.131 8.91961L25.4079 12.6427C25.3291 12.7215 25.2503 12.7609 25.1715 12.7609Z" fill="#231F20"/>
</svg>
