<svg width="24" height="25" viewBox="0 0 24 25" fill="none" xmlns="http://www.w3.org/2000/svg">
<path d="M14.3601 4.32866L15.2869 3.40178C16.8226 1.86607 19.3125 1.86607 20.8482 3.40178C22.3839 4.93748 22.3839 7.42735 20.8482 8.96306L19.9213 9.88993M14.3601 4.32866C14.3601 4.32866 14.4759 6.29828 16.2138 8.03618C17.9517 9.77407 19.9213 9.88993 19.9213 9.88993M14.3601 4.32866L5.83882 12.8499C5.26166 13.4271 4.97308 13.7156 4.7249 14.0338C4.43213 14.4092 4.18114 14.8153 3.97634 15.245C3.80273 15.6093 3.67368 15.9965 3.41556 16.7708L2.32181 20.0521M19.9213 9.88993L11.4001 18.4112C10.8229 18.9883 10.5344 19.2769 10.2162 19.5251C9.84082 19.8179 9.43469 20.0689 9.00498 20.2737C8.6407 20.4473 8.25352 20.5763 7.47918 20.8344L4.19792 21.9282M4.19792 21.9282L3.39584 22.1956C3.01478 22.3226 2.59466 22.2234 2.31063 21.9394C2.0266 21.6553 1.92743 21.2352 2.05445 20.8542L2.32181 20.0521M4.19792 21.9282L2.32181 20.0521" stroke="#513117" stroke-width="1.5"/>
</svg>
