<svg width="120" height="120" viewBox="0 0 120 120" fill="none" xmlns="http://www.w3.org/2000/svg">
<g id="reenergy">
<g id="Group">
<g id="Group_2">
<path id="Vector" d="M70.5542 16.8744C70.7269 17.0904 70.9774 17.2028 71.2365 17.2028C71.4266 17.2028 71.6079 17.1423 71.772 17.0214L73.1885 15.9159C73.3699 15.7777 73.4821 15.5705 73.5167 15.3373C73.5512 15.1041 73.4821 14.8795 73.3352 14.6981L69.9841 10.4227C91.628 14.793 108.461 33.4313 110.387 55.559C110.465 56.4745 111.216 57.1655 112.141 57.1655C112.192 57.1655 112.236 57.1655 112.287 57.1655C112.762 57.1223 113.186 56.9064 113.488 56.5437C113.79 56.1809 113.937 55.7232 113.894 55.2568C112.857 43.3725 107.762 31.9717 99.5308 23.1448C91.8181 14.8793 81.6439 9.18767 70.6924 6.97664L75.0281 4.06613C75.2181 3.93657 75.3476 3.73781 75.3908 3.51325C75.434 3.28869 75.3909 3.0555 75.2613 2.86549L74.2594 1.37997C74.0953 1.1295 73.8189 1 73.5425 1C73.3784 1 73.2057 1.04312 73.0589 1.14676L64.1285 7.15798C63.9298 7.29617 63.7916 7.5036 63.757 7.73679C63.7225 7.96999 63.783 8.21183 63.9298 8.40184L70.5715 16.8744H70.5542Z" fill="#513117"/>
<path id="Vector_2" d="M55.4051 6.1042C55.3533 6.1042 55.3102 6.1042 55.2584 6.1042C43.3655 7.14063 31.9648 12.2365 23.1466 20.4674C14.8812 28.1888 9.18951 38.3542 6.97848 49.3058L4.06788 44.9701C3.93832 44.78 3.73967 44.6506 3.51511 44.6074C3.46329 44.5987 3.40288 44.5901 3.35106 44.5901C3.17832 44.5901 3.01417 44.6418 2.86735 44.7368L1.38184 45.7389C0.984543 46.0066 0.880884 46.542 1.14863 46.9393L7.15982 55.8699C7.29801 56.0685 7.50533 56.2067 7.73853 56.2412C7.78171 56.2412 7.82493 56.2498 7.87675 56.2498C8.06676 56.2498 8.25676 56.1894 8.41223 56.0685L16.8849 49.4268C17.2563 49.1332 17.3254 48.5889 17.0318 48.2175L15.9262 46.8012C15.788 46.6198 15.5808 46.5074 15.3476 46.4729C15.3131 46.4729 15.2784 46.4729 15.2439 46.4729C15.0539 46.4729 14.8639 46.5335 14.7084 46.6544L10.4332 50.0054C14.8034 28.3615 33.4417 11.5282 55.5606 9.60217C56.027 9.55899 56.4502 9.34309 56.7525 8.98035C57.0548 8.6176 57.2016 8.15985 57.1584 7.69346C57.0807 6.77796 56.3206 6.08691 55.4051 6.08691V6.1042Z" fill="#513117"/>
<path id="Vector_3" d="M49.4457 103.122C49.2729 102.906 49.0224 102.794 48.7633 102.794C48.5733 102.794 48.392 102.854 48.2279 102.975L46.8114 104.081C46.63 104.219 46.5178 104.426 46.4832 104.659C46.4487 104.893 46.5177 105.117 46.6645 105.299L50.0156 109.574C28.3718 105.204 11.5387 86.5652 9.61265 64.4462C9.53492 63.5307 8.78349 62.8398 7.85935 62.8398C7.80753 62.8398 7.7643 62.8398 7.71248 62.8398C7.23746 62.883 6.81424 63.0989 6.51195 63.4617C6.20966 63.8244 6.06286 64.2822 6.10605 64.7486C7.14247 76.6329 12.2382 88.0335 20.4777 96.8603C28.1991 105.126 38.3646 110.817 49.3161 113.028L44.9804 115.939C44.7904 116.069 44.6608 116.267 44.6176 116.492C44.5744 116.716 44.6176 116.95 44.7472 117.14L45.7491 118.625C45.9132 118.876 46.1895 119.005 46.4659 119.005C46.63 119.005 46.8028 118.953 46.9496 118.858L55.8801 112.847C56.0787 112.709 56.217 112.502 56.2515 112.269C56.2861 112.035 56.2255 111.794 56.0787 111.604L49.437 103.131L49.4457 103.122Z" fill="#513117"/>
<path id="Vector_4" d="M118.851 73.04L112.84 64.1097C112.702 63.911 112.494 63.7727 112.261 63.7381C112.218 63.7381 112.175 63.7295 112.123 63.7295C111.933 63.7295 111.743 63.7901 111.588 63.911L103.115 70.5527C102.744 70.8464 102.674 71.3904 102.968 71.7618L104.074 73.1784C104.212 73.3597 104.419 73.4719 104.652 73.5065C104.687 73.5065 104.721 73.5065 104.756 73.5065C104.946 73.5065 105.136 73.446 105.291 73.3251L109.567 69.9741C105.196 91.6181 86.5581 108.451 64.4392 110.377C63.9728 110.42 63.5496 110.636 63.2473 110.999C62.945 111.362 62.7982 111.82 62.8414 112.286C62.9191 113.202 63.6705 113.892 64.5946 113.892C64.6464 113.892 64.6896 113.892 64.7415 113.892C76.6344 112.856 88.035 107.76 96.8532 99.5294C105.119 91.8167 110.81 81.6424 113.021 70.6908L115.932 75.0266C116.061 75.2166 116.26 75.3461 116.485 75.3892C116.537 75.3979 116.597 75.4065 116.649 75.4065C116.821 75.4065 116.986 75.3548 117.132 75.2598L118.618 74.258C119.015 73.9902 119.119 73.4546 118.851 73.0573V73.04Z" fill="#513117"/>
</g>
<path id="Vector_5" d="M53.2456 24.2158H74.8463C76.1418 24.2158 77.0314 25.5115 76.5737 26.7206L65.8122 55.0409H81.8681C83.3622 55.0409 84.2346 56.725 83.3795 57.9428L57.3309 95.0899C56.1822 96.7223 53.6256 95.6255 54.0143 93.6736L59.4037 66.502H45.602C44.4361 66.502 43.5638 65.4397 43.7883 64.2996L51.4405 25.7015C51.6133 24.8379 52.3733 24.2158 53.2543 24.2158H53.2456Z" fill="#513117"/>
</g>
</g>
</svg>
