<svg width="51" height="48" viewBox="0 0 51 48" fill="none" xmlns="http://www.w3.org/2000/svg">
<path d="M6.41235 33.5251H5.02303C4.07923 33.5251 3.34589 32.7032 3.45305 31.7655L5.62018 12.8031C5.71139 12.005 6.38686 11.4023 7.19016 11.4023H33.9276C34.8714 11.4023 35.6048 12.2243 35.4976 13.162L33.3305 32.1243C33.2392 32.9224 32.5638 33.5251 31.7605 33.5251H15.8935" stroke="#757868" stroke-width="1.5"/>
<path d="M34.8535 16.668H39.5369C40.3196 16.668 41.0745 16.9584 41.6553 17.483L46.0626 21.4638C46.8283 22.1554 47.2082 23.1773 47.0802 24.2011L46.3338 30.1719C46.1547 31.6051 44.9363 32.6806 43.4919 32.6806V32.6806" stroke="#757868" stroke-width="1.5"/>
<circle cx="39.5941" cy="33.5218" r="4.74059" stroke="#757868" stroke-width="1.5"/>
<circle cx="11.1527" cy="33.5218" r="4.74059" stroke="#757868" stroke-width="1.5"/>
<path d="M37.2246 22.4648H41.9652" stroke="#757868" stroke-width="1.5" stroke-linecap="round"/>
<path d="M0.769531 18.5312H11.4523" stroke="#757868" stroke-width="1.5" stroke-linecap="round"/>
<path d="M0.769531 21.7734H11.4523" stroke="#757868" stroke-width="1.5" stroke-linecap="round"/>
<g clip-path="url(#clip0_1653_4283)">
<path d="M17.8471 21.5387L19.777 18.9276C21.0244 17.2398 21.6482 16.3959 22.2301 16.5742C22.812 16.7526 22.812 17.7876 22.812 19.8577V20.0529C22.812 20.7995 22.812 21.1728 23.0506 21.407L23.0632 21.4191C23.3069 21.6483 23.6955 21.6483 24.4726 21.6483C25.871 21.6483 26.5702 21.6483 26.8065 22.0725C26.8104 22.0795 26.8142 22.0866 26.8179 22.0937C27.041 22.5244 26.6361 23.0721 25.8265 24.1676L23.8966 26.7786C22.6491 28.4664 22.0254 29.3103 21.4434 29.132C20.8615 28.9537 20.8615 27.9186 20.8615 25.8485L20.8615 25.6534C20.8615 24.9068 20.8616 24.5334 20.623 24.2993L20.6104 24.2871C20.3666 24.0579 19.9781 24.0579 19.201 24.0579C17.8026 24.0579 17.1034 24.0579 16.8671 23.6338C16.8632 23.6268 16.8594 23.6197 16.8557 23.6126C16.6326 23.1819 17.0374 22.6342 17.8471 21.5387Z" stroke="#757868" stroke-width="1.5"/>
</g>
<defs>
<clipPath id="clip0_1653_4283">
<rect width="15.1256" height="15.1256" fill="white" transform="translate(14.2754 15.2891)"/>
</clipPath>
</defs>
</svg>
