<svg width="29" height="29" viewBox="0 0 29 29" fill="none" xmlns="http://www.w3.org/2000/svg">
<path id="Vector" d="M0.690423 14.5096C0.690423 11.9296 0.670423 9.35965 0.690423 6.77965C0.730423 2.91965 2.92049 0.730078 6.76049 0.720078C11.9805 0.700078 17.2005 0.700078 22.4205 0.720078C25.9405 0.730078 28.1505 2.84996 28.2905 6.34996C28.5105 11.91 28.5005 17.4599 28.2905 23.0199C28.1805 25.8599 26.0404 28.1196 23.2004 28.2796C21.2704 28.3896 19.3405 28.3099 17.4005 28.3299C16.8505 28.3299 16.5904 28.0999 16.5904 27.5399C16.5904 24.7599 16.5904 21.9801 16.5904 19.2001C16.5904 18.5601 16.9405 18.43 17.5005 18.41C19.8905 18.31 19.8904 18.2901 20.2004 15.9901C20.3804 14.6601 20.3805 14.6698 19.0305 14.6498C16.2605 14.6198 16.5704 15.0397 16.5904 12.1297C16.5904 10.4997 17.4404 9.73979 19.0704 9.66979C19.5704 9.64979 20.3405 9.97971 20.5205 9.33971C20.7605 8.50971 20.7405 7.5901 20.5005 6.7401C20.4005 6.3901 19.9605 6.36973 19.6205 6.35973C18.7105 6.33973 17.7905 6.27994 16.8805 6.32994C14.4405 6.45994 12.7405 8.18977 12.6005 10.6498C12.5505 11.5598 12.5204 12.48 12.5704 13.39C12.6304 14.38 12.2005 14.7598 11.2505 14.6498C11.2205 14.6498 11.1805 14.6498 11.1505 14.6498C10.4605 14.7298 9.4205 14.3097 9.1405 14.8797C8.6705 15.8297 8.95051 16.9999 9.03051 18.0799C9.06051 18.4499 9.40053 18.41 9.67053 18.41C10.3105 18.41 10.9605 18.45 11.6005 18.41C12.3105 18.37 12.5605 18.69 12.5605 19.37C12.5505 22.05 12.5405 24.7298 12.5605 27.3998C12.5605 28.1098 12.2504 28.3399 11.5704 28.3299C9.84043 28.2999 8.11049 28.3299 6.38049 28.3099C3.10049 28.2499 0.770433 25.96 0.700433 22.64C0.640433 19.93 0.690423 17.2199 0.690423 14.4999V14.5096Z" fill="#513117"/>
</svg>
