<svg width="38" height="37" viewBox="0 0 38 37" fill="none" xmlns="http://www.w3.org/2000/svg">
<path fill-rule="evenodd" clip-rule="evenodd" d="M4.66277 10.5312C2.55654 8.37092 0.990367 5.72462 0.0722656 2.75429V2.43027C0.180278 2.26825 0.342299 2.16024 0.396305 2.16024C0.504317 2.16024 0.612329 2.26825 0.666335 2.37626C0.774346 2.53828 0.936363 3.07834 1.04437 3.51039C1.15239 3.88843 1.2604 4.21246 1.36841 4.42848C2.1785 6.4267 3.36663 8.26291 4.82479 9.72107L4.9328 9.82908L5.09482 9.88309H5.14883C5.31085 9.88309 5.47286 9.77508 6.01292 9.39704L6.06693 9.34303C6.17494 9.23501 6.28295 9.18102 6.33696 9.18102C7.20106 8.64095 8.11916 8.37092 9.14527 8.37092C10.2254 8.37092 11.3055 8.64095 12.4396 8.91098C13.3037 9.12701 14.2218 9.39703 15.1399 9.50504C15.68 9.54104 16.202 9.55905 16.7061 9.55905C18.5963 9.55905 20.4325 9.127 22.2147 8.2089C22.3587 8.13689 22.5027 8.06489 22.6468 7.99288C22.8628 7.83086 23.0248 7.72285 23.1868 7.72285C23.2228 7.72285 23.2768 7.74085 23.3488 7.77686C23.4569 7.83086 23.4568 7.99287 23.4568 8.15489C23.4028 8.20889 23.2408 8.47893 21.2966 9.34303C21.1526 9.41503 21.0446 9.46903 20.9726 9.50504L20.7566 9.61306L19.7304 14.7436L20.4325 14.5816C21.6746 14.2576 22.9708 13.8795 24.2129 13.2315L24.3749 13.1775L24.429 13.0154C24.483 12.7994 24.537 12.5294 24.591 12.2053C24.645 11.7733 24.753 11.0172 25.023 11.0172C25.059 11.0172 25.095 11.0172 25.131 11.0172C25.3471 11.0712 25.4011 11.1252 25.3471 11.8813L25.293 12.7454L26.0491 12.2593C27.8853 11.0172 29.3435 9.66707 30.4776 8.10089C30.6396 7.88487 30.8017 7.61483 30.9637 7.3448C31.1257 7.02076 31.4497 6.53472 31.5577 6.42671C31.6658 6.3727 31.7198 6.31869 31.7738 6.31869C31.8818 6.31869 31.9718 6.3727 32.0438 6.48072C32.1158 6.55272 32.1338 6.66072 32.0978 6.80474C32.0438 7.02076 31.3957 7.88486 31.2337 8.15489L31.0717 8.31692C31.0177 8.42493 30.9637 8.47893 30.8557 8.58695V8.64095C30.6396 8.91098 30.5316 8.96498 30.4776 9.073C30.3696 9.28902 30.4776 9.50504 30.5316 9.55905C30.6036 9.70306 30.7477 9.77507 30.9637 9.77507C31.4497 9.88308 31.4497 9.93709 31.4497 10.0991C31.4497 10.2611 31.4497 10.4231 30.9097 10.4231C30.7297 10.4231 30.5676 10.4051 30.4236 10.3691C30.2076 10.3691 30.0096 10.3691 29.8296 10.3691C29.6855 10.3691 29.5595 10.3691 29.4515 10.3691L29.3435 10.4231L29.2355 10.4772C26.8592 12.8534 23.8889 14.4196 20.7566 15.1217L20.0005 15.2837L23.6729 19.1721L23.8889 19.1181C27.2373 18.092 30.4776 15.8778 33.1239 12.9074C35.9322 9.82908 38.0925 5.18457 35.8782 1.62018C35.4462 0.918101 35.1221 0.594052 34.312 0.594052C34.168 0.594052 33.97 0.612058 33.718 0.648062C32.0438 0.81008 30.9097 1.83619 29.7755 2.8083C29.3435 3.18634 28.9655 3.56438 28.5334 3.83441C28.4254 3.90642 28.3174 3.96043 28.2094 3.99644C28.1014 3.99644 27.9934 3.88842 27.9393 3.83441C27.8853 3.61839 27.9933 3.45638 28.0474 3.40237C29.5055 1.67418 32.1518 0 34.312 0C34.5281 0 34.7261 0 34.9061 0C35.6622 0.162018 35.9862 0.54006 36.4723 1.35015C37.5524 3.13235 37.7684 5.13055 37.1203 7.3448C35.7702 11.9893 30.8017 16.6338 26.8052 18.6321C24.2129 19.9282 20.8646 20.6843 17.6242 20.6843C11.7376 20.6843 5.25684 18.092 4.82479 10.8012V10.6392L4.66277 10.5312ZM5.58087 10.5312L5.95892 10.8552C7.41708 12.0973 9.73934 13.7175 12.7097 14.3116L12.9797 14.3656L13.1417 14.2036C13.2137 14.0956 13.3037 13.9515 13.4117 13.7715C13.9518 13.0154 14.1138 12.7994 14.2218 12.7994C14.2218 12.7994 14.2398 12.7994 14.2758 12.7994C14.3838 12.7994 14.4739 12.8174 14.5459 12.8534C14.5999 12.9614 14.5999 13.0694 14.5999 13.1234C14.5999 13.2855 14.4919 13.3935 14.3298 13.6095C14.2218 13.7715 14.0598 13.8795 13.9518 14.0955L13.6818 14.6356L14.3298 14.7436C15.1939 14.8516 16.04 14.9056 16.8681 14.9056C17.5162 14.9056 18.1463 14.8696 18.7583 14.7976L19.0824 14.7436L20.0005 9.88309L19.3524 9.9911C18.4883 10.1531 17.6782 10.2071 16.8141 10.2071C15.896 10.2071 14.9779 10.0991 14.0058 9.93709C13.4657 9.82908 12.9257 9.72106 12.3856 9.55905C11.3055 9.28902 10.1714 9.01899 9.09126 9.01899C7.84912 9.01899 6.82302 9.39704 5.95892 10.2071L5.58087 10.5312ZM5.36485 11.4493L5.58087 12.4214C7.03903 19.5502 15.3019 20.0902 17.7862 20.0902C19.2984 20.0902 20.7566 19.9282 22.1607 19.6582L22.8628 19.4961L19.1904 15.3917L18.9744 15.4457C18.2903 15.5177 17.6062 15.5537 16.9221 15.5537C14.0058 15.5537 11.0895 14.7976 8.4972 13.3935L5.36485 11.4493Z" fill="black"/>
<path fill-rule="evenodd" clip-rule="evenodd" d="M37.3368 25.8683C37.5528 26.7324 37.2287 27.4345 36.3106 28.0826C34.5284 28.7846 32.5842 29.5407 30.208 30.6208C27.6697 31.755 24.9694 32.8891 22.4311 33.6992C21.027 34.1312 20.0008 34.1852 18.7587 34.2392C18.6147 34.2753 18.4887 34.2933 18.3807 34.2933C18.1646 34.2933 17.9486 34.2753 17.7326 34.2392C17.5526 34.2392 17.3365 34.2392 17.0845 34.2392C16.9225 34.2392 16.6525 34.2392 16.4905 34.2392H16.4364C15.6804 34.1852 14.3302 34.1312 13.4121 34.0772L12.44 34.0232C12.44 34.0232 12.116 34.1312 12.062 34.1852C11.8459 34.4013 11.7379 34.6173 11.5759 34.8333C11.5399 34.9053 11.5039 34.9593 11.4679 34.9953C11.4319 35.0673 11.3959 35.1393 11.3599 35.2113C11.2519 35.4274 11.0899 35.6434 10.9818 35.7514C10.4958 36.1835 10.0097 36.1835 9.46968 36.2375H9.25365L8.17353 36.2915C7.20142 36.3455 6.17531 36.3455 5.31121 36.3995H5.2032C4.62714 36.3995 4.05108 36.3995 3.47501 36.3995C2.86295 36.3995 2.32289 36.3815 1.85483 36.3455C0.774714 36.2915 -0.143384 35.8594 0.0186342 34.7793C0.0726402 34.5093 0.0726336 34.2932 0.180645 34.0772C0.432673 33.6092 0.666701 33.1591 0.882725 32.7271C1.42278 31.647 1.96284 30.5128 2.61091 29.4867C4.93317 25.9763 7.20142 24.6262 10.9818 24.5722C11.2519 24.5722 11.5759 24.6262 11.8999 24.6802H12.062C13.0341 24.8422 14.1142 25.1662 14.8703 25.4363C15.0863 25.5083 15.2843 25.5803 15.4643 25.6523C16.2204 25.9763 16.9765 26.2464 17.7866 26.2464C17.9306 26.2464 18.0746 26.2464 18.2186 26.2464L18.2726 26.1924C18.4167 26.1924 18.5427 26.1744 18.6507 26.1384C19.3528 26.0303 20.0008 25.7603 20.7029 25.5983C21.135 25.4363 21.621 25.2742 22.1071 25.1662C22.3951 25.0582 22.6831 24.9682 22.9712 24.8962C23.7813 24.6262 24.5373 24.4102 25.4014 24.4102C26.4816 24.4102 26.9676 25.3283 27.1836 25.9223C27.1836 25.9223 27.2016 25.9403 27.2376 25.9763C27.2376 26.0483 27.2376 26.1023 27.2376 26.1384L27.2916 26.3004L27.4537 26.2464C30.208 25.5443 32.5842 25.0042 34.7445 24.4642C34.9605 24.4102 35.1225 24.4102 35.2845 24.4102C35.2845 24.4102 35.3025 24.4102 35.3385 24.4102C36.4187 24.5182 37.1207 25.0042 37.3368 25.8683ZM36.7427 26.0843C36.6347 25.1662 35.6086 25.1122 35.2845 25.0582C35.2845 25.0582 35.2665 25.0582 35.2305 25.0582C35.1585 25.0582 35.0865 25.0582 35.0145 25.0582C33.6643 25.2743 32.3142 25.6523 31.0181 26.0303C29.8839 26.3544 28.6958 26.7324 27.3997 26.9484C27.3637 26.9484 27.3277 26.9664 27.2916 27.0025C27.2556 27.0025 27.2376 27.0204 27.2376 27.0564C25.6715 28.2986 23.8353 29.1627 21.297 29.8648L20.9189 29.9728C20.2709 30.1528 19.7668 30.2608 19.4068 30.2968C19.2988 30.2968 19.2268 30.2968 19.1908 30.2968C19.1367 30.2968 19.0827 30.2968 19.0287 30.2428C18.9747 30.1888 18.9747 30.1888 19.0287 30.0268C19.0287 29.9188 19.0827 29.9188 19.4068 29.8108C20.0008 29.5947 20.7029 29.3787 21.459 29.1627L21.675 29.0547C22.9712 28.6766 24.1053 28.2446 25.1314 27.7585C25.1854 27.7585 25.2394 27.7045 25.2934 27.7045L25.4014 27.5965C25.8875 27.3805 26.3195 27.1105 26.5356 26.5704C26.6436 26.2464 26.5896 25.9223 26.3735 25.5983C26.1575 25.2203 25.7795 25.0582 25.2934 25.0582H25.2394C25.1314 25.0582 25.0414 25.0582 24.9694 25.0582H24.9154C24.8614 25.1122 24.8074 25.1122 24.8074 25.1122C23.8893 25.2743 22.8632 25.4903 21.729 25.8143L20.9189 26.0843C20.2169 26.2464 19.5688 26.4624 18.8127 26.6784H18.7047C18.5427 26.7324 18.4347 26.7864 18.2726 26.7864C18.1286 26.8224 17.9666 26.8404 17.7866 26.8404C17.0305 26.8404 16.2744 26.5704 15.4643 26.3004C15.2123 26.2284 14.9603 26.1383 14.7083 26.0303C13.1421 25.5443 11.7379 25.2742 10.6578 25.1662C10.4418 25.1122 10.2258 25.1122 10.0097 25.1122C9.90173 25.1122 9.81172 25.1122 9.73971 25.1122C5.52724 25.8683 3.74504 28.7306 1.80082 32.349L1.53079 32.7811C1.27877 33.2491 1.02674 33.7352 0.774714 34.2392C0.612697 34.5093 0.612693 34.8333 0.720705 35.0493C0.774711 35.3194 0.88273 35.4274 1.09875 35.5354C1.15276 35.5894 1.26077 35.5894 1.31477 35.6434C4.06908 35.8054 8.33555 35.6434 9.79371 35.5894C10.2258 35.5354 10.6578 35.3194 10.8738 34.9413C10.9458 34.8333 10.9998 34.7073 11.0358 34.5633C11.0719 34.4913 11.1259 34.4193 11.1979 34.3472C11.2339 34.2752 11.2699 34.2032 11.3059 34.1312C11.4679 33.8072 11.7379 33.3751 12.008 33.3211H12.17C12.764 33.3211 13.3041 33.3752 13.8442 33.4832C14.2042 33.5192 14.5822 33.5372 14.9783 33.5372L15.3023 33.5912C16.1124 33.6452 16.9765 33.6992 17.7866 33.6992C17.9666 33.6992 18.1286 33.6992 18.2726 33.6992C19.2988 33.6452 20.4869 33.5912 21.459 33.3211C24.3753 32.5111 26.9676 31.3769 29.6139 30.1888C31.6121 29.2707 33.7184 28.4066 35.7166 27.6505C36.6887 27.2725 36.8507 26.5704 36.7427 26.0843Z" fill="black"/>
<path d="M6.39106 20.8997C6.46307 20.9357 6.53508 20.9537 6.60709 20.9537C6.7151 20.9537 6.82311 20.8997 6.87712 20.7917C6.93112 20.6837 6.87711 20.5217 6.82311 20.4137C6.7151 20.3057 6.39106 19.9816 6.12103 19.7656C5.851 19.4956 5.63498 19.2795 5.47296 19.1175C4.87889 18.4695 4.28483 17.6054 3.85278 16.8493C3.79877 16.6873 3.63676 16.4172 3.52875 16.0932C3.42074 15.8772 3.15071 15.2831 3.0967 15.2291C3.02469 15.1571 2.95268 15.1211 2.88067 15.1211C2.77266 15.1211 2.68265 15.1571 2.61064 15.2291C2.57464 15.3011 2.55664 15.3911 2.55664 15.4991C2.55664 15.6611 2.82667 16.2012 3.04269 16.6873C3.52874 17.6594 4.44685 18.9555 5.25694 19.8196C5.68899 20.3057 6.28305 20.8457 6.39106 20.8997Z" fill="black"/>
<path d="M3.52872 21.5496C3.38471 21.4416 3.25869 21.3336 3.15067 21.2256C2.61061 20.5775 2.12456 19.8754 1.85453 19.3894C1.78253 19.2454 1.71052 19.1013 1.63851 18.9573C1.47649 18.5793 1.36848 18.3633 1.20646 18.3633C1.20646 18.3633 1.18846 18.3633 1.15245 18.3633C1.08045 18.3993 1.02644 18.4353 0.990435 18.4713C0.936429 18.5793 0.882428 18.7413 0.936434 18.9033C1.09845 19.6594 2.4486 21.5496 3.20468 22.0897C3.3487 22.1977 3.47471 22.2517 3.58272 22.2517C3.65473 22.2517 3.72674 22.2337 3.79875 22.1977C3.83476 22.1257 3.85275 22.0177 3.85275 21.8737C3.79875 21.7657 3.63673 21.6576 3.52872 21.5496Z" fill="black"/>
<path d="M25.78 6.26525C25.888 6.26525 26.0501 6.15724 26.1041 6.04923C26.1581 5.99522 26.1581 5.88721 26.0501 5.7792C25.9781 5.67119 25.906 5.61719 25.834 5.61719C25.672 5.61719 25.564 5.7252 25.51 5.88722C25.438 5.99523 25.456 6.10324 25.564 6.21126C25.636 6.24726 25.708 6.26525 25.78 6.26525Z" fill="black"/>
</svg>
