<svg width="28" height="29" viewBox="0 0 28 29" fill="none" xmlns="http://www.w3.org/2000/svg">
<path fill-rule="evenodd" clip-rule="evenodd" d="M13.9987 25.9154C8.49898 25.9154 5.74912 25.9154 4.04058 24.2068C2.33203 22.4983 2.33203 19.7484 2.33203 14.2487C2.33203 8.74898 2.33203 5.99912 4.04058 4.29058C5.74912 2.58203 8.49898 2.58203 13.9987 2.58203C19.4984 2.58203 22.2483 2.58203 23.9568 4.29058C25.6654 5.99912 25.6654 8.74898 25.6654 14.2487C25.6654 19.7484 25.6654 22.4983 23.9568 24.2068C22.2483 25.9154 19.4984 25.9154 13.9987 25.9154ZM18.7008 10.7133C19.0425 11.055 19.0425 11.609 18.7008 11.9508L12.8674 17.7841C12.5257 18.1258 11.9717 18.1258 11.63 17.7841L9.29665 15.4508C8.95494 15.109 8.95494 14.555 9.29665 14.2133C9.63836 13.8716 10.1924 13.8716 10.5341 14.2133L12.2487 15.9279L17.4633 10.7133C17.805 10.3716 18.359 10.3716 18.7008 10.7133Z" fill="#513117"/>
</svg>
