<svg width="34" height="34" viewBox="0 0 34 34" fill="none" xmlns="http://www.w3.org/2000/svg">
<path fill-rule="evenodd" clip-rule="evenodd" d="M33.6654 16.9987C33.6654 26.2034 26.2034 33.6654 16.9987 33.6654C7.79395 33.6654 0.332031 26.2034 0.332031 16.9987C0.332031 7.79395 7.79395 0.332031 16.9987 0.332031C26.2034 0.332031 33.6654 7.79395 33.6654 16.9987ZM13.6161 11.1161C14.1043 10.628 14.8957 10.628 15.3839 11.1161L20.3839 16.1161C20.872 16.6043 20.872 17.3957 20.3839 17.8839L15.3839 22.8839C14.8957 23.372 14.1043 23.372 13.6161 22.8839C13.128 22.3957 13.128 21.6043 13.6161 21.1161L17.7322 17L13.6161 12.8839C13.128 12.3957 13.128 11.6043 13.6161 11.1161Z" fill="#513117"/>
</svg>
