<svg width="23" height="11" viewBox="0 0 23 11" fill="none" xmlns="http://www.w3.org/2000/svg">
<path d="M0.870117 2.90999H13.4501C13.7601 3.73999 14.5501 4.32999 15.4801 4.32999C16.4101 4.32999 17.2001 3.73999 17.5101 2.90999H21.4601C21.8701 2.90999 22.2101 2.56999 22.2101 2.15999C22.2101 1.74999 21.8701 1.40999 21.4601 1.40999H17.5101C17.2001 0.579988 16.4101 -0.0100098 15.4801 -0.0100098C14.5501 -0.0100098 13.7601 0.579988 13.4501 1.40999H0.870117C0.460117 1.40999 0.120117 1.74999 0.120117 2.15999C0.120117 2.56999 0.460117 2.90999 0.870117 2.90999Z" fill="#513117"/>
<path d="M21.4601 7.72005H8.88011C8.57011 6.89005 7.78011 6.30005 6.85011 6.30005C5.92011 6.30005 5.13011 6.89005 4.82011 7.72005H0.870117C0.460117 7.72005 0.120117 8.06005 0.120117 8.47005C0.120117 8.88005 0.460117 9.22005 0.870117 9.22005H4.82011C5.13011 10.05 5.92011 10.64 6.85011 10.64C7.78011 10.64 8.57011 10.05 8.88011 9.22005H21.4601C21.8701 9.22005 22.2101 8.88005 22.2101 8.47005C22.2101 8.06005 21.8701 7.72005 21.4601 7.72005Z" fill="#513117"/>
</svg>
