<svg width="36" height="36" viewBox="0 0 36 36" fill="none" xmlns="http://www.w3.org/2000/svg">
<path d="M13.7241 20.5516C16.1195 20.5516 18.0614 22.4935 18.0614 24.8889C18.0614 27.2844 16.1195 29.2263 13.7241 29.2263C11.3286 29.2263 9.38672 27.2844 9.38672 24.8889C9.38672 22.4935 11.3286 20.5516 13.7241 20.5516Z" fill="#1C274C"/>
<path d="M20.953 6.09375C18.5575 6.09375 16.6156 8.03565 16.6156 10.4311C16.6156 12.8266 18.5575 14.7684 20.953 14.7684C23.3484 14.7684 25.2903 12.8266 25.2903 10.4311C25.2903 8.03565 23.3484 6.09375 20.953 6.09375Z" fill="#1C274C"/>
<g opacity="0.5">
<path d="M25.1672 11.4577C25.2468 11.1293 25.2889 10.7862 25.2889 10.4334C25.2889 10.0373 25.2358 9.65361 25.1364 9.28906H31.7949C32.3938 9.28906 32.8793 9.77454 32.8793 10.3734C32.8793 10.9723 32.3938 11.4577 31.7949 11.4577L25.1672 11.4577Z" fill="#513117"/>
<path d="M16.7667 9.28906C16.6673 9.65361 16.6142 10.0373 16.6142 10.4334C16.6142 10.7862 16.6563 11.1293 16.7359 11.4577L2.87926 11.4577C2.2804 11.4577 1.79492 10.9723 1.79492 10.3734C1.79492 9.77454 2.2804 9.28906 2.87926 9.28906H16.7667Z" fill="#513117"/>
<path d="M9.53782 23.7469H2.87926C2.2804 23.7469 1.79492 24.2324 1.79492 24.8312C1.79492 25.4301 2.2804 25.9156 2.87926 25.9156H9.50695C9.42743 25.5871 9.38528 25.2441 9.38528 24.8912C9.38528 24.4951 9.43837 24.1114 9.53782 23.7469Z" fill="#513117"/>
<path d="M17.9383 25.9156H31.7949C32.3938 25.9156 32.8793 25.4301 32.8793 24.8312C32.8793 24.2324 32.3938 23.7469 31.7949 23.7469H17.9074C18.0069 24.1114 18.06 24.4951 18.06 24.8912C18.06 25.2441 18.0178 25.5871 17.9383 25.9156Z" fill="#513117"/>
</g>
</svg>
