<svg width="51" height="48" viewBox="0 0 51 48" fill="none" xmlns="http://www.w3.org/2000/svg">
<path d="M6.46418 33.5617H5.08556C4.14903 33.5617 3.42134 32.7461 3.52768 31.8157L5.67811 12.9994C5.76862 12.2074 6.43889 11.6094 7.236 11.6094H33.7675C34.704 11.6094 35.4317 12.425 35.3254 13.3554L33.175 32.1718C33.0844 32.9637 32.4142 33.5617 31.6171 33.5617H15.8723" stroke="#757868" stroke-width="1.5"/>
<path d="M34.6855 16.8359H39.3329C40.1096 16.8359 40.8586 17.1241 41.4349 17.6447L45.8083 21.5948C46.5681 22.2811 46.945 23.2951 46.818 24.3111L46.0775 30.2358C45.8997 31.658 44.6907 32.7253 43.2574 32.7253V32.7253" stroke="#757868" stroke-width="1.5"/>
<circle cx="39.3896" cy="33.5595" r="4.70408" stroke="#757868" stroke-width="1.5"/>
<circle cx="11.1689" cy="33.5595" r="4.70408" stroke="#757868" stroke-width="1.5"/>
<path d="M27.1998 19.936L26.9628 21.32H29.1336L28.9156 22.5428H26.7448L26.4793 24.0311H28.9345L28.707 25.3108H24.6309L25.8063 18.6562H29.8825L29.655 19.936H27.1998Z" fill="#757868"/>
<path d="M22.0709 19.936L21.8339 21.32H24.0047L23.7867 22.5428H21.6159L21.3504 24.0311H23.8056L23.5781 25.3108H19.502L20.6774 18.6562H24.7536L24.5261 19.936H22.0709Z" fill="#757868"/>
<path d="M17.2144 18.6562C17.9032 18.6562 18.4278 18.8142 18.788 19.1302C19.1482 19.4399 19.3283 19.8443 19.3283 20.3436C19.3283 20.4889 19.3157 20.6248 19.2904 20.7512C19.2146 21.1936 19.0218 21.5886 18.7122 21.9361C18.4025 22.2837 17.9886 22.5302 17.4704 22.6755L18.5415 25.3108H16.712L15.7735 22.7988H15.3849L14.9393 25.3108H13.3184L14.4938 18.6562H17.2144ZM17.6315 20.8176C17.6441 20.7164 17.6505 20.6501 17.6505 20.6185C17.6505 20.4163 17.5841 20.2614 17.4514 20.154C17.325 20.0402 17.1354 19.9834 16.8826 19.9834H15.8778L15.5839 21.6518H16.5888C16.8858 21.6518 17.1196 21.5791 17.2902 21.4337C17.4672 21.2884 17.5809 21.083 17.6315 20.8176Z" fill="#757868"/>
<path d="M13.6423 18.6562L13.4148 19.936H10.7037L10.4572 21.3674H12.4858L12.2583 22.5997H10.2297L9.75575 25.3108H8.13477L9.31022 18.6562H13.6423Z" fill="#757868"/>
<path d="M37.0391 22.5859H41.7431" stroke="#757868" stroke-width="1.5" stroke-linecap="round"/>
<path d="M6.46484 8.47266H11.1689" stroke="#757868" stroke-width="1.5" stroke-linecap="round"/>
</svg>
