<svg width="120" height="120" viewBox="0 0 120 120" fill="none" xmlns="http://www.w3.org/2000/svg">
<g id="co2">
<g id="Group">
<path id="Vector" d="M61.6197 97.1529H61.5927C60.5791 97.1529 59.5745 97.1529 58.5609 97.1529V81.5453C58.5609 79.5092 57.1975 78.1367 55.1613 78.1367C52.0577 78.1367 48.9541 78.1367 45.8415 78.1367C43.8233 78.1367 42.4689 79.5002 42.4689 81.5274V91.9146C42.4689 93.6548 42.4689 95.4037 42.4689 97.1439C42.0652 97.1439 41.6526 97.1439 41.2489 97.1439C40.621 97.1439 39.9932 97.1439 39.3653 97.1439H39.3383C37.9928 97.1439 36.9075 97.8347 36.3514 99.0456C35.8222 100.221 36.0195 101.512 36.8985 102.499C38.262 104.042 39.6344 105.585 41.0068 107.128L46.5681 113.397C47.0883 113.99 47.6086 114.581 48.1468 115.156C48.7837 115.828 49.6089 116.196 50.4969 116.196C50.5149 116.196 50.5328 116.196 50.5507 116.196C51.4657 116.178 52.3179 115.774 52.9547 115.048C53.6992 114.205 54.4437 113.362 55.1972 112.518L56.1839 111.406C58.7941 108.473 61.4133 105.531 64.0236 102.598C64.9475 101.557 65.1717 100.275 64.6335 99.0636C64.0953 97.8527 62.992 97.1529 61.6017 97.1529H61.6197ZM53.5198 109.029L52.5331 110.141C51.8604 110.904 51.1876 111.657 50.5059 112.42C50.0843 111.962 49.6807 111.505 49.268 111.038L43.6888 104.759C42.5047 103.423 41.3117 102.095 40.1277 100.75C40.5044 100.75 40.8722 100.75 41.24 100.75C42.0832 100.75 42.9263 100.75 43.7695 100.75C44.4512 100.759 44.9984 100.544 45.42 100.131C45.8416 99.7094 46.0479 99.1621 46.0479 98.4804C46.0389 96.2918 46.0479 94.1122 46.0479 91.9236V81.7247C49.0259 81.7247 51.9949 81.7247 54.964 81.7247V98.346C54.964 99.9336 55.7713 100.741 57.35 100.741H58.4084C59.2247 100.741 60.0409 100.741 60.8841 100.741C58.4264 103.495 55.9686 106.257 53.5198 109.02V109.029Z" fill="#513117"/>
<path id="Vector_2" d="M112.748 48.2038C112.569 45.0733 111.878 41.8982 110.676 38.7677C108.9 34.1302 106.281 30.2462 102.89 27.2323C99.2482 24.0031 95.1131 22.0567 90.6012 21.4647C90.5833 21.4647 90.5653 21.4647 90.5474 21.4647C90.4487 21.2135 90.3142 21.0072 90.1976 20.8099C88.1524 16.9977 85.3807 13.6788 81.9632 10.9609C78.0343 7.84838 73.5494 5.73149 68.6159 4.69098C65.4495 4.01823 62.1217 3.83874 58.7131 4.14372C55.753 4.41281 52.9455 4.9868 50.3621 5.84791C46.1642 7.24722 42.4865 9.33737 39.4278 12.0642C36.8803 14.3426 34.8172 16.9527 33.3103 19.8231C32.0455 22.227 31.1485 24.7655 30.6283 27.3847C29.0854 27.1604 27.5695 27.1874 26.1164 27.4565C21.0663 28.4073 17.3438 31.2239 15.0565 35.8165C14.1774 37.5836 13.702 39.5658 13.6302 41.7276C12.2937 42.0056 10.9572 42.5171 9.63861 43.2437C7.89844 44.2214 6.36457 45.5218 5.09084 47.1095C2.01416 50.9307 0.659716 55.1555 1.07233 59.6584C1.40422 63.3092 2.90221 66.5115 5.51246 69.1576C8.43666 72.1177 11.9977 73.6157 16.1059 73.6157H16.1239C25.3719 73.6067 34.6199 73.6067 43.8679 73.6157H67.7189V80.0203C67.7189 81.007 67.7189 81.9845 67.7189 82.9712H66.1851C65.01 82.9892 64.0771 83.5723 63.6107 84.6038C63.1532 85.6084 63.3236 86.7208 64.0771 87.5729L70.6521 94.9821C71.0109 95.3857 71.3697 95.7894 71.7375 96.1841C72.2757 96.7582 72.9933 97.0721 73.7467 97.0721H73.8006C74.5899 97.0542 75.3165 96.7132 75.8546 96.0943C76.357 95.5202 76.8683 94.9462 77.3795 94.3722L83.3804 87.6268C84.1518 86.7567 84.3492 85.6264 83.8917 84.6038C83.4343 83.5723 82.4565 82.9712 81.2814 82.9622C80.7881 82.9622 80.2948 82.9622 79.7925 82.9622V73.6157H105.159C112.793 73.6157 119 67.4085 119 59.7751C119 55.0839 116.623 50.7335 112.721 48.1861L112.748 48.2038ZM74.7244 91.995C74.4105 92.3538 74.0876 92.7126 73.7736 93.0714C73.6391 92.9189 73.5045 92.7664 73.37 92.6139L67.997 86.5682C68.3917 86.5682 68.7953 86.5682 69.19 86.5682C69.9345 86.5592 70.4458 86.2543 70.7239 85.9852C71.0019 85.7161 71.3248 85.2228 71.3248 84.4514C71.3248 82.9803 71.3248 81.5003 71.3248 80.0293V73.6336C72.9574 73.6336 74.5988 73.6336 76.2403 73.6336V84.3616C76.2403 85.7609 77.0387 86.5682 78.438 86.5682H79.1197C79.2722 86.5682 79.4157 86.5682 79.5682 86.5682L74.7334 91.995H74.7244ZM105.186 70.0456H43.8768C34.6288 70.0367 25.3809 70.0367 16.1239 70.0456H16.1059C12.9485 70.0456 10.3203 68.9333 8.06887 66.655C6.05063 64.6099 4.90248 62.1522 4.64235 59.3446C4.31046 55.7477 5.36895 52.4915 7.88053 49.37C8.86723 48.1411 10.0512 47.1366 11.3878 46.3831C12.6525 45.6745 13.8635 45.2618 15.1013 45.1272C16.4378 44.9747 17.2451 44.0419 17.2003 42.6874C17.1375 40.6871 17.4873 38.965 18.2498 37.4132C20.0348 33.8252 22.8155 31.7261 26.7622 30.9816C27.3542 30.874 27.9463 30.8113 28.5562 30.8113C29.3725 30.8113 30.2157 30.91 31.0857 31.1163C31.5342 31.2239 32.2787 31.3944 33.0142 30.8921C33.7498 30.3897 33.8664 29.6272 33.9382 29.1697C34.3418 26.4967 35.1939 23.9135 36.4766 21.4826C37.7862 18.989 39.5802 16.7196 41.8137 14.7283C44.5047 12.3243 47.7608 10.4764 51.4923 9.23857C53.8156 8.46715 56.345 7.94693 59.036 7.70475C62.0858 7.42668 65.0548 7.59714 67.8714 8.18916C72.2577 9.12203 76.2493 10.9967 79.7297 13.7594C82.7705 16.1723 85.2193 19.1055 87.0312 22.4961C87.076 22.5858 87.1298 22.6756 87.2195 22.8191C87.6501 24.0839 88.6279 24.8194 90.1258 25.0167C93.965 25.519 97.3646 27.1246 100.495 29.9053C103.491 32.5693 105.725 35.8883 107.312 40.0324C108.487 43.109 109.115 46.2127 109.187 49.2624L109.205 50.2939L110.111 50.7962C113.385 52.5992 115.421 56.0437 115.421 59.7751C115.421 65.4262 110.819 70.0277 105.168 70.0277L105.186 70.0456Z" fill="#513117"/>
<path id="Vector_3" d="M43.5451 37.5391C44.4241 37.0189 45.4288 36.7589 46.559 36.7589C47.6175 36.7589 48.5413 36.9829 49.3307 37.4404C50.129 37.8978 50.7569 38.5618 51.2144 39.4498H55.6814C55.0356 37.4854 53.8964 35.9514 52.2639 34.8392C50.6313 33.7269 48.7387 33.1709 46.5769 33.1709C44.7291 33.1709 43.0607 33.5924 41.5717 34.4356C40.0827 35.2787 38.9076 36.4537 38.0465 37.9607C37.1854 39.4676 36.7549 41.1719 36.7549 43.0825C36.7549 44.9931 37.1854 46.6886 38.0465 48.1865C38.9076 49.6845 40.0827 50.8595 41.5717 51.6937C43.0607 52.5369 44.7291 52.9584 46.5769 52.9584C48.7566 52.9584 50.6583 52.4113 52.2818 51.308C53.9054 50.2047 55.0356 48.6708 55.6814 46.6884H51.2144C50.7749 47.5764 50.147 48.2492 49.3397 48.7156C48.5324 49.182 47.6085 49.4063 46.55 49.4063C45.4198 49.4063 44.4152 49.1463 43.5361 48.6171C42.6571 48.0878 41.9753 47.3523 41.482 46.3925C40.9887 45.4417 40.7465 44.3383 40.7465 43.0735C40.7465 41.8087 40.9887 40.7055 41.482 39.7457C41.9753 38.7859 42.6571 38.0414 43.5361 37.5212L43.5451 37.5391Z" fill="#513117"/>
<path id="Vector_4" d="M73.0206 34.4348C71.5136 33.5826 69.8452 33.1611 68.0154 33.1611C66.1855 33.1611 64.535 33.5826 63.0191 34.4348C61.5032 35.2869 60.3012 36.4619 59.4132 37.9779C58.5251 39.4848 58.0767 41.1801 58.0767 43.0727C58.0767 44.9654 58.5251 46.6878 59.4132 48.1947C60.3012 49.7017 61.5032 50.8856 63.0191 51.7378C64.535 52.5899 66.2034 53.0114 68.0154 53.0114C69.8273 53.0114 71.4957 52.5899 73.0116 51.7378C74.5275 50.8856 75.7295 49.7106 76.6086 48.1947C77.4876 46.6878 77.9271 44.9833 77.9271 43.0727C77.9271 41.1621 77.4876 39.4848 76.6086 37.9779C75.7295 36.4709 74.5365 35.2869 73.0295 34.4348H73.0206ZM73.1731 46.4095C72.6708 47.3603 71.9801 48.105 71.092 48.6342C70.204 49.1635 69.1814 49.4235 68.0154 49.4235C66.8493 49.4235 65.8177 49.1635 64.9207 48.6342C64.0237 48.105 63.3241 47.3693 62.8218 46.4095C62.3195 45.4587 62.0683 44.3464 62.0683 43.0637C62.0683 41.781 62.3195 40.6688 62.8218 39.718C63.3241 38.7672 64.0148 38.0317 64.9207 37.5114C65.8177 36.9912 66.8493 36.7311 68.0154 36.7311C69.1814 36.7311 70.204 36.9912 71.092 37.5114C71.9801 38.0317 72.6708 38.7672 73.1731 39.718C73.6754 40.6688 73.9265 41.79 73.9265 43.0637C73.9265 44.3375 73.6754 45.4587 73.1731 46.4095Z" fill="#513117"/>
<path id="Vector_5" d="M85.13 57.9728C85.7041 57.4166 86.2153 56.7619 86.6638 56.0174C87.1123 55.2729 87.3366 54.4924 87.3366 53.6851C87.3366 53.0124 87.1931 52.4204 86.906 51.9001C86.619 51.3799 86.1884 50.9673 85.6233 50.6624C85.0493 50.3574 84.3586 50.2139 83.5333 50.2139C82.4121 50.2139 81.4882 50.5456 80.7616 51.2184C80.0351 51.8911 79.6493 52.8689 79.6045 54.1605H81.8021C81.8201 53.5237 81.9726 53.0304 82.2596 52.6716C82.5377 52.3128 82.9503 52.1333 83.4885 52.1333C84.0267 52.1333 84.4214 52.2858 84.6815 52.5818C84.9327 52.8778 85.0582 53.2993 85.0582 53.8375C85.0582 54.3757 84.8519 54.9769 84.4483 55.5868C84.0446 56.1878 83.5423 56.7708 82.9413 57.3359C82.3403 57.901 81.5241 58.6096 80.4746 59.4886L79.6135 60.2152V61.9015H87.6057V60.0269H82.8337C83.7845 59.2286 84.5469 58.5468 85.121 57.9907L85.13 57.9728Z" fill="#513117"/>
</g>
</g>
</svg>
