<svg width="36" height="37" viewBox="0 0 36 37" fill="none" xmlns="http://www.w3.org/2000/svg">
<path d="M33 33.25L3 33.25" stroke="#757868" stroke-width="2.25" stroke-linecap="round"/>
<path d="M3 16.7489L15.1889 6.99781C16.8324 5.68302 19.1676 5.68302 20.8111 6.99781L33 16.7489" stroke="#757868" stroke-width="2.25" stroke-linecap="round"/>
<path d="M23.25 8.5V5.5C23.25 5.08579 23.5858 4.75 24 4.75H27.75C28.1642 4.75 28.5 5.08579 28.5 5.5V13" stroke="#757868" stroke-width="2.25" stroke-linecap="round"/>
<path d="M6 33.25V14.5" stroke="#757868" stroke-width="2.25" stroke-linecap="round"/>
<path d="M30 33.25V14.5" stroke="#757868" stroke-width="2.25" stroke-linecap="round"/>
<path d="M22.5 33.25V25.75C22.5 23.6287 22.5 22.568 21.841 21.909C21.182 21.25 20.1213 21.25 18 21.25C15.8787 21.25 14.818 21.25 14.159 21.909C13.5 22.568 13.5 23.6287 13.5 25.75V33.25" stroke="#757868" stroke-width="2.25"/>
<path d="M21 14.5C21 16.1569 19.6569 17.5 18 17.5C16.3431 17.5 15 16.1569 15 14.5C15 12.8431 16.3431 11.5 18 11.5C19.6569 11.5 21 12.8431 21 14.5Z" stroke="#757868" stroke-width="2.25"/>
</svg>
