<svg width="29" height="29" viewBox="0 0 29 29" fill="none" xmlns="http://www.w3.org/2000/svg">
<path id="Vector" d="M14.6402 0.710061C17.3202 0.710061 20.0002 0.690061 22.6702 0.710061C25.7602 0.740061 27.9002 2.6303 28.3402 5.70029C28.4202 6.2703 28.4702 6.85002 28.4702 7.42002C28.4702 12.17 28.4902 16.9103 28.4702 21.6603C28.4702 22.4703 28.3902 23.2902 28.2102 24.0802C27.6202 26.5902 25.5402 28.2799 22.9002 28.2999C17.3802 28.3399 11.8502 28.3499 6.33015 28.2999C3.13015 28.2699 0.890234 26.0401 0.790234 22.5001C0.640234 17.1501 0.640234 11.79 0.790234 6.44004C0.890234 2.73004 3.19024 0.740315 6.92024 0.720315C9.50024 0.710315 12.0702 0.720315 14.6502 0.720315L14.6402 0.710061ZM4.49019 14.5401C4.49019 16.0701 4.4402 17.5902 4.5002 19.1202C4.6302 22.2902 6.67014 24.3399 9.82014 24.5699C13.0401 24.8099 16.2502 24.8099 19.4702 24.5699C22.2002 24.3599 24.1702 22.8302 24.5002 20.1202C24.9602 16.3202 24.9902 12.47 24.4602 8.67002C24.1402 6.36002 22.2102 4.73988 19.9202 4.52989C16.4002 4.19989 12.8802 4.18989 9.36018 4.52989C6.92018 4.75988 5.17024 6.37989 4.67024 8.77989C4.27024 10.6899 4.54019 12.6302 4.49019 14.5602V14.5401ZM13.9602 23.0099C12.8702 22.9399 11.0902 23.2099 9.35017 22.8399C7.49017 22.4499 6.36015 21.2202 6.20015 19.3502C5.92015 16.1002 5.93015 12.8502 6.20015 9.6002C6.37015 7.5502 7.80017 6.15016 10.1002 6.06016C13.0802 5.94016 16.0702 5.94016 19.0502 6.06016C21.5602 6.16016 22.8302 7.57992 23.0202 10.0699C23.2402 13.0199 23.2702 15.9603 23.0202 18.9103C22.7902 21.5903 21.3801 22.9199 18.6901 23.0099C17.3301 23.0499 15.9802 23.0099 13.9602 23.0099ZM14.6502 9.37022C11.7402 9.36022 9.40021 11.6003 9.39021 14.4303C9.37021 17.2803 11.6702 19.6403 14.5002 19.6603C17.4802 19.6803 19.8303 17.3703 19.8103 14.4303C19.8003 11.6503 17.4902 9.38022 14.6502 9.37022ZM20.1202 10.1002C20.7902 10.0402 21.2101 9.6501 21.1901 9.0001C21.1801 8.3501 20.7503 7.95006 20.0603 7.96006C19.3703 7.98006 18.9702 8.3999 18.9802 9.0499C18.9902 9.6999 19.4202 10.0802 20.1202 10.1002ZM14.5802 10.9703C12.6202 10.9703 11.0202 12.5599 11.0202 14.5299C11.0202 16.4999 12.6102 18.0899 14.5802 18.0899C16.5502 18.0899 18.1402 16.4999 18.1402 14.5299C18.1402 12.5599 16.5502 10.9703 14.5802 10.9703Z" fill="#513117"/>
</svg>
