<svg width="64" height="64" viewBox="0 0 64 64" fill="none" xmlns="http://www.w3.org/2000/svg">
<path d="M56.9541 48.6387C56.9541 48.6387 56.9398 48.6387 56.9255 48.6387H7.073C6.70256 48.6387 6.3606 48.4392 6.16113 48.1258C5.96166 47.8123 5.94737 47.4134 6.11835 47.0857L8.69726 41.9708C12.6011 34.2486 20.3944 29.4471 29.0428 29.4471H51.3832L50.229 24.7739C49.1177 20.2716 45.1142 17.1371 40.4837 17.1371H16.7898C16.2057 17.1371 15.7213 16.6527 15.7213 16.0686C15.7213 15.4844 16.2057 15 16.7898 15H40.4837C46.0973 15 50.9558 18.8041 52.3093 24.261L53.7767 30.2593L57.9656 47.2994C57.9656 47.3421 57.9941 47.3992 57.9941 47.4419C58.0084 47.5702 57.9941 47.6842 57.9798 47.8124C57.9513 47.9691 57.8801 48.1116 57.7804 48.2398C57.6806 48.3538 57.5666 48.4535 57.4242 48.5248C57.3102 48.5818 57.1962 48.6103 57.068 48.6245C57.0252 48.6245 56.9825 48.6245 56.9398 48.6245L56.9541 48.6387ZM8.81117 46.5015H55.5862L51.9103 31.5843H29.057C21.2208 31.5843 14.1541 35.9298 10.6207 42.9396L8.82544 46.5158L8.81117 46.5015Z" fill="black"/>
<path d="M27.5466 43.88C25.1672 43.88 23.2295 41.9423 23.2295 39.563C23.2295 37.1836 25.1672 35.246 27.5466 35.246C29.9259 35.246 31.8635 37.1836 31.8635 39.563C31.8635 41.9423 29.9259 43.88 27.5466 43.88ZM27.5466 37.3974C26.3498 37.3974 25.3666 38.3804 25.3666 39.5772C25.3666 40.774 26.3498 41.7572 27.5466 41.7572C28.7434 41.7572 29.7263 40.774 29.7263 39.5772C29.7263 38.3804 28.7434 37.3974 27.5466 37.3974Z" fill="black"/>
<path d="M42.1364 43.88C39.7571 43.88 37.8193 41.9423 37.8193 39.563C37.8193 37.1836 39.7571 35.246 42.1364 35.246C44.5158 35.246 46.4535 37.1836 46.4535 39.563C46.4535 41.9423 44.5158 43.88 42.1364 43.88ZM42.1364 37.3974C40.9396 37.3974 39.9565 38.3804 39.9565 39.5772C39.9565 40.774 40.9396 41.7572 42.1364 41.7572C43.3332 41.7572 44.3163 40.774 44.3163 39.5772C44.3163 38.3804 43.3332 37.3974 42.1364 37.3974Z" fill="black"/>
</svg>
