<svg width="20" height="20" viewBox="0 0 20 20" fill="none" xmlns="http://www.w3.org/2000/svg">
<path d="M7.46795 15.759L7.85488 15.2682L7.46795 15.759ZM9.99984 4.5838L9.54953 5.01722C9.66735 5.13963 9.82994 5.2088 9.99984 5.2088C10.1697 5.2088 10.3323 5.13963 10.4501 5.01722L9.99984 4.5838ZM12.5317 15.759L12.9187 16.2498L12.5317 15.759ZM7.85488 15.2682C6.59183 14.2725 5.21073 13.3002 4.11508 12.0664C3.04085 10.8568 2.2915 9.44535 2.2915 7.61419H1.0415C1.0415 9.83546 1.96692 11.53 3.18043 12.8964C4.37252 14.2388 5.89214 15.3126 7.08102 16.2498L7.85488 15.2682ZM2.2915 7.61419C2.2915 5.8218 3.30431 4.31871 4.6868 3.68677C6.02989 3.07284 7.83456 3.23542 9.54953 5.01722L10.4501 4.15038C8.41525 2.03621 6.05325 1.68776 4.16714 2.54991C2.32043 3.39404 1.0415 5.35413 1.0415 7.61419H2.2915ZM7.08102 16.2498C7.50788 16.5863 7.96612 16.9452 8.43052 17.2165C8.89472 17.4878 9.4245 17.7083 9.99984 17.7083V16.4583C9.74184 16.4583 9.43829 16.3577 9.06118 16.1373C8.68427 15.917 8.29323 15.6137 7.85488 15.2682L7.08102 16.2498ZM12.9187 16.2498C14.1075 15.3126 15.6271 14.2388 16.8192 12.8964C18.0328 11.53 18.9582 9.83546 18.9582 7.61419H17.7082C17.7082 9.44535 16.9588 10.8568 15.8846 12.0664C14.7889 13.3002 13.4078 14.2725 12.1448 15.2682L12.9187 16.2498ZM18.9582 7.61419C18.9582 5.35413 17.6792 3.39404 15.8325 2.54991C13.9464 1.68776 11.5844 2.03621 9.54953 4.15038L10.4501 5.01722C12.1651 3.23542 13.9698 3.07284 15.3129 3.68677C16.6954 4.31871 17.7082 5.8218 17.7082 7.61419H18.9582ZM12.1448 15.2682C11.7064 15.6137 11.3154 15.917 10.9385 16.1373C10.5614 16.3577 10.2578 16.4583 9.99984 16.4583V17.7083C10.5752 17.7083 11.105 17.4878 11.5692 17.2165C12.0335 16.9452 12.4918 16.5863 12.9187 16.2498L12.1448 15.2682Z" fill="white"/>
</svg>
