<svg width="40" height="40" viewBox="0 0 40 40" fill="none" xmlns="http://www.w3.org/2000/svg">
<path d="M37.8565 16.5073C37.1717 20.2794 34.9781 23.1693 32.3435 25.7807C28.9081 29.1697 25.1477 32.199 21.5034 35.3442C20.5052 36.2147 19.4607 36.2147 18.4625 35.3674C14.7602 32.1757 10.9302 29.1233 7.47151 25.653C5.394 23.5871 3.54854 21.3355 2.60843 18.492C0.971961 13.571 2.72449 8.1625 6.80987 5.50468C10.373 3.19505 15.1199 3.57803 18.2768 6.42154C18.6946 6.79294 19.1241 7.15277 19.4374 7.61702C19.7972 8.1509 20.0758 8.18567 20.5052 7.64018C21.4802 6.39832 22.7105 5.45827 24.1612 4.79672C27.527 3.27631 31.7401 3.98426 34.4443 6.51441C36.2549 8.19731 37.311 10.2632 37.752 12.6773C37.7869 12.8398 37.8216 12.9906 37.8565 13.1531V16.5073ZM35.6861 14.7896C35.7093 13.304 35.2451 11.4935 34.5139 10.1704C32.2971 6.21268 27.3529 5.052 23.7086 7.64018C22.6872 8.35977 21.9212 9.33473 21.2364 10.3677C20.5169 11.4471 19.4374 11.4355 18.6946 10.3677C18.4509 10.0195 18.2304 9.6713 17.9634 9.34633C14.853 5.34219 9.37482 5.16806 6.20633 9.02132C4.38416 11.2497 3.93163 13.8727 4.44231 16.6582C4.86013 18.933 6.09035 20.7901 7.59916 22.4846C11.2087 26.5351 15.5377 29.7965 19.5767 33.3828C19.8668 33.6381 20.0642 33.6381 20.3427 33.3828C21.1204 32.6864 21.9328 32.0248 22.7221 31.3285C26.0182 28.4501 29.4768 25.7459 32.3667 22.4381C34.2934 20.2445 35.6629 17.8073 35.6745 14.7896H35.6861Z" fill="#513117"/>
</svg>
