<svg width="29" height="29" viewBox="0 0 29 29" fill="none" xmlns="http://www.w3.org/2000/svg">
<path id="Vector" d="M14.0606 28.3398C11.6906 28.3398 9.31049 28.3398 6.94049 28.3398C2.56049 28.3398 0.410592 26.5302 0.290592 22.2002C0.140592 16.6802 0.0205677 11.1501 0.390568 5.64013C0.570568 2.95013 2.86056 0.789759 5.63056 0.759759C11.3206 0.699759 17.0205 0.689759 22.7105 0.759759C25.5805 0.799759 27.8506 3.18009 27.9206 6.35009C28.0306 11.8001 28.0506 17.2702 27.9206 22.7202C27.8306 26.2902 25.4906 28.3098 21.8906 28.3398C19.2806 28.3598 16.6706 28.3398 14.0606 28.3398ZM11.2305 17.6699C11.2305 17.6699 11.1906 17.6699 11.1806 17.6699C11.1806 19.2999 11.2106 20.9198 11.1806 22.5498C11.1506 23.9398 11.1106 23.9399 12.5506 23.9399C13.0906 23.9399 13.6406 23.9099 14.1806 23.9399C14.8406 23.9799 15.0805 23.69 15.0705 23.04C15.0405 21.14 15.0705 19.2401 15.0705 17.3501C15.0705 16.8401 15.0705 16.3398 15.2405 15.8398C15.6205 14.7098 16.5105 14.0999 17.7305 14.1699C18.8205 14.2299 19.4805 14.8901 19.6905 16.1401C19.9705 17.8201 19.7905 19.52 19.8305 21.21C19.9205 24.42 19.2606 23.8599 22.6706 23.9399C23.3706 23.9599 23.6405 23.68 23.6205 22.98C23.5905 21.46 23.6205 19.9299 23.6205 18.3999C23.6205 17.0499 23.6806 15.6901 23.4206 14.3501C23.0206 12.2801 21.8206 11.0999 19.7506 10.8599C18.1506 10.6699 16.7105 10.9898 15.6005 12.2598C15.4505 12.4298 15.3306 12.7001 15.0406 12.5801C14.9606 12.5501 14.8806 12.3502 14.8906 12.2402C15.0106 11.2302 14.3906 11.1499 13.6306 11.1899C13.1906 11.2199 12.7506 11.2299 12.3106 11.1899C11.5006 11.1199 11.2406 11.5 11.2506 12.27C11.2806 14.07 11.2606 15.8602 11.2606 17.6602L11.2305 17.6699ZM4.59052 17.5298C4.59052 18.7798 4.59052 20.04 4.59052 21.29C4.59052 23.99 4.59057 23.96 7.27057 23.96C8.10057 23.96 8.40057 23.6999 8.39057 22.8599C8.35057 19.8799 8.40055 16.8999 8.37055 13.9199C8.33055 10.7399 8.93057 11.2802 5.52057 11.2002C4.82057 11.1802 4.5605 11.4499 4.5705 12.1499C4.6005 13.9399 4.58051 15.7398 4.58051 17.5298H4.59052ZM6.53058 9.10986C7.77058 9.10986 8.71052 8.18019 8.72052 6.95019C8.74052 5.69019 7.77053 4.72997 6.48053 4.72997C5.21053 4.72997 4.3305 5.6099 4.3205 6.8999C4.3105 8.2399 5.19058 9.11986 6.53058 9.10986Z" fill="#513117"/>
</svg>
