<svg width="100" height="100" viewBox="0 0 100 100" fill="none" xmlns="http://www.w3.org/2000/svg">
<rect width="100" height="100" rx="50" fill="none"/>
<path d="M61.5046 50.7305L61.4219 50.8132C61.477 50.758 61.5046 50.7305 61.5046 50.7305Z" fill="#533F38"/>
<path fill-rule="evenodd" clip-rule="evenodd" d="M69.1933 57.6745C69.1933 58.5841 68.8626 59.411 68.2837 59.9898L59.8494 68.4242C55.963 72.2279 52.5727 73.3856 49.8439 73.3856C48.9343 73.3856 48.1074 73.2202 47.3632 73.0548C43.4768 71.9798 40.1692 68.4242 38.9289 63.9589V63.8762C38.4327 61.7263 36.8616 55.6899 35.2905 53.7881C34.629 53.0439 33.6367 52.2997 32.6445 51.6382C30.7426 50.2324 28.3446 48.4959 29.7503 46.2633C30.4118 45.1057 31.7349 44.4441 33.554 44.4441H33.6367C36.6136 44.5268 40.3346 46.1806 41.4923 48.1652L41.6576 48.4132C42.5672 49.819 44.3864 52.8785 45.5441 53.0439C45.6268 53.0439 45.7921 53.0439 46.1229 52.7958L62.1647 36.754C62.8262 36.0925 63.6531 35.7617 64.5627 35.7617C65.4723 35.7617 66.2992 36.0925 66.878 36.754C67.5395 37.3328 67.8703 38.1597 67.8703 39.0693C67.8703 39.9789 67.5395 40.8058 66.878 41.4673L62.4128 45.9325C62.8538 46.1531 63.2397 46.4011 63.5704 46.6768C64.48 47.6691 64.7281 48.9921 64.3973 50.1497C64.8935 50.2324 65.4723 50.5632 65.8857 50.9766C66.7953 51.8862 67.1261 53.2093 66.7126 54.3669C67.2915 54.5323 67.7876 54.8631 68.2837 55.2765C68.8626 55.938 69.1933 56.7649 69.1933 57.6745ZM67.2088 57.6745C67.2088 57.2611 67.0434 56.9303 66.7953 56.6822C66.2992 56.1861 65.4723 56.1861 64.9762 56.6822L63.157 58.4187C62.9916 58.6668 62.7435 58.7495 62.4955 58.7495C62.2474 58.7495 61.9166 58.6668 61.7512 58.4187C61.3378 58.0879 61.3378 57.4264 61.7512 57.013L63.4877 55.2765L64.48 54.2842C64.9762 53.7881 64.9762 52.9612 64.48 52.4651C63.9839 51.8862 63.0743 51.8862 62.5781 52.4651L60.8417 54.2015C60.6763 54.3669 60.3455 54.4496 60.0975 54.4496C59.8494 54.4496 59.6013 54.3669 59.4359 54.2015C59.0225 53.7881 59.0225 53.1266 59.4359 52.7131L61.0897 50.9766L61.1724 50.8939C61.2276 50.8939 61.2551 50.8939 61.2551 50.8939L62.082 50.067C62.6608 49.4882 62.6608 48.6613 62.082 48.1652C61.8339 47.9171 61.5032 47.7517 61.1724 47.7517C60.8417 47.7517 60.5109 47.9171 60.2628 48.1652L58.5264 49.9017C58.1129 50.2324 57.4514 50.2324 57.0379 49.9017C56.7072 49.4882 56.7072 48.8267 57.0379 48.4132L58.7744 46.6768L65.4723 40.0616C65.7204 39.8135 65.8857 39.4828 65.8857 39.0693C65.8857 38.7385 65.7204 38.4078 65.4723 38.1597C65.2242 37.9116 64.8935 37.7463 64.5627 37.7463C64.1493 37.7463 63.8185 37.9116 63.5704 38.1597L47.5286 54.2015C46.7017 55.0284 45.8748 55.1111 45.296 55.0284C43.1461 54.7803 41.2442 51.7208 39.9212 49.4882L39.7558 49.2401C39.0116 47.9998 36.1174 46.5114 33.6367 46.5114C32.9752 46.5114 31.9003 46.5941 31.4041 47.3383C31.0734 47.8344 31.9003 48.5786 33.8021 49.9844C34.8771 50.7286 35.9521 51.5555 36.7789 52.4651C39.0116 55.0284 40.7481 62.4705 40.9134 63.4628C41.9057 67.1838 44.6345 70.2434 47.8594 71.0703C51.167 71.9798 54.8053 70.5741 58.4437 67.0184L66.7953 58.5841C67.0434 58.336 67.2088 58.0053 67.2088 57.6745Z" fill="#533F38"/>
<path d="M49.1837 37.1682C48.6049 37.1682 48.1914 36.6721 48.1914 36.1759V28.4031C48.1914 27.8243 48.6049 27.3281 49.1837 27.3281C49.7625 27.3281 50.176 27.8243 50.176 28.4031V36.1759C50.176 36.6721 49.7625 37.1682 49.1837 37.1682Z" fill="#533F38"/>
<path d="M43.4786 37.0861C43.2305 37.0861 42.9825 37.0034 42.7344 36.8381L37.2769 31.2979C36.8634 30.9671 36.8634 30.3056 37.2769 29.8921C37.6076 29.4787 38.2692 29.4787 38.6826 29.8921L44.2228 35.4323C44.5536 35.7631 44.5536 36.4246 44.2228 36.8381C43.9748 37.0034 43.7267 37.0861 43.4786 37.0861Z" fill="#533F38"/>
<path d="M54.8062 37.1693C54.4755 37.1693 54.2274 37.0866 54.062 36.8385C53.6486 36.4251 53.6486 35.8463 54.062 35.4328L59.5196 29.8926C59.933 29.5618 60.5945 29.5618 61.008 29.8926C61.4214 30.306 61.4214 30.9676 61.008 31.381L55.4678 36.8385C55.3024 37.0866 55.0543 37.1693 54.8062 37.1693Z" fill="#533F38"/>
<path d="M81.1 50.3133C81.1 67.5128 67.2081 81.4047 50.0087 81.4047C32.8919 81.4047 19 67.5128 19 50.3133C19 33.1966 32.8919 19.3047 50.0087 19.3047C67.2081 19.3047 81.1 33.1966 81.1 50.3133Z" stroke="#533F38" stroke-width="1.32304" stroke-miterlimit="10"/>
</svg>
