<svg width="26" height="38" viewBox="0 0 26 38" fill="none" xmlns="http://www.w3.org/2000/svg">
<path id="Vector" d="M13.2099 0.919922C17.4299 1.00992 20.8499 2.71994 23.4299 6.05994C25.1599 8.29994 26.0099 10.87 25.9599 13.7C25.9199 15.92 25.2699 17.97 24.1599 19.9C21.5999 24.36 18.8899 28.75 16.1999 33.14C15.2699 34.66 14.3299 36.1699 13.3999 37.6799C13.1699 38.0499 13.0899 38.0499 12.8699 37.6799C11.2499 34.9699 9.6099 32.2599 7.9999 29.5399C5.8799 25.9599 3.6999 22.4099 1.7199 18.7499C1.0399 17.4999 0.739904 16.1099 0.599904 14.6899C0.239904 11.0399 1.3199 7.83995 3.7499 5.13995C5.8699 2.77995 8.53989 1.37994 11.7099 0.999939C11.9099 0.979939 12.1199 0.939932 12.3199 0.929932C12.6099 0.919932 12.9099 0.929932 13.1999 0.929932L13.2099 0.919922ZM13.2399 7.10992C9.94989 7.10992 7.33989 9.73997 7.33989 13.03C7.33989 16.3 9.9899 18.9199 13.2799 18.9199C16.5199 18.9199 19.1299 16.2499 19.1599 12.9999C19.1899 9.79994 16.4299 7.00991 13.2299 7.09991L13.2399 7.10992Z" fill="#513117"/>
</svg>
