<svg width="39" height="38" viewBox="0 0 39 38" fill="none" xmlns="http://www.w3.org/2000/svg">
<path id="Vector" opacity="0.85" d="M0.609863 18.94C0.609863 16.79 0.609863 14.65 0.609863 12.5C0.609863 11.36 0.929937 11.05 2.05994 11.05C4.08994 11.05 6.1199 11.05 8.1499 11.05C8.5799 11.05 8.95983 10.95 9.32983 10.73C13.2498 8.30998 17.1698 5.88998 21.0898 3.47998C21.3798 3.29998 21.6599 3.13998 22.0199 3.16998C22.6199 3.20998 23.0199 3.59 23.0199 4.19C23.0199 6.98 23.0199 9.78001 23.0199 12.57C23.0199 12.88 22.9198 13.1 22.6998 13.32C18.2498 17.76 13.7999 22.2 9.36987 26.67C9.01987 27.02 8.67982 26.89 8.31982 26.89C6.33982 26.89 4.35988 26.89 2.37988 26.89C2.15988 26.89 1.94986 26.89 1.72986 26.89C1.08986 26.86 0.749902 26.57 0.649902 25.94C0.619902 25.73 0.609863 25.51 0.609863 25.29C0.609863 23.18 0.609863 21.06 0.609863 18.95V18.94ZM4.65991 36.87C4.94991 36.59 5.22989 36.31 5.50989 36.03C9.78989 31.75 14.0699 27.47 18.3499 23.19C22.2099 19.33 26.0699 15.47 29.9199 11.62C32.7299 8.81 35.5399 6 38.3599 3.19C38.6999 2.85 38.9599 2.47997 38.9199 1.96997C38.8699 1.37997 38.5699 0.96002 38.0099 0.77002C37.3699 0.55002 36.8599 0.82003 36.3999 1.28003C25.2599 12.42 14.1199 23.56 2.97986 34.71C2.85986 34.83 2.73989 34.94 2.63989 35.08C2.31989 35.54 2.26991 36.03 2.52991 36.54C2.77991 37.04 3.21986 37.23 3.72986 37.27C4.09986 37.25 4.3999 37.13 4.6499 36.89L4.65991 36.87ZM35.5599 21.88C34.6599 25.74 32.4899 28.68 29.1199 30.75C28.3999 31.19 28.1699 31.95 28.5499 32.63C28.9299 33.32 29.7499 33.53 30.4899 33.11C32.8699 31.73 34.7898 29.87 36.2098 27.52C38.2098 24.22 38.9798 20.64 38.4698 16.81C38.0798 13.8 36.9199 11.12 35.0399 8.73999C34.8399 8.48999 34.6899 8.49997 34.4799 8.71997C34.0799 9.13997 33.6699 9.56001 33.2399 9.95001C32.9199 10.24 32.8899 10.46 33.1599 10.83C34.9399 13.25 35.8799 15.95 35.8599 19.25C35.8899 19.95 35.7799 20.93 35.5599 21.89V21.88ZM23.0099 20.88C23.0099 20.73 23.0899 20.51 22.8899 20.45C22.7299 20.4 22.6399 20.58 22.5399 20.68C21.6299 21.58 20.7298 22.49 19.8198 23.39C17.8298 25.37 15.8499 27.37 13.8599 29.34C13.5399 29.65 13.5798 29.82 13.9598 30.05C16.3698 31.52 18.7699 33.01 21.1699 34.5C21.5899 34.76 22.0199 34.89 22.4899 34.65C22.9699 34.4 23.0299 33.95 23.0299 33.45C23.0199 31.41 23.0299 29.36 23.0299 27.32C23.0299 25.18 23.0299 23.03 23.0299 20.89L23.0099 20.88ZM31.1998 12.71C30.9698 12.39 30.8099 12.38 30.5499 12.66C30.1499 13.08 29.7399 13.5 29.3099 13.89C29.0199 14.15 29.0198 14.36 29.2198 14.7C30.1198 16.17 30.5599 17.79 30.4099 19.51C30.1699 22.35 28.7999 24.52 26.3799 26.04C25.6599 26.49 25.4499 27.31 25.8599 27.97C26.2599 28.62 27.1098 28.8 27.8398 28.35C31.3098 26.2 33.0098 23.03 33.1998 19.15C33.1298 16.71 32.5398 14.6 31.2098 12.71H31.1998ZM28.5698 5.27002C28.3098 5.75002 28.3299 6.22 28.6099 6.69C28.7799 6.98 28.9699 7.05003 29.2399 6.78003C29.6199 6.38003 30.0199 6.01 30.3999 5.62C30.9499 5.07 30.9099 4.88997 30.1499 4.65997C30.0399 4.62997 29.9198 4.61002 29.8198 4.58002C29.2698 4.60002 28.8299 4.78002 28.5599 5.27002H28.5698Z" fill="white"/>
</svg>
