<svg width="64" height="64" viewBox="0 0 64 64" fill="none" xmlns="http://www.w3.org/2000/svg">
<path fill-rule="evenodd" clip-rule="evenodd" d="M52.6403 50.7944H11.3151C10.95 50.7944 10.6227 50.6056 10.4339 50.2909C10.2576 49.9762 10.2576 49.586 10.4339 49.2839L12.1742 46.2685L7.39999 48.3021C7.27411 48.3524 7.13573 48.3776 7.00985 48.3776V48.3902C6.61963 48.3902 6.24202 48.1636 6.07838 47.7734C5.86439 47.2573 6.10345 46.6657 6.60696 46.4517L13.8488 43.3671L19.9912 32.7245L6.61963 27.0289C6.10353 26.8149 5.86447 26.2107 6.09104 25.7072C6.30503 25.1911 6.90915 24.952 7.41265 25.1786L21.0049 30.9681L31.1028 13.4721C31.4679 12.8427 32.4875 12.8427 32.8525 13.4721L42.9519 30.9708L56.58 25.166C57.0961 24.952 57.6876 25.1911 57.9016 25.6946C58.1156 26.2107 57.8765 26.8024 57.373 27.0164L43.9656 32.7272L50.1038 43.3626L57.3857 46.4642C57.9018 46.6782 58.1408 47.2825 57.9143 47.786C57.7506 48.1762 57.373 48.4028 56.9828 48.4028V48.3902C56.8443 48.3902 56.7185 48.365 56.5926 48.3147L51.7784 46.2641L53.5213 49.2839C53.6976 49.5986 53.6976 49.9888 53.5213 50.2909C53.3451 50.6056 53.0053 50.7944 52.6403 50.7944ZM41.0932 31.7625L31.9965 16.0022L22.8939 31.7727L31.9816 35.6435L41.0932 31.7625ZM34.5502 36.7376L42.107 33.5189L47.0339 42.055L34.5502 36.7376ZM29.413 36.7376L21.8801 33.5291L16.9688 42.0382L29.413 36.7376ZM15.2941 44.9396L31.9816 37.8317L48.7087 44.9565L50.9157 48.7804H13.0772L15.2941 44.9396Z" fill="black"/>
</svg>
