<svg width="43" height="43" viewBox="0 0 43 43" fill="none" xmlns="http://www.w3.org/2000/svg">
<path fill-rule="evenodd" clip-rule="evenodd" d="M38.0346 14.6167L37.1116 18.424C37.8615 18.5971 38.5538 18.7124 39.0729 18.8855C39.246 18.8855 39.3037 19.0586 39.3037 19.1739C39.246 19.347 39.1306 19.4047 38.9576 19.4047L37.2847 19.0009L34.6311 30.1921C34.458 30.9421 34.0542 31.5766 33.4196 32.0381C32.9581 32.3842 32.612 32.9611 32.439 33.538L32.3813 33.8841C32.2659 34.4033 31.689 34.7494 31.1122 34.634C30.593 34.5186 30.2468 33.9418 30.3622 33.4226L30.4199 33.0765C30.593 32.4996 30.4776 31.8073 30.2468 31.2882C29.9007 30.5959 29.7854 29.846 29.9584 29.0961L32.612 17.9048L30.8814 17.501C30.766 17.4433 30.6507 17.3279 30.7083 17.1549C30.7083 17.0395 30.8814 16.9241 30.9968 16.9818C31.516 17.0972 32.2082 17.2703 32.9581 17.4433L33.8811 13.636C34.1696 12.4823 35.2656 11.79 36.4194 12.0208C37.5731 12.3092 38.2653 13.4629 38.0346 14.6167ZM36.7078 18.8855C35.4964 18.5971 34.4003 18.3086 33.1312 18.0202L30.4776 29.2691C30.3622 29.846 30.4199 30.4806 30.7083 31.0574C31.0545 31.692 31.1122 32.4996 30.9391 33.1918L30.8814 33.538C30.8237 33.7687 30.9968 34.0571 31.2275 34.1148C31.516 34.1725 31.8044 33.9994 31.8621 33.7687L31.9198 33.4226C32.0928 32.6727 32.4966 32.0381 33.1312 31.5766C33.5927 31.2305 33.9388 30.7113 34.1119 30.0768L36.7078 18.8855Z" fill="#3F403F"/>
<path d="M31.1104 29.3839C30.995 29.8453 31.0527 30.3069 31.2835 30.7684C31.5142 31.2298 31.6296 31.749 31.6873 32.2682C31.918 31.8067 32.3218 31.4029 32.7257 31.1145C33.1295 30.826 33.3602 30.4222 33.4756 29.9607L34.7447 24.4805L32.2065 24.6535L31.1104 29.3839Z" fill="#3F403F"/>
<path d="M41.9 21.4212C41.9 32.7278 32.7278 41.9 21.4788 41.9C10.1722 41.9 1 32.7278 1 21.4212C1 10.1722 10.1722 1 21.4788 1C32.7278 1 41.9 10.1722 41.9 21.4212Z" stroke="#3F403F" stroke-width="0.807616" stroke-miterlimit="10"/>
<path d="M35.0351 5.90234L10.8066 38.6685" stroke="#3F403F" stroke-width="0.807616" stroke-miterlimit="10"/>
<path fill-rule="evenodd" clip-rule="evenodd" d="M28.0393 12.4064C24.0969 7.97055 16.7894 7.81481 11.6645 12.3716C6.59695 16.8718 6.17919 24.579 10.7469 29.7156C15.3087 34.8517 23.0114 35.3412 28.0794 30.8351L28.0804 30.8342C28.6474 30.3318 28.7071 29.3467 28.1847 28.7619L28.1812 28.7581C28.0285 28.5845 27.8996 28.4812 27.7731 28.4149C27.6494 28.3501 27.4941 28.3027 27.2655 28.2878L27.1938 28.2831L27.1246 28.2638C27.1022 28.2575 27.0792 28.2512 27.0557 28.2447C26.5926 28.1166 25.9262 27.9323 25.4099 27.3544L25.4082 27.3525C24.3953 26.2101 24.4742 24.3416 25.6275 23.3187C25.6279 23.3183 25.6283 23.318 25.6287 23.3177L27.5488 21.605C30.2639 19.1923 30.4888 15.1596 28.0393 12.4064ZM26.0877 23.8358C25.2282 24.5973 25.1589 26.0279 25.9262 26.8932C26.3043 27.3165 26.7928 27.4527 27.2784 27.588L27.3107 27.597C27.9279 27.6374 28.3202 27.8681 28.7009 28.3008C29.4739 29.1661 29.3989 30.5909 28.5394 31.3524C23.1803 36.1173 15.0407 35.5924 10.2296 30.1756C5.41273 24.7588 5.84538 16.6134 11.2045 11.8542C16.5636 7.0893 24.3167 7.17585 28.5567 11.9466C31.2564 14.9809 31.0142 19.4516 28.0087 22.1225L26.0877 23.8358ZM14.8191 23.1849L14.8205 23.1865C15.9146 24.422 15.8228 26.4235 14.5829 27.5206C13.3447 28.622 11.3511 28.4802 10.255 27.2499L10.2536 27.2483C9.15971 26.013 9.25133 24.0122 10.4905 22.9149C11.7241 21.8116 13.724 21.9557 14.8191 23.1849ZM14.1235 27.0028C15.0695 26.1664 15.1503 24.603 14.3023 23.6454C13.4543 22.6936 11.891 22.5898 10.9507 23.432C10.0046 24.2685 9.92384 25.8318 10.7718 26.7894C11.6198 27.7412 13.1774 27.845 14.1235 27.0028ZM10.1315 19.6016C9.28351 18.644 9.36428 17.0807 10.3103 16.2442C11.2564 15.402 12.8197 15.5001 13.6677 16.4577C14.5157 17.4095 14.4292 18.9728 13.4889 19.815C12.5428 20.6515 10.9795 20.5534 10.1315 19.6016ZM14.1852 15.9979C15.2843 17.2323 15.1774 19.2319 13.9508 20.3307L13.9474 20.3336C12.7121 21.4258 10.7131 21.295 9.61464 20.0621L9.61326 20.0605C8.51916 18.825 8.61104 16.8236 9.85091 15.7264C11.0867 14.6272 13.0868 14.7585 14.1852 15.9979ZM15.4906 14.8366C14.6426 13.879 14.7234 12.3158 15.6695 11.4793C16.6155 10.6371 18.1788 10.7409 19.0268 11.6927C19.8748 12.6446 19.7883 14.2137 18.848 15.0501C17.9019 15.8923 16.3386 15.7885 15.4906 14.8366ZM19.3081 15.5673C18.0701 16.6692 16.0702 16.5278 14.9738 15.2971L14.9724 15.2956C13.8783 14.06 13.9701 12.0586 15.21 10.9615C16.448 9.86026 18.4474 10.0018 19.5437 11.2322C20.6425 12.4656 20.5383 14.473 19.3081 15.5673ZM26.6159 12.7031L26.6175 12.7048C27.7142 13.9433 27.6051 15.9496 26.3747 17.0384C25.1434 18.1394 23.1377 18.0056 22.0404 16.7739C20.935 15.5339 21.0468 13.5267 22.2817 12.4332C23.5071 11.3379 25.5128 11.4658 26.6159 12.7031ZM22.7419 12.9503C23.6764 12.1138 25.2455 12.2061 26.0992 13.1637C26.9472 14.1213 26.8549 15.6904 25.9146 16.5211C24.9743 17.3633 23.4053 17.2653 22.5573 16.3135C21.7035 15.3559 21.7958 13.7868 22.7419 12.9503Z" fill="black"/>
</svg>
