<svg width="64" height="64" viewBox="0 0 64 64" fill="none" xmlns="http://www.w3.org/2000/svg">
<g id="Safe &#38; non- toxic">
<g id="Group">
<path id="Vector" d="M57.7835 14.6668C56.0752 12.1751 54.0169 9.95017 51.6585 8.05017C49.2835 6.1335 46.6585 4.58349 43.8419 3.45015C41.8085 2.62515 39.6752 2.01678 37.5002 1.64178C35.9835 1.38345 34.4252 1.23353 32.8752 1.2002C32.6502 1.2002 32.4252 1.2002 32.2002 1.2002C28.0169 1.2002 23.9502 2.0168 20.1335 3.63346C18.3002 4.40846 16.5252 5.37517 14.8669 6.49184C13.2252 7.60018 11.6835 8.87521 10.2752 10.2752C8.8752 11.6752 7.60019 13.2251 6.49185 14.8668C5.37519 16.5251 4.40853 18.3002 3.63353 20.1335C2.01686 23.9585 1.2002 28.0168 1.2002 32.2002C1.2002 36.3835 2.01686 40.4501 3.63353 44.2668C4.40853 46.1085 5.37519 47.8752 6.49185 49.5335C7.60019 51.1752 8.8752 52.7169 10.2752 54.1252C11.6752 55.5252 13.2252 56.8001 14.8669 57.9085C16.5252 59.0251 18.3002 59.9918 20.1335 60.7668C23.9585 62.3835 28.0169 63.2001 32.2002 63.2001C36.3835 63.2001 40.4502 62.3835 44.2669 60.7668C46.1085 59.9918 47.8752 59.0251 49.5335 57.9085C51.1752 56.8001 52.7169 55.5252 54.1252 54.1252C55.5252 52.7252 56.8002 51.1752 57.9085 49.5335C59.0252 47.8752 59.9919 46.1001 60.7669 44.2668C62.3835 40.4418 63.2002 36.3835 63.2002 32.2002C63.2002 25.9085 61.3252 19.8418 57.7752 14.6751M32.2085 61.3085C16.1502 61.3085 3.09185 48.2501 3.09185 32.1918C3.09185 16.1335 16.1502 3.0752 32.2085 3.0752C32.4169 3.0752 32.6335 3.0752 32.8419 3.0752C34.3002 3.10853 35.7585 3.2502 37.1835 3.49186C39.2169 3.84186 41.2169 4.41679 43.1335 5.19179C54.1835 9.66679 61.3252 20.2668 61.3252 32.1918C61.3252 48.2501 48.2669 61.3085 32.2085 61.3085Z" fill="#513117"/>
<path id="Vector_2" d="M32.2083 14.8916C32.1499 14.9249 32.0999 14.9499 32.0583 14.9749C30.7083 15.7749 24.1083 20.1416 23.9249 29.1C23.7583 37.2583 29.5083 42.8999 31.5916 44.6833V23.0166C31.5916 22.6833 31.8583 22.3999 32.1916 22.3999C32.5333 22.3999 32.8083 22.6749 32.8083 23.0166V29.6166L35.6999 26.9499C35.9499 26.7249 36.3333 26.7249 36.5583 26.9749C36.7916 27.2249 36.7749 27.6166 36.5249 27.85L32.8083 31.2833V36.4583L35.6999 33.7916C35.9499 33.5666 36.3333 33.5667 36.5583 33.8167C36.7916 34.0667 36.7749 34.4583 36.5249 34.6916L32.8083 38.1249V44.6916C34.8916 42.9166 40.6499 37.2667 40.4749 29.1083C40.2833 19.7583 33.0916 15.4166 32.1916 14.8999" fill="#513117"/>
<path id="Vector_3" d="M13.6503 27.1001C9.73362 27.1168 6.82529 28.4834 6.27529 28.7584C6.20029 29.7918 5.82529 38.1834 13.492 43.5334C19.9336 48.0334 27.7336 46.6001 30.7086 45.8084L25.2503 42.1667L20.3336 43.3501C20.0003 43.4334 19.6586 43.2251 19.5836 42.8917C19.5086 42.5667 19.7169 42.2417 20.042 42.1667L23.867 41.2417L19.5586 38.3668L14.642 39.55C14.3086 39.6334 13.9753 39.4251 13.892 39.0918C13.817 38.7668 14.0253 38.4418 14.3503 38.3668L18.1753 37.4501L12.6836 33.7834C12.4003 33.5918 12.317 33.2084 12.5086 32.9251C12.7003 32.6501 13.0753 32.5835 13.3586 32.7668L18.8503 36.4334L20.2336 37.3585C22.567 38.9001 24.8836 40.4668 27.192 42.0001C24.9086 39.0668 22.6253 34.8584 22.5586 29.6918C19.4003 27.7084 16.2836 27.1001 13.642 27.1084" fill="#513117"/>
<path id="Vector_4" d="M50.5002 27.1167C48.3168 27.1417 45.8252 27.6 43.2668 28.8834C42.7918 29.1167 42.3168 29.3917 41.8418 29.6833C41.7668 34.85 39.4835 39.0583 37.2085 41.9917C39.5252 40.4333 41.8335 38.9001 44.1668 37.3417L45.5502 36.4167L51.0418 32.75C51.3252 32.5667 51.7002 32.6333 51.8918 32.9083C52.0835 33.1917 52.0085 33.575 51.7252 33.7667L46.2335 37.4334L50.0585 38.35C50.3835 38.425 50.5918 38.75 50.5168 39.0834C50.4418 39.4167 50.1085 39.6167 49.7668 39.5417L44.8502 38.3584L40.5418 41.2333L44.3668 42.1583C44.6918 42.2333 44.9002 42.5583 44.8252 42.8833C44.7502 43.2166 44.4168 43.4167 44.0835 43.3417L39.1668 42.1583L33.7085 45.8083C36.6835 46.6 44.4835 48.0333 50.9252 43.5333C58.5918 38.1833 58.2168 29.7917 58.1418 28.7583C57.5752 28.475 54.7585 27.1667 50.9418 27.1167H50.5085H50.5002Z" fill="#513117"/>
</g>
</g>
</svg>
