<svg width="40" height="40" viewBox="0 0 40 40" fill="none" xmlns="http://www.w3.org/2000/svg">
<path fill-rule="evenodd" clip-rule="evenodd" d="M9.94633 2.08594H10.0511C11.1734 2.08592 12.0912 2.08591 12.8371 2.14686C13.6092 2.20994 14.3066 2.3445 14.9578 2.67632C15.977 3.19563 16.8057 4.02428 17.325 5.04349C17.6568 5.69472 17.7914 6.39205 17.8544 7.16416C17.9154 7.91009 17.9154 8.82793 17.9154 9.95021V10.7226L21.3413 7.29674C22.1348 6.50314 22.7839 5.8541 23.3544 5.36973C23.945 4.86838 24.5332 4.47044 25.2283 4.24458C26.3162 3.8911 27.4881 3.8911 28.576 4.24458C29.2711 4.47044 29.8594 4.86838 30.4499 5.36973C31.0205 5.85409 31.6695 6.5031 32.463 7.29668L32.5372 7.37086C33.3308 8.16439 33.9798 8.81337 34.4641 9.3839C34.9655 9.97447 35.3634 10.5627 35.5893 11.2578C35.9428 12.3457 35.9428 13.5176 35.5893 14.6055C35.3634 15.3006 34.9655 15.8889 34.4641 16.4794C33.9798 17.05 33.3308 17.699 32.5372 18.4925L28.9438 22.0859H30.0511C31.1734 22.0859 32.0912 22.0859 32.8371 22.1469C33.6092 22.2099 34.3066 22.3445 34.9578 22.6763C35.977 23.1956 36.8057 24.0243 37.325 25.0435C37.6568 25.6947 37.7914 26.3921 37.8544 27.1642C37.9154 27.9101 37.9154 28.8279 37.9154 29.9502V30.055C37.9154 31.1773 37.9154 32.0951 37.8544 32.8411C37.7914 33.6132 37.6568 34.3105 37.325 34.9617C36.8057 35.9809 35.977 36.8096 34.9578 37.3289C34.3066 37.6607 33.6092 37.7953 32.8371 37.8584C32.0912 37.9193 31.1734 37.9193 30.0511 37.9193H10.1443C10.1134 37.9193 10.0823 37.9193 10.0511 37.9193H9.9463C8.82402 37.9193 7.90618 37.9193 7.16025 37.8584C6.38815 37.7953 5.69082 37.6607 5.03958 37.3289C4.02037 36.8096 3.19173 35.9809 2.67241 34.9617C2.34059 34.3105 2.20603 33.6132 2.14295 32.841C2.08201 32.0951 2.08202 31.1773 2.08203 30.055V9.95024C2.08202 8.82794 2.08201 7.9101 2.14295 7.16416C2.20603 6.39206 2.34059 5.69472 2.67241 5.04349C3.19173 4.02428 4.02037 3.19563 5.03958 2.67632C5.69082 2.3445 6.38815 2.20994 7.16025 2.14686C7.90619 2.08591 8.82404 2.08592 9.94633 2.08594ZM17.0631 35.4193H29.9987C31.1861 35.4193 32.0015 35.4183 32.6336 35.3667C33.2511 35.3162 33.5828 35.2237 33.8228 35.1014C34.3716 34.8217 34.8178 34.3755 35.0975 33.8267C35.2198 33.5867 35.3123 33.255 35.3627 32.6375C35.4144 32.0054 35.4154 31.19 35.4154 30.0026C35.4154 28.8152 35.4144 27.9998 35.3627 27.3677C35.3123 26.7502 35.2198 26.4185 35.0975 26.1785C34.8178 25.6297 34.3716 25.1835 33.8228 24.9038C33.5828 24.7815 33.2511 24.689 32.6336 24.6386C32.0015 24.5869 31.1861 24.5859 29.9987 24.5859H26.4438L17.8174 33.2123C17.7423 33.839 17.6028 34.4165 17.325 34.9617C17.2449 35.1189 17.1574 35.2716 17.0631 35.4193ZM17.9154 29.5788L30.7323 16.7618C31.572 15.9222 32.1478 15.345 32.5583 14.8615C32.9592 14.3892 33.1284 14.0892 33.2116 13.833C33.402 13.2472 33.402 12.6162 33.2116 12.0304C33.1284 11.7741 32.9592 11.4742 32.5583 11.0018C32.1478 10.5184 31.572 9.94113 30.7323 9.10151C29.8927 8.26189 29.3155 7.68602 28.832 7.27558C28.3597 6.87462 28.0597 6.70548 27.8035 6.62222C27.2177 6.43189 26.5867 6.43189 26.0009 6.62222C25.7446 6.70548 25.4447 6.87462 24.9724 7.27558C24.4889 7.68602 23.9116 8.26189 23.072 9.10151L19.5019 12.6717C18.4663 13.7072 18.2104 13.9944 18.0739 14.3239C17.9382 14.6517 17.9156 15.0336 17.9154 16.4806C17.9154 16.4877 17.9154 16.4947 17.9154 16.5018L17.9154 29.5788ZM15.4154 30.0714C15.4153 31.2216 15.4134 32.0177 15.3627 32.6375C15.3123 33.255 15.2198 33.5867 15.0975 33.8267C14.8178 34.3755 14.3716 34.8217 13.8228 35.1014C13.5828 35.2237 13.2511 35.3162 12.6336 35.3667C12.0015 35.4183 11.1861 35.4193 9.9987 35.4193C8.8113 35.4193 7.99592 35.4183 7.36383 35.3667C6.74633 35.3162 6.41462 35.2237 6.17456 35.1014C5.62575 34.8217 5.17956 34.3755 4.89993 33.8267C4.77761 33.5867 4.6851 33.255 4.63465 32.6375C4.583 32.0054 4.58203 31.19 4.58203 30.0026V10.0026C4.58203 8.8152 4.583 7.99983 4.63465 7.36774C4.6851 6.75024 4.77761 6.41853 4.89993 6.17847C5.17956 5.62966 5.62575 5.18347 6.17456 4.90384C6.41462 4.78152 6.74633 4.68901 7.36383 4.63855C7.99592 4.58691 8.8113 4.58594 9.9987 4.58594C11.1861 4.58594 12.0015 4.58691 12.6336 4.63855C13.2511 4.68901 13.5828 4.78152 13.8228 4.90384C14.3716 5.18347 14.8178 5.62966 15.0975 6.17847C15.2198 6.41853 15.3123 6.75024 15.3627 7.36774C15.4144 7.99983 15.4154 8.8152 15.4154 10.0026V15.9179C15.415 16.0425 15.4151 16.1699 15.4152 16.3004C15.4153 16.3667 15.4154 16.4339 15.4154 16.5018L15.4154 30.0026C15.4154 30.0257 15.4154 30.0486 15.4154 30.0714ZM7.08203 31.6693C7.08203 30.9789 7.64168 30.4193 8.33203 30.4193H11.6654C12.3557 30.4193 12.9154 30.9789 12.9154 31.6693C12.9154 32.3596 12.3557 32.9193 11.6654 32.9193H8.33203C7.64168 32.9193 7.08203 32.3596 7.08203 31.6693Z" fill="#757868"/>
</svg>
