<svg width="80" height="80" viewBox="0 0 80 80" fill="none" xmlns="http://www.w3.org/2000/svg">
<path d="M45.4696 60.9896C41.2919 60.9896 31.0236 62.2622 23.4232 63.3122C20.8506 63.6676 18.6907 61.2337 19.1591 58.6792C19.6867 55.8016 20.1363 52.3192 20.1363 48.9896C20.1363 44.7145 19.3952 38.1125 18.6993 32.9888C18.3557 30.4594 20.6718 28.3298 23.1687 28.8601C29.3295 30.1687 37.8495 31.6563 43.6918 31.6563C49.7439 31.6563 59.7336 30.7694 66.8268 30.025C69.3531 29.7598 71.3889 32.1374 70.8457 34.6189C70.1292 37.892 69.4696 41.7297 69.4696 44.5451C69.4696 47.8688 70.3888 54.1491 71.2357 59.123C71.6491 61.5506 69.5736 63.705 67.1364 63.3531C59.8111 62.2956 49.7018 60.9896 45.4696 60.9896Z" stroke="#513117" stroke-width="2"/>
<path fill-rule="evenodd" clip-rule="evenodd" d="M13.5987 18.1042C10.4322 17.4317 7.49282 20.1231 7.93054 23.3457C8.62664 28.4706 9.35846 35.012 9.35846 39.2119C9.35846 42.4601 8.91896 45.8783 8.39768 48.7211C7.81701 51.8879 10.4776 54.9816 13.7823 54.5251C15.6976 54.2605 17.7743 53.9829 19.8755 53.7156C19.945 53.0426 20.003 52.3612 20.0465 51.6777C17.7814 51.964 15.5447 52.2626 13.5086 52.5439C11.6678 52.7982 10.0088 51.0241 10.3649 49.0819C10.8989 46.1696 11.3585 42.6229 11.3585 39.2119C11.3585 34.8617 10.6081 28.199 9.91234 23.0765C9.66294 21.2404 11.3558 19.6725 13.1831 20.0606C19.3466 21.3697 27.957 22.8786 33.914 22.8786C40.0254 22.8786 50.0639 21.9859 57.1533 21.2418C58.9682 21.0513 60.4956 22.7789 60.091 24.6273C59.6665 26.5666 59.2553 28.7306 58.9898 30.7811C59.6761 30.721 60.3583 30.6594 61.0323 30.5971C61.2856 28.7719 61.6538 26.8408 62.0447 25.055C62.7265 21.9406 60.1824 18.9129 56.9446 19.2527C49.8477 19.9976 39.9068 20.8786 33.914 20.8786C28.1864 20.8786 19.7569 19.4123 13.5987 18.1042Z" fill="#513117"/>
</svg>
