<svg width="120" height="120" viewBox="0 0 120 120" fill="none" xmlns="http://www.w3.org/2000/svg">
<g id="LED">
<path id="Vector" d="M71.2445 1H51.1116C45.1698 1 40.3432 5.82648 40.3432 11.7683V80.5801C40.3432 85.3297 43.4391 89.3677 47.7176 90.7907C47.7176 90.8676 47.708 90.9349 47.708 91.0118V102.521C47.708 105.915 50.4674 108.684 53.871 108.684H54.2075V119H57.7553V108.684H64.6297V119H68.1775V108.684H68.514C71.908 108.684 74.677 105.924 74.677 102.521V91.0118C74.677 90.9349 74.677 90.8676 74.6674 90.7907C78.9459 89.3677 82.0418 85.3297 82.0418 80.5801V11.7683C82.0418 5.82648 77.2152 1 71.2734 1H71.2445ZM68.4948 105.145H53.8614C52.4192 105.145 51.2462 103.972 51.2462 102.53V91.358H71.1099V102.53C71.1099 103.972 69.9369 105.145 68.4948 105.145ZM78.4747 80.5897C78.4747 83.7818 76.3884 86.5026 73.504 87.4448C72.3887 85.8872 70.5619 84.8585 68.4948 84.8585H53.8614C51.8038 84.8585 49.9771 85.8776 48.8522 87.4448C45.9678 86.493 43.8814 83.7818 43.8814 80.5897V11.7779C43.8814 7.79749 47.1215 4.55736 51.102 4.55736H71.2349C75.2153 4.55736 78.4555 7.79749 78.4555 11.7779V80.5897H78.4747ZM55.9669 78.0417H66.3892V81.5897H55.9669V78.0417ZM55.9669 71.2251H66.3892V74.7728H55.9669V71.2251ZM47.6984 14.172H54.3998V20.8733H47.6984V14.172ZM64.5335 20.8733H57.8322V14.172H64.5335V20.8733ZM67.9564 14.172H74.6577V20.8733H67.9564V14.172ZM47.6984 24.5943H54.3998V31.2956H47.6984V24.5943ZM64.5335 31.2956H57.8322V24.5943H64.5335V31.2956ZM67.9564 24.5943H74.6577V31.2956H67.9564V24.5943ZM47.6984 35.0067H54.3998V41.7083H47.6984V35.0067ZM64.5335 41.7083H57.8322V35.0067H64.5335V41.7083ZM67.9564 35.0067H74.6577V41.7083H67.9564V35.0067ZM47.6984 45.429H54.3998V52.1304H47.6984V45.429ZM64.5335 52.1304H57.8322V45.429H64.5335V52.1304ZM67.9564 45.429H74.6577V52.1304H67.9564V45.429ZM47.6984 55.8417H54.3998V62.5431H47.6984V55.8417ZM64.5335 62.5431H57.8322V55.8417H64.5335V62.5431ZM67.9564 55.8417H74.6577V62.5431H67.9564V55.8417ZM108.482 35.0067H94.9542C90.9641 35.0067 87.7143 38.2565 87.7143 42.2466V88.4833C87.7143 91.6753 89.7911 94.3865 92.6659 95.348C92.6659 95.3961 92.6659 95.4443 92.6659 95.502V103.232C92.6659 105.511 94.5215 107.376 96.8002 107.376H97.0213V114.308H99.4057V107.376H104.03V114.308H106.415V107.376H106.636C108.915 107.376 110.78 105.52 110.78 103.232V95.502C110.78 95.4539 110.78 95.4057 110.78 95.348C113.655 94.3865 115.731 91.6753 115.731 88.4833V42.2466C115.731 38.2565 112.482 35.0067 108.491 35.0067H108.482ZM106.636 104.991H96.8002C95.8291 104.991 95.0407 104.203 95.0407 103.232V95.7231H108.386V103.232C108.386 104.203 107.597 104.991 106.626 104.991H106.636ZM113.337 88.4833C113.337 90.6273 111.934 92.4541 110.001 93.0887C109.251 92.0407 108.02 91.3484 106.636 91.3484H96.8002C95.4157 91.3484 94.185 92.0311 93.4351 93.0887C91.5026 92.4541 90.0987 90.6273 90.0987 88.4833V42.2466C90.0987 39.5737 92.2813 37.3914 94.9542 37.3914H108.482C111.155 37.3914 113.337 39.5737 113.337 42.2466V88.4833ZM98.2135 86.7815H105.213V89.1659H98.2135V86.7815ZM98.2135 82.1953H105.213V84.5797H98.2135V82.1953ZM92.6659 43.862H97.1656V48.3615H92.6659V43.862ZM103.973 48.3615H99.473V43.862H103.973V48.3615ZM106.271 43.862H110.77V48.3615H106.271V43.862ZM92.6659 50.8612H97.1656V55.361H92.6659V50.8612ZM103.973 55.361H99.473V50.8612H103.973V55.361ZM106.271 50.8612H110.77V55.361H106.271V50.8612ZM92.6659 57.8607H97.1656V62.3605H92.6659V57.8607ZM103.973 62.3605H99.473V57.8607H103.973V62.3605ZM106.271 57.8607H110.77V62.3605H106.271V57.8607ZM92.6659 64.8601H97.1656V69.3599H92.6659V64.8601ZM103.973 69.3693H99.473V64.8697H103.973V69.3693ZM106.271 64.8601H110.77V69.3599H106.271V64.8601ZM92.6659 71.8596H97.1656V76.3591H92.6659V71.8596ZM103.973 76.3688H99.473V71.8692H103.973V76.3688ZM106.271 71.8596H110.77V76.3591H106.271V71.8596ZM25.7675 35.0067H12.2397C8.24965 35.0067 5 38.2565 5 42.2466V88.4833C5 91.6753 7.07666 94.3865 9.95143 95.348C9.95143 95.3961 9.95143 95.4443 9.95143 95.502V103.232C9.95143 105.511 11.8071 107.376 14.0858 107.376H14.3069V114.308H16.6913V107.376H21.316V114.308H23.7004V107.376H23.9215C26.2001 107.376 28.0654 105.52 28.0654 103.232V95.502C28.0654 95.4539 28.0654 95.4057 28.0654 95.348C30.9402 94.3865 33.0168 91.6753 33.0168 88.4833V42.2466C33.0168 38.2565 29.7672 35.0067 25.7771 35.0067H25.7675ZM23.9215 104.991H14.0858C13.1147 104.991 12.3263 104.203 12.3263 103.232V95.7231H25.6714V103.232C25.6714 104.203 24.8829 104.991 23.9118 104.991H23.9215ZM30.6228 88.4833C30.6228 90.6273 29.2191 92.4541 27.2866 93.0887C26.5366 92.0407 25.306 91.3484 23.9215 91.3484H14.0858C12.7012 91.3484 11.4706 92.0311 10.7206 93.0887C8.78811 92.4541 7.3844 90.6273 7.3844 88.4833V42.2466C7.3844 39.5737 9.56685 37.3914 12.2397 37.3914H25.7675C28.4404 37.3914 30.6228 39.5737 30.6228 42.2466V88.4833ZM15.4991 86.7815H22.4985V89.1659H15.4991V86.7815ZM15.4991 82.1953H22.4985V84.5797H15.4991V82.1953ZM9.9418 43.862H14.4415V48.3615H9.9418V43.862ZM21.2486 48.3615H16.749V43.862H21.2486V48.3615ZM23.5561 43.862H28.0558V48.3615H23.5561V43.862ZM9.9418 50.8612H14.4415V55.361H9.9418V50.8612ZM21.2486 55.361H16.749V50.8612H21.2486V55.361ZM23.5561 50.8612H28.0558V55.361H23.5561V50.8612ZM9.9418 57.8607H14.4415V62.3605H9.9418V57.8607ZM21.2486 62.3605H16.749V57.8607H21.2486V62.3605ZM23.5561 57.8607H28.0558V62.3605H23.5561V57.8607ZM9.9418 64.8601H14.4415V69.3599H9.9418V64.8601ZM21.2486 69.3693H16.749V64.8697H21.2486V69.3693ZM23.5561 64.8601H28.0558V69.3599H23.5561V64.8601ZM9.9418 71.8596H14.4415V76.3591H9.9418V71.8596ZM21.2486 76.3688H16.749V71.8692H21.2486V76.3688ZM23.5561 71.8596H28.0558V76.3591H23.5561V71.8596Z" fill="#513117"/>
</g>
</svg>
