<svg width="40" height="36" viewBox="0 0 40 36" fill="none" xmlns="http://www.w3.org/2000/svg">
<path d="M20.4884 1.83594C17.735 6.42489 24.4295 17.8163 20.4884 24.0249" stroke="#231F20" stroke-width="0.377914" stroke-linecap="round" stroke-linejoin="round"/>
<path d="M19.0312 1.40368L21.6227 0L21.5147 2.96933L19.0312 1.40368Z" fill="#231F20"/>
<path d="M13.634 6.09766C13.634 6.09766 9.47693 13.7099 14.8217 21.9161" stroke="#231F20" stroke-width="0.377914" stroke-linecap="round" stroke-linejoin="round"/>
<path d="M12.1211 5.77337L14.6045 4.26172L14.7125 7.17706L12.1211 5.77337Z" fill="#231F20"/>
<path d="M27.1836 8.6875C27.1836 8.6875 29.613 16.5157 26.4277 22.8863" stroke="#231F20" stroke-width="0.377914" stroke-linecap="round" stroke-linejoin="round"/>
<path d="M25.9414 9.54885L26.5893 6.6875L28.7488 8.68504L25.9414 9.54885Z" fill="#231F20"/>
<path d="M13.957 17.9766L20.1116 15.8711" stroke="#231F20" stroke-width="0.593865" stroke-linecap="round" stroke-linejoin="round"/>
<path d="M29.0196 18.9489L39.2233 22.5121L20.1117 30.6103L1 22.5121L12.0675 18.625" stroke="#231F20" stroke-linecap="round" stroke-linejoin="round"/>
<path d="M33.7171 25.1055L39.2238 27.049L20.1122 35.2012L2.99805 27.4269" stroke="#231F20" stroke-linecap="round" stroke-linejoin="round"/>
<path d="M22.4336 16.6797L26.6986 18.1374" stroke="#231F20" stroke-width="0.593865" stroke-linecap="round" stroke-linejoin="round"/>
</svg>
