<svg width="80" height="80" viewBox="0 0 80 80" fill="none" xmlns="http://www.w3.org/2000/svg">
<g id="Certified">
<g id="Group 7">
<path id="Vector" d="M40.0245 76C39.7322 76 39.4399 75.9292 39.1654 75.7963C30.751 71.5626 23.8956 65.9914 18.7939 59.2511C14.7107 53.8748 11.7347 47.7368 9.93668 41.0053C6.88982 29.5707 8.33354 20.5541 8.39554 20.1732C8.51069 19.5089 9.07754 18.9775 9.78611 18.8624L11.6196 18.5612C22.1242 16.8341 31.7253 11.8563 38.6694 4.54914C38.9971 4.20371 39.4842 4 39.9979 4C40.4142 4 40.8217 4.13291 41.1405 4.38091C41.2114 4.43405 41.2645 4.47827 41.3088 4.53141C48.2794 11.8474 57.8894 16.8252 68.3675 18.5524L70.2009 18.8446C70.9272 18.9598 71.5029 19.5001 71.6269 20.1643C71.7775 21.1121 73.0352 29.925 70.1035 40.9876C68.3055 47.7279 65.3294 53.8659 61.2463 59.2245C56.1357 65.9736 49.2803 71.536 40.8659 75.7786L40.8394 75.7963C40.6091 75.9203 40.3345 75.9823 40.0157 75.9823M39.0945 8.84485C31.8848 15.4257 22.7619 19.8277 12.7179 21.5815L11.6993 21.7587L11.6373 22.6886C11.2387 28.6672 11.8233 34.6547 13.3733 40.4828C15.0738 46.7979 17.8904 52.555 21.7433 57.6036C26.225 63.4848 32.1416 68.4271 39.3425 72.2888L40.0245 72.652L40.7065 72.2888C47.9694 68.4005 53.9214 63.4228 58.3854 57.4885C62.2117 52.4576 65.0194 46.665 66.7289 40.2878C68.2523 34.5395 68.828 28.6229 68.4295 22.6975L68.3675 21.7675L67.3489 21.5903C57.2694 19.8455 48.1643 15.4435 40.9988 8.86258L40.0511 7.99459L39.1034 8.86258L39.0945 8.84485Z" fill="#513117"/>
<path id="Vector_2" d="M40.0515 51.2802C39.5732 51.2802 39.1303 51.1385 38.7938 50.8728L27.0137 41.6258C26.686 41.3601 26.5 41.0058 26.5 40.6338C26.5 40.2618 26.686 39.9164 27.0226 39.6596C27.3591 39.3939 27.8109 39.2522 28.2891 39.2522C28.7674 39.2522 29.2103 39.3939 29.5469 39.6596L39.5555 47.507L51.7607 28.9158C52.0618 28.4287 52.6818 28.1187 53.3727 28.1187C53.6384 28.1187 53.8952 28.163 54.1344 28.2604C54.5684 28.4198 54.8961 28.7033 55.0644 29.0576C55.2238 29.403 55.1972 29.7838 54.9935 30.1204L41.7078 50.5185C41.4775 50.8905 41.0435 51.1739 40.5209 51.2802C40.4855 51.2802 40.4501 51.2802 40.4235 51.2802C40.3349 51.2802 40.2552 51.2802 40.1755 51.2802C40.14 51.2802 40.1046 51.2802 40.0692 51.2802" fill="#513117"/>
</g>
</g>
</svg>
