<svg width="58" height="43" viewBox="0 0 58 43" fill="none" xmlns="http://www.w3.org/2000/svg">
<path id="&#226;&#128;&#156;" d="M33.7168 42.5332V35.3848C37.4499 35.3848 40.9248 34.1735 44.1416 31.751C47.3584 29.3682 48.9668 26.5088 48.9668 23.1729C48.9668 21.1872 48.1725 20.1943 46.584 20.1943C46.2266 20.1943 45.5117 20.3333 44.4395 20.6113C43.3275 20.8496 42.4339 20.9688 41.7588 20.9688C39.5745 20.9688 37.5293 20.0752 35.623 18.2881C33.6771 16.5407 32.7041 14.1182 32.7041 11.0205C32.7041 8.00228 33.6969 5.40104 35.6826 3.2168C37.6683 1.07227 40.3887 0 43.8438 0C47.974 0 51.3099 1.54883 53.8516 4.64648C56.3932 7.78386 57.6641 12.1325 57.6641 17.6924C57.6641 25.3571 55.3408 31.3538 50.6943 35.6826C46.0081 40.0511 40.349 42.3346 33.7168 42.5332ZM1.0127 42.5332V35.3848C4.5472 35.3848 7.98242 34.1934 11.3184 31.8105C14.6146 29.4674 16.2627 26.5882 16.2627 23.1729C16.2627 21.1872 15.4684 20.1943 13.8799 20.1943C13.5225 20.1943 12.8076 20.3333 11.7354 20.6113C10.6234 20.8496 9.72982 20.9688 9.05469 20.9688C6.7513 20.9688 4.66634 20.0553 2.7998 18.2285C0.93327 16.4017 0 13.999 0 11.0205C0 8.00228 0.99284 5.40104 2.97852 3.2168C4.96419 1.07227 7.68457 0 11.1396 0C15.2699 0 18.6058 1.54883 21.1475 4.64648C23.6891 7.78386 24.96 12.1325 24.96 17.6924C24.96 25.3571 22.6367 31.3538 17.9902 35.6826C13.304 40.0511 7.64486 42.3346 1.0127 42.5332Z" fill="#F3EFE7"/>
</svg>
