<svg width="58" height="44" viewBox="0 0 58 44" fill="none" xmlns="http://www.w3.org/2000/svg">
<path id="&#226;&#128;&#156;" d="M23.9473 0.792969V7.94141C20.2142 7.94141 16.7393 9.15267 13.5225 11.5752C10.3057 13.958 8.69727 16.8174 8.69727 20.1533C8.69727 22.139 9.49154 23.1318 11.0801 23.1318C11.4375 23.1318 12.1523 22.9928 13.2246 22.7148C14.3366 22.4766 15.2301 22.3574 15.9053 22.3574C18.0895 22.3574 20.1348 23.251 22.041 25.0381C23.987 26.7855 24.96 29.208 24.96 32.3057C24.96 35.3239 23.9671 37.9251 21.9814 40.1094C19.9958 42.2539 17.2754 43.3262 13.8203 43.3262C9.6901 43.3262 6.35417 41.7773 3.8125 38.6797C1.27083 35.5423 0 31.1937 0 25.6338C0 17.9691 2.32324 11.9723 6.96973 7.64355C11.6559 3.27506 17.3151 0.991536 23.9473 0.792969ZM56.6514 0.792969V7.94141C53.1169 7.94141 49.6816 9.13281 46.3457 11.5156C43.0495 13.8587 41.4014 16.738 41.4014 20.1533C41.4014 22.139 42.1956 23.1318 43.7842 23.1318C44.1416 23.1318 44.8564 22.9928 45.9287 22.7148C47.0407 22.4766 47.9342 22.3574 48.6094 22.3574C50.9128 22.3574 52.9977 23.2708 54.8643 25.0977C56.7308 26.9245 57.6641 29.3271 57.6641 32.3057C57.6641 35.3239 56.6712 37.9251 54.6855 40.1094C52.6999 42.2539 49.9795 43.3262 46.5244 43.3262C42.3942 43.3262 39.0583 41.7773 36.5166 38.6797C33.9749 35.5423 32.7041 31.1937 32.7041 25.6338C32.7041 17.9691 35.0273 11.9723 39.6738 7.64355C44.36 3.27506 50.0192 0.991536 56.6514 0.792969Z" fill="#F3EFE7"/>
</svg>
