<svg width="80" height="80" viewBox="0 0 80 80" fill="none" xmlns="http://www.w3.org/2000/svg">
<path d="M39.9401 66.9686C39.3755 66.9686 38.811 66.9456 38.2464 66.9111C25.6754 66.093 15.3628 56.368 13.7381 43.8085C13.7151 43.4744 13.6805 43.0596 13.162 42.7255L12.8163 42.5065C12.8163 42.5065 10.9036 45.3526 10.3735 46.1361C9.85504 46.8966 9.49792 47.2193 9.15224 47.2193C8.8757 47.2193 8.50699 47.0234 8 46.6201V45.6752L9.31357 43.6818C10.5004 41.8843 11.6872 40.0867 12.897 38.3008C13.4501 37.4942 13.8072 36.607 13.9916 35.593C16.2846 23.2871 27.4614 14 39.9863 14C40.5624 14 41.127 14.0231 41.7031 14.0577C54.1013 14.8873 64.6328 24.7735 66.1883 37.0564C66.2113 37.4482 66.2344 37.886 66.7529 38.2432L67.0986 38.4736L68.101 36.9873C68.7002 36.0886 69.2993 35.2013 69.9331 34.3256C70.1174 34.0721 70.417 33.761 70.8203 33.761C71.0162 33.761 71.235 33.8301 71.454 33.9799C72.0531 34.3716 72.1569 34.8672 71.7766 35.5124C71.5692 35.8696 71.3504 36.2153 71.1199 36.561L70.1404 38.0358C69.1149 39.5798 68.0895 41.1238 67.0409 42.6563C66.4879 43.4629 66.1192 44.35 65.9348 45.364C63.5958 57.8774 52.6609 66.9686 39.9286 66.9686H39.9401ZM15.985 41.6308L15.9044 41.9073C15.9966 44.6381 16.6418 47.3806 17.8056 50.0768C21.585 58.7993 30.4111 64.6641 39.7673 64.6641C40.3895 64.6641 41.0117 64.6411 41.6454 64.5835C52.223 63.6848 60.7612 56.5178 63.4229 46.3205C63.8146 44.7995 63.9414 43.1864 62.1324 41.6884C60.8995 40.6629 59.7703 39.4645 58.6641 38.3123C58.3069 37.9321 57.9498 37.5518 57.5811 37.1831C56.7284 36.3074 57.3044 35.7314 57.5003 35.5355C57.7423 35.2935 57.9843 35.1782 58.2378 35.1782C58.5258 35.1782 58.8485 35.328 59.1827 35.6276C59.4938 35.9042 59.7817 36.1922 60.0698 36.4918L63.734 40.1445L63.8377 39.2918C63.9644 38.3124 63.9299 37.4136 63.7455 36.3766C61.8098 25.3496 52.6379 17.1226 41.4497 16.3737C40.9196 16.3391 40.4011 16.316 39.8826 16.316C29.5355 16.316 20.0755 23.3217 16.8722 33.3462C16.1578 35.5816 15.6394 38.1165 18.5315 39.9716C18.8426 40.1675 19.1192 40.467 19.3957 40.7897C19.534 40.9394 19.6722 41.0893 19.8105 41.239L20.5479 41.9765C21.1702 42.5872 21.7808 43.2094 22.38 43.8431C23.1635 44.6727 22.6334 45.2258 22.4606 45.4102C22.2071 45.6752 21.9652 45.8019 21.7002 45.8019C21.4352 45.8019 21.1125 45.6636 20.7899 45.3871C20.4557 45.1106 20.11 44.7764 19.7528 44.3731C19.1076 43.6587 18.4739 42.9328 17.8287 42.2069L16.7455 40.9741L15.985 41.6308ZM39.9517 58.4996C33.3263 58.4996 27.6918 53.1994 27.6457 46.9312C27.5765 43.4514 28.821 40.8243 30.0194 38.2778C32.1625 33.738 34.9394 29.0138 38.7533 23.4139C39.1451 22.8378 39.583 22.5266 39.9863 22.5266C40.4702 22.5266 40.862 22.9529 41.1039 23.3216C44.8372 28.8754 48.6627 34.9478 51.3589 41.6423C52.7416 45.076 52.5803 48.7056 50.9095 51.8742C49.2157 55.0775 46.1047 57.4511 42.5673 58.2231C41.7031 58.4075 40.8274 58.5112 39.9517 58.5112V58.4996ZM39.9632 26.4097C39.5254 26.4097 39.2488 26.7899 39.076 27.0664C38.7764 27.5619 38.4654 28.0458 38.1427 28.5298C37.774 29.1059 37.3937 29.682 37.0365 30.2697L36.8751 30.5347C34.4209 34.579 31.8744 38.7733 30.3995 43.4053C29.1436 47.3575 30.1576 50.9179 33.3263 53.6833C35.2736 55.3886 37.4398 56.2528 39.7673 56.2528C41.1269 56.2528 42.5213 55.9532 43.9155 55.3656C47.6718 53.7755 49.7688 50.6875 49.9992 46.4357C50.0683 44.8225 49.596 43.3823 49.1696 42.3107C46.9573 36.7223 43.8578 31.7215 40.862 27.0664C40.6776 26.7783 40.3895 26.3981 39.9517 26.3981L39.9632 26.4097ZM39.5369 52.8076C39.9632 52.8076 40.9773 52.7154 41.0349 51.8973C41.0579 51.6208 41.1154 50.7681 39.8019 50.5837C37.2324 50.238 35.7805 48.7633 35.4694 46.2168C35.4118 45.779 35.2045 45.053 34.2597 45.053C33.7527 45.0991 33.2342 45.3064 33.2342 46.5278C33.2572 49.708 36.2875 52.7615 39.4792 52.8076H39.5369Z" fill="#513117"/>
</svg>
