<svg width="100" height="100" viewBox="0 0 100 100" fill="none" xmlns="http://www.w3.org/2000/svg">
<rect width="100" height="100" rx="50" fill="none"/>
<path d="M79.1213 49.9047C79.1213 66.2791 65.8957 79.5047 49.5213 79.5047C33.2255 79.5047 20 66.2791 20 49.9047C20 33.6089 33.2255 20.3047 49.5213 20.3047C65.8957 20.3047 79.1213 33.6089 79.1213 49.9047Z" stroke="#533F38" stroke-width="1.25957" stroke-miterlimit="10"/>
<path d="M33.6218 47.146H37.4005C37.8729 47.146 38.2665 46.7524 38.2665 46.28C38.2665 45.8077 37.8729 45.4141 37.4005 45.4141H33.6218C33.1495 45.4141 32.7559 45.8077 32.7559 46.28C32.7559 46.7524 33.1495 47.146 33.6218 47.146Z" fill="#533F38"/>
<path d="M45.0352 33.9993V37.7781C45.0352 38.2504 45.4288 38.644 45.9011 38.644C46.4522 38.644 46.8458 38.2504 46.8458 37.7781V33.9993C46.8458 33.527 46.4522 33.0547 45.9011 33.0547C45.4288 33.0547 45.0352 33.527 45.0352 33.9993Z" fill="#533F38"/>
<path d="M37.9499 39.5903C38.2648 39.9052 38.8946 39.9052 39.2094 39.5903C39.5243 39.1967 39.5243 38.6456 39.2094 38.3307L36.5329 35.6541C36.218 35.3392 35.6669 35.3392 35.2733 35.6541C34.9584 35.969 34.9584 36.5201 35.2733 36.9137L37.9499 39.5903Z" fill="#533F38"/>
<path d="M65.5041 52.6602H61.7253C61.253 52.6602 60.8594 53.0538 60.8594 53.5261C60.8594 53.9985 61.253 54.3921 61.7253 54.3921H65.5041C65.9764 54.3921 66.37 53.9985 66.37 53.5261C66.37 53.0538 65.9764 52.6602 65.5041 52.6602Z" fill="#533F38"/>
<path d="M53.1433 61.1602C52.671 61.1602 52.2773 61.5538 52.2773 62.1048V65.8836C52.2773 66.3559 52.671 66.7495 53.1433 66.7495C53.6944 66.7495 54.088 66.3559 54.088 65.8836V62.1048C54.088 61.5538 53.6944 61.1602 53.1433 61.1602Z" fill="#533F38"/>
<path d="M61.1735 60.2952C60.7799 59.9016 60.2288 59.9016 59.9139 60.2952C59.599 60.6101 59.599 61.1612 59.9139 61.5548L62.5905 64.2314C62.9054 64.5463 63.4565 64.5463 63.8501 64.2314C64.165 63.8378 64.165 63.2867 63.8501 62.9718L61.1735 60.2952Z" fill="#533F38"/>
<path d="M47.1622 52.3443C46.8473 52.3443 46.6111 52.2655 46.3749 52.0294C45.7451 51.3471 45.2466 50.5861 44.8792 49.7464C44.5118 48.9067 44.3281 48.0407 44.3281 47.1485C44.3281 46.2563 44.5118 45.3904 44.8792 44.5507C45.2466 43.7109 45.7451 42.9499 46.3749 42.2677L54.9558 33.7655C55.5856 33.0833 56.3466 32.5584 57.2388 32.1911C58.026 31.8762 58.8657 31.7188 59.7579 31.7188C60.7026 31.7188 61.5685 31.8762 62.3558 32.1911C63.248 32.5584 64.009 33.0833 64.6388 33.7655L65.7409 34.7889C66.4232 35.4712 66.9217 36.2322 67.2366 37.0719C67.604 37.9116 67.7877 38.7776 67.7877 39.6698C67.7877 40.562 67.604 41.4279 67.2366 42.2677C66.9217 43.1074 66.4232 43.8684 65.7409 44.5507L59.6792 50.6911C59.443 50.8485 59.1281 51.006 58.8132 51.006C58.4983 51.006 58.2622 50.8485 58.026 50.6911C57.7898 50.4549 57.7111 50.14 57.7111 49.8251C57.7111 49.589 57.7898 49.2741 58.026 49.0379L64.1664 42.9762C64.5863 42.5038 64.9274 41.979 65.1898 41.4017C65.3997 40.8769 65.5047 40.2996 65.5047 39.6698C65.5047 39.0925 65.3997 38.5152 65.1898 37.9379C64.9274 37.3606 64.5863 36.862 64.1664 36.4422L63.0643 35.34C62.5919 34.8677 62.0934 34.5265 61.5685 34.3166C60.9912 34.1067 60.3877 34.0017 59.7579 34.0017C59.1806 34.0017 58.6033 34.1067 58.026 34.3166C57.4487 34.579 56.9501 34.9201 56.5302 35.34L48.0281 43.8421C47.5558 44.3145 47.2147 44.8393 47.0047 45.4166C46.7423 45.9414 46.6111 46.5187 46.6111 47.1485C46.6111 47.7258 46.7423 48.3031 47.0047 48.8804C47.2147 49.4577 47.5558 49.9563 48.0281 50.3762C48.4217 50.8485 48.4217 51.557 48.0281 52.0294C47.792 52.2655 47.4771 52.3443 47.1622 52.3443Z" fill="#533F38"/>
<path d="M39.289 68.0904C38.3968 68.0904 37.5308 67.9329 36.6911 67.618C35.8514 67.2506 35.0904 66.7521 34.4081 66.1223L33.3847 65.0201C32.7024 64.3904 32.2038 63.6294 31.889 62.7372C31.5216 61.8974 31.3379 61.0315 31.3379 60.1393C31.3379 59.2471 31.5216 58.3811 31.889 57.5414C32.2038 56.7017 32.7024 55.9407 33.3847 55.2584L39.6038 49.0393C39.84 48.8031 40.1549 48.7244 40.4698 48.7244C40.706 48.7244 41.0209 48.8031 41.257 49.0393C41.4145 49.2755 41.5719 49.5117 41.5719 49.8265C41.5719 50.1414 41.4145 50.3776 41.257 50.6138L34.9592 56.9117C34.5393 57.3315 34.1982 57.8301 33.9358 58.4074C33.7258 58.9847 33.6209 59.562 33.6209 60.1393C33.6209 60.7691 33.7258 61.3464 33.9358 61.8712C34.1982 62.4485 34.5393 62.9733 34.9592 63.4457L36.0613 64.4691C36.4812 64.9414 36.9797 65.2825 37.557 65.4925C38.1343 65.7549 38.7116 65.8861 39.289 65.8861C39.9187 65.8861 40.5223 65.7549 41.0996 65.4925C41.6244 65.2825 42.123 64.9414 42.5953 64.4691L51.0975 55.967C51.5698 55.5471 51.9109 55.0485 52.1209 54.4712C52.3833 53.8939 52.5145 53.2904 52.5145 52.6606C52.5145 52.0833 52.3833 51.5059 52.1209 50.9286C51.9109 50.3513 51.5698 49.8528 51.0975 49.4329C50.7038 48.9606 50.7038 48.2521 51.0975 47.8585C51.3336 47.6223 51.6485 47.4648 51.9634 47.4648C52.1996 47.4648 52.5145 47.6223 52.7507 47.8585C53.3804 48.4882 53.879 49.223 54.2464 50.0627C54.5613 50.9024 54.7187 51.7684 54.7187 52.6606C54.7187 53.6052 54.5613 54.4712 54.2464 55.2584C53.879 56.1506 53.3804 56.9116 52.7507 57.5414L44.1698 66.1223C43.54 66.7521 42.779 67.2506 41.8868 67.618C41.0996 67.9329 40.2336 68.0904 39.289 68.0904Z" fill="#533F38"/>
</svg>
