<svg width="28" height="28" viewBox="0 0 28 28" fill="none" xmlns="http://www.w3.org/2000/svg">
<path fill-rule="evenodd" clip-rule="evenodd" d="M15.9683 4.83137L17.0923 5.95536C17.434 6.29707 17.434 6.85109 17.0923 7.1928C16.7506 7.5345 16.1966 7.5345 15.8549 7.1928L14.7301 6.06802L13.4926 7.30546L15.4424 9.25519C15.7841 9.5969 15.7841 10.1509 15.4424 10.4926C15.1007 10.8343 14.5466 10.8343 14.2049 10.4926L12.2552 8.5429L11.0178 9.78033L12.1425 10.9051C12.4843 11.2468 12.4843 11.8008 12.1425 12.1425C11.8008 12.4843 11.2468 12.4843 10.9051 12.1425L9.78033 11.0178L8.5429 12.2552L10.4926 14.2049C10.8343 14.5466 10.8343 15.1007 10.4926 15.4424C10.1509 15.7841 9.5969 15.7841 9.25519 15.4424L7.30546 13.4926L6.06802 14.7301L7.1928 15.8549C7.5345 16.1966 7.5345 16.7506 7.1928 17.0923C6.85109 17.434 6.29707 17.434 5.95536 17.0923L4.83137 15.9683C4.28972 16.5149 3.89896 16.9263 3.62424 17.2864C3.28592 17.7298 3.20703 17.9911 3.20703 18.2171C3.20703 18.443 3.28592 18.7043 3.62424 19.1477C3.97797 19.6114 4.5241 20.1601 5.33702 20.973L7.02436 22.6604C7.83728 23.4733 8.38603 24.0194 8.84966 24.3732C9.29309 24.7115 9.55436 24.7904 9.78033 24.7904C10.0063 24.7904 10.2676 24.7115 10.711 24.3732C11.1746 24.0194 11.7234 23.4733 12.5363 22.6604L22.6604 12.5363C23.4733 11.7234 24.0194 11.1746 24.3732 10.711C24.7115 10.2676 24.7904 10.0063 24.7904 9.78033C24.7904 9.55436 24.7115 9.29309 24.3732 8.84966C24.0194 8.38603 23.4733 7.83728 22.6604 7.02436L20.973 5.33702C20.1601 4.5241 19.6114 3.97797 19.1477 3.62424C18.7043 3.28592 18.443 3.20703 18.2171 3.20703C17.9911 3.20703 17.7298 3.28592 17.2864 3.62424C16.9263 3.89896 16.5149 4.28972 15.9683 4.83137ZM16.2249 2.23295C16.824 1.77586 17.4546 1.45703 18.2171 1.45703C18.9795 1.45703 19.6102 1.77586 20.2093 2.23295C20.7774 2.66647 21.4087 3.29776 22.1674 4.05651L23.9409 5.82998C24.6996 6.58869 25.3309 7.21995 25.7644 7.78814C26.2215 8.38724 26.5404 9.01788 26.5404 9.78033C26.5404 10.5428 26.2215 11.1734 25.7644 11.7725C25.3309 12.3407 24.6996 12.972 23.9409 13.7307L13.7307 23.9409C12.972 24.6996 12.3407 25.3309 11.7725 25.7644C11.1734 26.2215 10.5428 26.5404 9.78033 26.5404C9.01788 26.5404 8.38724 26.2215 7.78814 25.7644C7.21995 25.3309 6.58868 24.6996 5.82998 23.9409L4.05651 22.1674C3.29776 21.4087 2.66647 20.7774 2.23295 20.2093C1.77586 19.6102 1.45703 18.9795 1.45703 18.2171C1.45703 17.4546 1.77586 16.824 2.23295 16.2249C2.66648 15.6567 3.29779 15.0254 4.05655 14.2667L14.2667 4.05654C15.0254 3.29778 15.6567 2.66647 16.2249 2.23295Z" fill="#513117"/>
</svg>
