<svg width="26" height="26" viewBox="0 0 26 26" fill="none" xmlns="http://www.w3.org/2000/svg">
<path d="M17.6201 2.99007C13.8101 -0.819932 7.60012 -0.819932 3.79012 2.99007C-0.0198827 6.80007 -0.0198827 13.0101 3.79012 16.8301C7.19012 20.2301 12.4801 20.5901 16.2901 17.9401C16.3701 18.3201 16.5501 18.6801 16.8501 18.9801L22.4001 24.5301C23.2101 25.3401 24.52 25.3401 25.32 24.5301C26.13 23.7201 26.13 22.4101 25.32 21.6101L19.7701 16.0501C19.4801 15.7601 19.1101 15.5701 18.7301 15.4901C21.3801 11.6801 21.0201 6.39007 17.6201 2.99007ZM15.8701 15.0701C13.0201 17.9201 8.39012 17.9201 5.54012 15.0701C2.69012 12.2201 2.69012 7.59007 5.54012 4.74007C8.39012 1.89007 13.0201 1.89007 15.8701 4.74007C18.7201 7.59007 18.7201 12.2201 15.8701 15.0701Z" fill="#513117"/>
</svg>
