<svg width="27" height="28" viewBox="0 0 27 28" fill="none" xmlns="http://www.w3.org/2000/svg">
<path id="Vector" d="M22.2299 17.9901C20.8899 17.9901 19.6898 18.57 18.8398 19.47L9.84985 14.4601C9.88985 14.2101 9.92993 13.9601 9.92993 13.6901C9.92993 13.4201 9.88985 13.18 9.84985 12.92L18.8398 7.91003C19.6898 8.82003 20.8899 9.39008 22.2299 9.39008C24.7999 9.39008 26.8899 7.30004 26.8899 4.73004C26.8899 2.16004 24.7999 0.0700684 22.2299 0.0700684C19.6599 0.0700684 17.5698 2.16004 17.5698 4.73004C17.5698 5.15004 17.6399 5.55006 17.7499 5.94006L8.93982 10.85C8.08982 9.75004 6.7699 9.03009 5.2699 9.03009C2.6999 9.03009 0.609863 11.1201 0.609863 13.6901C0.609863 16.2601 2.6999 18.35 5.2699 18.35C6.7699 18.35 8.08982 17.6301 8.93982 16.5301L17.7499 21.4401C17.6499 21.8301 17.5698 22.2301 17.5698 22.6501C17.5698 25.2201 19.6599 27.3101 22.2299 27.3101C24.7999 27.3101 26.8899 25.2201 26.8899 22.6501C26.8899 20.0801 24.7999 17.9901 22.2299 17.9901ZM22.2299 2.35004C23.5599 2.35004 24.6299 3.43006 24.6299 4.75006C24.6299 6.07006 23.5499 7.15009 22.2299 7.15009C20.9099 7.15009 19.8298 6.07006 19.8298 4.75006C19.8298 3.43006 20.9099 2.35004 22.2299 2.35004ZM5.27991 16.1C3.94991 16.1 2.87988 15.0201 2.87988 13.7001C2.87988 12.3801 3.95991 11.3 5.27991 11.3C6.59991 11.3 7.67993 12.3801 7.67993 13.7001C7.67993 15.0201 6.59991 16.1 5.27991 16.1ZM22.2299 25.05C20.9099 25.05 19.8298 23.9701 19.8298 22.6501C19.8298 21.3301 20.9099 20.2501 22.2299 20.2501C23.5499 20.2501 24.6299 21.3301 24.6299 22.6501C24.6299 23.9701 23.5499 25.05 22.2299 25.05Z" fill="#513117"/>
</svg>
