<svg width="9" height="10" viewBox="0 0 9 10" fill="none" xmlns="http://www.w3.org/2000/svg">
<path d="M8.30998 0.370007L4.52998 4.15001L0.749982 0.370007C0.599982 0.220007 0.369983 0.220007 0.219983 0.370007C0.0699829 0.520007 0.0699829 0.750006 0.219983 0.900006L3.99998 4.68001L0.219983 8.46C0.0699829 8.61 0.0699829 8.84 0.219983 8.99C0.369983 9.14 0.599982 9.14 0.749982 8.99L4.52998 5.21L8.30998 8.99C8.45998 9.14 8.68998 9.14 8.83998 8.99C8.98998 8.84 8.98998 8.61 8.83998 8.46L5.05998 4.68001L8.83998 0.900006C8.98998 0.750006 8.98998 0.520007 8.83998 0.370007C8.68998 0.220007 8.45998 0.220007 8.30998 0.370007Z" fill="#513117"/>
</svg>
