<svg width="80" height="80" viewBox="0 0 80 80" fill="none" xmlns="http://www.w3.org/2000/svg">
<g id="social">
<path id="Vector" d="M4 57.0207C4.41464 55.937 5.21569 55.3622 6.33711 55.136C7.13812 54.9758 7.91081 54.6743 8.7024 54.5047C11.1337 53.9676 13.3012 52.9026 15.3744 51.5079C18.2957 49.5384 21.4338 47.9741 24.93 47.2767C25.0148 47.2579 25.0996 47.2013 25.2127 47.1542C20.7082 40.1524 19.4265 32.5947 21.5092 24.5657C23.2431 17.8938 27.0785 12.5976 32.7987 8.74337C44.3427 0.968851 59.6656 2.94784 68.9196 13.2385C78.4657 23.8589 78.5694 40.5953 67.8358 51.3948C68.6651 51.2346 69.4379 51.0274 70.2201 50.952C72.3686 50.7446 74.0932 51.5268 75.2052 53.4021C76.3172 55.2868 76.2983 57.1904 75.045 59.0186C74.3193 60.0834 73.3487 60.8939 72.1707 61.4216C69.0326 62.8258 65.8945 64.211 62.747 65.5962C61.946 65.9449 61.3523 65.7753 61.0885 65.1345C60.8246 64.5031 61.0979 64.0037 61.9366 63.6267C64.9899 62.2697 68.0526 60.9316 71.1058 59.5652C72.3403 59.0092 73.3864 58.227 73.7445 56.8417C74.357 54.4953 72.265 52.5163 69.7677 53.1759C67.1008 53.8733 64.4716 54.7214 61.833 55.4941C58.5158 56.4742 55.1987 57.4448 51.891 58.4532C51.5895 58.5474 51.2597 58.7641 51.0995 59.0186C49.9498 60.8373 48.3383 61.5441 46.2368 61.0447C42.9386 60.2625 39.6497 59.452 36.3609 58.6604C35.8426 58.5379 35.3525 58.3684 35.23 57.7652C35.0604 56.9171 35.7483 56.3139 36.6719 56.5307C39.0089 57.0867 41.3459 57.6616 43.6924 58.227C44.6254 58.4532 45.5583 58.6699 46.4913 58.896C47.8671 59.2259 48.6681 58.9526 49.2241 57.9725C49.8555 56.8511 49.6953 55.268 48.8095 54.467C48.4702 54.156 48.0556 53.9015 47.6315 53.7319C44.2013 52.356 40.7899 50.9519 37.322 49.6891C36.1441 49.2556 34.8153 49.0578 33.5526 49.0389C31.1401 49.0012 28.7277 49.0955 26.3246 49.2651C23.4033 49.4724 20.859 50.8011 18.3523 52.177C17.3251 52.7424 16.3262 53.3644 15.3838 54.0429C13.2164 55.6073 10.6814 56.1727 8.18411 56.8606C7.6658 57.002 7.15696 57.1715 6.62924 57.2752C6.2146 57.36 6.12032 57.5767 6.12032 57.9631C6.12032 63.0707 6.12032 68.1784 6.12032 73.286C6.12032 73.465 6.15803 73.6347 6.19573 73.9174C6.72345 73.7289 7.17581 73.5876 7.62814 73.4179C12.7358 71.4767 17.8245 69.4694 22.9698 67.6035C27.0785 66.1146 31.2344 65.9073 35.362 67.679C37.0771 68.414 38.8298 69.0736 40.5638 69.7615C43.2401 70.8264 45.8787 70.8076 48.5173 69.5731C51.2691 68.2915 54.0679 67.1041 56.8479 65.879C57.6489 65.5303 58.2614 65.6812 58.5253 66.2843C58.7985 66.8968 58.5064 67.4717 57.7243 67.8203C54.737 69.1491 51.7497 70.4966 48.7436 71.7877C45.8976 73.0033 42.9951 72.9467 40.1209 71.8819C38.321 71.2128 36.5399 70.5154 34.7871 69.7427C31.1496 68.1501 27.4649 68.2538 23.8368 69.5637C18.2297 71.5803 12.6886 73.7666 7.11923 75.8775C7.06269 75.8963 7.01558 75.9623 6.95904 76H5.69625C4.93293 75.6325 4.36753 75.0764 4.00943 74.3131V57.0207H4ZM62.7565 52.8178C62.3701 51.3949 61.9555 50.0849 61.6822 48.7467C61.4183 47.4651 61.2675 46.1647 61.1073 44.8642C60.9283 43.4883 60.2593 42.4612 59.0813 41.7545C58.5253 41.4152 57.9693 41.0665 57.4228 40.699C56.0375 39.7661 55.1422 38.5128 54.8783 36.8353C54.605 35.092 54.7653 33.3768 55.2647 31.6994C56.1411 28.7592 58.0447 26.8933 61.1451 26.5164C62.5775 26.3373 64.0381 26.4316 65.4894 26.441C66.4506 26.441 66.6485 26.2996 66.6768 25.3384C66.6768 25.1499 66.6767 24.9615 66.639 24.7824C66.2809 23.3312 65.9606 21.8706 65.5177 20.4476C64.8486 18.3178 65.1972 16.4331 66.6768 14.7651C66.7898 14.6332 66.9029 14.4918 66.9029 14.4918C66.394 13.9075 65.9228 13.3704 65.4516 12.8332C63.3407 15.3964 59.8729 15.6037 57.8845 13.408C57.5547 13.0405 57.1494 13.05 56.7348 13.2573C55.7359 13.7756 54.737 14.2845 53.7569 14.8123C51.2691 16.1504 48.3948 15.1232 47.3959 12.4845C47.019 11.4856 46.7175 10.4397 46.4913 9.39366C46.2745 8.3759 46.1992 7.32988 46.0295 6.09538C43.8527 6.57599 41.7041 7.05652 39.4801 7.55598C39.8099 8.20621 40.0455 8.65858 40.2716 9.12034C41.4119 11.448 41.6664 13.8039 40.5355 16.2164C40.2057 16.9137 39.9324 17.6393 39.6026 18.3367C39.301 18.9681 39.3293 19.5334 39.7062 20.1271C39.9984 20.5794 40.2528 21.0601 40.4413 21.5595C41.4308 24.1039 40.9313 27.4964 37.2373 28.6461C36.5022 28.8723 35.7483 29.0608 35.0415 29.3529C33.9484 29.8052 32.8458 30.2671 31.8092 30.8325C31.093 31.2283 30.8009 31.9444 30.8386 32.802C30.914 34.6773 32.0354 36.1191 33.8636 36.6468C35.2394 37.0426 36.5965 36.8447 37.9629 36.5809C40.0926 36.1757 42.2035 35.6008 44.4181 35.94C47.5844 36.4301 49.3749 39.0498 50.1382 41.5754C50.3079 42.1408 49.9969 42.612 49.4315 42.7816C48.8755 42.9512 48.4137 42.7439 48.1592 42.1973C47.9802 41.8204 47.8294 41.4246 47.6504 41.0477C46.4913 38.6635 44.9835 37.7494 42.3637 38.0415C40.4601 38.2488 38.5942 38.7389 36.6907 38.9557C33.8918 39.2666 31.3569 38.6447 29.736 36.138C28.068 33.5559 28.0021 30.2104 31.6585 28.4011C32.2239 28.1278 32.8081 27.8733 33.4018 27.666C34.5232 27.2702 35.6729 26.9499 36.7943 26.5352C38.3963 25.9415 39.0937 24.6788 38.6508 23.0297C38.4623 22.3229 38.1136 21.6349 37.7555 20.9941C37.1713 19.9387 37.0488 18.8832 37.5388 17.7712C37.8686 17.0173 38.1513 16.2541 38.5189 15.519C39.8005 12.9746 38.8675 10.7789 37.5671 8.61142C28.4355 11.3349 20.3972 26.3656 23.1018 35.6291C23.2902 35.6479 23.4976 35.6573 23.7049 35.6761C25.6085 35.8929 27.2482 36.6562 28.3036 38.2959C29.1235 39.5681 29.8114 40.9346 30.4805 42.2916C31.0365 43.4036 31.1402 44.6287 30.9988 45.8537C30.9611 46.193 30.8951 46.5228 30.8292 46.8714C31.4606 46.8714 32.0165 46.8809 32.582 46.8714C34.3913 46.8338 36.1818 46.9374 37.8969 47.5971C39.7911 48.3321 41.6946 49.0578 43.5888 49.7929C44.5783 50.1792 45.5583 50.5844 46.5855 50.9896C47.1321 49.4912 47.6598 48.0683 48.1592 46.6359C48.4325 45.8537 48.9037 45.5051 49.5351 45.6653C50.1759 45.8349 50.4586 46.4568 50.1948 47.2673C49.8838 48.2191 49.5163 49.1614 49.177 50.1038C48.9697 50.6598 48.7718 51.2253 48.5645 51.7907C50.5341 52.6577 51.6083 54.1088 51.7874 56.1915C51.9476 56.182 52.0418 56.1915 52.1266 56.1633C55.4155 55.1926 58.7138 54.2219 62.0027 53.2324C62.3231 53.1382 62.6151 52.9215 62.7753 52.8367L62.7565 52.8178ZM68.2882 15.8771C67.9395 16.6122 67.4778 17.1964 67.4307 17.8184C67.3647 18.6476 67.572 19.5147 67.7416 20.3439C68.062 21.9365 68.6368 23.5102 68.7593 25.1217C68.9478 27.5813 67.5249 28.7781 65.0559 28.5802C64.1512 28.5048 63.2277 28.467 62.323 28.4953C59.8917 28.5613 58.1483 29.7204 57.4698 31.8313C57.1306 32.8868 56.9798 34.0176 56.8761 35.1296C56.6971 36.9578 57.451 38.3525 59.0813 39.2477C59.5714 39.521 60.033 39.8414 60.5042 40.1524C62.0308 41.1701 62.9262 42.5931 63.19 44.4119C63.3785 45.6841 63.5293 46.9657 63.7649 48.2285C63.9628 49.284 64.2548 50.3205 64.5281 51.4608C75.403 42.5554 76.826 26.5069 68.2976 15.8959L68.2882 15.8771ZM48.2912 6.12356C48.1969 7.98945 48.6305 9.65743 49.2147 11.2971C49.9309 13.295 51.2502 13.7473 53.1161 12.7107C54.115 12.1547 55.1422 11.6458 56.1788 11.1746C57.2154 10.7034 58.1861 10.9203 59.0625 11.6176C59.2792 11.7967 59.4959 11.9757 59.7127 12.1547C60.9754 13.2008 62.9073 12.8332 63.7366 11.3443C59.1849 7.91409 54.0585 6.20838 48.2912 6.12356ZM23.4221 37.7871C24.2137 41.0854 25.599 44.035 27.5591 46.7208C27.8513 47.126 28.5015 47.0223 28.5863 46.5511C28.7277 45.7595 28.9256 44.9114 28.7842 44.1481C28.4355 42.2728 27.3707 40.699 26.287 39.1818C25.6367 38.2772 24.6095 37.9002 23.4221 37.7871Z" fill="#513117"/>
</g>
</svg>
