<svg width="80" height="80" viewBox="0 0 80 80" fill="none" xmlns="http://www.w3.org/2000/svg">
<path d="M55.38 71.1465V72.7665H33.48C33.45 72.3065 33.42 71.8465 33.37 71.1965H43.52V62.3265H13.02C13.39 58.9465 12.51 55.7265 14.01 52.5065C18.18 43.5765 22.16 34.5465 26.18 25.5465C26.55 24.7265 26.95 24.3965 27.88 24.3965C38.92 24.4265 49.97 24.4265 61.01 24.3965C61.87 24.3965 62.29 24.6665 62.64 25.4465C66.9 34.9865 71.19 44.5065 75.47 54.0265C75.61 54.3365 75.79 54.6664 75.8 54.9864C75.83 57.3564 75.82 59.7265 75.82 62.2665H45.33V71.1465H55.39H55.38ZM14.76 55.8265V60.5765H74.09V55.8265H14.76ZM52.49 45.5665C47.28 45.5665 42.24 45.5564 37.2 45.5964C36.89 45.5964 36.35 45.9865 36.31 46.2565C35.93 48.8365 35.63 51.4265 35.3 54.0765H53.56C53.2 51.2265 52.86 48.4965 52.49 45.5765V45.5665ZM15.15 54.0864H33.63C33.99 51.2564 34.35 48.4865 34.73 45.5665C29.57 45.5665 24.57 45.5664 19.57 45.5864C19.3 45.5864 18.89 45.8265 18.78 46.0565C17.56 48.6865 16.39 51.3264 15.15 54.0864ZM55.21 54.0565H73.7C72.54 51.4665 71.42 49.0564 70.38 46.6064C70.04 45.8164 69.6 45.5365 68.74 45.5365C64.41 45.5765 60.08 45.5565 55.75 45.5565C55.28 45.5565 54.81 45.5565 54.14 45.5565C54.5 48.4565 54.84 51.1365 55.2 54.0565H55.21ZM51.08 34.5565C46.78 34.5565 42.65 34.5464 38.53 34.5864C38.24 34.5864 37.75 35.0165 37.71 35.3065C37.3 38.1365 36.97 40.9665 36.61 43.8965H52.27C51.87 40.7865 51.49 37.7665 51.08 34.5565ZM52.71 34.5665C53.14 37.8465 53.53 40.8965 53.92 43.8865H69.11C67.75 40.8765 66.48 38.0065 65.15 35.1565C65.02 34.8865 64.59 34.5964 64.29 34.5864C60.51 34.5464 56.73 34.5565 52.7 34.5565L52.71 34.5665ZM36.14 34.5765C32.15 34.5765 28.28 34.5564 24.4 34.6164C24.09 34.6164 23.68 35.1765 23.49 35.5665C22.55 37.5365 21.67 39.5365 20.78 41.5365C20.44 42.2965 20.14 43.0765 19.8 43.8965H34.94C35.34 40.8065 35.73 37.7865 36.14 34.5765ZM38 32.8265H50.81C50.68 31.6465 50.57 30.5465 50.43 29.4465C50.15 27.1865 48.8767 26.0565 46.61 26.0565C44.05 26.0565 41.49 26.0565 38.87 26.0565C38.57 28.3665 38.29 30.4865 37.99 32.8265H38ZM51.63 26.0665C51.94 28.4365 52.22 30.6164 52.51 32.8364H64.16C63.17 30.6464 62.25 28.5765 61.3 26.5265C61.2 26.3165 60.87 26.0864 60.64 26.0864C57.69 26.0564 54.75 26.0665 51.64 26.0665H51.63ZM24.73 32.8165H36.38C36.65 30.5565 36.91 28.3865 37.19 26.0665C34.09 26.0665 31.24 26.0464 28.39 26.0964C28.09 26.0964 27.64 26.3865 27.51 26.6665C26.56 28.6665 25.68 30.6965 24.73 32.8265V32.8165ZM14.55 23.3265C11.82 23.3265 9.62 21.1365 9.65 18.4465C9.68 15.8265 11.88 13.6465 14.5 13.6365C17.2 13.6265 19.4 15.8365 19.37 18.5465C19.34 21.2265 17.23 23.3165 14.55 23.3265ZM11.32 18.5365C11.34 20.3165 12.82 21.7764 14.57 21.7464C16.31 21.7164 17.79 20.1965 17.77 18.4565C17.75 16.6965 16.27 15.2665 14.49 15.2865C12.69 15.3065 11.3 16.7265 11.32 18.5365ZM13.8 29.0665C14.35 29.0265 14.8 28.9964 15.29 28.9664V25.0765H13.8V29.0765V29.0665ZM9.42 14.4764C9.83 13.9964 10.13 13.6464 10.29 13.4664C9.35 12.4364 8.51 11.5265 7.63 10.5565C7.27 10.8965 6.97 11.1865 6.75 11.3965C7.69 12.4765 8.53 13.4464 9.43 14.4764H9.42ZM19.52 14.2264C20.53 13.2664 21.45 12.3865 22.42 11.4565C22.09 11.1665 21.75 10.8665 21.41 10.5565C20.46 11.5265 19.6 12.4065 18.61 13.4165C19.01 13.7765 19.35 14.0764 19.51 14.2264H19.52ZM21.56 26.3865C21.86 26.0465 22.16 25.7064 22.44 25.3764C21.5 24.4064 20.64 23.5165 19.71 22.5465C19.33 22.9165 18.99 23.2265 18.79 23.4265C19.79 24.4865 20.66 25.4164 21.57 26.3764L21.56 26.3865ZM15.36 9.19652C15.34 7.86652 15.25 7.81642 13.78 8.22642V11.8865H15.37C15.37 10.9265 15.38 10.0565 15.37 9.19652H15.36ZM10.44 23.5964C10.08 23.2564 9.74 22.9365 9.41 22.6365C8.46 23.5865 7.57 24.4665 6.62 25.4165C6.94 25.7565 7.26 26.0864 7.53 26.3664C8.58 25.3664 9.48 24.5064 10.45 23.5964H10.44ZM4.09 19.1965H7.93V17.7464H4C4.03 18.3164 4.06 18.7265 4.09 19.1965ZM25.08 19.1665C25.05 18.6265 25.02 18.2165 25 17.7965H21.05V19.1665H25.08Z" fill="#513117"/>
</svg>
