<svg width="100" height="100" viewBox="0 0 100 100" fill="none" xmlns="http://www.w3.org/2000/svg">
<rect width="100" height="100" rx="50" fill="none"/>
<path fill-rule="evenodd" clip-rule="evenodd" d="M42.1788 26.4243C42.4633 27.0643 42.3922 27.7042 42.2499 28.1308L42.1077 28.9129L41.9655 29.7661C41.9181 29.8135 41.8944 29.8609 41.8944 29.9083C42.2499 29.4817 42.8188 29.1973 43.3165 29.1973C44.0275 29.1973 44.5963 29.6239 44.8096 30.2638C45.0229 30.8327 44.8096 31.4015 44.6674 31.6859C44.6674 31.7333 44.6674 31.757 44.6674 31.757C44.7148 31.757 44.7385 31.757 44.7385 31.757C44.8807 31.757 45.1651 31.6148 45.3784 31.4726C45.734 31.1882 46.1606 30.9038 46.7294 30.8327C46.8242 30.7853 46.919 30.7616 47.0138 30.7616C47.7248 30.7616 48.3647 31.1882 48.6491 31.757C48.6965 31.8044 48.7202 31.8755 48.7202 31.9703C48.9336 32.6102 48.6491 33.3923 48.0092 33.8901C47.867 33.9849 47.7485 34.056 47.6537 34.1034C47.7011 34.1034 47.7485 34.1034 47.7959 34.1034C47.9855 34.1034 48.1751 34.1271 48.3647 34.1745C48.7202 34.3167 49.218 34.6722 49.3602 35.5254C49.5735 36.3075 49.2891 36.8053 49.0758 37.0897C48.6491 37.5163 48.0803 37.5163 47.7959 37.5163C47.7485 37.5163 47.6774 37.5163 47.5826 37.5163C47.5826 37.5163 47.5589 37.5163 47.5115 37.5163C47.5115 37.5637 47.5115 37.5874 47.5115 37.5874C47.5115 37.6822 47.5115 37.7533 47.5115 37.8007C47.5826 37.8718 47.7248 38.014 47.9381 38.014C48.0803 38.0614 48.1988 38.0851 48.2936 38.0851C48.4832 38.0851 48.6491 38.0614 48.7914 38.014C49.0284 38.014 49.2417 38.014 49.4313 38.014C49.4787 38.014 49.5498 38.014 49.6446 38.014C49.929 38.014 50.4267 38.0851 50.8533 38.2984C51.351 38.6539 51.7065 39.2227 51.7065 39.7915C51.7065 40.4315 51.2088 41.0714 50.5689 41.2847C50.3319 41.3795 50.0712 41.4269 49.7868 41.4269C49.5972 41.4269 49.3839 41.4032 49.1469 41.3558C48.7914 41.2847 48.5069 41.1425 48.2936 41.0714C48.1514 41.024 47.9855 40.9766 47.7959 40.9292C47.6063 40.8818 47.4641 40.8581 47.3693 40.8581C47.3219 40.8581 47.2745 40.8581 47.2271 40.8581C47.2271 40.8581 47.2508 40.8818 47.2982 40.9292C47.5115 41.1425 47.7959 41.4269 47.9381 41.9246C48.1514 42.3512 48.0803 42.8489 47.7959 43.2044C47.5115 43.56 47.0138 43.8444 46.445 43.8444C46.3028 43.8444 46.1606 43.8207 46.0184 43.7733C45.9236 43.7733 45.8288 43.7496 45.734 43.7022C45.6629 43.7022 45.5206 43.6311 45.4495 43.6311C45.3784 43.7022 45.3073 43.7733 45.2362 43.8444C45.2836 43.8918 45.331 43.9392 45.3784 43.9866C45.4732 44.0814 45.5918 44.1999 45.734 44.3421C45.8762 44.4369 45.9947 44.5317 46.0895 44.6265C46.6109 45.1479 46.8953 45.693 46.9427 46.2618C46.9427 46.6884 46.8005 47.1151 46.445 47.4706C46.1606 47.755 45.8051 47.9683 45.3784 47.9683H45.3073C44.8096 47.9683 44.2408 47.6839 43.9564 47.2573C43.7431 47.044 43.672 46.7596 43.5298 46.6173C43.5298 46.5699 43.5061 46.4988 43.4587 46.404C43.2454 46.0485 42.961 45.693 42.7477 45.6219C42.7477 45.7167 42.7714 45.8115 42.8188 45.9063C42.9136 46.0485 42.9847 46.1907 43.0321 46.3329C43.2454 46.6174 43.3876 46.9729 43.5298 47.3995C43.6009 47.9683 43.5298 48.6082 43.2454 49.0348C42.961 49.3903 42.5344 49.6747 42.1077 49.7459C42.0129 49.7459 41.9181 49.7459 41.8233 49.7459C40.899 49.7459 40.188 49.0348 40.0458 48.2527C39.9036 47.8972 39.9036 47.6128 39.9036 47.3284C39.9036 47.1151 39.9036 46.8307 39.8325 46.7596C39.8325 46.6174 39.6903 46.5462 39.5481 46.5462C39.5007 46.5462 39.4533 46.5462 39.4059 46.5462C39.3348 46.5462 39.2637 46.6885 39.1926 47.2573C39.1215 47.6128 39.0503 48.1816 38.6948 48.6793C38.3393 49.1059 37.8416 49.3903 37.2728 49.3903C36.8462 49.3903 36.4196 49.2481 36.1352 48.9637C35.8508 48.6082 35.6374 48.1816 35.7085 47.6839C35.7085 47.1151 36.0641 46.6885 36.2774 46.404C36.3485 46.2618 36.4196 46.1907 36.4907 46.1196C36.4907 46.0485 36.4907 45.9774 36.4196 45.9774C36.4196 45.9063 36.3485 45.9063 36.2063 45.8352C36.2063 45.9063 36.1352 45.9774 36.1352 46.0485C35.9219 46.3329 35.7085 46.6884 35.2819 46.9729C35.0449 47.1151 34.7842 47.1862 34.4998 47.1862C34.168 47.1862 33.8599 47.0914 33.5755 46.9018C33.2911 46.6885 33.0778 46.404 32.9356 46.0485C32.8882 45.8115 32.8882 45.5982 32.9356 45.4086C32.9356 45.1716 33.0067 44.9583 33.1489 44.7687C33.0541 44.8161 32.9593 44.8635 32.8645 44.9109L32.7223 44.982C32.3667 45.2664 31.869 45.6219 31.3002 45.693C31.158 45.7404 30.9921 45.7641 30.8025 45.7641C30.7077 45.7641 30.5892 45.7641 30.447 45.7641C29.8071 45.6219 29.3093 45.2664 29.096 44.6976C28.6694 43.9155 29.0249 42.92 29.9493 42.2801C30.1389 42.1379 30.3285 42.0194 30.5181 41.9246C30.6603 41.8298 30.8025 41.7587 30.9447 41.7113C29.9493 41.6402 29.5227 41.2136 29.3093 40.8581C28.8827 40.2182 29.096 39.2938 29.8782 38.725C29.973 38.6302 30.0915 38.5354 30.2337 38.4406C30.1389 38.3932 30.0678 38.3695 30.0204 38.3695C29.9256 38.3695 29.8308 38.3695 29.736 38.3695C29.2145 38.3695 28.6694 38.3458 28.1006 38.2984C27.8162 38.2273 27.4607 38.2273 27.1052 38.014C26.6075 37.7296 26.252 37.2319 26.252 36.663C26.252 35.8809 26.963 35.1699 27.8162 35.0988C27.911 35.0988 27.9821 35.0988 28.0295 35.0988C28.385 35.0988 28.7405 35.1699 28.9538 35.241L29.096 35.3121C29.4516 35.3832 29.736 35.3832 30.0204 35.3832C30.0915 35.3832 30.5892 35.3832 30.6603 35.241C30.6603 35.0988 30.3759 34.8144 30.0915 34.7433L29.9493 34.6722C29.8071 34.6011 29.5227 34.53 29.2382 34.3878C28.7405 34.0323 28.4561 33.5345 28.5272 33.0368C28.5272 32.2547 29.2382 31.6148 30.0915 31.6148C30.6603 31.6148 31.158 31.8281 31.4424 32.0414C31.4898 32.0888 31.5609 32.1362 31.6557 32.1836C31.7979 32.3258 31.9401 32.3969 32.0112 32.468C32.0112 32.468 32.0586 32.468 32.1534 32.468C32.2956 32.468 32.4378 32.3969 32.5089 32.3258C32.5089 32.1836 32.2956 31.8992 32.0823 31.6859C31.7979 31.4015 31.5846 31.1171 31.3713 30.6905C31.0869 30.0505 31.2291 29.2684 31.7979 28.8418C32.0349 28.6522 32.3193 28.5574 32.6512 28.5574C32.8882 28.5574 33.1252 28.6048 33.3622 28.6996C33.7177 28.9129 33.931 29.1262 34.1443 29.3395C34.1917 29.4343 34.2628 29.5291 34.3576 29.6239C34.4998 29.8135 34.6657 30.0031 34.8553 30.1927C34.9975 30.2638 35.1397 30.4061 35.2108 30.4061C35.2108 30.3587 35.2108 30.3112 35.2108 30.2638C35.1397 29.9794 35.0686 29.6239 35.1397 29.1973C35.2819 28.4863 35.8508 27.9886 36.4907 27.9886C37.1306 27.9886 37.6994 28.4152 37.9838 29.0551C38.0786 29.1973 38.126 29.3395 38.126 29.4817C38.1971 29.6239 38.1971 29.695 38.1971 29.7661C38.2682 29.8372 38.3393 29.9083 38.4815 29.9083C38.6237 29.9083 38.6948 29.9083 38.7659 29.8372C38.837 29.695 38.9081 29.4106 38.9081 29.0551C38.9081 28.9129 38.9081 28.7707 38.9081 28.6285C38.9081 28.273 38.9081 27.8464 38.9792 27.4198C39.0503 26.6376 39.8325 25.5 40.8279 25.5C41.1123 25.5 41.7522 25.5711 42.1788 26.4243ZM39.9036 27.562C39.8325 28.0597 39.9036 28.5574 39.9036 29.1262C39.9036 29.6239 39.7614 30.1927 39.4059 30.5483C39.1926 30.7616 38.837 30.9038 38.4815 30.9038C38.4341 30.9038 38.363 30.8801 38.2682 30.8327C37.9127 30.7616 37.5572 30.4772 37.3439 30.1216C37.2728 29.9083 37.2017 29.6239 37.1306 29.4106C36.9884 29.1262 36.704 28.984 36.4907 28.984C36.2774 28.984 36.1352 29.0551 36.0641 29.4106C36.0641 29.6239 36.0641 29.8372 36.1352 30.0505C36.2063 30.2638 36.2774 30.5483 36.2063 30.7616C36.0641 31.1171 35.6374 31.3304 35.2819 31.3304C34.8553 31.3304 34.4998 31.1171 34.2154 30.8327C33.931 30.6194 33.6466 30.2638 33.4333 29.9794C33.2911 29.8372 33.1489 29.695 32.9356 29.5528C32.8408 29.5528 32.746 29.5291 32.6512 29.4817C32.5563 29.4817 32.4615 29.5291 32.3667 29.6239C32.1534 29.7661 32.1534 30.0505 32.2245 30.2638C32.58 30.9749 33.4333 31.4726 33.5044 32.2547C33.5044 32.9657 32.7934 33.3923 32.1534 33.3923C31.9638 33.3923 31.7979 33.3686 31.6557 33.3212C31.3713 33.2501 31.158 33.0368 30.9447 32.8235C30.6603 32.6813 30.3759 32.5391 30.0915 32.5391C29.8071 32.5391 29.4516 32.7524 29.4516 33.0368C29.4516 33.2501 29.5938 33.4634 29.8071 33.5345C29.9493 33.6768 30.1626 33.7479 30.3759 33.819C31.0158 34.0323 31.869 34.7433 31.5846 35.5254C31.3713 36.1653 30.6603 36.3786 30.0204 36.3786C29.5938 36.3786 29.2382 36.3075 28.8827 36.2364C28.5983 36.1653 28.3139 36.0231 28.0295 36.0231C27.9821 36.0231 27.9347 36.0231 27.8873 36.0231C27.6029 36.0942 27.2474 36.3075 27.2474 36.663C27.2474 36.8763 27.3896 37.0897 27.6029 37.1608C27.8162 37.303 28.0295 37.303 28.2428 37.3741C28.7642 37.4215 29.2619 37.4452 29.736 37.4452C29.8308 37.4452 29.9019 37.4452 29.9493 37.4452C29.9967 37.4452 30.0204 37.4452 30.0204 37.4452C30.6603 37.4452 32.0112 37.8007 31.3002 38.725C31.0869 39.0094 30.7314 39.2227 30.447 39.436C30.1626 39.6493 29.9493 40.0759 30.0915 40.4315C30.3048 40.6448 30.6603 40.7159 30.9447 40.787C31.3002 40.787 31.6557 40.787 31.869 40.9292C32.2956 41.2847 32.0823 41.9246 31.7268 42.2801C31.3713 42.6356 30.8736 42.7778 30.447 43.0622C30.0915 43.3466 29.736 43.9155 29.9493 44.3421C30.0204 44.6265 30.3048 44.7687 30.5892 44.7687C30.684 44.8161 30.7551 44.8398 30.8025 44.8398C30.8973 44.8398 30.9921 44.8161 31.0869 44.7687C31.5135 44.6976 31.9401 44.4132 32.2956 44.1288C32.6512 43.9155 33.0778 43.6311 33.5044 43.6311C34.0021 43.6311 34.4998 43.9866 34.3576 44.5554C34.3576 44.6976 34.2154 44.8398 34.0732 44.982C34.0021 45.1953 33.8599 45.3375 33.8599 45.4797C33.8599 45.5745 33.8599 45.6693 33.8599 45.7641C33.9073 45.9063 34.0021 46.0248 34.1443 46.1196C34.2391 46.167 34.3576 46.1907 34.4998 46.1907C34.5946 46.1907 34.6894 46.167 34.7842 46.1196C35.2108 45.9063 35.2819 45.3375 35.6374 45.0531C35.8271 44.9583 36.0167 44.9109 36.2063 44.9109C36.5618 44.9109 36.9884 45.0531 37.2017 45.3375C37.415 45.693 37.4861 46.1196 37.3439 46.4751C37.1306 46.9018 36.6329 47.2573 36.6329 47.755C36.6329 48.1816 36.9173 48.466 37.2728 48.466C37.4861 48.466 37.7705 48.3238 37.9127 48.1105C38.126 47.8261 38.1971 47.4706 38.1971 47.1862C38.2682 46.404 38.5526 45.5508 39.4059 45.5508C39.5007 45.5508 39.6192 45.5745 39.7614 45.6219C40.188 45.693 40.5435 45.9774 40.6857 46.3329C40.9701 46.9018 40.8279 47.4706 40.9701 48.0394C41.0412 48.3949 41.3967 48.8215 41.8233 48.8215C41.8707 48.8215 41.9181 48.8215 41.9655 48.8215C42.4633 48.7504 42.6766 48.1105 42.6055 47.6128C42.4633 47.1151 42.1788 46.7596 41.9655 46.2618C41.7522 45.8352 41.7522 45.2664 42.1077 44.9109C42.2973 44.7213 42.5107 44.6265 42.7477 44.6265C43.3876 44.6265 44.0275 45.4797 44.3119 45.9774C44.4541 46.2618 44.5252 46.4751 44.6674 46.6885C44.8096 46.9018 45.094 47.044 45.3073 47.044C45.734 47.044 45.9473 46.6173 45.9473 46.2618C45.9473 45.9063 45.734 45.6219 45.4495 45.3375C45.1651 45.1242 44.8807 44.9109 44.6674 44.6265C44.383 44.3421 44.2408 43.9866 44.3119 43.6311C44.383 43.2044 45.0229 42.7067 45.4495 42.7067C45.734 42.7067 45.9473 42.7778 46.2317 42.8489C46.2791 42.8489 46.3502 42.8489 46.445 42.8489C46.8716 42.8489 47.2271 42.6356 47.0849 42.209C47.0138 41.9246 46.8005 41.7824 46.5872 41.5691C46.445 41.4269 46.2317 41.2136 46.1606 41.0003C46.0895 40.5737 46.3739 40.1471 46.8005 40.0048C46.9901 39.91 47.1797 39.8626 47.3693 39.8626C47.6063 39.8626 47.8433 39.91 48.0803 40.0048C48.5069 40.1471 48.9336 40.3604 49.3602 40.4315C49.5024 40.4789 49.6446 40.5026 49.7868 40.5026C49.929 40.5026 50.0712 40.4789 50.2134 40.4315C50.4978 40.2893 50.7822 40.0759 50.7822 39.7915C50.7822 39.5071 50.5689 39.2938 50.3556 39.1516C50.1423 39.0094 49.8579 39.0094 49.5735 38.9383C49.5261 38.9383 49.4787 38.9383 49.4313 38.9383C49.0758 38.9383 48.7202 39.0094 48.2936 39.0094C48.1514 39.0094 47.9855 38.9857 47.7959 38.9383C47.2271 38.8672 46.6583 38.5117 46.5872 37.9429C46.5872 37.5874 46.445 37.3741 46.6583 37.0897C46.8716 36.8053 47.156 36.5919 47.5115 36.5919C47.7959 36.5208 48.1514 36.5919 48.3647 36.3786C48.5069 36.2364 48.5069 35.952 48.4358 35.7387C48.4358 35.4543 48.2936 35.1699 48.0092 35.0988C47.9618 35.0514 47.8907 35.0277 47.7959 35.0277C47.5115 35.0277 47.156 35.3121 46.8005 35.3121C46.7531 35.3595 46.7057 35.3832 46.6583 35.3832C46.445 35.3832 46.1606 35.3121 46.0184 35.0988C45.8051 34.9566 45.6629 34.6722 45.6629 34.3878C45.6629 34.3404 45.6629 34.293 45.6629 34.2456C45.734 33.9612 46.0184 33.819 46.3028 33.6768C46.3502 33.6768 46.3739 33.6531 46.3739 33.6057C46.7294 33.4634 47.0849 33.3212 47.4404 33.1079C47.7248 32.8946 47.867 32.5391 47.7959 32.1836C47.7959 32.1836 47.7959 32.1599 47.7959 32.1125C47.6537 31.8992 47.3693 31.757 47.0138 31.757C46.9664 31.757 46.919 31.757 46.8716 31.757C46.5161 31.8281 46.2317 32.0414 45.9473 32.1836C45.5207 32.468 45.1651 32.7524 44.7385 32.7524C44.5963 32.7524 44.4304 32.705 44.2408 32.6102C44.0275 32.5391 43.7431 32.3258 43.672 32.1125C43.4587 31.6148 44.0986 31.046 43.8853 30.5483C43.8142 30.2638 43.6009 30.1927 43.3165 30.1927C43.0321 30.1927 42.7477 30.3349 42.6055 30.6194C42.4633 30.8327 42.3211 31.1171 42.1077 31.3304C42.0129 31.3778 41.9181 31.4015 41.8233 31.4015C41.4678 31.4015 41.1123 31.1171 40.9701 30.8327C40.8279 30.4061 40.899 29.9794 41.0412 29.5528C41.136 28.984 41.2308 28.4389 41.3256 27.9175C41.3967 27.562 41.4678 27.2065 41.3256 26.8509C41.1834 26.5665 41.0412 26.4243 40.8279 26.4243C40.4013 26.4243 39.9747 27.1354 39.9036 27.562Z" fill="#523F37"/>
<path d="M37.8439 34.3087C37.8439 34.7353 37.5595 35.0197 37.1329 35.0197C36.7063 35.0197 36.4219 34.7353 36.4219 34.3087C36.4219 33.8821 36.7063 33.5977 37.1329 33.5977C37.5595 33.5977 37.8439 33.8821 37.8439 34.3087Z" fill="#523F37"/>
<path d="M34.5708 34.3133C34.5708 34.5266 34.3575 34.7399 34.0731 34.7399C33.8598 34.7399 33.6465 34.5266 33.6465 34.3133C33.6465 34.1 33.8598 33.8867 34.0731 33.8867C34.3575 33.8867 34.5708 34.1 34.5708 34.3133Z" fill="#523F37"/>
<path d="M35.3514 37.3681C35.3514 37.7947 34.9959 38.1502 34.5692 38.1502C34.1426 38.1502 33.7871 37.7947 33.7871 37.3681C33.7871 36.9414 34.1426 36.5859 34.5692 36.5859C34.9959 36.5859 35.3514 36.9414 35.3514 37.3681Z" fill="#523F37"/>
<path d="M34.2158 40.5758C34.2158 40.8602 33.9314 41.1447 33.6469 41.1447C33.3625 41.1447 33.0781 40.8602 33.0781 40.5758C33.0781 40.2914 33.3625 40.0781 33.6469 40.0781C33.9314 40.0781 34.2158 40.2914 34.2158 40.5758Z" fill="#523F37"/>
<path d="M38.3384 43.4079C38.3384 43.6212 38.1251 43.8345 37.8407 43.8345C37.6274 43.8345 37.4141 43.6212 37.4141 43.4079C37.4141 43.1235 37.6274 42.9102 37.8407 42.9102C38.1251 42.9102 38.3384 43.1235 38.3384 43.4079Z" fill="#523F37"/>
<path d="M40.6151 39.1501C40.6151 39.6478 40.1885 40.0744 39.6196 40.0744C39.1219 40.0744 38.6953 39.6478 38.6953 39.1501C38.6953 38.6524 39.1219 38.2969 39.6196 38.2969C40.1885 38.2969 40.6151 38.6524 40.6151 39.1501Z" fill="#523F37"/>
<path d="M40.6145 42.6282C40.6145 42.7704 40.4723 42.9126 40.3301 42.9126C40.1168 42.9126 39.9746 42.7704 39.9746 42.6282C39.9746 42.486 40.1168 42.3438 40.3301 42.3438C40.4723 42.3438 40.6145 42.486 40.6145 42.6282Z" fill="#523F37"/>
<path d="M42.9614 42.6282C42.9614 42.7704 42.8192 42.9126 42.677 42.9126C42.4637 42.9126 42.3926 42.7704 42.3926 42.6282C42.3926 42.486 42.4637 42.3438 42.677 42.3438C42.8192 42.3438 42.9614 42.486 42.9614 42.6282Z" fill="#523F37"/>
<path d="M43.8146 40.0719C43.8146 40.3563 43.5302 40.5696 43.2458 40.5696C42.9614 40.5696 42.748 40.3563 42.748 40.0719C42.748 39.7875 42.9614 39.5742 43.2458 39.5742C43.5302 39.5742 43.8146 39.7875 43.8146 40.0719Z" fill="#523F37"/>
<path d="M43.4575 37.5125C43.4575 37.797 43.2442 37.9392 42.9598 37.9392C42.7465 37.9392 42.5332 37.797 42.5332 37.5125C42.5332 37.2992 42.7465 37.0859 42.9598 37.0859C43.2442 37.0859 43.4575 37.2992 43.4575 37.5125Z" fill="#523F37"/>
<path d="M41.0427 35.454C41.0427 35.6673 40.8294 35.8095 40.6161 35.8095C40.3317 35.8095 40.1895 35.6673 40.1895 35.454C40.1895 35.1695 40.3317 35.0273 40.6161 35.0273C40.8294 35.0273 41.0427 35.1695 41.0427 35.454Z" fill="#523F37"/>
<path d="M42.179 32.9657C42.179 33.2501 41.9657 33.4634 41.6813 33.4634C41.3969 33.4634 41.1836 33.2501 41.1836 32.9657C41.1836 32.7524 41.3969 32.5391 41.6813 32.5391C41.9657 32.5391 42.179 32.7524 42.179 32.9657Z" fill="#523F37"/>
<path d="M45.3064 35.0243C45.3064 35.2376 45.093 35.4509 44.8797 35.4509C44.5953 35.4509 44.4531 35.2376 44.4531 35.0243C44.4531 34.7399 44.5953 34.5977 44.8797 34.5977C45.093 34.5977 45.3064 34.7399 45.3064 35.0243Z" fill="#523F37"/>
<path d="M39.4778 32.0368C39.4778 32.3212 39.2645 32.5345 38.9801 32.5345C38.6957 32.5345 38.4824 32.3212 38.4824 32.0368C38.4824 31.7524 38.6957 31.5391 38.9801 31.5391C39.2645 31.5391 39.4778 31.7524 39.4778 32.0368Z" fill="#523F37"/>
<path d="M37.4137 37.3696C37.4137 37.5118 37.2715 37.654 37.1293 37.654C36.9871 37.654 36.916 37.5118 36.916 37.3696C36.916 37.2273 36.9871 37.1562 37.1293 37.1562C37.2715 37.1562 37.4137 37.2273 37.4137 37.3696Z" fill="#523F37"/>
<path d="M37.1299 39.5782C37.1299 39.9337 36.7744 40.2892 36.4188 40.2892C35.9922 40.2892 35.6367 39.9337 35.6367 39.5782C35.6367 39.1516 35.9922 38.8672 36.4188 38.8672C36.7744 38.8672 37.1299 39.1516 37.1299 39.5782Z" fill="#523F37"/>
<path d="M35.4969 44.1926C35.6391 44.2637 35.6391 44.477 35.4969 44.6192C35.4258 44.7614 35.2125 44.7614 34.9992 44.6903C34.857 44.5481 34.857 44.3348 34.9992 44.1926C35.0703 44.0504 35.3547 44.0504 35.4969 44.1926Z" fill="#523F37"/>
<path d="M57.5388 18.6016C59.1742 22.7255 62.0183 25.0008 62.0183 27.3471C62.0183 29.7646 60.0274 31.7555 57.5388 31.7555C55.0503 31.7555 52.9883 29.7646 52.9883 27.3471C52.9883 25.0008 55.4769 22.7966 57.5388 18.6016Z" stroke="#523F37" stroke-width="1.13764" stroke-linecap="round" stroke-linejoin="round"/>
<path d="M26.8926 53.086L46.3746 70.2927L62.7992 52.7305" stroke="#523F37" stroke-width="1.13764" stroke-linecap="round" stroke-linejoin="round"/>
<path d="M57.5371 47.2579L68.4868 57.4967L69.1979 46.1914L57.5371 47.2579Z" stroke="#523F37" stroke-width="1.13764" stroke-linecap="round" stroke-linejoin="round"/>
<path d="M54.9072 65.1016L76.309 68.0168L43.5309 80.6018L23.6934 68.0168L35.6385 65.2438" stroke="#523F37" stroke-width="1.13764" stroke-linecap="round" stroke-linejoin="round"/>
</svg>
