<svg width="101" height="100" viewBox="0 0 101 100" fill="none" xmlns="http://www.w3.org/2000/svg">
<path fill-rule="evenodd" clip-rule="evenodd" d="M38.462 6.00136C37.2444 7.03902 36.6355 7.55788 35.9853 7.99369C34.4948 8.99271 32.8209 9.68607 31.0605 10.0336C30.2926 10.1852 29.4952 10.2489 27.9004 10.3761C23.8935 10.6959 21.89 10.8558 20.2185 11.4461C16.3525 12.8117 13.3117 15.8525 11.9461 19.7185C11.3558 21.39 11.1959 23.3935 10.8761 27.4004C10.7489 28.9952 10.6852 29.7926 10.5336 30.5605C10.1861 32.3209 9.49271 33.9948 8.49369 35.4853C8.05788 36.1355 7.53904 36.7444 6.50136 37.962C3.89417 41.0214 2.59052 42.5512 1.82608 44.1505C0.057974 47.8498 0.057974 52.1502 1.82608 55.8495C2.59053 57.4488 3.89414 58.9786 6.50136 62.038C7.53892 63.2555 8.0579 63.8645 8.49369 64.5147C9.49271 66.0052 10.1861 67.6791 10.5336 69.4395C10.6852 70.2075 10.7489 71.0048 10.8761 72.5996C11.1959 76.6065 11.3558 78.61 11.9461 80.2815C13.3117 84.1474 16.3525 87.1883 20.2185 88.5538C21.89 89.1442 23.8935 89.3041 27.9004 89.6239C29.4952 89.7511 30.2926 89.8148 31.0605 89.9664C32.8209 90.3139 34.4948 91.0073 35.9853 92.0063C36.6355 92.4421 37.2444 92.961 38.462 93.9986C41.5214 96.6059 43.0512 97.9095 44.6505 98.6739C48.3498 100.442 52.6502 100.442 56.3495 98.6739C57.9488 97.9095 59.4786 96.6059 62.538 93.9986C63.7556 92.961 64.3645 92.4421 65.0147 92.0063C66.5052 91.0073 68.1791 90.3139 69.9395 89.9664C70.7074 89.8148 71.5048 89.7511 73.0996 89.6239C77.1065 89.3041 79.11 89.1442 80.7815 88.5538C84.6475 87.1883 87.6883 84.1475 89.0538 80.2815C89.6442 78.61 89.8041 76.6065 90.1239 72.5996C90.2511 71.0048 90.3148 70.2074 90.4664 69.4395C90.8139 67.6791 91.5073 66.0052 92.5063 64.5147C92.9421 63.8645 93.461 63.2556 94.4986 62.038C97.1059 58.9786 98.4095 57.4488 99.1739 55.8495C100.942 52.1502 100.942 47.8498 99.1739 44.1505C98.4095 42.5512 97.1059 41.0214 94.4986 37.962C93.461 36.7444 92.9421 36.1355 92.5063 35.4853C91.5073 33.9948 90.8139 32.3209 90.4664 30.5605C90.3148 29.7926 90.2511 28.9952 90.1239 27.4004C89.8041 23.3935 89.6442 21.39 89.0538 19.7185C87.6883 15.8525 84.6474 12.8117 80.7815 11.4461C79.11 10.8558 77.1065 10.6959 73.0996 10.3761C71.5048 10.2489 70.7075 10.1852 69.9395 10.0336C68.1791 9.68607 66.5052 8.99271 65.0147 7.99369C64.3645 7.55788 63.7556 7.03904 62.538 6.00136C59.4786 3.39414 57.9488 2.09053 56.3495 1.32608C52.6502 -0.442026 48.3498 -0.442026 44.6505 1.32608C43.0512 2.09052 41.5214 3.39417 38.462 6.00136ZM72.3674 39.3157C73.9566 37.7265 73.9566 35.15 72.3674 33.5608C70.7783 31.9717 68.2017 31.9717 66.6126 33.5608L42.3613 57.8121L34.3873 49.838C32.7981 48.2489 30.2216 48.2489 28.6324 49.838C27.0433 51.4272 27.0433 54.0037 28.6324 55.5929L39.4839 66.4443C41.0731 68.0335 43.6496 68.0335 45.2388 66.4443L72.3674 39.3157Z" fill="#A0B38C"/>
</svg>
