<svg width="64" height="64" viewBox="0 0 64 64" fill="none" xmlns="http://www.w3.org/2000/svg">
<g id="sustainably produced">
<path id="Vector" d="M37.0427 62.9568C35.9602 62.9568 34.8083 62.7749 33.4053 62.3851C28.8759 61.1207 24.5977 59.4839 20.6745 57.5267C19.133 56.7559 17.6347 56.3749 16.1191 56.3749C15.2531 56.3749 14.3697 56.5047 13.495 56.7559L13.1053 56.8685V57.5787C13.1053 57.8038 13.1053 58.0203 13.1053 58.2454C13.1226 60.2287 11.9621 61.5105 9.98754 61.675C8.61919 61.7876 7.16422 61.8828 5.42347 61.9608C5.37151 61.9608 5.31955 61.9608 5.26759 61.9608C3.69139 61.9608 2.35768 60.8177 2.17581 59.3108C2.0026 57.9078 1.91604 56.4528 1.8381 55.0498C1.81211 54.5648 1.77744 54.0711 1.75146 53.5861C1.51763 50.0613 1.27514 46.2768 1.04997 42.5008V42.3276C0.998004 41.704 0.963379 41.0631 1.0673 40.4915C1.31846 39.1319 2.39234 38.1619 3.81265 38.0233C5.67464 37.8415 7.3288 37.7376 8.87036 37.7029H8.94828C10.4292 37.7029 11.6417 38.7336 11.9448 40.2578C11.9794 40.431 12.0141 40.5955 12.0487 40.7601L12.2046 41.4875L20.2501 39.7641L20.2328 39.3137C20.1895 37.9714 20.6485 36.7416 21.5492 35.7717C22.8916 34.3167 24.4851 33.5805 26.2778 33.5805C26.8581 33.5805 27.4643 33.6585 28.0879 33.8144C28.8933 34.0136 29.6381 34.1088 30.3569 34.1088C31.4827 34.1088 32.5307 33.875 33.5613 33.3814C33.9943 33.1735 34.384 33.0522 34.7217 33.0176C35.1374 32.9743 35.4405 32.8271 35.6311 32.5846C35.8909 32.2555 35.8736 31.8398 35.8303 31.5194C35.5358 29.2936 34.9296 27.0766 34.0116 24.9201L33.8211 24.4784L33.3534 24.617C32.9636 24.7296 32.5826 24.8595 32.1929 24.9808C31.3702 25.2493 30.5994 25.5003 29.8026 25.6649C28.8067 25.8727 27.8367 25.9681 26.9273 25.9681C23.1774 25.9681 20.0423 24.2186 17.6 20.7804C15.5389 17.8705 14.0839 14.4669 12.8801 9.73835C12.3692 7.73779 11.9968 5.65936 11.6244 3.65014C11.5204 3.06123 11.4079 2.47229 11.2953 1.88338C11.2433 1.61491 11.2953 1.3724 11.4165 1.21651C11.5378 1.06928 11.7196 1 11.9535 1C11.9968 1 12.0487 1.00001 12.1007 1.00867C18.9684 1.86605 24.0434 3.24306 28.5555 5.45147C31.8898 7.07964 33.4487 8.48259 35.5012 11.6956L35.8562 12.2499L36.3326 11.7995C39.459 8.829 43.3042 7.9457 48.1281 7.53C49.2972 7.42607 50.527 7.38273 51.7741 7.38273C54.5195 7.38273 57.4467 7.61654 60.9975 8.11885C61.4911 8.18813 61.8289 8.33544 61.9328 8.52597C62.0367 8.7165 61.9848 9.0715 61.7856 9.5305C59.2567 15.2464 56.5893 19.594 53.3936 23.2227C51.4364 25.4398 49.6956 26.8081 47.7384 27.6568C46.4653 28.2111 45.1489 28.4969 43.8152 28.4969C41.9359 28.4969 39.9786 27.9599 37.8222 26.8427C37.6749 26.7648 36.0728 25.9508 36.0728 25.9508L36.3153 27.0679C36.3932 27.4143 36.4625 27.7434 36.5318 28.0812C36.6963 28.8433 36.8609 29.5622 36.9994 30.2896C37.0514 30.5495 37.0774 30.8092 37.112 31.0863C37.1553 31.4241 37.1986 31.7792 37.2766 32.1343C37.3632 32.5067 37.6663 32.9051 38.0214 33.0869C38.2898 33.2342 38.5756 33.3467 38.8441 33.4506C39.1645 33.5805 39.4677 33.7018 39.7275 33.8577C40.9399 34.6112 42.2303 34.9835 43.6939 34.9835C44.1096 34.9835 44.5513 34.9489 44.993 34.8883C45.2528 34.8536 45.5213 34.8364 45.7898 34.8364C48.5092 34.8364 51.038 36.7243 51.6875 39.2272C51.7828 39.5996 51.8867 40.0845 51.8434 40.5002C51.6962 41.9378 52.3197 43.081 52.9173 44.1896L53.1598 44.6313L53.6188 44.4234C53.9912 44.2502 54.3636 44.0857 54.736 43.9125C55.5414 43.5487 56.3728 43.1677 57.1869 42.8126C57.8104 42.5441 58.4167 42.4056 59.0142 42.4056C59.8716 42.4056 60.7117 42.6914 61.4998 43.2629C63.4917 44.6919 63.3618 47.0736 62.3918 48.6931C62.0454 49.2733 61.5344 49.8276 60.9975 50.2086C53.9825 55.197 48.0588 58.7738 42.3429 61.4672C41.9618 61.6491 41.5721 61.8049 41.1564 61.9695C40.8533 62.0907 40.5415 62.212 40.2471 62.3419C39.2338 62.7836 38.1773 63 37.0168 63M16.0065 55.0151C17.8945 55.0151 19.8171 55.5261 21.8783 56.574C25.2472 58.2801 28.9626 59.6831 33.925 61.1208C34.9209 61.4065 35.8909 61.5538 36.8262 61.5538C38.2119 61.5538 39.5629 61.2334 40.8533 60.5925C40.9832 60.5319 41.1132 60.4798 41.2431 60.4192C41.3556 60.3672 41.4769 60.324 41.5894 60.272C48.6997 56.9811 55.0045 52.7547 60.2354 49.0567C60.6857 48.7363 61.0494 48.3466 61.2486 47.9483C61.7769 46.935 61.8635 45.9563 61.4825 45.1855C61.24 44.6832 60.6857 44.0424 59.4126 43.8172C59.2914 43.7999 59.1701 43.7826 59.0316 43.7826C58.4686 43.7826 57.9057 43.9818 57.5333 44.1463C53.0039 46.1642 48.5611 48.1821 43.6506 50.4165C43.4428 50.5117 43.0444 50.7283 42.8106 51.0833C41.6674 52.7981 40.4896 53.5689 38.9913 53.5689C38.3158 53.5689 37.571 53.4216 36.7049 53.1099C35.6657 52.7375 34.6265 52.3737 33.5959 52.0013C32.4007 51.5769 31.2143 51.1526 30.0278 50.7282C29.6727 50.5983 29.4216 50.4165 29.335 50.2086C29.2743 50.0614 29.283 49.8968 29.3609 49.7063C29.4648 49.4551 29.664 49.3252 29.9585 49.3252C30.0884 49.3252 30.227 49.3512 30.3656 49.4032C31.2836 49.7236 32.2016 50.0527 33.1196 50.3818C34.5226 50.8841 35.9775 51.4037 37.4064 51.8974C37.9953 52.0966 38.4717 52.1918 38.9134 52.1918C38.9913 52.1918 39.0606 52.1918 39.1385 52.1831C40.5069 52.0705 41.5808 51.066 41.8753 49.6197C42.1264 48.4072 41.4682 47.1601 40.2731 46.5885C38.7575 45.861 36.9907 45.0296 35.198 44.4147C30.6427 42.8386 25.9227 42.1025 21.5059 41.5482C21.0469 41.4876 20.5792 41.4615 20.1029 41.4615C18.0677 41.4615 16.1278 41.9899 14.2485 42.5008C13.7028 42.6481 13.1659 42.7953 12.6203 42.9338L12.1787 43.0464L12.9494 55.2403H13.4604C13.5297 55.2403 13.5816 55.2403 13.6249 55.2403C13.6682 55.2403 13.7115 55.2403 13.7462 55.2403C13.8241 55.2403 13.8934 55.2403 13.9627 55.2229C14.6469 55.0844 15.3397 55.0238 16.0239 55.0238M8.70581 39.0367C8.65385 39.0367 8.60189 39.0367 8.54993 39.0367C7.18158 39.1146 5.75257 39.2012 4.17637 39.3137C3.03319 39.3917 2.35771 40.1191 2.36637 41.245C2.36637 41.9032 2.40964 42.5701 2.44428 43.1244C2.57419 45.1422 2.70411 47.1688 2.83401 49.1867C3.0332 52.2871 3.24106 55.3962 3.43158 58.4966C3.51819 59.8823 4.1764 60.5491 5.44948 60.5491C5.51876 60.5491 5.59672 60.5491 5.67466 60.5491C7.07765 60.4712 8.44596 60.376 9.9702 60.2634C11.0181 60.1854 11.685 59.484 11.7023 58.436C11.7023 58.2715 11.7023 58.1156 11.685 57.9597L11.6677 57.5006L11.4079 53.335C11.1394 49.152 10.8796 44.9777 10.6111 40.7947C10.5418 39.7209 9.78834 39.028 8.6798 39.028M26.3384 34.949C25.1087 34.949 23.9914 35.382 23.0128 36.2307C21.9129 37.192 21.4626 38.3871 21.6791 39.7814L21.7397 40.1798C21.7397 40.1798 22.8656 40.3357 23.2207 40.379C23.9915 40.4829 24.7189 40.5781 25.4551 40.6994C31.0497 41.5828 35.4492 42.7953 39.3031 44.536C41.0785 45.3328 42.7153 46.2248 43.183 48.3293L43.2956 48.8489L43.8152 48.745C43.8758 48.7363 43.9191 48.7276 43.9538 48.719C44.0317 48.7103 44.1096 48.693 44.1962 48.6497C44.8198 48.3726 45.4347 48.0868 46.0583 47.801C47.5652 47.1168 49.1241 46.4067 50.6656 45.7398C50.9514 45.6186 51.3497 45.4021 51.4796 44.9777C51.6095 44.562 51.4277 44.1723 51.2718 43.9125C50.6569 42.8819 50.3971 41.782 50.5011 40.5436C50.527 40.2491 50.4751 39.9546 50.4231 39.7294C49.9814 37.6336 48.0415 36.17 45.7031 36.17C45.4433 36.17 45.1749 36.1874 44.9151 36.222C44.4821 36.2826 44.049 36.3173 43.6333 36.3173C42.0311 36.3173 40.5329 35.8842 39.0433 34.9835C38.1426 34.4466 37.2073 34.1695 36.246 34.1695C35.5185 34.1695 34.7823 34.334 34.0722 34.6458C32.8338 35.2 31.604 35.4686 30.3136 35.4686C29.4822 35.4686 28.6075 35.356 27.7155 35.1221C27.2478 35.0009 26.7801 34.9403 26.3211 34.9403M50.1546 14.7009C50.5097 14.7009 50.7089 14.848 50.7955 15.1685C50.8474 15.3763 50.8388 15.5409 50.7609 15.6795C50.6569 15.8527 50.4404 15.9826 50.1286 16.0605C46.751 16.9006 43.3908 18.3036 39.8574 20.3388C38.922 20.8758 38.0214 21.456 37.0601 22.0622C36.627 22.3394 36.1767 22.6251 35.7177 22.9109L35.0422 23.3353L35.683 23.8115C37.6922 25.2925 39.3897 26.1759 41.1911 26.6869C42.1351 26.9553 43.0531 27.0852 43.9278 27.0852C45.504 27.0852 46.9762 26.6435 48.3186 25.7861C49.4185 25.076 50.3885 24.3139 51.1852 23.5258C55.2296 19.5507 57.8797 14.6055 59.9409 10.2926C60.0362 10.0934 60.0016 9.90296 59.9756 9.8077C59.9756 9.79904 59.9756 9.78168 59.9756 9.77302L59.9236 9.35734L59.5079 9.28809L59.1181 9.23608C58.8324 9.19278 58.5379 9.15813 58.2521 9.12349C58.0096 9.09751 57.7585 9.08023 57.516 9.06291C57.3428 9.05425 57.1696 9.03689 56.9877 9.01957C54.9872 8.8377 53.2031 8.74248 51.5403 8.74248C48.691 8.74248 46.1275 9.00223 43.7113 9.53917C41.0005 10.1454 39.0087 11.1413 37.4411 12.6656C36.8002 13.2891 36.246 14.0427 36.4798 15.3504C36.6011 16.0086 36.5404 16.7187 36.4798 17.4635C36.4625 17.6973 36.4452 17.9399 36.4279 18.1737C36.4105 18.5028 36.3585 18.8405 36.2893 19.2389C36.2546 19.4381 36.22 19.646 36.1853 19.8798L36.0208 21.0056L37.5624 20.0876C37.9174 19.8798 38.2379 19.6892 38.5583 19.4987C42.6287 17.1084 46.1968 15.5928 49.7996 14.7441C49.9295 14.7181 50.042 14.7009 50.1546 14.7009ZM12.9407 3.05252C12.9407 3.17376 12.9494 3.27768 12.9581 3.37295C12.9581 3.55482 12.9667 3.71944 13.01 3.88399C13.1486 4.49022 13.2785 5.1051 13.4084 5.71133C13.7289 7.20092 14.0666 8.74246 14.4736 10.2407C15.6168 14.4237 17.0198 17.5935 18.9078 20.2262C20.943 23.0668 23.7663 24.5737 27.0919 24.5737C28.824 24.5737 30.608 24.1667 32.4094 23.37L33.0416 23.0841L32.6086 22.5385C29.7073 18.8405 26.0786 14.6749 21.1076 11.791C20.5966 11.4965 20.4147 11.2627 20.3454 11.1154C20.2935 11.0028 20.2588 10.8642 20.4147 10.6044C20.5706 10.3273 20.7351 10.2926 20.8824 10.2926C21.0469 10.2926 21.3327 10.3446 21.809 10.6131C24.4245 12.1027 26.91 14.0946 29.3955 16.71C30.3309 17.6973 31.2143 18.702 32.1496 19.7672C32.574 20.2435 32.9896 20.7284 33.4227 21.2134L34.0549 21.9236L34.3407 21.0142C34.384 20.8843 34.4273 20.7458 34.4706 20.6159C34.5659 20.3301 34.6611 20.0356 34.7391 19.7238C35.813 15.3677 34.843 11.8342 31.8551 9.21007C31.0757 8.5259 30.1404 7.87642 28.9799 7.20957C26.5549 5.80658 23.775 4.75861 20.2242 3.90122C18.7259 3.53749 17.245 3.23446 15.6861 2.91403C14.9933 2.77546 14.3004 2.62823 13.5989 2.48101L12.8974 2.33374L12.9407 3.04385V3.05252Z" fill="#513117"/>
</g>
</svg>
