<svg width="32" height="32" viewBox="0 0 32 32" fill="none" xmlns="http://www.w3.org/2000/svg">
<path d="M6.30595 21.5171C4.24524 19.4564 3.21488 18.4261 2.83149 17.0893C2.44809 15.7525 2.77575 14.3326 3.43105 11.493L3.80895 9.8554C4.36027 7.46638 4.63592 6.27187 5.45389 5.45389C6.27187 4.63592 7.46638 4.36027 9.85539 3.80896L11.493 3.43105C14.3326 2.77575 15.7525 2.44809 17.0893 2.83149C18.4261 3.21488 19.4564 4.24524 21.5171 6.30595L23.9567 8.74546C27.542 12.3308 29.3346 14.1234 29.3346 16.3511C29.3346 18.5787 27.542 20.3713 23.9567 23.9567C20.3713 27.542 18.5787 29.3346 16.3511 29.3346C14.1234 29.3346 12.3308 27.542 8.74546 23.9567L6.30595 21.5171Z" stroke="#757868" stroke-width="2"/>
<circle cx="11.4744" cy="11.8398" r="2.66667" transform="rotate(-45 11.4744 11.8398)" stroke="#757868" stroke-width="2"/>
<path d="M15.391 24.668L24.6963 15.3623" stroke="#757868" stroke-width="2" stroke-linecap="round"/>
</svg>
