<svg width="64" height="64" viewBox="0 0 64 64" fill="none" xmlns="http://www.w3.org/2000/svg">
<g id="exceptional touch">
<g id="Group">
<path id="Vector" d="M8.64394 30.4253C8.27178 30.0746 7.92828 29.7453 7.60622 29.4304C6.89053 31.0407 6.45399 32.7441 6.29653 34.5548C6.22496 35.4208 6.25356 36.3011 6.26788 37.1743C6.27504 37.6037 6.61142 37.8756 6.99073 37.847C7.36289 37.8184 7.59906 37.5393 7.60622 37.1099C7.60622 36.9166 7.58472 36.7234 7.57756 36.5373C7.50599 34.3759 7.85667 32.3362 8.63677 30.4253M62.9649 26.2456C62.829 26.1311 62.693 26.0166 62.557 25.895C61.8342 25.9307 61.6338 26.1598 61.6624 26.8826C61.6696 27.0973 61.6838 27.312 61.691 27.4909C61.1184 26.9971 60.5387 26.5176 59.9948 26.0167C59.8946 25.9308 59.8732 25.7303 59.866 25.5872C59.8302 24.893 59.8159 24.206 59.7945 23.5189C59.6585 23.4044 59.5225 23.2898 59.3865 23.1681C59.0215 23.1825 58.635 23.2039 58.5348 23.6262C58.4561 23.9554 58.4918 24.3133 58.4704 24.7355C57.8119 24.163 57.1822 23.6405 56.581 23.0894C56.4951 23.0107 56.4951 22.8247 56.4951 22.6815C56.4664 21.9945 56.445 21.3002 56.4235 20.6132C56.2875 20.4986 56.1587 20.3841 56.0156 20.2625C55.6578 20.2768 55.2641 20.2983 55.171 20.7205C55.0923 21.0497 55.1353 21.4075 55.121 21.8298C54.4554 21.2572 53.8256 20.7277 53.2172 20.1766C53.1313 20.0979 53.1313 19.9117 53.1242 19.7758C53.0956 19.0887 53.0741 18.3946 53.0526 17.7075C52.9166 17.593 52.7807 17.4712 52.6447 17.3567C52.2869 17.3639 51.8932 17.3854 51.8002 17.8148C51.7214 18.144 51.7644 18.5019 51.7429 18.9241C51.0774 18.3516 50.4475 17.8219 49.8463 17.2708C49.7605 17.1921 49.7605 17.0061 49.7533 16.8629C49.7247 16.1759 49.7032 15.4816 49.6817 14.7946C49.5458 14.6801 49.4097 14.5656 49.2738 14.4439C48.9088 14.4511 48.5223 14.4797 48.4221 14.902C48.3434 15.2312 48.3863 15.589 48.372 16.0184C47.7064 15.4458 47.0766 14.9163 46.4754 14.3652C46.3895 14.2865 46.3896 14.1003 46.3824 13.9572C46.3538 13.2701 46.3323 12.576 46.3108 11.8889C46.1748 11.7744 46.046 11.6598 45.9029 11.5382C45.545 11.5525 45.1514 11.5739 45.0583 11.9962C44.9796 12.3254 45.0154 12.6833 44.9939 13.1056C44.3355 12.533 43.7057 12.0105 43.1045 11.4594C43.0186 11.3807 43.0186 11.1947 43.0115 11.0515C42.9828 10.3645 42.9614 9.67023 42.9399 8.98317C42.8039 8.86866 42.668 8.747 42.532 8.63249C42.1742 8.63965 41.7805 8.66113 41.6874 9.09054C41.6087 9.41976 41.6445 9.77755 41.6231 10.1998C40.9646 9.62726 40.3348 9.10486 39.7336 8.55377C39.6477 8.47505 39.6477 8.28892 39.6477 8.14578C39.6191 7.45872 39.5977 6.77173 39.5762 6.07751C39.4402 5.963 39.3042 5.84841 39.1682 5.72674C38.3666 5.75537 38.3237 5.83413 38.2807 7.19394C37.6509 7.1009 37.014 7.00787 36.4415 6.92914C36.4343 5.79119 36.42 4.56736 36.4128 3.35068C36.2768 3.23617 36.1409 3.12167 36.0049 3C35.282 3.01431 35.0673 3.24333 35.1103 3.98049C35.2606 6.6214 34.7381 9.12632 33.5715 11.5024C33.4499 11.7458 33.3282 11.8316 33.0133 11.8388C32.5409 11.8531 32.0256 11.9533 31.6319 12.1966C30.8375 12.6761 30.1004 12.7763 29.2487 12.3684C28.397 11.9676 27.5884 12.0965 27.1446 12.5974C26.6937 13.1056 26.6722 13.8928 27.2019 14.7015C27.7243 15.5031 27.8102 16.2761 27.3593 17.1206C27.3092 17.2208 27.2448 17.3424 27.2519 17.4569C27.2734 18.0438 26.8583 18.2299 26.4146 18.4303C25.4699 18.8525 24.5037 19.1747 23.5089 19.3965C24.0528 19.6542 24.5967 19.9261 25.1335 20.1981C25.1979 20.2267 25.2623 20.2625 25.3196 20.2911C26.0496 20.055 26.7653 19.7615 27.4667 19.4179C27.5812 19.3607 27.7458 19.2963 27.8317 19.3392C28.5903 19.7042 29.2559 19.4395 29.8785 19.0315C30.5656 18.5878 31.2383 18.5591 31.9826 18.874C32.3405 19.0243 32.7485 19.1317 33.135 19.1389C34.0582 19.1675 34.6736 18.4446 34.4875 17.5357C34.4017 17.1134 34.1369 16.7269 33.9938 16.3118C33.8649 15.9254 33.6431 15.5031 33.7075 15.1381C33.8434 14.3652 34.0868 13.5994 34.3659 12.8623C34.8311 11.6384 35.3893 10.4432 35.8617 9.21932C36.1194 8.55372 36.5702 8.19587 37.1786 8.31754C37.8227 8.44636 38.2092 8.96171 38.152 9.62015C38.109 10.114 38.3452 10.4861 38.7603 10.4646C39.0108 10.4503 39.2541 10.2858 39.5619 10.1712C40.0056 10.5577 40.5065 11.0229 41.0433 11.438C41.4441 11.7458 41.6445 12.0535 41.5372 12.5903C41.4942 12.7978 41.6803 13.1557 41.8664 13.2773C42.031 13.3918 42.3531 13.2916 42.6035 13.2415C42.6966 13.2272 42.7681 13.0984 42.854 13.0125C43.355 13.4419 43.8202 13.8785 44.3283 14.265C44.7649 14.6014 45.0583 14.9378 44.9081 15.5533C44.8651 15.7322 45.0655 16.0972 45.2444 16.1831C45.4448 16.2761 45.7598 16.1615 46.0174 16.1114C46.0961 16.0971 46.1533 15.9827 46.2249 15.9111C46.7688 16.3835 47.2627 16.8557 47.8138 17.2637C48.2074 17.5643 48.3791 17.8721 48.2718 18.3802C48.1716 18.8597 48.5223 19.2462 48.9589 19.1818C49.1879 19.146 49.3955 18.9886 49.6603 18.8597C50.1255 19.2605 50.6264 19.7257 51.1632 20.1408C51.5568 20.4485 51.7787 20.7491 51.6571 21.293C51.6141 21.5006 51.793 21.8585 51.9791 21.9802C52.1437 22.0875 52.4658 21.9944 52.7163 21.9515C52.8093 21.9372 52.8809 21.8084 52.9739 21.7154C53.4749 22.1448 53.94 22.5813 54.441 22.9678C54.8704 23.3042 55.1925 23.6405 55.0065 24.2488C54.9134 24.5566 55.0924 24.8429 55.3858 24.9145C55.6148 24.9717 55.8868 24.8787 56.1301 24.8143C56.2089 24.8 56.2589 24.6854 56.3376 24.6067C56.9173 25.1077 57.4469 25.6015 58.0195 26.0452C58.3487 26.3029 58.499 26.5677 58.3845 26.9828C58.2986 27.3264 58.3846 27.6413 58.7209 27.8131C59.1146 28.0135 59.4294 27.8417 59.6728 27.5268C60.9539 28.4357 61.5622 29.9888 61.19 31.4774C60.4815 34.3831 58.9786 36.8236 56.7528 38.7989C54.2049 41.0676 51.2133 42.3272 47.8066 42.5992C44.45 42.8711 41.4584 44.0449 38.8247 46.1491C38.7316 46.2278 38.5957 46.2636 38.474 46.2993C38.1018 46.4282 37.6867 46.4854 37.3575 46.6787C36.878 46.9578 36.4342 47.0007 35.9261 46.7931C35.0816 46.4424 34.4232 46.514 34.0296 46.9649C33.6431 47.4229 33.6645 48.0957 34.144 48.8686C34.4375 49.341 34.4661 49.7919 34.2371 50.3C34.008 50.8082 33.9079 51.3378 34.1798 51.8818C34.2299 51.9748 34.1941 52.1322 34.1512 52.2467C33.8864 52.9982 33.6287 53.7568 33.3353 54.494C33.2279 54.7516 33.0562 55.0236 32.8415 55.1953C32.4622 55.4816 32.0256 55.4459 31.6391 55.1811C31.2526 54.9306 30.9163 54.6658 31.0594 54.0789C31.1954 53.5135 30.7731 53.0841 30.2864 53.2129C30.086 53.263 29.9215 53.4205 29.7211 53.5421C29.1485 53.0483 28.576 52.5259 27.9748 52.0535C27.7028 51.8388 27.6241 51.6169 27.6956 51.2949C27.7815 50.9084 27.7529 50.5363 27.3378 50.3502C26.9513 50.1784 26.6508 50.3502 26.4003 50.6794C25.8564 50.2142 25.3554 49.7346 24.8043 49.3124C24.4035 49.0118 24.246 48.7041 24.3319 48.1959C24.3677 47.9812 24.2031 47.6448 24.0171 47.5017C23.8668 47.3871 23.5518 47.4659 23.3228 47.5017C23.2154 47.5231 23.1296 47.6592 23.0151 47.7522C22.5212 47.3228 22.0417 46.8719 21.5264 46.4783C21.097 46.149 20.8394 45.8198 20.9682 45.2186C21.0112 45.0326 20.8179 44.6675 20.6389 44.5817C20.4385 44.4886 20.1237 44.596 19.866 44.646C19.7873 44.6604 19.73 44.7749 19.6513 44.8536C19.0787 44.3598 18.5491 43.866 17.9766 43.4222C17.6474 43.1646 17.5328 42.907 17.5901 42.4847C17.6259 42.2486 17.5257 41.9193 17.3683 41.7404C17.0891 41.4255 16.7241 41.5257 16.2804 41.948C15.7579 41.4971 15.2498 41.0176 14.6987 40.5953C14.298 40.2947 14.1405 39.9869 14.2407 39.4788C14.3409 38.9706 13.9258 38.5699 13.4606 38.6915C13.2602 38.7416 13.0884 38.8991 12.8809 39.0207C12.4371 38.6414 11.9934 38.2263 11.5139 37.8541C11.0487 37.4963 10.6909 37.1457 10.8555 36.4657C10.8984 36.2868 10.6479 35.9504 10.4475 35.8288C10.1755 35.657 9.88211 35.793 9.66025 36.0435C9.59584 36.1222 9.50998 36.2295 9.41694 36.2438C9.09488 36.2939 8.85868 36.4228 8.7728 36.7592C8.69407 37.0956 8.83718 37.346 9.10199 37.5178C9.35964 37.6824 9.40976 37.9114 9.39545 38.1977C9.38113 38.7273 9.38831 39.2641 9.41694 39.7937C9.44557 40.2661 9.74616 40.5452 10.1398 40.5094C10.5334 40.4808 10.7624 40.1945 10.7553 39.7364C10.7553 39.4931 10.7409 39.2569 10.7195 38.9277C11.3707 39.4859 11.9433 39.9583 12.48 40.4664C12.6303 40.6024 12.7234 40.8529 12.7378 41.0604C12.7735 41.6044 12.7449 42.1555 12.7735 42.6994C12.8021 43.1717 13.1027 43.4509 13.5035 43.4222C13.8971 43.3936 14.1262 43.1074 14.119 42.6422C14.119 42.3988 14.0975 42.1626 14.0903 41.8835C14.1905 41.9336 14.2192 41.9479 14.2407 41.9622C14.7775 42.4274 15.3357 42.8784 15.851 43.365C15.9941 43.501 16.0872 43.7515 16.1015 43.959C16.1444 44.5029 16.1158 45.0541 16.1373 45.598C16.1659 46.0703 16.4664 46.3495 16.8672 46.3137C17.2609 46.285 17.49 46.0059 17.4828 45.5407C17.4828 45.2973 17.4685 45.0612 17.4613 44.7892C17.5543 44.8393 17.5829 44.8465 17.6044 44.868C18.1483 45.3332 18.6994 45.7769 19.2147 46.2635C19.3579 46.4067 19.4509 46.6572 19.4652 46.8576C19.5081 47.4015 19.4795 47.9525 19.5082 48.4965C19.5368 48.9688 19.8374 49.248 20.2382 49.2122C20.6318 49.1835 20.8537 48.9044 20.8537 48.4321C20.8537 48.1888 20.8393 47.9525 20.8322 47.6806C20.9252 47.7307 20.9539 47.7451 20.9754 47.7594C21.5121 48.2174 22.0704 48.6683 22.5857 49.1549C22.7288 49.2981 22.8218 49.5485 22.8362 49.7489C22.8791 50.2929 22.8504 50.844 22.8719 51.3879C22.9005 51.8603 23.2011 52.1394 23.6019 52.1036C23.9955 52.0678 24.2245 51.7887 24.2174 51.3235C24.2174 51.0802 24.2031 50.844 24.1888 50.572C24.2819 50.6221 24.3105 50.6364 24.3319 50.6507C24.8687 51.1159 25.4269 51.5669 25.9422 52.0535C26.0854 52.1895 26.1855 52.44 26.1927 52.6475C26.2356 53.1914 26.2071 53.7426 26.2357 54.2936C26.2643 54.766 26.5649 55.0451 26.9657 55.0093C27.3593 54.9807 27.5812 54.7015 27.5812 54.2363C27.5812 53.993 27.5669 53.7568 27.5525 53.4276C28.1967 53.9858 28.7692 54.451 29.3059 54.9592C29.4491 55.0952 29.5422 55.3456 29.5565 55.5532C29.5923 56.0971 29.5636 56.6482 29.5922 57.1921C29.6209 57.6645 29.9215 57.9436 30.3223 57.9078C30.7159 57.8792 30.9449 57.593 30.9377 57.1278C30.9377 56.8773 30.9162 56.6339 30.9091 56.455C31.5604 56.548 32.1902 56.6411 32.8487 56.7341C32.82 57.1349 32.7628 57.6359 32.7485 58.1297C32.727 58.6307 32.7413 59.1389 32.7485 59.6398C32.7699 60.3341 33.0204 60.6633 33.4785 60.6347C33.958 60.606 34.1226 60.2983 34.0868 59.5611C33.9651 57.1707 34.4017 54.8804 35.3822 52.6976C35.4609 52.5187 35.6614 52.397 35.826 52.2753C35.9763 52.1608 36.1623 52.0964 36.3269 51.9962C36.7492 51.7386 37.1714 51.6956 37.6366 51.896C37.9157 52.0105 38.2235 52.1108 38.5312 52.1322C39.4473 52.2038 40.0199 51.5168 39.8123 50.6221C39.7479 50.343 39.6119 50.0711 39.4545 49.8206C39.1897 49.3768 39.1754 48.9474 39.3543 48.4607C39.4831 48.1172 39.5117 47.7522 39.6119 47.3944C39.6477 47.2655 39.7121 47.1224 39.8123 47.0437C41.4584 45.7411 43.2906 44.7892 45.3446 44.3384C46.5398 44.0735 47.7779 43.9805 48.9875 43.7801C54.4553 42.8855 58.5563 40.0227 61.1685 35.1274C62.6572 32.3291 63.2226 29.3231 62.922 26.1669M30.8375 17.3925C30.0646 17.4498 29.3131 17.8649 28.5974 18.1082C28.7334 17.3925 29.0412 16.6053 28.9839 15.8395C28.9267 15.0665 28.5116 14.3222 28.2682 13.6065C29.0054 13.7425 29.7998 14.0431 30.5656 13.9858C31.3385 13.9286 32.0829 13.5135 32.7843 13.2773C32.6483 14.0002 32.3477 14.8017 32.4049 15.5747C32.455 16.3333 32.8701 17.0634 33.1135 17.7862C32.3978 17.6502 31.6033 17.3425 30.8447 17.3997M35.3893 51.1088C35.9261 49.9851 35.8689 49.0118 35.2605 48.0527C36.3126 48.5108 37.2788 48.4321 38.2951 47.7236C37.7726 48.8329 37.8084 49.8206 38.4453 50.7867C37.4076 50.3359 36.4271 50.4002 35.3893 51.1088Z" fill="#513117"/>
<path id="Vector_2" d="M51.1776 28.0638C51.6285 27.6129 52.1796 27.5699 52.702 27.799C53.3032 28.0709 53.8113 28.0279 54.3624 27.6773C54.849 27.3624 55.4288 27.3123 55.894 27.7131C56.3592 28.121 56.3949 28.6936 56.1588 29.2232C55.894 29.8244 55.9298 30.3253 56.2805 30.8835C56.5811 31.3631 56.6597 31.9213 56.2303 32.408C55.8081 32.8946 55.2427 32.909 54.7274 32.6799C54.119 32.4151 53.6181 32.4509 53.0599 32.8016C52.5732 33.1165 52.0006 33.1666 51.5283 32.7587C51.0559 32.3507 51.0273 31.771 51.2635 31.2486C51.5283 30.6474 51.4925 30.1393 51.1418 29.5882C50.834 29.1015 50.8054 28.5576 51.1704 28.0494M52.1652 32.043C53.2602 31.3845 54.298 31.3058 55.5004 31.7996C54.8634 30.6545 54.756 29.6168 55.2427 28.4573C54.1691 29.1229 53.1457 29.1587 51.9505 28.7508C52.6018 29.8458 52.6018 30.8692 52.1581 32.043" fill="#513117"/>
<path id="Vector_3" d="M17.1392 34.1114C16.8314 33.9754 16.5238 33.8323 16.216 33.6891C15.0852 33.1381 13.9901 32.4581 12.9309 31.7997L12.845 31.7425C12.6661 31.628 12.4801 31.3631 12.3799 31.0768C12.2081 30.583 12.065 30.0534 11.9219 29.5024C11.8574 29.259 11.793 29.0085 11.7214 28.7508L11.521 28.0208L11.1847 28.6936C11.1346 28.7867 11.0988 28.8725 11.063 28.9441C10.9914 29.0801 10.9413 29.1874 10.8912 29.2876C10.6049 29.9246 10.3688 29.8173 10.24 29.7672C10.1327 29.7171 10.0038 29.6312 9.86783 29.5024C8.98037 28.6722 8.27184 27.9707 7.63488 27.2836C6.96928 26.5679 6.31077 25.8093 5.68097 25.0722C5.47341 24.8288 5.25879 24.5855 5.05124 24.3422C4.65045 23.8841 4.87223 23.6766 4.96527 23.5907C5.15135 23.419 5.29457 23.4548 5.40192 23.4977C5.50928 23.5406 5.6166 23.6265 5.72395 23.7482C6.19631 24.2706 6.66865 24.8002 7.141 25.3298C7.83522 26.1028 8.52231 26.8757 9.22369 27.6487C9.35967 27.7989 9.49564 27.9278 9.66025 28.0781C9.73898 28.1497 9.81769 28.2284 9.91073 28.3071L10.2113 28.5934L10.3759 28.2141C10.4547 28.028 10.5334 27.8562 10.6049 27.6845C10.7767 27.2908 10.9342 26.9187 11.0916 26.5465C11.2491 26.1601 11.4065 26.0957 11.6212 26.11C11.6857 26.11 11.7357 26.1242 11.7858 26.1457C11.9147 26.203 12.0006 26.339 12.0793 26.6253C12.1938 27.0332 12.3083 27.4483 12.4228 27.8562C12.6447 28.6435 12.8737 29.4594 13.0741 30.2681C13.1958 30.7548 13.4463 31.0983 13.8828 31.3703C15.0709 32.1218 16.216 32.7229 17.3683 33.2239C19.6012 34.1901 21.7769 34.6983 24.0241 34.7913C28.1251 34.9631 31.9612 33.7464 35.7543 31.0912C36.4414 30.6117 37.0784 30.0892 37.7655 29.5381C38.0804 29.2804 38.4024 29.0156 38.7388 28.7508C38.7388 28.7508 38.932 28.6292 38.8891 28.4002C38.8604 28.2499 38.6028 28.2356 38.6028 28.2356C38.3022 28.1926 38.0159 28.1497 37.744 28.1139C37.2001 28.0423 36.6847 27.9707 36.1981 27.8634C35.0172 27.6057 33.7791 27.1978 32.4121 26.6038C31.7107 26.3032 30.9592 25.9454 30.036 25.473C27.9032 24.3923 25.7419 23.2758 23.6521 22.1951C22.2421 21.4651 20.8322 20.7351 19.4223 20.0123C19.0644 19.8262 18.8139 19.7045 18.5921 19.6043C17.676 19.2107 17.311 19.3968 16.1086 20.0338L16.0728 20.048C15.944 20.1196 15.8152 20.1912 15.6864 20.2628C15.3715 20.4417 15.078 20.6063 14.7703 20.7136C14.6128 20.7637 14.3623 20.7494 14.1834 20.6707C14.1691 20.6635 14.1476 20.6564 14.1333 20.6493C13.9544 20.5491 14.026 20.2985 14.0833 20.1554C14.1763 19.912 14.2693 19.6616 14.3695 19.3968C14.4124 19.2751 14.4626 19.1463 14.5127 19.0175L14.6486 18.6453L14.255 18.631C11.8431 18.5379 9.58153 19.2107 7.34142 20.6778L6.7545 21.0643L7.44163 21.2074C7.74222 21.2718 8.0428 21.3291 8.32908 21.3863C8.95888 21.508 9.54577 21.6225 10.1398 21.7657C12.0865 22.2309 13.9544 23.0325 15.7651 23.8126L17.1178 24.3923C19.3364 25.3442 21.6267 26.3247 23.924 27.1764C26.5291 28.1425 29.4348 28.665 32.7985 28.7723C32.8486 28.7723 32.9059 28.7723 32.956 28.7723C33.0491 28.7723 33.142 28.7723 33.2351 28.7795C33.3353 28.7867 33.4212 28.8081 33.5 28.8367C33.6216 28.8868 33.7648 29.0014 33.7648 29.2232C33.7648 29.3592 33.7218 29.4737 33.6431 29.5524C33.55 29.6455 33.4069 29.6813 33.2351 29.6741H33.1635C32.09 29.6169 30.9736 29.5596 29.8929 29.445C26.6293 29.0944 23.3515 28.1425 19.2577 26.3748C19.0001 26.2674 18.7495 26.1529 18.4919 26.0383L17.6331 25.6519C16.7742 25.2655 15.8796 24.8718 14.9993 24.4853C13.9329 24.0273 13.0383 23.6552 12.1795 23.3259C8.90163 22.0592 5.82416 21.7514 2.78247 22.3812C2.5105 22.4384 2.24571 22.51 1.98806 22.5887C1.88786 22.6174 1.7948 22.646 1.6946 22.6746C1.52284 22.7247 1.36538 22.7176 1.24371 22.6746C1.13636 22.6245 1.05768 22.5387 1.02189 22.417C0.986109 22.2882 0.993207 22.1665 1.05046 22.0591C1.11487 21.9446 1.23653 21.873 1.39398 21.8372C2.00232 21.7013 2.62502 21.5867 3.23336 21.4794C3.71287 21.3935 4.20672 21.3005 4.69339 21.2003C5.10134 21.1144 5.42338 20.9784 5.65956 20.7924C8.60105 18.4306 11.6427 17.4429 14.9636 17.7793C15.2212 17.808 15.393 17.8438 15.5075 17.8867C15.6435 17.944 15.7723 18.0011 15.6864 18.7168L15.6291 19.2464L16.1086 19.0031C16.216 18.9459 16.3233 18.8958 16.4235 18.8457C16.6668 18.724 16.8959 18.6167 17.1178 18.4807C17.3898 18.3232 17.6331 18.3018 17.9122 18.4163L17.9551 18.4377C18.6565 18.7669 19.3579 19.0961 20.0593 19.4254C21.5193 20.1053 23.0365 20.8138 24.4965 21.5581C25.384 22.009 26.2857 22.4886 27.1589 22.9538C28.9553 23.9128 30.8161 24.9004 32.7198 25.7235C33.1206 25.8952 33.5214 26.0598 33.915 26.2101C35.6255 26.8757 37.0712 27.205 38.4597 27.2336C38.6744 27.2336 38.8605 27.2765 39.0179 27.3481C39.3042 27.4698 39.5046 27.6988 39.6334 28.0352C39.8267 28.5361 39.7264 28.9728 39.34 29.3378C35.4967 32.9162 31.496 34.9416 27.1231 35.5427C23.7952 36.0008 20.4386 35.507 17.1678 34.097" fill="#513117"/>
</g>
</g>
</svg>
