<svg width="32" height="32" viewBox="0 0 32 32" fill="none" xmlns="http://www.w3.org/2000/svg">
<path d="M27.3347 8H4.66797" stroke="#757868" stroke-width="2" stroke-linecap="round"/>
<path d="M25.1128 11.3359L24.4996 20.5348C24.2636 24.0746 24.1456 25.8446 22.9923 26.9236C21.8389 28.0026 20.065 28.0026 16.5173 28.0026H15.4862C11.9384 28.0026 10.1646 28.0026 9.01121 26.9236C7.85787 25.8446 7.73987 24.0746 7.50388 20.5348L6.89062 11.3359" stroke="#757868" stroke-width="2" stroke-linecap="round"/>
<path d="M12.668 14.6641L13.3346 21.3307" stroke="#757868" stroke-width="2" stroke-linecap="round"/>
<path d="M19.3346 14.6641L18.668 21.3307" stroke="#757868" stroke-width="2" stroke-linecap="round"/>
<path d="M8.66797 8C8.74247 8 8.77973 8 8.8135 7.99914C9.91143 7.97132 10.88 7.27321 11.2536 6.24043C11.2651 6.20866 11.2769 6.17332 11.3004 6.10263L11.4299 5.71429C11.5404 5.38277 11.5956 5.21701 11.6689 5.07627C11.9613 4.51476 12.5023 4.12485 13.1274 4.02502C13.2841 4 13.4589 4 13.8083 4H18.1943C18.5437 4 18.7185 4 18.8752 4.02502C19.5003 4.12485 20.0413 4.51476 20.3337 5.07627C20.407 5.21701 20.4622 5.38277 20.5727 5.71429L20.7022 6.10263C20.7257 6.17322 20.7375 6.20868 20.749 6.24043C21.1226 7.27321 22.0912 7.97132 23.1891 7.99914C23.2229 8 23.2601 8 23.3346 8" stroke="#757868" stroke-width="2"/>
</svg>
