<svg width="160" height="160" viewBox="0 0 160 160" fill="none" xmlns="http://www.w3.org/2000/svg">
<g id="truck">
<g id="Group">
<path id="Vector" d="M158.777 119.192C155.554 119.582 152.337 119.672 149.115 119.72C147.506 119.744 145.892 119.75 144.284 119.744C142.675 119.744 141.061 119.726 139.453 119.714C136.23 119.69 133.013 119.684 129.79 119.69H18.6761L16.2636 119.708L13.851 119.738C12.2427 119.75 10.6283 119.738 9.01994 119.666C7.41159 119.588 5.79728 119.474 4.18892 119.192C4.05089 119.168 3.96082 119.036 3.98483 118.898C4.00283 118.79 4.0869 118.712 4.18892 118.694C5.79728 118.412 7.41159 118.292 9.01994 118.22C10.6283 118.154 12.2427 118.13 13.851 118.148L16.2636 118.178L18.6761 118.196H23.5071H42.8314H129.79C133.013 118.196 136.23 118.196 139.453 118.172C141.061 118.16 142.675 118.142 144.284 118.142C145.892 118.136 147.506 118.142 149.115 118.166C152.337 118.214 155.554 118.304 158.777 118.694C158.915 118.712 159.011 118.838 158.999 118.976C158.987 119.096 158.891 119.18 158.777 119.198V119.192Z" fill="#513117"/>
<g id="Group_2">
<path id="Vector_2" d="M100 53.9873H28.9985C28.6084 53.9873 28.2303 54.1493 27.9603 54.4314L9.1641 74.1097C9.08008 74.1997 9.03811 74.3198 9.05612 74.4398L11.3066 91.0155C11.3366 91.2135 11.5046 91.3636 11.7026 91.3636H99.574C100.456 91.3636 101.176 90.6434 101.176 89.7612V55.1695C101.176 54.5154 100.648 53.9873 99.9941 53.9873H100ZM29.3586 90.5594H12.0568L9.8783 74.5239L28.5424 54.9835C28.6624 54.8634 28.8244 54.7915 28.9925 54.7915H29.3525V90.5594H29.3586ZM33.8475 90.5594H30.1627V54.7915H33.8475V90.5594ZM47.3385 90.5594H34.6518V54.7915H47.3385V90.5594ZM51.8275 90.5594H48.1427V54.7915H51.8275V90.5594ZM65.3065 90.5594H52.6317V54.7915H65.3065V90.5594ZM69.7954 90.5594H66.1106V54.7915H69.7954V90.5594ZM83.2864 90.5594H70.5996V54.7915H83.2864V90.5594ZM87.7754 90.5594H84.0906V54.7915H87.7754V90.5594ZM100.378 89.7612C100.378 90.1993 100.018 90.5594 99.58 90.5594H88.5796V54.7915H100L100.378 54.8214V89.7612Z" fill="#513117"/>
<path id="Vector_3" d="M155.428 102.28H152.944V95.5103C152.944 93.3259 151.737 91.3394 149.793 90.3372L142.687 86.6644L133.865 72.4832L133.853 72.4592C131.813 67.6341 123.477 67.148 115.417 66.6799C114.331 66.6139 113.203 66.5479 112.111 66.4759C112.051 66.4759 111.991 66.4699 111.931 66.4699C111.27 66.4699 110.64 66.716 110.154 67.1721C109.632 67.6582 109.332 68.3543 109.332 69.0685V102.352H99.826V101.272C99.826 99.6212 99.1118 98.0489 97.8635 96.9627L97.1674 96.3565H102.19C104.381 96.3565 106.169 94.5741 106.169 92.3777V52.9789C106.169 50.7884 104.387 49 102.19 49H28.9984C27.252 49 25.5597 49.7262 24.3594 50.9865L22.673 52.7508L21.7248 51.9647C21.0527 51.4126 20.2005 51.1065 19.3183 51.1065C18.28 51.1065 17.2839 51.5325 16.5757 52.2707L8.61794 60.6006C7.23164 62.0529 7.21961 64.3394 8.59391 65.8097L9.39206 66.662L5.20916 71.0369C4.29696 71.9971 3.87083 73.2994 4.05087 74.6077L4.12889 75.1778L3.85286 75.2678C1.95044 75.892 0.768215 77.7944 1.03827 79.7929L1.93847 86.4003C2.20853 88.3867 3.85884 89.9051 5.85728 90.0071L6.1454 90.0191L6.45741 92.3296C6.76948 94.6221 8.74394 96.3445 11.0604 96.3445H13.0709L17.4818 106.055C17.8239 106.817 18.5861 107.303 19.4203 107.303H22.9911C23.9333 107.303 24.6954 106.541 24.6954 105.599V96.3385H31.621V102.268H27.408C27.186 102.268 27.0059 102.448 27.0059 102.67V108.767C27.0059 110.442 28.3682 111.798 30.0366 111.798H34.3876C34.6096 111.798 34.7897 111.618 34.7897 111.396V109.145H37.5503L37.5803 109.457C38.0664 114.535 42.2853 118.369 47.3924 118.369C52.4996 118.369 56.7185 114.541 57.2046 109.463L57.2346 109.151H66.7407L66.8247 109.385C67.3348 110.832 68.7031 111.804 70.2334 111.804H90.746C92.2763 111.804 93.6446 110.832 94.1547 109.385L94.2387 109.151H109.722L109.824 109.289C110.292 109.926 111.036 110.298 111.823 110.298H113.623V112.152H110.532C110.286 112.152 110.088 112.35 110.088 112.596V113.508C110.088 113.754 110.286 113.952 110.532 113.952H124.683C124.929 113.952 125.127 113.754 125.127 113.508V112.596C125.127 112.35 124.929 112.152 124.683 112.152H122.571V110.298H124.191C125.158 110.298 125.938 109.499 125.938 108.527C125.938 102.322 130.979 97.2748 137.172 97.2748C141.625 97.2748 145.67 99.9153 147.464 104.008L147.494 104.074V106.355L146.81 106.427C145.838 101.92 141.787 98.649 137.172 98.649C131.735 98.649 127.312 103.072 127.312 108.509C127.312 113.946 131.735 118.369 137.172 118.369C141.787 118.369 145.838 115.099 146.81 110.592L147.494 110.664V111.396C147.494 111.618 147.674 111.798 147.897 111.798H153.01C154.948 111.798 156.526 110.22 156.526 108.281V103.354C156.526 102.754 156.04 102.268 155.44 102.268L155.428 102.28ZM9.3621 65.0836C8.37188 64.0274 8.37783 62.377 9.38005 61.3268L17.3378 52.9969C17.8479 52.4628 18.5681 52.1567 19.3183 52.1567C19.9544 52.1567 20.5726 52.3788 21.0587 52.7809L21.9529 53.513L10.1243 65.8938L9.36811 65.0836H9.3621ZM5.53326 88.9089C4.20696 88.6748 3.15673 87.5825 2.97669 86.2502L2.07649 79.6428C1.89045 78.2805 2.59856 76.9782 3.83484 76.3961L4.26098 76.198L5.99537 88.9929L5.52725 88.9089H5.53326ZM23.8853 105.611C23.8853 106.109 23.4832 106.511 22.9851 106.511H19.4143C18.8982 106.511 18.4241 106.205 18.208 105.731L15.3394 99.4112H23.8853V105.611ZM11.0544 95.5464C9.14602 95.5464 7.50768 94.118 7.24962 92.2216L6.91952 89.779L6.95556 89.6891C6.98557 89.6231 6.99754 89.551 6.99754 89.479C6.99754 89.3589 6.95557 89.245 6.88355 89.1489L6.82355 89.0709L5.0351 75.904L5.07114 75.814C5.11315 75.724 5.12512 75.6219 5.10711 75.5259C5.09511 75.4358 5.05314 75.3519 4.99913 75.2799L4.93913 75.2078L4.84309 74.4816C4.69906 73.4134 5.0411 72.3512 5.78526 71.571L10.0702 67.082L10.1602 67.058C10.2443 67.034 10.3163 66.992 10.3823 66.938C10.4603 66.866 10.5143 66.77 10.5383 66.668L10.5564 66.5719L22.661 53.9031L22.751 53.8791C22.859 53.8491 22.9491 53.789 23.0211 53.705C23.0751 53.645 23.1111 53.567 23.1291 53.489L23.1531 53.399L24.9355 51.5325C25.9917 50.4283 27.4681 49.7982 28.9924 49.7982H102.184C103.931 49.7982 105.359 51.2205 105.359 52.9729V92.3717C105.359 94.118 103.937 95.5464 102.184 95.5464H11.0484H11.0544ZM33.9855 109.103H30.5228C29.5085 109.103 28.5483 108.659 27.8882 107.891L27.8041 107.795V103.084H33.9795V109.109L33.9855 109.103ZM32.4191 102.28V96.3505H63.2839V102.28H55.0141L54.912 102.16C53.0336 99.9393 50.2911 98.673 47.3924 98.673C44.4938 98.673 41.7572 99.9453 39.8728 102.16L39.7707 102.28H32.4191ZM37.5443 108.029L37.5262 108.359H34.7837V103.156H39.1046L38.8105 103.672C38.0424 105.016 37.6163 106.487 37.5383 108.029H37.5443ZM47.3924 117.841C42.2553 117.841 38.0724 113.664 38.0724 108.521C38.0724 103.378 42.2493 99.2012 47.3924 99.2012C52.5356 99.2012 56.7124 103.378 56.7124 108.521C56.7124 113.664 52.5356 117.841 47.3924 117.841ZM60.9794 108.359H57.2526L57.2346 108.029C57.1566 106.481 56.7304 105.016 55.9623 103.666L55.6682 103.15H63.872L60.9734 108.353L60.9794 108.359ZM67.0468 102.346H64.0881V96.3505H82.3981L81.7019 96.9567C80.7477 97.7909 80.0876 98.9311 79.8476 100.167L79.7936 100.449H70.2334C68.9671 100.449 67.8149 101.098 67.1487 102.184L67.0468 102.352V102.346ZM93.5485 108.197C93.5485 109.746 92.2883 111.006 90.74 111.006H70.2274C68.6791 111.006 67.4188 109.746 67.4188 108.197V104.062C67.4188 102.514 68.6791 101.254 70.2274 101.254H90.74C92.2883 101.254 93.5485 102.514 93.5485 104.062V108.197ZM93.9147 102.328L93.8126 102.166C93.1465 101.092 92.0002 100.449 90.74 100.449H80.5917L80.7058 100.017C81.2759 97.8629 83.2263 96.3505 85.4588 96.3505H94.1067C96.8193 96.3505 99.0217 98.559 99.0217 101.266V102.328H93.9147ZM102.497 108.359H94.3528V104.062C94.3528 103.894 94.3407 103.72 94.3167 103.546L94.2627 103.15H102.497V108.353V108.359ZM137.166 117.841C132.029 117.841 127.846 113.664 127.846 108.521C127.846 103.378 132.023 99.2012 137.166 99.2012C142.309 99.2012 146.48 103.378 146.48 108.521C146.48 113.664 142.303 117.841 137.166 117.841ZM141.679 86.5683H135.432L135.33 86.4243C134.694 85.5421 133.673 85.014 132.593 85.014H131.885C131.663 85.014 131.483 85.1941 131.483 85.4161V86.5623H122.463C120.074 86.5623 118.124 84.6179 118.124 82.2294V74.2896C118.124 73.6175 118.67 73.0713 119.342 73.0713H133.289L141.685 86.5623L141.679 86.5683ZM131.873 91.7655H132.581C133.403 91.7655 134.195 91.4654 134.814 90.9193L135.39 90.4092V93.4219C135.39 93.878 135.072 94.2621 134.634 94.3401C128.998 95.3423 124.491 99.5853 123.153 105.149C123.057 105.557 122.673 105.851 122.241 105.851H118.928C118.412 105.851 117.992 105.431 117.992 104.914V84.942L118.598 85.6262C119.576 86.7364 120.981 87.3726 122.451 87.3726H131.471V91.3634C131.471 91.5854 131.651 91.7655 131.873 91.7655ZM132.275 90.9674V85.8182H132.629C134.021 85.8482 135.156 87.0005 135.156 88.3928C135.156 89.7851 134.021 90.9373 132.629 90.9613H132.275V90.9674ZM121.341 112.17H114.829V110.316H121.341V112.17ZM147.764 102.298L147.512 102.376L147.374 102.154C145.154 98.607 141.337 96.4886 137.166 96.4886C130.529 96.4886 125.127 101.89 125.127 108.527C125.127 109.079 124.713 109.511 124.185 109.511H111.817C110.892 109.511 110.142 108.761 110.142 107.837V69.0685C110.142 68.5644 110.346 68.1023 110.712 67.7602C111.048 67.4481 111.48 67.28 111.931 67.28C111.973 67.28 112.015 67.28 112.063 67.28C113.143 67.3521 114.253 67.4181 115.327 67.4841H115.381C122.505 67.9042 129.869 68.3303 132.497 71.721L132.929 72.2792H119.342C118.226 72.2792 117.32 73.1854 117.32 74.3016V82.2414C117.32 82.6075 117.362 82.9735 117.434 83.3336V83.3696L117.44 104.926C117.44 105.749 118.112 106.421 118.934 106.421H122.247C122.943 106.421 123.537 105.959 123.699 105.293C124.984 99.9394 129.316 95.8644 134.736 94.8982C135.438 94.7722 135.954 94.1601 135.954 93.4339V88.6688C135.96 88.5848 135.966 88.4948 135.966 88.4108C135.966 88.3268 135.966 88.2368 135.954 88.1227V87.3905H142.309L149.427 91.0693C150.885 91.8195 151.881 93.2419 152.097 94.8622L152.151 95.2522H150.087C149.421 95.2522 148.887 95.7924 148.887 96.4525V100.131C148.887 100.713 149.061 101.272 149.397 101.752L149.775 102.298H147.897C147.855 102.298 147.813 102.304 147.777 102.316L147.764 102.298ZM152.139 95.7864V102.28H150.975L150.915 102.256C150.027 101.92 149.433 101.062 149.433 100.113V96.4346C149.433 96.0745 149.721 95.7864 150.081 95.7864H152.139ZM155.716 107.795L155.632 107.891C154.972 108.665 154.012 109.103 152.998 109.103H148.287V104.2H155.71V107.789L155.716 107.795Z" fill="#513117"/>
<path id="Vector_4" d="M47.3924 102.46C44.0496 102.46 41.3311 105.179 41.3311 108.521C41.3311 111.864 44.0496 114.583 47.3924 114.583C50.7351 114.583 53.4537 111.864 53.4537 108.521C53.4537 105.179 50.7351 102.46 47.3924 102.46ZM47.3924 114.049C44.3497 114.049 41.8711 111.57 41.8711 108.527C41.8711 105.485 44.3497 103.006 47.3924 103.006C50.435 103.006 52.9136 105.485 52.9136 108.527C52.9136 111.57 50.435 114.049 47.3924 114.049Z" fill="#513117"/>
<path id="Vector_5" d="M47.3925 107.483C46.8163 107.483 46.3542 107.952 46.3542 108.522C46.3542 109.092 46.8223 109.56 47.3925 109.56C47.9626 109.56 48.4307 109.092 48.4307 108.522C48.4307 107.952 47.9626 107.483 47.3925 107.483Z" fill="#513117"/>
<path id="Vector_6" d="M123.309 89.893C123.309 89.857 123.285 89.833 123.249 89.833H120.488C120.458 89.833 120.428 89.857 120.428 89.893C120.428 89.935 120.428 89.983 120.44 90.025V90.1271L120.428 90.1991V90.4751C120.428 90.9912 120.848 91.4114 121.364 91.4114H122.379C122.895 91.4114 123.315 90.9912 123.315 90.4751V90.169L123.291 90.097L123.303 90.025C123.309 89.983 123.315 89.941 123.315 89.899L123.309 89.893Z" fill="#513117"/>
<path id="Vector_7" d="M137.166 102.46C133.823 102.46 131.105 105.179 131.105 108.521C131.105 111.864 133.823 114.583 137.166 114.583C140.509 114.583 143.227 111.864 143.227 108.521C143.227 105.179 140.509 102.46 137.166 102.46ZM137.166 114.049C134.123 114.049 131.645 111.57 131.645 108.527C131.645 105.485 134.123 103.006 137.166 103.006C140.209 103.006 142.687 105.485 142.687 108.527C142.687 111.57 140.209 114.049 137.166 114.049Z" fill="#513117"/>
<path id="Vector_8" d="M137.166 107.483C136.59 107.483 136.128 107.952 136.128 108.522C136.128 109.092 136.596 109.56 137.166 109.56C137.736 109.56 138.204 109.092 138.204 108.522C138.204 107.952 137.736 107.483 137.166 107.483Z" fill="#513117"/>
</g>
</g>
</g>
</svg>
