<svg width="64" height="64" viewBox="0 0 64 64" fill="none" xmlns="http://www.w3.org/2000/svg">
<path fill-rule="evenodd" clip-rule="evenodd" d="M32.0219 52.9996H47.8245C50.6746 52.9996 53.0001 50.6743 53.0001 47.8242V16.1755C53.0001 13.3255 50.6746 11 47.8245 11H16.1902C13.3401 11 11.0146 13.3255 11.0146 16.1755V31.2101C11.0049 31.4722 11 31.7354 11 31.9998C11 32.2642 11.0049 32.5275 11.0146 32.7895V47.8242C11.0146 50.6743 13.3401 52.9996 16.1902 52.9996H31.9776C31.985 52.9996 31.9924 52.9997 31.9997 52.9997C32.0071 52.9997 32.0145 52.9996 32.0219 52.9996ZM41.2091 50.8727H47.8103C49.4835 50.8727 50.8448 49.5116 50.8448 47.8384V41.266C48.7873 45.4359 45.3861 48.8275 41.2091 50.8727ZM50.8448 32.7389C50.4624 42.7927 42.1599 50.8637 32.0168 50.8727H31.9826C21.6398 50.8635 13.211 42.4716 13.1415 32.1426V31.8854C13.211 21.5507 21.6491 13.1553 31.9997 13.1553C42.1506 13.1553 50.4622 21.2297 50.8448 31.2892V32.7389ZM50.8448 22.7336V16.1897C50.8448 14.5166 49.4835 13.1553 47.8103 13.1553H41.2668C45.4174 15.2034 48.7968 18.583 50.8448 22.7336ZM13.1415 22.7606C15.1881 18.5976 18.5731 15.2079 22.7327 13.1553H16.176C14.5028 13.1553 13.1415 14.5166 13.1415 16.1897V22.7606ZM13.1415 41.239C15.1976 45.4213 18.6044 48.8231 22.7904 50.8727H16.176C14.5028 50.8727 13.1415 49.5116 13.1415 47.8384V41.239Z" fill="black"/>
<path d="M31.9999 37.3597C29.0505 37.3597 26.6401 34.9633 26.6401 31.9998C26.6401 29.0363 29.0363 26.64 31.9999 26.64C34.9634 26.64 37.3597 29.0363 37.3597 31.9998C37.3597 34.9633 34.9634 37.3597 31.9999 37.3597ZM31.9999 28.7953C30.2274 28.7953 28.7811 30.2416 28.7811 32.014C28.7811 33.7864 30.2274 35.2328 31.9999 35.2328C33.7723 35.2328 35.2186 33.7864 35.2186 32.014C35.2186 30.2416 33.7723 28.7953 31.9999 28.7953Z" fill="black"/>
</svg>
