<svg version="1.2" xmlns="http://www.w3.org/2000/svg" viewBox="0 0 39 38" width="39" height="38">
	<title>mute-svg</title>
	<style>
		.s0 { fill: #ffffff } 
	</style>
	<path id="Layer" fill-rule="evenodd" class="s0" d="m28.6 18.5c0 2.8-1.2 5.4-3 7.4l-1.8-1.8c1.4-1.4 2.3-3.4 2.3-5.6 0-2.2-0.9-4.2-2.3-5.6l1.8-1.8q0.7 0.8 1.3 1.6 0.5 0.9 0.9 1.8 0.4 1 0.6 2 0.2 1 0.2 2zm-7.8-13.5v26.9c0 1.8-2.1 2.6-3.3 1.4l-9.7-9.7h-5.2c-1.4 0-2.6-1.1-2.6-2.6v-5.2c0-1.4 1.2-2.6 2.6-2.6h5.2l9.7-9.6c1.2-1.2 3.3-0.4 3.3 1.4zm12.1-1.3c3.8 3.8 6.1 9 6.1 14.7q0 2.1-0.4 4.1-0.4 2-1.2 3.9-0.8 1.9-1.9 3.6-1.1 1.7-2.6 3.2l-1.7-1.8c3.3-3.3 5.3-7.9 5.3-12.9q0-1.8-0.3-3.6-0.4-1.8-1.1-3.4-0.6-1.7-1.6-3.2-1-1.5-2.3-2.8l1.7-1.7zm0.9 14.7q0 1.6-0.3 3.1-0.3 1.5-0.9 2.9-0.6 1.4-1.4 2.7-0.9 1.3-2 2.3l-1.7-1.7c2.3-2.3 3.8-5.6 3.8-9.3q0-1.2-0.2-2.5-0.3-1.3-0.8-2.5-0.5-1.2-1.2-2.3-0.7-1-1.6-2l1.7-1.7c2.9 2.8 4.6 6.8 4.6 11z"/>
</svg>