<svg width="28" height="27" viewBox="0 0 28 27" fill="none" xmlns="http://www.w3.org/2000/svg">
<path id="Vector" d="M14.17 26.54C9.76997 26.54 5.35988 26.54 0.959884 26.54C0.409884 26.54 0.379976 26.54 0.429976 25.98C0.749976 22.16 2.64991 19.41 6.10991 17.76C7.36991 17.16 8.72993 16.92 10.1299 16.92C12.8399 16.92 15.5599 16.92 18.2699 16.92C23.0599 16.92 27.0399 20.3 27.8299 25.03C27.8999 25.43 27.94 25.83 27.93 26.23C27.93 26.45 27.8499 26.55 27.6199 26.54C27.4899 26.54 27.3699 26.54 27.2399 26.54C22.8799 26.54 18.53 26.54 14.17 26.54ZM14.1899 0.710035C10.0399 0.750035 6.66997 3.99004 6.66997 8.25004C6.66997 12.52 10.1299 15.77 14.2099 15.77C18.3399 15.77 21.7199 12.39 21.7099 8.25004C21.7099 4.10004 18.3199 0.680035 14.1899 0.710035Z" fill="#513117"/>
</svg>
