<svg width="64" height="64" viewBox="0 0 64 64" fill="none" xmlns="http://www.w3.org/2000/svg">
<path fill-rule="evenodd" clip-rule="evenodd" d="M16.6547 41.7437H47.3395H47.3517C47.7534 41.7437 48.1185 41.4881 48.2646 41.1108L57.941 15.3189C58.1236 14.8199 57.8681 14.2479 57.369 14.0653C56.87 13.8827 56.31 14.1383 56.1153 14.6373L53.181 22.4533C52.7688 22.0667 52.402 21.5541 52.0259 21.0275C51.1008 19.7251 49.9445 18.1063 47.6563 18.1063C45.368 18.1063 44.2117 19.7251 43.2867 21.0275C42.3616 22.3298 41.7165 23.1332 40.4993 23.1332C39.2821 23.1332 38.6492 22.3298 37.7241 21.0275C36.7991 19.7251 35.6428 18.1063 33.3545 18.1063C31.0662 18.1063 29.91 19.7251 28.9849 21.0275C28.0599 22.3298 27.4269 23.1332 26.2097 23.1332C24.9926 23.1332 24.3596 22.3298 23.4345 21.0275C22.5095 19.7251 21.3532 18.1063 19.0649 18.1063C16.7767 18.1063 15.6204 19.7251 14.6953 21.0275C13.7703 22.3298 13.1373 23.1332 11.9202 23.1332C11.5885 23.1332 11.2916 23.0774 11.0138 22.9553L7.89102 14.6373C7.70845 14.1261 7.13649 13.8705 6.63745 14.0653C6.12624 14.2479 5.87052 14.8199 6.06527 15.3189L15.7419 41.1108C15.8879 41.4881 16.2531 41.7437 16.6547 41.7437ZM11.8157 25.0914C11.8544 25.0924 11.8933 25.0928 11.9323 25.0928C14.2085 25.0928 15.3647 23.474 16.2898 22.1716C17.2148 20.8692 17.8478 20.0659 19.0649 20.0659C20.2821 20.0659 20.9151 20.8692 21.8401 22.1716C22.7652 23.474 23.9214 25.0928 26.2097 25.0928C28.498 25.0928 29.6543 23.474 30.5793 22.1716C31.5044 20.8692 32.1373 20.0659 33.3545 20.0659C34.5717 20.0659 35.2046 20.8692 36.1297 22.1716C37.0547 23.474 38.211 25.0928 40.4993 25.0928V25.0807C42.7876 25.0807 43.9438 23.4619 44.8689 22.1595C45.7939 20.8571 46.4269 20.0537 47.6563 20.0537C48.8856 20.0537 49.5186 20.8571 50.4436 22.1595C50.9934 22.933 51.6003 23.7849 52.461 24.3712L46.67 39.7963H17.3363L11.8157 25.0914Z" fill="black"/>
<path d="M47.9485 46.3447H16.0465C15.511 46.3447 15.0728 45.9064 15.0728 45.3709C15.0728 44.8353 15.511 44.3972 16.0465 44.3972H47.9485C48.4841 44.3972 48.9223 44.8353 48.9223 45.3709C48.9223 45.9064 48.4841 46.3447 47.9485 46.3447Z" fill="black"/>
<path d="M47.9485 50.5438H16.0465C15.511 50.5438 15.0728 50.1057 15.0728 49.5701C15.0728 49.0346 15.511 48.5964 16.0465 48.5964H47.9485C48.4841 48.5964 48.9223 49.0346 48.9223 49.5701C48.9223 50.1057 48.4841 50.5438 47.9485 50.5438Z" fill="black"/>
<path d="M33.9326 32.447C33.9326 30.7625 34.215 29.4479 34.7797 28.5034C35.3542 27.5491 36.3377 27.072 37.7301 27.072C39.1226 27.072 40.1012 27.5491 40.666 28.5034C41.2405 29.4479 41.5277 30.7625 41.5277 32.447C41.5277 34.1511 41.2405 35.4851 40.666 36.4491C40.1012 37.4033 39.1226 37.8805 37.7301 37.8805C36.3377 37.8805 35.3542 37.4033 34.7797 36.4491C34.215 35.4851 33.9326 34.1511 33.9326 32.447ZM39.8918 32.447C39.8918 31.6583 39.8383 30.9913 39.7312 30.446C39.6338 29.9007 39.4293 29.4577 39.1177 29.1168C38.8061 28.7663 38.3436 28.591 37.7301 28.591C37.1167 28.591 36.6542 28.7663 36.3426 29.1168C36.031 29.4577 35.8216 29.9007 35.7145 30.446C35.6171 30.9913 35.5684 31.6583 35.5684 32.447C35.5684 33.265 35.6171 33.9514 35.7145 34.5065C35.8119 35.0615 36.0164 35.5094 36.328 35.8502C36.6493 36.191 37.1167 36.3614 37.7301 36.3614C38.3436 36.3614 38.8061 36.191 39.1177 35.8502C39.439 35.5094 39.6484 35.0615 39.7458 34.5065C39.8431 33.9514 39.8918 33.265 39.8918 32.447Z" fill="black"/>
<path d="M25.231 29.891C25.2894 28.9854 25.6351 28.2794 26.2681 27.7731C26.9107 27.2668 27.7287 27.0136 28.7219 27.0136C29.4035 27.0136 29.9926 27.1353 30.4892 27.3787C30.9858 27.6222 31.3607 27.9532 31.6139 28.3719C31.867 28.7906 31.9936 29.2629 31.9936 29.7887C31.9936 30.3924 31.833 30.9085 31.5116 31.337C31.1903 31.7654 30.8057 32.0527 30.3577 32.1987V32.2571C30.9322 32.4324 31.3802 32.7538 31.7015 33.2211C32.0228 33.6788 32.1835 34.2679 32.1835 34.9885C32.1835 35.563 32.052 36.0742 31.7891 36.5221C31.5262 36.97 31.1367 37.3254 30.6207 37.5884C30.1046 37.8415 29.4862 37.9681 28.7657 37.9681C27.714 37.9681 26.8474 37.7003 26.1658 37.1648C25.4939 36.6195 25.1336 35.8405 25.085 34.8278H26.6916C26.7306 35.3439 26.9302 35.7675 27.2905 36.0985C27.6508 36.4199 28.1376 36.5805 28.7511 36.5805C29.3451 36.5805 29.8027 36.4199 30.124 36.0985C30.4454 35.7675 30.606 35.3439 30.606 34.8278C30.606 34.1462 30.387 33.6642 29.9488 33.3818C29.5203 33.0897 28.8582 32.9436 27.9624 32.9436H27.5826V31.5707H27.977C28.7657 31.5609 29.3645 31.4295 29.7735 31.1763C30.1922 30.9231 30.4016 30.5239 30.4016 29.9786C30.4016 29.5112 30.2506 29.1412 29.9488 28.8685C29.6469 28.5862 29.2185 28.445 28.6634 28.445C28.1181 28.445 27.6946 28.5862 27.3927 28.8685C27.0909 29.1412 26.9107 29.482 26.8523 29.891H25.231Z" fill="black"/>
</svg>
