<svg width="64" height="64" viewBox="0 0 64 64" fill="none" xmlns="http://www.w3.org/2000/svg">
<g id="washable and resilient">
<g id="Group">
<path id="Vector" d="M4.85764 26.3409H11.2975C12.1242 26.3409 12.7978 25.6672 12.7978 24.8405C12.7978 24.0139 12.1242 23.3403 11.2975 23.3403H4.85764C4.03097 23.3403 3.35742 24.0139 3.35742 24.8405C3.35742 25.6672 4.03097 26.3409 4.85764 26.3409Z" fill="#513117"/>
<path id="Vector_2" d="M24.3306 3.85763V10.2974C24.3306 11.124 25.0042 11.7977 25.8309 11.7977C26.6576 11.7977 27.3311 11.124 27.3311 10.2974V3.85763C27.3311 3.03097 26.6576 2.35742 25.8309 2.35742C25.0042 2.35742 24.3306 3.03097 24.3306 3.85763Z" fill="#513117"/>
<path id="Vector_3" d="M12.2467 13.3791C12.8386 13.9711 13.7878 13.9711 14.3695 13.3791C14.9615 12.7872 14.9615 11.8381 14.3695 11.2564L9.81768 6.70469C9.22575 6.11276 8.27666 6.11276 7.69493 6.70469C7.10299 7.29662 7.10299 8.24571 7.69493 8.82744L12.2467 13.3791Z" fill="#513117"/>
<path id="Vector_4" d="M59.132 35.6484H52.6921C51.8654 35.6484 51.1919 36.322 51.1919 37.1486C51.1919 37.9753 51.8654 38.6489 52.6921 38.6489H59.132C59.9587 38.6489 60.6322 37.9753 60.6322 37.1486C60.6322 36.322 59.9587 35.6484 59.132 35.6484Z" fill="#513117"/>
<path id="Vector_5" d="M38.1491 50.1919C37.3225 50.1919 36.6489 50.8654 36.6489 51.6921V58.1319C36.6489 58.9585 37.3225 59.6322 38.1491 59.6322C38.9758 59.6322 39.6494 58.9585 39.6494 58.1319V51.6921C39.6494 50.8654 38.9758 50.1919 38.1491 50.1919Z" fill="#513117"/>
<path id="Vector_6" d="M51.7431 48.6202C51.1512 48.0283 50.2019 48.0283 49.6202 48.6202C49.0283 49.2122 49.0283 50.1612 49.6202 50.743L54.1721 55.2948C54.764 55.8867 55.7131 55.8867 56.2948 55.2948C56.8868 54.7029 56.8868 53.7537 56.2948 53.1719L51.7431 48.6202Z" fill="#513117"/>
<path id="Vector_7" d="M27.9636 35.1384C27.4431 35.1384 26.9635 34.9342 26.5961 34.577C25.4734 33.4544 24.6059 32.148 24.014 30.6988C23.4425 29.2904 23.1567 27.8106 23.1567 26.2797C23.1567 24.7489 23.4425 23.2691 24.014 21.8607C24.6059 20.4013 25.4734 19.0949 26.5961 17.9723L41.1291 3.43932C42.2517 2.31669 43.558 1.44918 45.0174 0.857246C46.4258 0.285725 47.9057 0 49.4366 0C50.9674 0 52.4472 0.285725 53.8556 0.857246C55.315 1.44918 56.6214 2.31669 57.7339 3.43932L59.5606 5.26619C60.6832 6.38882 61.5508 7.69507 62.1427 9.14429C62.7142 10.5527 62.9999 12.0326 62.9999 13.5634C62.9999 15.0943 62.7142 16.5741 62.1427 17.9825C61.5508 19.4419 60.6832 20.7483 59.5606 21.8709L49.1712 32.2603C48.8038 32.6277 48.324 32.8216 47.8036 32.8216C47.2831 32.8216 46.8034 32.6175 46.436 32.2603C46.0686 31.8929 45.8748 31.4132 45.8748 30.8927C45.8748 30.3722 46.0788 29.8926 46.436 29.5252L56.8255 19.1357C57.5808 18.3805 58.1624 17.5028 58.5502 16.5332C58.9381 15.5943 59.1218 14.5942 59.1218 13.5634C59.1218 12.5327 58.9279 11.5427 58.5502 10.6038C58.1522 9.63422 57.5706 8.75647 56.8255 8.00125L54.9578 6.13365C54.2128 5.39884 53.3555 4.82728 52.3961 4.43946C51.4572 4.06185 50.4571 3.86801 49.4366 3.86801C48.416 3.86801 47.4158 4.06185 46.4769 4.43946C45.4971 4.83749 44.6296 5.41928 43.8744 6.1643L29.3414 20.6972C28.5861 21.4525 28.0045 22.3199 27.6167 23.2996C27.239 24.2385 27.0349 25.2387 27.0349 26.2695C27.0349 27.3003 27.2288 28.2903 27.6167 29.2292C28.0147 30.1987 28.5963 31.0765 29.3414 31.8317C30.0966 32.5869 30.0966 33.8115 29.3414 34.5668C28.974 34.9342 28.4943 35.1281 27.9738 35.1281" fill="#513117"/>
<path id="Vector_8" d="M14.5635 61.9898C13.0428 61.9898 11.5528 61.7041 10.1444 61.1326C8.68502 60.5406 7.37864 59.6731 6.26621 58.5505L4.43934 56.7236C3.3167 55.601 2.44931 54.2948 1.85737 52.8455C1.28585 51.4372 1 49.9572 1 48.4264C1 46.8955 1.28585 45.4157 1.85737 44.0074C2.44931 42.5479 3.3167 41.2417 4.43934 40.119L15.0942 29.4642C15.4616 29.0968 15.9413 28.903 16.4618 28.903C16.9822 28.903 17.4619 29.107 17.8293 29.4642C18.1967 29.8316 18.3907 30.3112 18.3907 30.8317C18.3907 31.3522 18.1865 31.832 17.8293 32.1994L7.17454 42.8643C6.41931 43.6195 5.83752 44.4871 5.4497 45.4668C5.07208 46.4058 4.87824 47.4058 4.87824 48.4366C4.87824 49.4674 5.07208 50.4574 5.4497 51.3963C5.84772 52.376 6.42951 53.2436 7.17454 53.9988L9.00141 55.8255C9.75663 56.5808 10.6343 57.1625 11.6038 57.5504C12.5427 57.928 13.5429 58.1218 14.5635 58.1218C15.5841 58.1218 16.5843 57.928 17.5334 57.5504C18.5132 57.1523 19.3806 56.5705 20.1358 55.8255L34.6688 41.2926C35.424 40.5374 36.0058 39.6598 36.3936 38.6902C36.7712 37.7513 36.9651 36.7511 36.9651 35.7203C36.9651 34.6895 36.7712 33.6996 36.3936 32.7606C35.9956 31.7809 35.4138 30.9135 34.6688 30.1582C33.9136 29.403 33.9136 28.1783 34.6688 27.4231C35.0362 27.0557 35.516 26.8618 36.0365 26.8618C36.557 26.8618 37.0366 27.0659 37.404 27.4231C38.5266 28.5457 39.3941 29.8521 39.9861 31.3013C40.5576 32.7097 40.8433 34.1895 40.8433 35.7203C40.8433 37.2512 40.5576 38.731 39.9861 40.1393C39.3941 41.5988 38.5266 42.9052 37.404 44.0278L22.871 58.5607C21.7484 59.6833 20.442 60.5509 18.9825 61.1428C17.5742 61.7143 16.0944 62 14.5635 62" fill="#513117"/>
</g>
</g>
</svg>
