<svg width="120" height="120" viewBox="0 0 120 120" fill="none" xmlns="http://www.w3.org/2000/svg">
<g id="rain water" clip-path="url(#clip0_297_925)">
<g id="Group">
<path id="Vector" d="M41.2951 18.5244V25.7292C41.2951 25.7292 41.2951 25.7702 41.2951 25.7948H24.3607C21.9508 25.7948 20 27.7457 20 30.1556V103.926C20 112.254 26.7459 119 35.0738 119H85.7541C94.082 119 100.828 112.254 100.828 103.926V30.1556C100.828 27.7457 98.8771 25.7948 96.4672 25.7948H79.5328C79.5328 25.7948 79.5328 25.7538 79.5328 25.7292V18.5244" stroke="#513117" stroke-width="3.2787" stroke-miterlimit="10"/>
<path id="Vector_2" d="M27.3364 49.3932C28.9184 50.9752 31.484 50.9752 33.0577 49.3932L34.8856 47.5654C36.4676 45.9834 39.0332 45.9834 40.6069 47.5654L42.4348 49.3932C44.0168 50.9752 46.5823 50.9752 48.1561 49.3932L49.984 47.5654C51.5659 45.9834 54.1315 45.9834 55.7053 47.5654L57.5332 49.3932C59.1151 50.9752 61.6807 50.9752 63.2545 49.3932L65.0823 47.5654C66.6643 45.9834 69.2299 45.9834 70.8036 47.5654L72.6315 49.3932C74.2135 50.9752 76.7791 50.9752 78.3528 49.3932L80.1807 47.5654C81.7627 45.9834 84.3282 45.9834 85.902 47.5654L87.7299 49.3932C89.3118 50.9752 91.8774 50.9752 93.4512 49.3932" stroke="#513117" stroke-width="3.2787" stroke-miterlimit="10" stroke-linecap="round"/>
<path id="Vector_3" d="M27.3364 61.8122C28.9184 63.3942 31.484 63.3942 33.0577 61.8122L34.8856 59.9843C36.4676 58.4024 39.0332 58.4024 40.6069 59.9843L42.4348 61.8122C44.0168 63.3942 46.5823 63.3942 48.1561 61.8122L49.984 59.9843C51.5659 58.4024 54.1315 58.4024 55.7053 59.9843L57.5332 61.8122C59.1151 63.3942 61.6807 63.3942 63.2545 61.8122L65.0823 59.9843C66.6643 58.4024 69.2299 58.4024 70.8036 59.9843L72.6315 61.8122C74.2135 63.3942 76.7791 63.3942 78.3528 61.8122L80.1807 59.9843C81.7627 58.4024 84.3282 58.4024 85.902 59.9843L87.7299 61.8122C89.3118 63.3942 91.8774 63.3942 93.4512 61.8122" stroke="#513117" stroke-width="3.2787" stroke-miterlimit="10" stroke-linecap="round"/>
<path id="Vector_4" d="M27.3364 74.2214C28.9184 75.8033 31.484 75.8033 33.0577 74.2214L34.8856 72.3935C36.4676 70.8115 39.0332 70.8115 40.6069 72.3935L42.4348 74.2214C44.0168 75.8033 46.5823 75.8033 48.1561 74.2214L49.984 72.3935C51.5659 70.8115 54.1315 70.8115 55.7053 72.3935L57.5332 74.2214C59.1151 75.8033 61.6807 75.8033 63.2545 74.2214L65.0823 72.3935C66.6643 70.8115 69.2299 70.8115 70.8036 72.3935L72.6315 74.2214C74.2135 75.8033 76.7791 75.8033 78.3528 74.2214L80.1807 72.3935C81.7627 70.8115 84.3282 70.8115 85.902 72.3935L87.7299 74.2214C89.3118 75.8033 91.8774 75.8033 93.4512 74.2214" stroke="#513117" stroke-width="3.2787" stroke-miterlimit="10" stroke-linecap="round"/>
<path id="Vector_5" d="M27.3364 86.6393C28.9184 88.2213 31.484 88.2213 33.0577 86.6393L34.8856 84.8115C36.4676 83.2295 39.0332 83.2295 40.6069 84.8115L42.4348 86.6393C44.0168 88.2213 46.5823 88.2213 48.1561 86.6393L49.984 84.8115C51.5659 83.2295 54.1315 83.2295 55.7053 84.8115L57.5332 86.6393C59.1151 88.2213 61.6807 88.2213 63.2545 86.6393L65.0823 84.8115C66.6643 83.2295 69.2299 83.2295 70.8036 84.8115L72.6315 86.6393C74.2135 88.2213 76.7791 88.2213 78.3528 86.6393L80.1807 84.8115C81.7627 83.2295 84.3282 83.2295 85.902 84.8115L87.7299 86.6393C89.3118 88.2213 91.8774 88.2213 93.4512 86.6393" stroke="#513117" stroke-width="3.2787" stroke-miterlimit="10" stroke-linecap="round"/>
<path id="Vector_6" d="M27.3364 99.0585C28.9184 100.64 31.484 100.64 33.0577 99.0585L34.8856 97.2304C36.4676 95.6485 39.0332 95.6485 40.6069 97.2304L42.4348 99.0585C44.0168 100.64 46.5823 100.64 48.1561 99.0585L49.984 97.2304C51.5659 95.6485 54.1315 95.6485 55.7053 97.2304L57.5332 99.0585C59.1151 100.64 61.6807 100.64 63.2545 99.0585L65.0823 97.2304C66.6643 95.6485 69.2299 95.6485 70.8036 97.2304L72.6315 99.0585C74.2135 100.64 76.7791 100.64 78.3528 99.0585L80.1807 97.2304C81.7627 95.6485 84.3282 95.6485 85.902 97.2304L87.7299 99.0585C89.3118 100.64 91.8774 100.64 93.4512 99.0585" stroke="#513117" stroke-width="3.2787" stroke-miterlimit="10" stroke-linecap="round"/>
<path id="Vector_7" d="M55.6477 9.73767C55.6477 9.73767 55.6232 9.7623 55.6232 9.77869C55.5576 9.95082 55.4838 10.1149 55.4182 10.287C55.1641 10.9099 54.8937 11.5247 54.6068 12.1313C54.3773 12.6231 54.1395 13.1149 53.8936 13.5985C53.5822 14.2133 53.2543 14.828 52.9264 15.4346C52.6232 15.9838 52.3199 16.5247 52.0084 17.0739C51.6313 17.7297 51.2543 18.3853 50.8773 19.0411C50.5248 19.664 50.1805 20.2952 49.8773 20.9428C49.5904 21.5575 49.3609 22.1886 49.2543 22.8689C49.1887 23.2869 49.1559 23.705 49.1805 24.1312C49.2051 24.5411 49.2625 24.9509 49.3691 25.3443C49.492 25.8197 49.6805 26.2625 49.9182 26.6887C50.2461 27.2707 50.6641 27.7706 51.1641 28.2132C51.6232 28.623 52.1396 28.9509 52.6969 29.2132C53.0494 29.3771 53.41 29.5082 53.7789 29.6066C54.2707 29.7377 54.7789 29.8197 55.2871 29.8443C55.6068 29.8607 55.9264 29.8607 56.2543 29.8279C56.5822 29.8033 56.9018 29.7542 57.2215 29.6804C57.7297 29.5657 58.2215 29.4019 58.6887 29.1723C59.2707 28.8937 59.8035 28.5329 60.2789 28.0821C60.6641 27.7215 61.0002 27.3116 61.2789 26.8526C61.6068 26.328 61.8363 25.7624 61.9838 25.164C62.1068 24.623 62.1641 24.0821 62.1314 23.5329C62.115 23.2624 62.0904 22.9837 62.0412 22.7132C61.951 22.2214 61.8035 21.7542 61.6068 21.2952C61.3609 20.7132 61.0658 20.164 60.7625 19.6148C60.451 19.0492 60.1232 18.4836 59.8035 17.9262C59.4592 17.3279 59.115 16.7377 58.7789 16.1394C58.3691 15.4181 57.9756 14.6886 57.5986 13.9509C57.3117 13.3935 57.033 12.8197 56.7625 12.2541C56.4182 11.5246 56.0904 10.7869 55.7871 10.0328C55.7461 9.94268 55.7133 9.84423 55.6723 9.74587L55.6477 9.73767ZM67.2133 7.35249C67.2133 7.35249 67.1969 7.3689 67.1969 7.3771C67.156 7.48366 67.115 7.58192 67.074 7.68848C66.9182 8.06553 66.7543 8.43447 66.5822 8.80333C66.4428 9.09841 66.2953 9.40176 66.1477 9.69685C65.9592 10.0739 65.7625 10.4426 65.5576 10.8115C65.3773 11.1476 65.1887 11.4754 65.0002 11.8033C64.7707 12.1967 64.5412 12.5985 64.3117 12.992C64.0986 13.369 63.8855 13.7542 63.7051 14.1476C63.533 14.5247 63.3937 14.9017 63.3281 15.3115C63.2871 15.5656 63.2707 15.8198 63.2871 16.0739C63.3035 16.3198 63.3363 16.5657 63.4018 16.8116C63.4756 17.0985 63.5904 17.369 63.7379 17.6312C63.9346 17.9837 64.1887 18.2869 64.492 18.5574C64.7707 18.8033 65.0822 19.0082 65.4264 19.1639C65.6396 19.2623 65.8609 19.3443 66.0822 19.4017C66.3855 19.4836 66.6887 19.533 67.0002 19.5494C67.1969 19.5576 67.3936 19.5494 67.5822 19.5412C67.7789 19.5248 67.9756 19.5001 68.1641 19.4509C68.4756 19.3853 68.7707 19.2789 69.0576 19.1395C69.41 18.9674 69.7379 18.746 70.0248 18.4755C70.2625 18.2542 70.4674 18.0082 70.6314 17.7295C70.8281 17.4098 70.9674 17.0656 71.0576 16.7049C71.1314 16.377 71.1641 16.0492 71.1477 15.7131C71.1396 15.5492 71.1232 15.3854 71.0904 15.2132C71.0412 14.9182 70.9428 14.6312 70.8281 14.3525C70.6805 14.0001 70.5002 13.664 70.3199 13.328C70.1314 12.9837 69.9346 12.6394 69.7379 12.3034C69.533 11.9427 69.3199 11.582 69.115 11.2213C68.8691 10.7787 68.6314 10.3362 68.3937 9.89356C68.2215 9.5493 68.0494 9.21322 67.8855 8.86076C67.6805 8.41814 67.4756 7.9672 67.2953 7.51638C67.2707 7.459 67.2461 7.40166 67.2215 7.34428L67.2133 7.35249ZM60.8117 1C60.8117 1 60.8035 1.00821 60.8035 1.01641C60.7789 1.08198 60.7543 1.14755 60.7215 1.21312C60.6232 1.45083 60.5166 1.68043 60.41 1.91813C60.3199 2.10666 60.2297 2.29513 60.1396 2.47546C60.0166 2.71316 59.8936 2.94255 59.7707 3.17206C59.6559 3.38518 59.5412 3.5901 59.4182 3.79502C59.2707 4.04092 59.1314 4.29515 58.992 4.54105C58.8527 4.77876 58.7215 5.01637 58.6068 5.26227C58.5002 5.49998 58.41 5.7378 58.3691 6.0001C58.3445 6.15584 58.3363 6.31965 58.3445 6.48358C58.3445 6.63932 58.3773 6.79511 58.4182 6.95085C58.4674 7.13118 58.533 7.30342 58.6313 7.46735C58.7543 7.68866 58.9182 7.88535 59.1068 8.04929C59.2871 8.20503 59.4756 8.32795 59.6887 8.42631C59.8199 8.49188 59.9592 8.54101 60.0986 8.57379C60.2871 8.62297 60.4756 8.65585 60.6723 8.66405C60.7953 8.66405 60.9182 8.66405 61.0412 8.66405C61.1641 8.65585 61.2871 8.6394 61.41 8.60661C61.6068 8.56563 61.7871 8.50006 61.9674 8.4099C62.1887 8.30334 62.3936 8.16399 62.574 7.99186C62.7215 7.85251 62.8527 7.69672 62.9592 7.52458C63.0822 7.32786 63.1723 7.10652 63.2297 6.87701C63.2789 6.67209 63.2953 6.46716 63.2871 6.25405C63.2871 6.14749 63.2707 6.04923 63.2543 5.94267C63.2215 5.75414 63.1641 5.57389 63.0904 5.40175C63.0002 5.18044 62.8855 4.9673 62.7707 4.76238C62.6477 4.54927 62.5248 4.32792 62.4018 4.11481C62.2707 3.8853 62.1396 3.66392 62.0084 3.43441C61.8527 3.15572 61.7051 2.87702 61.5576 2.59833C61.451 2.38521 61.3445 2.17206 61.2379 1.95075C61.1068 1.67206 60.9838 1.39355 60.8691 1.10666C60.8527 1.07387 60.8363 1.03279 60.8281 1H60.8117ZM68.1396 21.8197C68.1396 21.8197 68.1232 21.8361 68.115 21.8525C68.0658 21.9754 68.0166 22.0984 67.9592 22.2295C67.7707 22.6885 67.574 23.1395 67.3609 23.5821C67.1887 23.9428 67.0166 24.3035 66.8363 24.6641C66.6068 25.115 66.3691 25.5657 66.1232 26.0165C65.9018 26.4182 65.6723 26.8198 65.4428 27.2214C65.1641 27.705 64.8855 28.1804 64.615 28.664C64.3527 29.1231 64.0986 29.5821 63.8773 30.0657C63.6641 30.5165 63.492 30.9837 63.4182 31.4837C63.3691 31.787 63.3445 32.0985 63.3609 32.41C63.3773 32.7133 63.4182 33.0083 63.5002 33.3033C63.5904 33.6476 63.7297 33.9838 63.9018 34.2953C64.1396 34.7215 64.451 35.0903 64.8199 35.4182C65.1559 35.7214 65.533 35.9593 65.951 36.156C66.2051 36.2789 66.4756 36.369 66.7461 36.4428C67.1068 36.5411 67.4838 36.5985 67.8527 36.6149C68.0904 36.6231 68.3281 36.6231 68.5658 36.6067C68.8035 36.5821 69.0412 36.5494 69.2707 36.5002C69.6478 36.4182 70.0084 36.2953 70.3527 36.1232C70.7871 35.9183 71.1723 35.6478 71.5248 35.3199C71.8117 35.0494 72.0576 34.7543 72.2625 34.4182C72.5002 34.0329 72.6723 33.6149 72.7789 33.1805C72.8691 32.787 72.91 32.3854 72.8855 31.9756C72.8773 31.7707 72.8527 31.5739 72.8199 31.3772C72.7543 31.0166 72.6395 30.6723 72.5002 30.3362C72.3199 29.91 72.1068 29.5001 71.8854 29.0985C71.6559 28.6805 71.4182 28.2706 71.1805 27.8526C70.9264 27.4181 70.6723 26.9754 70.4264 26.5328C70.1314 26 69.8363 25.4673 69.5576 24.9181C69.3445 24.5082 69.1395 24.0902 68.9428 23.6722C68.6887 23.1312 68.451 22.5902 68.2297 22.041C68.2051 21.9754 68.1723 21.9017 68.1477 21.8361L68.1396 21.8197Z" fill="#513117"/>
</g>
</g>
<defs>
<clipPath id="clip0_297_925">
<rect width="120" height="120" fill="white"/>
</clipPath>
</defs>
</svg>
