<svg width="52" height="52" viewBox="0 0 52 52" fill="none" xmlns="http://www.w3.org/2000/svg">
<g id="logos--whatsapp-icon 1" clip-path="url(#clip0_388_7)">
<path id="Vector" d="M1.3033 25.686C1.30209 30.055 2.44367 34.3211 4.61437 38.0812L1.0957 50.9284L14.2432 47.4811C17.8797 49.4607 21.954 50.498 26.0944 50.4983H26.1053C39.7734 50.4983 50.8996 39.3762 50.9055 25.7056C50.9081 19.0812 48.3307 12.8521 43.6478 8.16567C38.9658 3.47962 32.7389 0.897555 26.1043 0.894531C12.4345 0.894531 1.30915 12.0161 1.3035 25.686" fill="url(#paint0_linear_388_7)"/>
<path id="Vector_2" d="M0.417319 25.6807C0.415908 30.207 1.5984 34.6255 3.8465 38.5203L0.20166 51.8281L13.8206 48.2572C17.5731 50.3031 21.798 51.3818 26.0971 51.3835H26.1081C40.2667 51.3835 51.7925 39.8612 51.7986 25.7013C51.801 18.8389 49.1308 12.3859 44.2807 7.53154C39.43 2.6778 32.9804 0.00282171 26.1081 0C11.9472 0 0.422962 11.5206 0.417319 25.6807ZM8.52791 37.8496L8.0194 37.0423C5.88175 33.6434 4.75347 29.7156 4.75509 25.6824C4.75952 13.9128 14.338 4.33736 26.1162 4.33736C31.8201 4.33978 37.1805 6.56329 41.2123 10.5975C45.2439 14.6322 47.4624 19.9954 47.461 25.6997C47.4558 37.4692 37.8771 47.0459 26.1081 47.0459H26.0997C22.2676 47.0439 18.5093 46.0148 15.2317 44.07L14.4517 43.6074L6.36991 45.7263L8.52791 37.8496Z" fill="url(#paint1_linear_388_7)"/>
<path id="Vector_3" d="M19.6877 14.9463C19.2068 13.8775 18.7007 13.8559 18.2434 13.8372C17.8689 13.8211 17.4408 13.8223 17.0131 13.8223C16.585 13.8223 15.8895 13.9833 15.3016 14.6253C14.713 15.2678 13.0547 16.8205 13.0547 19.9786C13.0547 23.1367 15.355 26.189 15.6756 26.6177C15.9967 27.0456 20.1164 33.7338 26.641 36.3068C32.0635 38.4451 33.167 38.0198 34.3438 37.9126C35.5209 37.8058 38.1419 36.3603 38.6766 34.8613C39.2117 33.3626 39.2117 32.0779 39.0513 31.8094C38.8908 31.542 38.4627 31.3814 37.8208 31.0605C37.1789 30.7396 34.0228 29.1865 33.4345 28.9722C32.8459 28.7582 32.418 28.6514 31.9899 29.2941C31.5618 29.9358 30.3326 31.3814 29.9579 31.8094C29.5836 32.2385 29.2089 32.292 28.5672 31.9709C27.9249 31.6488 25.8576 30.9718 23.4049 28.7852C21.4966 27.0837 20.2083 24.9825 19.8338 24.3398C19.4594 23.6981 19.7937 23.3502 20.1156 23.0303C20.404 22.7427 20.7577 22.2808 21.079 21.9061C21.3991 21.5312 21.5059 21.2637 21.7199 20.8356C21.9342 20.4071 21.827 20.0323 21.6667 19.7112C21.5059 19.3901 20.2585 16.2155 19.6877 14.9463Z" fill="white"/>
</g>
<defs>
<linearGradient id="paint0_linear_388_7" x1="2491.58" y1="5004.28" x2="2491.58" y2="0.894531" gradientUnits="userSpaceOnUse">
<stop stop-color="#1FAF38"/>
<stop offset="1" stop-color="#60D669"/>
</linearGradient>
<linearGradient id="paint1_linear_388_7" x1="2580.05" y1="5182.81" x2="2580.05" y2="0" gradientUnits="userSpaceOnUse">
<stop stop-color="#F9F9F9"/>
<stop offset="1" stop-color="white"/>
</linearGradient>
<clipPath id="clip0_388_7">
<rect width="52" height="52" fill="white"/>
</clipPath>
</defs>
</svg>
