<svg width="160" height="160" viewBox="0 0 160 160" fill="none" xmlns="http://www.w3.org/2000/svg">
<g id="thread ball">
<path id="Vector" d="M139.648 92.1321C139.424 92.048 139.179 92.118 139.032 92.3001C139.004 92.3421 135.831 96.2566 124.137 99.919C119.613 101.334 116.644 103.7 115.299 106.964C113.108 112.279 116.049 117.958 116.175 118.203C116.175 118.21 116.182 118.217 116.189 118.224C114.375 119.295 112.386 120.213 110.257 120.801C100.951 123.371 90.2929 123.595 87.4638 118.308C84.3126 112.412 90.1598 108.84 96.3572 105.059C99.4804 103.154 102.429 101.348 104.235 99.2118C106.266 96.8098 106.896 94.527 106.112 92.4122C104.039 86.8381 92.6108 84.4361 89.8027 83.9249C90.552 81.6351 91.0772 79.2611 91.3503 76.8522C91.3503 76.8522 91.3503 76.8452 91.3503 76.8382C91.4973 75.5077 91.5744 74.1492 91.5744 72.8047C91.5744 71.7543 91.5253 70.7038 91.4413 69.6744C91.4413 69.6744 91.4413 69.6675 91.4413 69.6605C91.2732 67.6997 90.9372 65.7319 90.44 63.8132C89.9988 62.1045 89.4245 60.4099 88.7313 58.7853C88.7313 58.7853 88.7313 58.7783 88.7313 58.7713C88.108 57.3147 87.3798 55.8792 86.5605 54.5067C85.5521 52.812 84.3896 51.1874 83.1221 49.6818C82.0647 48.4354 80.9163 47.2519 79.7118 46.1665C79.7118 46.1665 79.7118 46.1665 79.7048 46.1595C78.5144 45.0881 77.2259 44.0797 75.8884 43.1693C74.4949 42.224 73.0243 41.3696 71.5117 40.6273C71.5117 40.6273 71.5117 40.6273 71.5047 40.6273C69.9151 39.85 68.2484 39.1848 66.5608 38.6526C63.0875 37.5602 59.4601 37 55.7837 37C54.3552 37 52.9406 37.098 51.5331 37.2661C51.484 37.2661 51.4421 37.2661 51.393 37.2731C51.386 37.2731 51.379 37.28 51.365 37.287C49.6353 37.5041 47.9337 37.8403 46.26 38.3025C46.218 38.3025 46.1831 38.3025 46.141 38.3165C46.106 38.3305 46.071 38.3515 46.043 38.3725C44.4464 38.8277 42.8777 39.3809 41.3582 40.0461C41.3442 40.0461 41.3302 40.0461 41.3232 40.0461C41.2532 40.0672 41.1971 40.1022 41.1481 40.1372C39.7336 40.7674 38.3681 41.5027 37.0446 42.315C36.9535 42.343 36.8835 42.392 36.8204 42.455C35.5179 43.2673 34.2715 44.1637 33.081 45.1371C33.046 45.1581 33.018 45.1861 32.99 45.2141C31.6875 46.2925 30.441 47.455 29.2926 48.7225C28.2142 49.9129 27.1988 51.1874 26.2885 52.5179C26.2885 52.5179 26.2885 52.5179 26.2815 52.5249C25.3221 53.9184 24.4607 55.389 23.7185 56.8945C23.7185 56.8945 23.7114 56.8945 23.7044 56.8945C23.6694 56.9085 23.6414 56.9086 23.6064 56.9296C23.6064 56.9296 23.6064 56.9296 23.5994 56.9296C23.5574 56.9506 23.5293 56.9926 23.4943 57.0206C23.4803 57.0346 23.4664 57.0417 23.4524 57.0557C23.3333 57.2027 23.3053 57.3988 23.3753 57.5739C23.0532 58.2741 22.1289 60.4029 21.1905 63.5681C21.1905 63.5681 21.1905 63.5681 21.1905 63.5751C20.8824 64.7446 20.6302 65.9351 20.4412 67.1255C20.2661 68.1969 20.1471 69.3103 20.0701 70.4378C20.0281 71.117 20 71.7963 20 72.4405C20 72.5526 20 72.6576 20 72.7696C20 74.2332 20.091 75.7178 20.2661 77.1603C20.4062 78.2808 20.5953 79.4222 20.8474 80.5426C21.1835 82.0622 21.6247 83.5678 22.1499 85.0173C22.7871 86.768 23.5714 88.4837 24.4747 90.1223C24.4747 90.1223 24.4747 90.1293 24.4747 90.1363C25.6372 92.2301 27.0237 94.2188 28.5853 96.0395C28.5853 96.0395 28.5853 96.0395 28.5853 96.0465C30.2169 97.9513 32.0516 99.6879 34.0474 101.215C40.3288 106.018 47.8497 108.56 55.7767 108.56C63.7038 108.56 70.9865 106.095 77.2119 101.439C78.9276 100.157 80.5382 98.7076 82.0017 97.132C83.2132 95.8295 84.3406 94.422 85.349 92.9444C86.2804 91.5789 87.1207 90.1503 87.8489 88.6797C88.4582 87.4472 88.9974 86.1797 89.4526 84.9123C90.51 85.1013 93.3601 85.6686 96.3572 86.691C101.224 88.3506 104.249 90.4444 105.104 92.7413C105.741 94.4639 105.174 96.3896 103.416 98.4694C101.721 100.472 98.8431 102.23 95.797 104.093C92.7158 105.976 89.5366 107.916 87.5479 110.213C85.216 112.909 84.8799 115.71 86.5115 118.77C87.961 121.48 91.2453 123.119 96.0141 123.511C96.7634 123.574 97.5406 123.602 98.3529 123.602C102.015 123.602 106.252 122.979 110.538 121.795C112.856 121.158 114.998 120.164 116.931 119.008C117.638 119.702 118.85 120.71 120.495 121.41C121.791 121.963 123.044 122.194 124.235 122.194C127.148 122.194 129.676 120.815 131.483 119.414C134.361 117.188 136.672 111.992 138.345 103.96C139.578 98.0423 139.998 92.6852 139.998 92.6292C140.019 92.3911 139.879 92.174 139.655 92.09L139.648 92.1321ZM87.0297 87.9024C84.1026 87.6223 81.1474 87.1881 78.2553 86.5859C78.2553 86.5859 78.2413 86.5859 78.2343 86.5859C75.9094 86.1027 73.5635 85.5075 71.2526 84.8212C68.9207 84.1209 66.5958 83.3087 64.334 82.4123C62.1772 81.551 60.0483 80.5986 57.9895 79.5692C57.6534 79.4011 57.3103 79.2261 56.9672 79.051C56.624 78.8689 56.2739 78.6869 55.9168 78.4979C54.7333 77.8606 53.5289 77.1813 52.3454 76.4671C44.9086 71.9924 38.0599 66.2361 32.5348 59.8147C31.0993 58.1481 29.0265 55.6341 27.3249 52.868C28.0251 51.8736 28.7814 50.9143 29.5797 49.9969C30.7281 51.7896 32.1216 53.6453 33.9143 55.7741C34.1174 56.0122 34.3135 56.2433 34.5166 56.4814C35.511 57.6368 36.5473 58.7713 37.5977 59.8567C38.9703 61.2783 40.4198 62.6718 41.9114 64.0023C43.508 65.4308 45.1887 66.8174 46.9043 68.1269C48.5779 69.4013 50.3216 70.6338 52.0933 71.7892C53.914 72.9797 55.7907 74.0931 57.6744 75.1155C57.8495 75.2136 58.0246 75.3046 58.1996 75.4027C59.04 75.8578 59.8943 76.292 60.7556 76.7192C61.617 77.1393 62.4852 77.5525 63.3466 77.9376C65.3844 78.855 67.4852 79.7023 69.614 80.4586C71.7989 81.2359 74.0467 81.9362 76.2945 82.5314C78.5284 83.1266 80.8043 83.6308 83.0451 84.0299C84.7958 84.345 86.5745 84.5902 88.3322 84.7863C87.947 85.8297 87.5058 86.873 87.0157 87.8954L87.0297 87.9024ZM84.6207 92.118C80.5662 91.7749 76.4766 91.1097 72.4501 90.1293C69.9921 89.5341 67.5272 88.8128 65.1183 87.9864C62.6673 87.1461 60.2374 86.1868 57.9055 85.1364C56.1968 84.3661 54.4882 83.5257 52.8285 82.6364C52.3734 82.3913 51.9182 82.1392 51.4631 81.8871C49.5653 80.8227 47.6676 79.6602 45.8329 78.4278C39.6635 74.2892 34.1454 69.4224 29.4466 63.9533C28.6623 63.0429 27.9831 62.2236 27.3738 61.4463C27.3668 61.4393 27.3598 61.4253 27.3528 61.4183C27.0727 61.0612 26.8067 60.7111 26.5476 60.3679C26.4635 60.2489 26.3794 60.1368 26.2954 60.0248C26.1273 59.8007 25.9593 59.5766 25.8052 59.3525C25.7142 59.2194 25.6232 59.0934 25.5321 58.9604C25.3921 58.7643 25.252 58.5612 25.119 58.3652C25.028 58.2251 24.9369 58.092 24.8529 57.959C24.7619 57.8189 24.6638 57.6719 24.5728 57.5318C25.196 56.2573 25.9103 55.0178 26.6876 53.8274C28.3752 56.4954 30.357 58.8903 31.7435 60.5079C37.3386 67.0134 44.2783 72.8466 51.8132 77.3774C53.0107 78.0986 54.2291 78.792 55.4336 79.4362C56.1479 79.8213 56.8551 80.1855 57.5344 80.5216C59.6142 81.565 61.778 82.5314 63.9628 83.3997C66.2457 84.3101 68.6056 85.1294 70.9655 85.8437C73.3114 86.5439 75.6923 87.1461 78.0522 87.6363C78.0522 87.6363 78.0662 87.6363 78.0732 87.6363C80.8673 88.2175 83.7033 88.6448 86.5324 88.9249C85.9582 90.0173 85.321 91.0816 84.6347 92.111L84.6207 92.118ZM81.3715 96.2496C76.1685 95.8365 70.9235 94.8911 65.7975 93.4416C65.7975 93.4416 65.7835 93.4416 65.7765 93.4416C63.2065 92.7133 60.6296 91.8519 58.1156 90.8715C55.5526 89.8702 53.0317 88.7358 50.6228 87.5103C50.1046 87.2442 49.6283 86.9991 49.1592 86.747C47.4645 85.8436 45.7699 84.8563 44.1173 83.8129C42.2055 82.6084 40.3288 81.3129 38.5432 79.9684C33.8164 76.4251 29.5236 72.4195 25.7772 68.0639C25.357 67.5737 25.014 67.1675 24.7059 66.7893C23.7885 65.6829 22.9902 64.6535 22.2619 63.6521C22.9412 61.3973 23.6204 59.6747 24.0335 58.7083C24.0756 58.7713 24.1106 58.8273 24.1526 58.8904C24.3277 59.1565 24.5168 59.4295 24.7129 59.6956C24.7689 59.7726 24.8179 59.8497 24.8739 59.9338C25.063 60.1999 25.2661 60.4729 25.4691 60.753C25.5322 60.8441 25.5952 60.9281 25.6582 61.0121C25.9313 61.3763 26.2184 61.7475 26.5195 62.1256C26.5265 62.1326 26.5336 62.1466 26.5476 62.1536C27.0097 62.7348 27.5069 63.344 28.0601 63.9953C28.2422 64.2123 28.4313 64.4365 28.6273 64.6606C33.3962 70.1997 38.9773 75.1365 45.2307 79.3311C47.0864 80.5776 49.0051 81.7541 50.9308 82.8325C51.393 83.0916 51.8552 83.3436 52.3174 83.5887C54.005 84.4921 55.7347 85.3465 57.4643 86.1238C59.8312 87.1882 62.2892 88.1616 64.7681 89.0089C67.2121 89.8422 69.712 90.5705 72.198 91.1727C76.0704 92.111 80.0129 92.7623 83.9134 93.1265C83.1291 94.2119 82.2748 95.2623 81.3715 96.2496ZM36.8415 43.6945C37.3737 45.7043 37.7238 47.546 37.8568 49.0586C38.1789 52.833 37.9059 53.6874 37.8919 53.7224C37.8989 53.7014 37.9059 53.6944 37.9059 53.6944L38.1159 53.7924C37.0725 54.1145 36.0222 54.4296 34.9578 54.7167C35.2519 51.2154 34.6146 48.0081 33.9634 45.7813C34.8877 45.039 35.8541 44.3388 36.8415 43.6945ZM41.1201 41.3346C41.6173 43.0713 42.1705 45.3752 42.3526 47.49C42.6747 51.2644 42.4016 52.1188 42.3876 52.1538C42.3946 52.1328 42.4016 52.1258 42.4016 52.1258L42.6537 52.2448C41.4563 52.693 40.2448 53.1201 39.0193 53.5123C39.1033 52.833 39.1383 51.5095 38.9212 48.9816C38.7812 47.3079 38.389 45.3332 37.7868 43.1203C38.8652 42.4691 39.9787 41.8738 41.1201 41.3416V41.3346ZM45.9239 39.5139C46.4281 41.2576 47.0024 43.6035 47.1844 45.7674C47.4575 48.9886 47.3034 50.081 47.2404 50.3541C46.015 50.9003 44.7755 51.4114 43.5291 51.9016C43.6061 51.2154 43.6411 49.8919 43.431 47.399C43.2349 45.1371 42.6397 42.6931 42.1145 40.8934C43.354 40.3612 44.6284 39.9061 45.9239 39.5209V39.5139ZM51.1059 38.4005C51.5681 40.2002 51.8762 41.8738 51.9953 43.2674C52.3174 47.0418 52.0442 47.8962 52.0302 47.9312C52.0372 47.9102 52.0443 47.9031 52.0443 47.9031L52.1633 47.9592C50.9169 48.6175 49.6564 49.2406 48.3819 49.8359C48.4379 49.0796 48.4309 47.8121 48.2489 45.6833C48.0598 43.4425 47.4646 41.0195 46.9464 39.2268C48.3119 38.8697 49.6984 38.6036 51.0989 38.4075L51.1059 38.4005ZM58.4168 40.2493C58.3607 39.605 58.2557 38.8907 58.1296 38.1555C59.5932 38.2535 61.0427 38.4425 62.4712 38.7226C62.5623 40.5433 62.4643 41.2926 62.4153 41.5377C61.1548 42.4621 59.8663 43.3514 58.5568 44.2057C58.5988 43.4284 58.5848 42.203 58.4168 40.2493ZM63.5637 38.9607C64.1239 39.0867 64.6771 39.2338 65.2303 39.3879C64.6841 39.822 64.1309 40.2562 63.5777 40.6764C63.5917 40.2422 63.5917 39.682 63.5637 38.9607ZM66.4768 39.766C67.7652 40.1862 69.0398 40.6834 70.2722 41.2506C65.7275 45.2701 60.7626 48.7925 55.4826 51.7196C50.0135 54.7448 44.1873 57.1467 38.165 58.8764C37.2056 57.875 36.2532 56.8315 35.3429 55.7811C35.3289 55.7601 35.3079 55.7462 35.2939 55.7251C41.8554 53.9605 48.1928 51.4115 54.131 48.1203C58.4587 45.7253 62.6044 42.9172 66.4698 39.766H66.4768ZM74.691 43.6945C69.467 48.7364 63.6127 53.0781 57.2822 56.5795C52.5694 59.1845 47.5695 61.3413 42.4156 62.9939C41.2461 61.9435 40.1187 60.8511 39.0193 59.7447C44.9225 58.008 50.6367 55.6341 56.0078 52.665C61.4839 49.6328 66.6379 45.9634 71.3296 41.7618C72.4851 42.343 73.6126 42.9872 74.698 43.6945H74.691ZM78.5284 46.6006C72.7302 52.672 66.0847 57.8119 58.7388 61.8804C55.1115 63.8902 51.281 65.6409 47.3385 67.0975C45.9729 66.0471 44.6425 64.9476 43.354 63.8202C48.3609 62.1746 53.2207 60.0668 57.8074 57.5248C64.2849 53.9394 70.2652 49.4927 75.6013 44.3178C76.6166 45.025 77.5971 45.7953 78.5284 46.6006ZM82.653 50.8443C83.6474 52.0628 84.5717 53.3582 85.391 54.7097C79.2917 61.2292 72.219 66.6983 64.355 70.949C62.2892 72.0624 60.1464 73.1057 57.9756 74.0511C56.491 73.2388 55.0134 72.3565 53.5639 71.4321C56.2319 70.2977 58.8649 69.0302 61.3859 67.6297C69.2499 63.274 76.5817 57.4758 82.646 50.8443H82.653ZM87.5758 58.8834C81.4765 65.4799 74.0887 71.2291 66.1827 75.5077C65.3424 75.9629 64.4671 76.411 63.5777 76.8522C62.1002 76.1799 60.6226 75.4587 59.18 74.6954C61.1128 73.834 63.0245 72.8957 64.8732 71.8943C72.7442 67.6367 79.8309 62.1746 85.9653 55.6691C86.5605 56.7125 87.0996 57.7909 87.5758 58.8834ZM89.2985 63.7993C83.6194 69.9406 77.0508 75.1786 69.7611 79.3662C68.1084 78.771 66.4698 78.1127 64.8662 77.4124C65.4894 77.0973 66.1057 76.7752 66.6939 76.4531C74.5579 72.1954 81.9107 66.5022 88.024 59.9687C88.5212 61.2152 88.9484 62.4968 89.2985 63.7993ZM90.3279 69.5204C86.1543 73.9741 81.4556 77.9796 76.3576 81.439C74.5929 80.9628 72.8353 80.4165 71.0986 79.8283C77.9612 75.7878 84.1795 70.8229 89.6066 65.0457C89.9427 66.5232 90.1879 68.0288 90.3279 69.5274V69.5204ZM88.7103 83.7569C87.2887 83.6028 85.8602 83.3997 84.4386 83.1686C86.3854 81.614 88.2621 79.9684 90.0478 78.2597C89.7537 80.1294 89.3055 81.9712 88.7103 83.7569ZM90.4819 72.8047C90.4819 74.0512 90.412 75.3116 90.2789 76.5441C88.0031 78.799 85.5591 80.9488 83.0101 82.9305C81.2525 82.6084 79.4808 82.2232 77.7231 81.7821C82.3168 78.5959 86.5815 74.9615 90.433 70.956C90.468 71.5652 90.489 72.1814 90.489 72.7977L90.4819 72.8047ZM81.9527 50.025C75.9514 56.6145 68.6757 62.3707 60.8677 66.6914C58.1577 68.1899 55.3356 69.5484 52.4645 70.7318C51.0639 69.8145 49.6913 68.8481 48.3538 67.8467C52.1143 66.4182 55.7837 64.7376 59.257 62.8119C66.7009 58.6873 73.4515 53.4703 79.3267 47.3079C80.2511 48.1622 81.1264 49.0656 81.9527 50.018V50.025ZM57.0302 38.0994C57.1772 38.8977 57.2893 39.654 57.3453 40.3403C57.6254 43.6175 57.4573 44.6889 57.4013 44.941C56.1548 45.7183 54.8943 46.4676 53.6199 47.1748C53.4798 47.2519 53.3398 47.3219 53.1997 47.399C53.2557 46.6567 53.2628 45.3682 53.0737 43.1693C52.9547 41.7338 52.6465 40.0811 52.1844 38.2604C53.3678 38.1344 54.5583 38.0713 55.7627 38.0713C56.1899 38.0713 56.61 38.0784 57.0372 38.0924L57.0302 38.0994ZM33.06 46.5376C33.6062 48.5194 34.0824 51.1804 33.9213 54.0795C32.4718 52.3009 31.3093 50.7112 30.336 49.1566C31.1973 48.2323 32.1076 47.357 33.06 46.5376ZM29.2436 95.2203C28.0391 93.7987 26.9537 92.2791 25.9943 90.6825C27.9691 91.0816 30.0139 91.2427 32.0236 91.2427C34.7197 91.2427 37.3386 90.9766 39.6075 90.6825C40.5879 90.5564 41.5683 90.4094 42.5206 90.2483C43.578 90.8785 44.6635 91.4948 45.7699 92.09C46.6942 92.5872 47.6466 93.0634 48.606 93.5326C46.029 94.1278 43.438 94.604 40.875 94.9261C37.5978 95.3463 33.3331 95.7525 29.2436 95.2203ZM39.4675 89.6181C35.3289 90.1503 29.9928 90.5985 25.266 89.429C24.6008 88.2106 24.0055 86.9431 23.4943 85.6546C25.7422 86.1798 28.0811 86.3619 30.287 86.3619C32.4928 86.3619 34.4256 86.1938 36.0852 86.0117C37.7098 87.1882 39.3904 88.3226 41.1061 89.387C40.5669 89.471 40.0207 89.5481 39.4745 89.6181H39.4675ZM23.0322 84.4221C22.6541 83.3577 22.3389 82.2723 22.0658 81.1729C23.9636 81.586 26.0573 81.8031 28.4242 81.8031C29.1525 81.8031 29.9088 81.7821 30.6861 81.7401C32.0166 82.8815 33.4102 83.988 34.8247 85.0594C31.4424 85.3675 27.0167 85.5145 23.0392 84.4221H23.0322ZM21.7857 80.0174C21.6247 79.2541 21.4916 78.4908 21.3866 77.7275C22.416 77.8255 23.4874 77.8886 24.6288 77.8886C25.2171 77.8886 25.8333 77.8746 26.4565 77.8466C27.4369 78.82 28.4663 79.7723 29.5167 80.7107C26.5616 80.7877 24.0196 80.5566 21.7857 80.0174ZM21.2535 76.6421C21.1205 75.4517 21.0504 74.2402 21.0434 73.0428C21.3585 73.0568 21.6737 73.0708 22.0028 73.0708C22.0309 73.0988 22.0518 73.1338 22.0799 73.1618C23.1443 74.4013 24.2786 75.6197 25.4411 76.8032C23.9425 76.8312 22.563 76.7752 21.2605 76.6421H21.2535ZM21.0504 71.9643C21.0504 71.9643 21.0504 71.9573 21.0504 71.9503C21.0504 71.9503 21.0574 71.9573 21.0644 71.9643C21.0644 71.9643 21.0574 71.9643 21.0504 71.9643ZM30.308 96.4177C31.3514 96.5087 32.3948 96.5507 33.4312 96.5507C36.1762 96.5507 38.8092 96.2776 41.008 95.9905C44.0402 95.6054 47.1144 95.0241 50.1466 94.2678C52.1703 95.1992 54.2501 96.0605 56.3579 96.8378C51.9322 98.2034 47.4295 99.1838 42.9548 99.758C40.847 100.024 37.7028 100.367 34.5446 100.29C33.025 99.1137 31.6105 97.8182 30.308 96.4107V96.4177ZM75.4262 101.425C70.4263 104.87 64.6981 106.908 58.6618 107.405C59.6772 107.083 60.8186 106.684 62.0511 106.193C68.0314 103.826 71.5747 101.551 72.38 101.011C73.4024 101.172 74.4108 101.306 75.4192 101.425H75.4262ZM61.6659 105.199C57.7724 106.74 54.6633 107.398 54.2011 107.489C50.6228 107.335 47.1424 106.635 43.8441 105.43C46.05 105.325 48.2138 105.073 50.3076 104.674C58.6548 103.084 64.4531 100.185 65.5035 99.6319C67.2541 100.059 69.0328 100.43 70.8044 100.745C69.2428 101.698 66.1266 103.434 61.6729 105.192L61.6659 105.199ZM50.0976 103.623C47.3105 104.156 44.3974 104.422 41.4353 104.422C41.4143 104.422 41.3932 104.422 41.3722 104.422C39.5165 103.574 37.7238 102.559 36.0221 101.376C38.7252 101.341 41.2882 101.061 43.0949 100.829C48.0878 100.192 53.1087 99.0507 58.0316 97.4401C59.9503 98.1053 61.9181 98.7006 63.8998 99.2258C61.694 100.269 56.7151 102.363 50.0976 103.616V103.623ZM76.7147 100.493C75.2861 100.346 73.8226 100.157 72.359 99.926C72.359 99.926 72.352 99.926 72.345 99.926C70.0831 99.5689 67.8003 99.0997 65.5524 98.5465C63.0735 97.9303 60.6086 97.2019 58.2066 96.3686C55.5596 95.4513 52.9406 94.3869 50.4197 93.2174C49.0121 92.5662 47.6186 91.8659 46.267 91.1447C45.1186 90.5284 43.9772 89.8842 42.8918 89.2329C40.714 87.9304 38.5781 86.5159 36.5403 85.0243C34.7056 83.6868 32.9129 82.2582 31.2113 80.7877C29.7687 79.5412 28.3682 78.2388 27.0377 76.9223C25.5952 75.4867 24.1947 73.9881 22.8712 72.4475C22.8011 72.3635 22.7241 72.2795 22.647 72.1884C22.1078 71.5582 21.5897 70.935 21.1135 70.3327C21.1835 69.3103 21.2955 68.3019 21.4566 67.3285C21.5827 66.5442 21.7297 65.767 21.9118 64.9897C21.9468 65.0387 21.9818 65.0807 22.0168 65.1297C22.2409 65.4308 22.479 65.739 22.7241 66.0471C22.8011 66.1451 22.8782 66.2432 22.9552 66.3412C23.2493 66.7124 23.5504 67.0835 23.8655 67.4687C24.1806 67.8538 24.5308 68.2599 24.9509 68.7571C28.7464 73.1688 33.102 77.2303 37.8849 80.8227C39.6916 82.1812 41.5963 83.4908 43.5291 84.7162C45.2027 85.7737 46.9253 86.775 48.634 87.6924C49.1101 87.9445 49.5933 88.1966 50.1185 88.4697C52.5624 89.7161 55.1115 90.8576 57.7095 91.873C60.2584 92.8673 62.8774 93.7427 65.4824 94.4849C65.4894 94.4849 65.4965 94.4849 65.5035 94.4849C70.4123 95.8715 75.4192 96.7888 80.3981 97.244C79.2426 98.4134 78.0032 99.5058 76.6937 100.493H76.7147ZM130.81 118.602C127.456 121.193 124.137 121.823 120.944 120.472C119.578 119.898 118.528 119.071 117.869 118.448C124.172 114.359 128.058 108.679 128.275 108.357C128.443 108.112 128.373 107.776 128.128 107.608C127.883 107.44 127.547 107.51 127.379 107.755C127.33 107.832 123.381 113.609 117.092 117.643C116.826 117.111 114.382 111.971 116.287 107.356C117.505 104.408 120.25 102.244 124.452 100.934C132.925 98.2874 137.029 95.5143 138.779 94.0298C138.275 98.8686 136.244 114.401 130.81 118.595V118.602Z" fill="#513117"/>
</g>
</svg>
