<svg width="28" height="29" viewBox="0 0 28 29" fill="none" xmlns="http://www.w3.org/2000/svg">
<path id="Vector" d="M14.0203 0.740234C16.5603 0.740234 19.0903 0.740234 21.6303 0.740234C25.3503 0.760234 27.6403 2.60004 27.7803 6.29004C27.9903 12 28.1103 17.7199 27.6903 23.4199C27.4903 26.1899 25.2503 28.2298 22.4503 28.2598C16.8403 28.3298 11.2203 28.3298 5.6103 28.2598C2.8103 28.2298 0.74026 26.1999 0.32026 23.4399C0.0702601 21.7899 0.190368 20.13 0.180368 18.48C0.160368 14.76 0.150368 11.0398 0.180368 7.31982C0.190368 5.56982 0.430294 3.87979 1.73029 2.52979C2.85029 1.36979 4.20035 0.769766 5.79035 0.759766C8.53035 0.739766 11.2703 0.759766 14.0103 0.759766L14.0203 0.740234ZM14.0003 7.18018C11.7603 7.10018 9.40035 7.21988 7.04035 7.37988C4.81035 7.53988 3.99028 8.3198 3.72028 10.5498C3.41028 13.1398 3.40026 15.7401 3.70026 18.3301C3.98026 20.7401 4.70027 21.4701 7.08027 21.6401C11.7403 21.9701 16.4004 21.9501 21.0604 21.6401C23.0304 21.5101 24.0103 20.7801 24.2503 19.1401C24.6903 16.0801 24.7103 13.0102 24.2503 9.9502C24.0303 8.5302 23.2203 7.64998 21.7203 7.47998C19.2003 7.19998 16.6703 7.12018 14.0003 7.18018ZM11.7603 14.3901C11.7603 15.2701 11.7603 16.15 11.7603 17.02C11.7603 17.59 12.0003 17.7602 12.5103 17.4702C14.0003 16.6102 15.4903 15.7599 16.9803 14.8999C17.3603 14.6799 17.4903 14.4299 17.0303 14.1699C15.4803 13.2699 13.9303 12.3902 12.3803 11.4902C11.9403 11.2302 11.7503 11.3899 11.7503 11.8599C11.7503 12.6999 11.7503 13.5501 11.7503 14.3901H11.7603Z" fill="#513117"/>
</svg>
