<svg width="1192" height="32" viewBox="0 0 1192 32" fill="none" xmlns="http://www.w3.org/2000/svg">
<g clip-path="url(#clip0_3_455)">
<path d="M611.24 16.3201C611.24 24.9801 604.22 32 595.56 32C586.9 32 579.88 24.9801 579.88 16.3201C579.88 7.66007 586.9 0.639893 595.56 0.639893C604.22 0.639893 611.24 7.66007 611.24 16.3201ZM645.109 3.76001C638.18 3.76001 632.56 9.38006 632.56 16.3101C632.56 23.2401 638.18 28.8601 645.109 28.8601C652.039 28.8601 657.659 23.2401 657.659 16.3101C657.659 9.38006 652.039 3.76001 645.109 3.76001ZM546.01 3.76001C539.08 3.76001 533.46 9.38006 533.46 16.3101C533.46 23.2401 539.08 28.8601 546.01 28.8601C552.94 28.8601 558.56 23.2401 558.56 16.3101C558.56 9.38006 552.94 3.76001 546.01 3.76001ZM689.539 5.76001C683.709 5.76001 678.98 10.4901 678.98 16.3201C678.98 22.1501 683.709 26.8799 689.539 26.8799C695.369 26.8799 700.1 22.1501 700.1 16.3201C700.1 10.4901 695.369 5.76001 689.539 5.76001ZM501.58 5.76001C495.75 5.76001 491.02 10.4901 491.02 16.3201C491.02 22.1501 495.75 26.8799 501.58 26.8799C507.41 26.8799 512.14 22.1501 512.14 16.3201C512.14 10.4901 507.41 5.76001 501.58 5.76001Z" fill="white"/>
<path d="M725.41 16.3201H1191.12H725.41ZM0 16.3201H465.71H0Z" fill="#F3EFE7"/>
<path d="M725.41 16.3201H1191.12M0 16.3201H465.71" stroke="white" stroke-width="2" stroke-linecap="round" stroke-linejoin="round"/>
</g>
<defs>
<clipPath id="clip0_3_455">
<rect width="1191.12" height="31.3601" fill="white" transform="translate(0 0.639893)"/>
</clipPath>
</defs>
</svg>
