<svg width="286" height="97" viewBox="0 0 286 97" fill="none" xmlns="http://www.w3.org/2000/svg">
<path d="M86.2701 62.6399H86.5801L88.4401 68.3099C88.5601 68.6799 88.7101 68.8299 88.9701 68.8299H89.3101V68.9899H86.9101V68.8299H87.4301C87.5901 68.8299 87.7001 68.7199 87.7001 68.5699C87.7001 68.5299 87.7001 68.4899 87.6801 68.4499L87.0801 66.6199H85.1501L84.8301 67.6199C84.7801 67.7699 84.7501 67.9799 84.7501 68.0999C84.7501 68.5599 85.1201 68.8099 85.5401 68.8199H85.8001V68.9799H83.5001V68.8199H83.6901C84.1201 68.8199 84.4301 68.3199 84.5501 67.9199L86.2501 62.6299L86.2701 62.6399ZM86.1201 63.6599L85.2101 66.4699H87.0401L86.1301 63.6599H86.1201ZM89.4301 69.0899H86.8201V68.7299H87.4401C87.5401 68.7299 87.6101 68.6699 87.6101 68.5799C87.6101 68.5499 87.6101 68.5199 87.5901 68.4899L87.0201 66.7399H85.2401L84.9401 67.6699C84.8901 67.8099 84.8701 68.0099 84.8701 68.1199C84.8701 68.5599 85.2401 68.7299 85.5601 68.7299H85.9301V69.0899H83.4301V68.7299H83.7201C84.0701 68.7299 84.3501 68.3099 84.4801 67.8999L86.2001 62.5399H86.6601L86.6801 62.6099L88.5401 68.2799C88.6601 68.6499 88.8001 68.7299 88.9701 68.7299H89.4201V69.0899H89.4301ZM87.6401 68.8799H88.7401C88.5201 68.7799 88.4201 68.5499 88.3501 68.3399L86.5101 62.7399H86.3501L86.1501 63.3799L87.8001 68.4299C87.8101 68.4799 87.8201 68.5299 87.8201 68.5799C87.8201 68.7099 87.7501 68.8299 87.6401 68.8899V68.8799ZM83.9601 68.8799H85.2401C84.8801 68.7699 84.6501 68.4799 84.6501 68.1099C84.6501 68.0699 84.6501 68.0299 84.6501 67.9799C84.5301 68.3399 84.2901 68.7399 83.9501 68.8799H83.9601ZM85.3501 66.3599H86.8901L86.1201 63.9899L85.3501 66.3599ZM98.1801 63.2699C98.1801 62.9899 98.1301 62.8699 97.6701 62.8699H97.0301V62.6999H100C100.58 62.6999 101.33 62.7799 102.11 63.6199C102.63 64.1899 102.94 64.9599 102.94 65.7799C102.94 67.2099 101.93 68.9799 99.9901 68.9799H97.0201V68.8099H97.6701C98.1301 68.8099 98.1801 68.6799 98.1801 68.3999V63.2699ZM98.9601 68.3799C98.9601 68.7999 99.0501 68.8199 99.3001 68.8199H99.9301C101.67 68.8199 102.03 67.6099 102.03 65.7899C102.03 64.6099 101.92 63.8699 101.39 63.3399C101.15 63.0999 100.69 62.8799 100.15 62.8799H99.2601C99.0701 62.8799 98.9601 62.9399 98.9601 63.2499V68.3799ZM100 69.0899H96.9201V68.7199H97.6701C98.0801 68.7199 98.0801 68.6399 98.0801 68.4099V63.2799C98.0801 63.0599 98.0801 62.9799 97.6701 62.9799H96.9301V62.6099H100.01C100.66 62.6099 101.42 62.7199 102.2 63.5699C102.75 64.1699 103.06 64.9799 103.06 65.7999C103.06 67.1699 102.11 69.0999 100 69.0999V69.0899ZM98.0101 68.8799H99.0301C98.9001 68.8199 98.8501 68.6799 98.8501 68.3699V63.2399C98.8501 63.0099 98.9101 62.8699 99.0501 62.7999H98.0201C98.2401 62.8699 98.2901 63.0199 98.2901 63.2699V68.3999C98.2901 68.6499 98.2401 68.8099 98.0201 68.8799H98.0101ZM99.2601 62.9699C99.1401 62.9699 99.0601 62.9699 99.0601 63.2399V68.3699C99.0601 68.7099 99.0801 68.7099 99.3001 68.7099H99.9301C101.59 68.7099 101.93 67.5899 101.93 65.7799C101.93 64.6299 101.83 63.9099 101.32 63.3999C101.12 63.1999 100.7 62.9699 100.16 62.9699H99.2701H99.2601ZM101.13 63.0099C101.27 63.0899 101.39 63.1699 101.47 63.2599C102.03 63.8199 102.14 64.6099 102.14 65.7899C102.14 67.0299 101.98 68.1999 101.05 68.6899C102.29 68.1899 102.85 66.8199 102.85 65.7899C102.85 65.0199 102.56 64.2599 102.04 63.6999C101.73 63.3599 101.42 63.1499 101.13 63.0199V63.0099ZM106.47 63.1399C106.47 63.4999 106.36 64.6499 106.3 65.4099C106.28 65.6399 106.25 65.7099 106.15 65.7099C106.05 65.7099 106.02 65.6299 106 65.4099C105.94 64.6499 105.83 63.5099 105.83 63.1399C105.83 62.7699 105.93 62.6099 106.14 62.6099C106.35 62.6099 106.45 62.7899 106.45 63.1399H106.47ZM106.15 65.8099C105.93 65.8099 105.91 65.5799 105.9 65.4099C105.88 65.1999 105.86 64.9599 105.84 64.7099C105.79 64.0599 105.73 63.3999 105.73 63.1299C105.73 62.7099 105.87 62.4999 106.15 62.4999C106.43 62.4999 106.57 62.7099 106.57 63.1299C106.57 63.3999 106.51 64.0699 106.46 64.7199C106.44 64.9599 106.42 65.1999 106.4 65.4099C106.39 65.5799 106.37 65.8099 106.15 65.8099ZM106.15 62.7099C106.09 62.7099 105.94 62.7099 105.94 63.1399C105.94 63.3999 106 64.0599 106.05 64.6999C106.07 64.9499 106.09 65.1899 106.11 65.3999C106.12 65.5599 106.14 65.5999 106.15 65.6099C106.17 65.6099 106.18 65.5599 106.2 65.3999C106.22 65.1899 106.24 64.9499 106.26 64.7099C106.31 64.0699 106.37 63.3999 106.37 63.1399C106.37 62.7099 106.22 62.7099 106.16 62.7099H106.15ZM110.91 63.2699C110.91 62.9899 110.86 62.8699 110.4 62.8699H109.76V62.6999H112.73C113.31 62.6999 114.06 62.7799 114.84 63.6199C115.36 64.1899 115.67 64.9599 115.67 65.7799C115.67 67.2099 114.66 68.9799 112.72 68.9799H109.75V68.8099H110.4C110.86 68.8099 110.91 68.6799 110.91 68.3999V63.2699ZM111.69 68.3799C111.69 68.7999 111.78 68.8199 112.03 68.8199H112.66C114.4 68.8199 114.76 67.6099 114.76 65.7899C114.76 64.6099 114.65 63.8699 114.12 63.3399C113.88 63.0999 113.42 62.8799 112.88 62.8799H111.99C111.8 62.8799 111.69 62.9399 111.69 63.2499V68.3799ZM112.73 69.0899H109.65V68.7199H110.4C110.81 68.7199 110.81 68.6399 110.81 68.4099V63.2799C110.81 63.0599 110.81 62.9799 110.4 62.9799H109.66V62.6099H112.74C113.39 62.6099 114.15 62.7199 114.93 63.5699C115.48 64.1699 115.79 64.9799 115.79 65.7999C115.79 67.1699 114.84 69.0999 112.73 69.0999V69.0899ZM110.74 68.8799H111.76C111.63 68.8199 111.58 68.6799 111.58 68.3699V63.2399C111.58 63.0099 111.64 62.8699 111.78 62.7999H110.75C110.97 62.8699 111.02 63.0199 111.02 63.2699V68.3999C111.02 68.6499 110.97 68.8099 110.75 68.8799H110.74ZM111.99 62.9699C111.87 62.9699 111.79 62.9699 111.79 63.2399V68.3699C111.79 68.7099 111.81 68.7099 112.03 68.7099H112.66C114.32 68.7099 114.66 67.5899 114.66 65.7799C114.66 64.6299 114.56 63.9099 114.05 63.3999C113.85 63.1999 113.43 62.9699 112.89 62.9699H112H111.99ZM113.86 63.0099C114 63.0899 114.12 63.1699 114.2 63.2599C114.76 63.8199 114.87 64.6099 114.87 65.7899C114.87 67.0299 114.71 68.1999 113.78 68.6899C115.02 68.1899 115.58 66.8199 115.58 65.7899C115.58 65.0199 115.29 64.2599 114.77 63.6999C114.46 63.3599 114.15 63.1499 113.86 63.0199V63.0099ZM119.25 68.9899V68.8199H119.87C120.33 68.8199 120.38 68.6899 120.38 68.4099V63.2799C120.38 62.9999 120.33 62.8699 119.87 62.8699H119.27V62.7099H124.57L124.75 64.4599H124.6C124.05 63.2399 123.64 62.8699 122.86 62.8699H121.45C121.23 62.8699 121.16 62.9599 121.16 63.2699V65.6299H121.64C122.54 65.6299 122.96 64.9699 122.95 64.0199H123.1V67.3299H122.94C122.94 65.9099 122.01 65.7899 121.73 65.7899H121.16V68.5499C121.16 68.7399 121.23 68.8299 121.49 68.8299H122.73C123.16 68.8299 123.58 68.6199 123.88 68.3299C124.2 68.0099 124.43 67.5599 124.62 66.9199H124.77L124.7 68.9999H119.26L119.25 68.9899ZM124.79 69.0899H119.15V68.7199H119.87C120.28 68.7199 120.28 68.6399 120.28 68.4099V63.2799C120.28 63.0599 120.28 62.9699 119.87 62.9699H119.17V62.6099H124.67L124.87 64.5599H124.54L124.51 64.4999C123.98 63.3299 123.6 62.9699 122.87 62.9699H121.46C121.34 62.9699 121.27 62.9699 121.27 63.2699V65.5199H121.65C122 65.5199 122.27 65.4199 122.47 65.2099C122.72 64.9599 122.85 64.5399 122.85 64.0099V63.9099H123.2V67.4199H122.84V67.3199C122.84 65.9899 122 65.8799 121.74 65.8799H121.27V68.5299C121.27 68.6499 121.28 68.7099 121.5 68.7099H122.74C123.12 68.7099 123.52 68.5299 123.82 68.2399C124.13 67.9299 124.35 67.5099 124.53 66.8699L124.55 66.7999H124.88L124.8 69.0899H124.79ZM123.06 68.8799H124.58L124.64 67.1399C124.46 67.6999 124.24 68.0899 123.94 68.3899C123.69 68.6399 123.38 68.8099 123.06 68.8799ZM120.21 68.8799H121.25C121.12 68.8199 121.05 68.7099 121.05 68.5299V63.2599C121.05 63.0699 121.08 62.8899 121.22 62.7999H120.23C120.43 62.8699 120.47 63.0299 120.47 63.2699V68.3999C120.47 68.6499 120.42 68.8099 120.2 68.8799H120.21ZM121.95 65.6899C122.28 65.7499 122.82 65.9799 122.98 66.7799V64.6099C122.91 64.9099 122.78 65.1599 122.6 65.3499C122.43 65.5299 122.21 65.6399 121.94 65.6899H121.95ZM123.3 62.8099C123.83 62.9399 124.19 63.3599 124.62 64.2599L124.47 62.8099H123.3ZM133 66.7499C133 68.4799 131.91 69.1399 131 69.1399C129.76 69.1399 128.55 67.9199 128.55 65.7799C128.55 64.6799 129.22 62.6199 130.86 62.6199C131.69 62.6199 132.15 63.2699 132.29 63.2699C132.49 63.2699 132.63 62.8399 132.69 62.6099H132.86L132.94 65.1399H132.77C132.35 63.5599 131.75 62.7799 130.89 62.7799C129.49 62.7799 129.48 64.4099 129.48 65.9299C129.48 68.0099 129.71 68.9699 131.08 68.9699C131.99 68.9699 132.87 68.1699 132.86 66.7299H133.02L133 66.7499ZM131 69.2499C129.76 69.2499 128.44 68.0399 128.44 65.7899C128.44 64.6499 129.15 62.5299 130.85 62.5299C131.47 62.5299 131.89 62.8599 132.14 63.0599C132.2 63.1099 132.27 63.1699 132.3 63.1699C132.36 63.1699 132.5 62.9499 132.59 62.5899L132.61 62.5099H132.96L133.05 65.2499H132.7L132.68 65.1699C132.26 63.6099 131.7 62.8899 130.9 62.8899C129.59 62.8899 129.59 64.4399 129.59 65.9399C129.59 68.0099 129.8 68.8799 131.09 68.8799C131.49 68.8799 131.88 68.7199 132.17 68.4199C132.56 68.0299 132.77 67.4399 132.76 66.7499V66.6499H133.12V66.7499C133.11 68.4799 132.05 69.2499 131.01 69.2499H131ZM130.12 62.8899C129.09 63.3899 128.65 64.8999 128.65 65.7799C128.65 67.2199 129.21 68.2099 129.94 68.6899C129.48 68.2199 129.37 67.3099 129.37 65.9299C129.37 64.7199 129.37 63.3799 130.13 62.8799L130.12 62.8899ZM131.95 63.1699C132.3 63.5399 132.59 64.1399 132.82 64.9699L132.75 62.7599C132.66 63.0699 132.51 63.3799 132.28 63.3799C132.2 63.3799 132.13 63.3199 132 63.2199C131.98 63.2099 131.96 63.1899 131.95 63.1799V63.1699ZM141.84 65.8299C141.84 67.4199 140.73 69.1299 139.31 69.1299C137.66 69.1299 136.74 67.2099 136.74 65.9199C136.74 64.1899 137.92 62.6099 139.27 62.6099C140.87 62.6099 141.84 64.4899 141.84 65.8299ZM137.65 66.0599C137.65 67.3599 137.82 68.0999 138.29 68.5699C138.59 68.8599 138.98 68.9699 139.3 68.9699C139.64 68.9699 139.99 68.8399 140.27 68.5799C140.79 68.0599 140.93 67.2699 140.93 65.7199C140.93 64.8099 140.93 62.7599 139.29 62.7599C137.65 62.7599 137.65 64.8299 137.65 66.0599ZM139.31 69.2299C137.59 69.2299 136.64 67.2699 136.64 65.9199C136.64 64.0999 137.87 62.5099 139.28 62.5099C140.94 62.5099 141.95 64.4499 141.95 65.8299C141.95 67.4399 140.82 69.2299 139.31 69.2299ZM139.29 62.8699C137.75 62.8699 137.75 64.8699 137.75 66.0599C137.75 67.3599 137.93 68.0699 138.36 68.4999C138.69 68.8199 139.09 68.8699 139.3 68.8699C139.63 68.8699 139.94 68.7399 140.2 68.4999C140.67 68.0299 140.82 67.3299 140.82 65.7199C140.82 64.7899 140.82 62.8599 139.28 62.8599L139.29 62.8699ZM140.3 63.0099C141.03 63.6599 141.03 65.0399 141.03 65.7299C141.03 67.1799 140.92 68.0799 140.34 68.6599C140.29 68.6999 140.24 68.7499 140.19 68.7799C141.11 68.2599 141.73 66.9899 141.73 65.8299C141.73 64.8499 141.2 63.5899 140.29 63.0199L140.3 63.0099ZM138.26 63.0299C137.44 63.5699 136.84 64.6999 136.84 65.9099C136.84 66.8999 137.39 68.1899 138.33 68.7499C138.29 68.7199 138.25 68.6799 138.21 68.6499C137.73 68.1699 137.54 67.4399 137.54 66.0599C137.54 65.1199 137.54 63.6999 138.25 63.0299H138.26ZM146.71 63.2699C146.71 63.0099 146.66 62.8599 146.2 62.8699H145.56V62.6999H148.89C150.13 62.6999 150.82 63.4699 150.82 64.1699C150.82 65.0199 150.02 65.5499 148.6 65.6499C150.15 66.0999 150.3 66.7199 150.38 67.7099C150.42 68.3399 150.48 68.6499 150.81 68.6499C151.08 68.6499 151.23 68.2999 151.23 67.8499V67.3699H151.39V67.7999C151.39 68.4999 151.07 69.0299 150.5 69.0299C149.89 69.0299 149.56 68.4999 149.56 67.7199C149.56 66.3499 149.2 65.7299 147.97 65.7299H147.49V68.4199C147.49 68.6899 147.54 68.8199 148.01 68.8199H148.65V68.9899H145.55V68.8199H146.21C146.67 68.8199 146.72 68.6899 146.72 68.4199V63.2799L146.71 63.2699ZM148.05 62.8699C147.58 62.8699 147.49 62.8699 147.49 63.3899V65.5599H147.79C149.21 65.5599 149.91 65.2199 149.91 64.1799C149.91 63.2299 149.49 62.8699 148.71 62.8699H148.04H148.05ZM150.5 69.1399C149.86 69.1399 149.45 68.5999 149.45 67.7199C149.45 66.3299 149.06 65.8299 147.96 65.8299H147.58V68.4199C147.58 68.6299 147.58 68.7199 148 68.7199H148.74V69.0899H145.43V68.7199H146.19C146.6 68.7199 146.6 68.6299 146.6 68.4199V63.2799C146.6 63.1499 146.59 63.0899 146.55 63.0499C146.5 62.9999 146.38 62.9699 146.2 62.9799H145.46V62.6099H148.89C150.17 62.6099 150.93 63.4099 150.93 64.1899C150.93 65.0099 150.28 65.5399 149.09 65.7199C150.28 66.1799 150.42 66.7999 150.49 67.7199C150.53 68.3899 150.6 68.5699 150.82 68.5699C151.04 68.5699 151.14 68.2199 151.14 67.8699V67.2899H151.5V67.8299C151.5 68.6299 151.1 69.1599 150.5 69.1599V69.1399ZM149.1 65.9399C149.55 66.2899 149.67 66.9199 149.67 67.7199C149.67 68.4799 149.98 68.9299 150.51 68.9299C150.71 68.9299 150.88 68.8599 151.01 68.7199C150.95 68.7499 150.89 68.7599 150.83 68.7599C150.36 68.7599 150.33 68.2599 150.3 67.7199C150.23 66.8799 150.14 66.3399 149.12 65.9299L149.1 65.9399ZM146.55 68.8799H147.67C147.44 68.8099 147.39 68.6599 147.39 68.4099V63.3799C147.39 63.0099 147.45 62.8599 147.62 62.7999H146.56C146.62 62.8199 146.67 62.8499 146.71 62.8899C146.81 62.9899 146.82 63.1399 146.82 63.2699V68.4099C146.82 68.6499 146.77 68.8099 146.55 68.8799ZM149.21 62.8299C149.76 62.9799 150.02 63.4199 150.02 64.1799C150.02 64.9399 149.64 65.3199 149.12 65.4999C150.16 65.3299 150.73 64.8699 150.73 64.1799C150.73 63.5699 150.17 62.9399 149.21 62.8299ZM147.59 65.4599H147.79C149.24 65.4599 149.81 65.0999 149.81 64.1799C149.81 63.3399 149.48 62.9799 148.72 62.9799H148.05C147.743 62.9799 147.59 63.1199 147.59 63.3999V65.4699V65.4599ZM159.28 68.9899V68.8199H159.83C160.29 68.8199 160.34 68.6899 160.34 68.4099V63.2799C160.34 63.0099 160.29 62.8699 159.83 62.8699H159.29V62.7099H162.2C163.75 62.7099 164.42 63.5099 164.42 64.1499C164.42 64.8899 163.71 65.4999 162.46 65.6499C163.74 65.8399 164.54 66.5699 164.54 67.3499C164.54 68.2599 163.57 68.9899 162.19 68.9899H159.28ZM161.46 62.8599C161.28 62.8599 161.12 62.8699 161.12 63.1899V65.5599H161.7C162.99 65.5599 163.55 65.1799 163.55 64.1799C163.55 62.9199 162.83 62.8599 162.1 62.8599H161.47H161.46ZM161.12 65.7199V68.5599C161.12 68.7599 161.23 68.8199 161.45 68.8199H162.04C163.13 68.8199 163.62 68.1999 163.62 67.3599C163.62 66.1199 162.81 65.7199 161.58 65.7199H161.12ZM162.19 69.0899H159.18V68.7199H159.83C160.24 68.7199 160.24 68.6399 160.24 68.4099V63.2799C160.24 63.0699 160.24 62.9699 159.83 62.9699H159.19V62.6099H162.2C163.72 62.6099 164.52 63.3899 164.52 64.1599C164.52 64.8699 163.93 65.4299 162.98 65.6699C163.98 65.9599 164.63 66.6099 164.63 67.3599C164.63 68.3499 163.58 69.0999 162.18 69.0999L162.19 69.0899ZM160.17 68.8799H161.2C161.1 68.8399 161.01 68.7399 161.01 68.5499V63.1899C161.01 62.9599 161.09 62.8599 161.18 62.7999H160.19C160.39 62.8699 160.44 63.0299 160.44 63.2699V68.3999C160.44 68.6499 160.39 68.8099 160.17 68.8799ZM162.84 65.8299C163.43 66.0899 163.72 66.5999 163.72 67.3499C163.72 68.1399 163.31 68.6799 162.59 68.8499C163.66 68.7299 164.42 68.1199 164.42 67.3399C164.42 66.6799 163.77 66.0799 162.84 65.8299ZM161.22 65.8199V68.5499C161.22 68.6499 161.24 68.7099 161.45 68.7099H162.04C162.99 68.7099 163.52 68.2299 163.52 67.3499C163.52 66.2999 162.9 65.8099 161.58 65.8099H161.22V65.8199ZM161.22 65.4599H161.7C162.95 65.4599 163.44 65.0999 163.44 64.1799C163.44 63.0499 162.88 62.9699 162.09 62.9699H161.46C161.3 62.9699 161.22 62.9699 161.22 63.1999V65.4599ZM163.04 62.8999C163.4 63.0699 163.64 63.4199 163.64 64.1699C163.64 64.8099 163.42 65.2199 162.94 65.4499C163.78 65.2299 164.31 64.7499 164.31 64.1399C164.31 63.7099 163.96 63.1199 163.04 62.8999ZM169.51 63.2699C169.51 63.0099 169.46 62.8599 169 62.8699H168.36V62.6999H171.69C172.93 62.6999 173.62 63.4699 173.62 64.1699C173.62 65.0199 172.82 65.5499 171.4 65.6499C172.95 66.0999 173.1 66.7199 173.18 67.7099C173.22 68.3399 173.28 68.6499 173.61 68.6499C173.88 68.6499 174.03 68.2999 174.03 67.8499V67.3699H174.19V67.7999C174.19 68.4999 173.87 69.0299 173.3 69.0299C172.69 69.0299 172.36 68.4999 172.36 67.7199C172.36 66.3499 172 65.7299 170.77 65.7299H170.29V68.4199C170.29 68.6899 170.34 68.8199 170.81 68.8199H171.45V68.9899H168.35V68.8199H169.01C169.47 68.8199 169.52 68.6899 169.52 68.4199V63.2799L169.51 63.2699ZM170.84 62.8699C170.37 62.8699 170.28 62.8699 170.28 63.3899V65.5599H170.58C172 65.5599 172.7 65.2199 172.7 64.1799C172.7 63.2299 172.28 62.8699 171.5 62.8699H170.83H170.84ZM173.3 69.1399C172.66 69.1399 172.25 68.5999 172.25 67.7199C172.25 66.3299 171.86 65.8299 170.76 65.8299H170.38V68.4199C170.38 68.6299 170.38 68.7199 170.8 68.7199H171.54V69.0899H168.23V68.7199H168.99C169.4 68.7199 169.4 68.6299 169.4 68.4199V63.2799C169.4 63.1499 169.39 63.0899 169.35 63.0499C169.3 62.9999 169.18 62.9699 169 62.9799H168.26V62.6099H171.69C172.97 62.6099 173.73 63.4099 173.73 64.1899C173.73 65.0099 173.08 65.5399 171.89 65.7199C173.08 66.1799 173.22 66.7999 173.29 67.7199C173.33 68.3899 173.4 68.5699 173.62 68.5699C173.84 68.5699 173.94 68.2199 173.94 67.8699V67.2899H174.3V67.8299C174.3 68.6299 173.9 69.1599 173.3 69.1599V69.1399ZM171.89 65.9399C172.34 66.2899 172.46 66.9199 172.46 67.7199C172.46 68.4799 172.77 68.9299 173.3 68.9299C173.5 68.9299 173.67 68.8599 173.8 68.7199C173.74 68.7499 173.68 68.7599 173.62 68.7599C173.15 68.7599 173.12 68.2599 173.09 67.7199C173.02 66.8799 172.93 66.3399 171.91 65.9299L171.89 65.9399ZM169.34 68.8799H170.46C170.23 68.8099 170.18 68.6599 170.18 68.4099V63.3799C170.18 63.0099 170.24 62.8599 170.41 62.7999H169.35C169.41 62.8199 169.46 62.8499 169.5 62.8899C169.6 62.9899 169.61 63.1399 169.61 63.2699V68.4099C169.61 68.6499 169.56 68.8099 169.34 68.8799ZM172 62.8299C172.55 62.9799 172.81 63.4199 172.81 64.1799C172.81 64.9399 172.43 65.3199 171.91 65.4999C172.95 65.3299 173.52 64.8699 173.52 64.1799C173.52 63.5699 172.96 62.9399 172 62.8299ZM170.39 65.4599H170.59C172.04 65.4599 172.61 65.0999 172.61 64.1799C172.61 63.3399 172.28 62.9799 171.52 62.9799H170.85C170.543 62.9799 170.39 63.1199 170.39 63.3999V65.4699V65.4599ZM180.21 62.6399H180.52L182.38 68.3099C182.5 68.6799 182.65 68.8299 182.91 68.8299H183.25V68.9899H180.84V68.8299H181.36C181.52 68.8299 181.63 68.7199 181.63 68.5699C181.63 68.5299 181.63 68.4899 181.61 68.4499L181.01 66.6199H179.08L178.76 67.6199C178.71 67.7699 178.68 67.9799 178.68 68.0999C178.68 68.5599 179.05 68.8099 179.48 68.8199H179.74V68.9799H177.44V68.8199H177.63C178.06 68.8199 178.37 68.3199 178.49 67.9199L180.19 62.6299L180.21 62.6399ZM180.06 63.6599L179.15 66.4699H180.98L180.07 63.6599H180.06ZM183.37 69.0899H180.76V68.7299H181.38C181.48 68.7299 181.55 68.6699 181.55 68.5799C181.55 68.5499 181.55 68.5199 181.53 68.4899L180.96 66.7399H179.18L178.88 67.6699C178.83 67.8099 178.81 68.0099 178.81 68.1199C178.81 68.5599 179.18 68.7299 179.5 68.7299H179.87V69.0899H177.37V68.7299H177.66C178.01 68.7299 178.29 68.3099 178.43 67.8999L180.15 62.5399H180.61L180.63 62.6099L182.49 68.2799C182.61 68.6499 182.75 68.7299 182.92 68.7299H183.37V69.0899ZM181.58 68.8799H182.68C182.46 68.7799 182.36 68.5499 182.29 68.3399L180.45 62.7399H180.29L180.09 63.3799L181.74 68.4299C181.75 68.4799 181.76 68.5299 181.76 68.5799C181.76 68.7099 181.69 68.8299 181.58 68.8899V68.8799ZM177.9 68.8799H179.18C178.82 68.7699 178.59 68.4799 178.59 68.1099C178.59 68.0699 178.59 68.0299 178.59 67.9799C178.47 68.3399 178.23 68.7399 177.89 68.8799H177.9ZM179.29 66.3599H180.83L180.06 63.9899L179.29 66.3599ZM191.4 67.5699L191.36 64.1599C191.36 62.9299 190.7 62.8599 190.05 62.8599V62.6899H192.58V62.8599C191.82 62.8599 191.51 63.2599 191.52 64.0099L191.57 69.0299H191.33L187.98 62.8599H187.96V67.4699C187.97 68.4499 188.52 68.8099 189.11 68.8099H189.24V68.9799H186.64V68.8099H186.82C187.03 68.8099 187.82 68.7099 187.81 67.5599V63.9699C187.81 63.0399 187.19 62.8599 186.6 62.8599V62.6799H188.75L191.4 67.5599V67.5699ZM191.67 69.1399H191.27L191.24 69.0899L188.07 63.2399V67.4799C188.08 68.5999 188.8 68.7199 189.11 68.7199H189.34V69.0899H186.53V68.7199H186.81C186.87 68.7199 187.18 68.7099 187.41 68.4699C187.6 68.2699 187.7 67.9699 187.7 67.5699V63.9799C187.7 63.2799 187.35 62.9699 186.6 62.9699H186.5V62.5899H188.81L191.29 67.1599L191.26 64.1699C191.26 63.0599 190.73 62.9799 190.05 62.9799H189.95V62.6099H192.69V62.9799H192.59C192.26 62.9799 192.03 63.0599 191.87 63.2099C191.7 63.3799 191.62 63.6399 191.63 64.0199L191.68 69.1399H191.67ZM191.39 68.9299H191.46V67.8799L188.69 62.7899H188.06H188.07L191.39 68.9199V68.9299ZM187.1 68.8799H188.77C188.3 68.7699 188 68.3999 187.9 67.8599C187.86 68.1799 187.75 68.4299 187.57 68.6199C187.42 68.7699 187.25 68.8499 187.1 68.8899V68.8799ZM190.58 62.8099C190.99 62.8899 191.32 63.1099 191.43 63.7299C191.46 63.4399 191.56 63.2199 191.72 63.0599C191.84 62.9399 192 62.8499 192.2 62.7999H190.58V62.8099ZM186.98 62.7999C187.46 62.8799 187.76 63.1399 187.87 63.5699V62.7999H186.98ZM197 63.2699C197 62.9899 196.95 62.8699 196.49 62.8699H195.85V62.6999H198.82C199.4 62.6999 200.16 62.7799 200.93 63.6199C201.45 64.1899 201.76 64.9599 201.76 65.7799C201.76 67.2099 200.75 68.9799 198.81 68.9799H195.84V68.8099H196.49C196.95 68.8099 197 68.6799 197 68.3999V63.2699ZM197.77 68.3799C197.77 68.7999 197.86 68.8199 198.11 68.8199H198.74C200.48 68.8199 200.84 67.6099 200.84 65.7899C200.84 64.6099 200.73 63.8699 200.2 63.3399C199.96 63.0999 199.5 62.8799 198.96 62.8799H198.07C197.88 62.8799 197.77 62.9399 197.77 63.2499V68.3799ZM198.81 69.0899H195.73V68.7199H196.48C196.89 68.7199 196.89 68.6399 196.89 68.4099V63.2799C196.89 63.0599 196.89 62.9799 196.48 62.9799H195.74V62.6099H198.82C199.47 62.6099 200.23 62.7199 201.01 63.5699C201.56 64.1699 201.87 64.9799 201.87 65.7999C201.87 67.1699 200.92 69.0999 198.81 69.0999V69.0899ZM196.83 68.8799H197.85C197.72 68.8199 197.67 68.6799 197.67 68.3699V63.2399C197.67 63.0099 197.73 62.8699 197.87 62.7999H196.84C197.06 62.8699 197.11 63.0199 197.11 63.2699V68.3999C197.11 68.6499 197.06 68.8099 196.84 68.8799H196.83ZM198.08 62.9699C197.96 62.9699 197.88 62.9699 197.88 63.2399V68.3699C197.88 68.7099 197.9 68.7099 198.12 68.7099H198.75C200.41 68.7099 200.75 67.5899 200.75 65.7799C200.75 64.6299 200.65 63.9099 200.14 63.3999C199.94 63.1999 199.52 62.9699 198.98 62.9699H198.09H198.08ZM199.94 63.0099C200.08 63.0899 200.2 63.1699 200.28 63.2599C200.84 63.8199 200.95 64.6099 200.95 65.7899C200.95 67.0299 200.79 68.1999 199.86 68.6899C201.1 68.1899 201.66 66.8199 201.66 65.7899C201.66 65.0199 201.37 64.2599 200.85 63.6999C200.54 63.3599 200.23 63.1499 199.94 63.0199V63.0099ZM42.3401 95.8599H46.2501V96.7499H41.2501V85.8499H42.3401V95.8599ZM53.2701 85.8499V96.7499H52.1801V85.8499H53.2701ZM68.7501 85.8499L64.6201 96.7499H63.3701L59.2401 85.8499H60.4201L63.9901 95.5599L67.5901 85.8499H68.7401H68.7501ZM75.8401 86.7399V90.8099H79.9701V91.7099H75.8401V95.8399H80.4401V96.7399H74.7501V85.8299H80.4401V86.7299H75.8401V86.7399ZM95.8001 88.4199C96.2701 87.5699 96.9101 86.9099 97.7201 86.4399C98.5301 85.9699 99.4401 85.7299 100.43 85.7299C101.65 85.7299 102.69 86.0199 103.56 86.5999C104.43 87.1799 105.06 87.9899 105.45 89.0399H104.17C103.86 88.2999 103.38 87.7299 102.74 87.3099C102.1 86.8899 101.33 86.6899 100.42 86.6899C99.6201 86.6899 98.9001 86.8799 98.2601 87.2499C97.6201 87.6199 97.1201 88.1599 96.7601 88.8599C96.4001 89.5599 96.2101 90.3699 96.2101 91.2999C96.2101 92.2299 96.3901 93.0399 96.7601 93.7299C97.1201 94.4299 97.6201 94.9599 98.2601 95.3399C98.9001 95.7099 99.6201 95.8999 100.42 95.8999C101.32 95.8999 102.1 95.6899 102.74 95.2799C103.38 94.8699 103.85 94.2999 104.17 93.5699H105.45C105.05 94.6099 104.42 95.4199 103.55 95.9899C102.68 96.5599 101.64 96.8499 100.43 96.8499C99.4301 96.8499 98.5301 96.6099 97.7201 96.1399C96.9101 95.6699 96.2701 95.0099 95.8001 94.1699C95.3301 93.3299 95.1001 92.3699 95.1001 91.2999C95.1001 90.2299 95.3301 89.2699 95.8001 88.4199ZM114.14 96.1499C113.32 95.6799 112.67 95.0199 112.2 94.1699C111.73 93.3199 111.49 92.3599 111.49 91.2899C111.49 90.2199 111.73 89.2599 112.2 88.4099C112.67 87.5599 113.32 86.8999 114.14 86.4299C114.96 85.9599 115.88 85.7199 116.88 85.7199C117.88 85.7199 118.82 85.9599 119.64 86.4299C120.46 86.8999 121.11 87.5599 121.57 88.4099C122.03 89.2599 122.27 90.2199 122.27 91.2899C122.27 92.3599 122.04 93.3199 121.57 94.1699C121.1 95.0199 120.46 95.6799 119.64 96.1499C118.82 96.6199 117.9 96.8599 116.88 96.8599C115.86 96.8599 114.96 96.6199 114.14 96.1499ZM119.06 95.3499C119.7 94.9799 120.21 94.4399 120.59 93.7399C120.97 93.0399 121.15 92.2299 121.15 91.2999C121.15 90.3699 120.96 89.5599 120.59 88.8699C120.22 88.1699 119.71 87.6399 119.06 87.2599C118.42 86.8899 117.69 86.6999 116.88 86.6999C116.07 86.6999 115.34 86.8899 114.7 87.2599C114.06 87.6299 113.55 88.1699 113.17 88.8699C112.8 89.5699 112.61 90.3799 112.61 91.2999C112.61 92.2199 112.8 93.0399 113.17 93.7399C113.54 94.4399 114.05 94.9799 114.7 95.3499C115.34 95.7199 116.07 95.9099 116.88 95.9099C117.69 95.9099 118.42 95.7199 119.06 95.3499ZM136.85 96.7499H135.76L129.73 87.5799V96.7499H128.64V85.8499H129.73L135.76 94.9999V85.8499H136.85V96.7499ZM145.11 96.4799C144.56 96.2299 144.14 95.8799 143.82 95.4399C143.51 94.9899 143.34 94.4899 143.32 93.9399H144.47C144.52 94.4699 144.76 94.9399 145.17 95.3399C145.59 95.7399 146.19 95.9399 146.99 95.9399C147.73 95.9399 148.31 95.7499 148.74 95.3699C149.17 94.9899 149.39 94.5099 149.39 93.9299C149.39 93.4599 149.27 93.0899 149.03 92.7999C148.79 92.5099 148.49 92.2999 148.14 92.1599C147.79 92.0199 147.3 91.8699 146.67 91.6999C145.94 91.4999 145.37 91.3099 144.94 91.1199C144.51 90.9299 144.15 90.6399 143.85 90.2499C143.55 89.8599 143.4 89.3199 143.4 88.6399C143.4 88.0799 143.55 87.5799 143.84 87.1399C144.13 86.6999 144.54 86.3499 145.07 86.0999C145.6 85.8499 146.21 85.7299 146.89 85.7299C147.9 85.7299 148.71 85.9799 149.33 86.4699C149.95 86.9599 150.3 87.5999 150.4 88.3799H149.21C149.14 87.9299 148.89 87.5399 148.48 87.1899C148.06 86.8399 147.5 86.6699 146.8 86.6699C146.14 86.6699 145.6 86.8399 145.16 87.1899C144.72 87.5399 144.5 88.0099 144.5 88.6199C144.5 89.0799 144.62 89.4499 144.86 89.7299C145.1 90.0099 145.4 90.2199 145.76 90.3699C146.12 90.5199 146.6 90.6699 147.22 90.8399C147.93 91.0399 148.5 91.2299 148.94 91.4199C149.38 91.6099 149.75 91.9099 150.05 92.2999C150.35 92.6999 150.5 93.2299 150.5 93.8899C150.5 94.3999 150.37 94.8799 150.09 95.3399C149.82 95.7999 149.42 96.1699 148.89 96.4499C148.36 96.7299 147.73 96.8699 146.99 96.8699C146.25 96.8699 145.64 96.7499 145.1 96.4999L145.11 96.4799ZM157.18 88.4199C157.65 87.5699 158.29 86.9099 159.1 86.4399C159.91 85.9699 160.82 85.7299 161.81 85.7299C163.03 85.7299 164.07 86.0199 164.94 86.5999C165.81 87.1799 166.44 87.9899 166.83 89.0399H165.55C165.24 88.2999 164.76 87.7299 164.12 87.3099C163.48 86.8899 162.71 86.6899 161.8 86.6899C161 86.6899 160.28 86.8799 159.64 87.2499C159 87.6199 158.5 88.1599 158.14 88.8599C157.78 89.5599 157.59 90.3699 157.59 91.2999C157.59 92.2299 157.77 93.0399 158.14 93.7299C158.5 94.4299 159 94.9599 159.64 95.3399C160.28 95.7099 161 95.8999 161.8 95.8999C162.7 95.8999 163.48 95.6899 164.12 95.2799C164.76 94.8699 165.23 94.2999 165.55 93.5699H166.83C166.43 94.6099 165.8 95.4199 164.93 95.9899C164.06 96.5599 163.02 96.8499 161.81 96.8499C160.81 96.8499 159.91 96.6099 159.1 96.1399C158.29 95.6699 157.65 95.0099 157.18 94.1699C156.71 93.3299 156.48 92.3699 156.48 91.2999C156.48 90.2299 156.71 89.2699 157.18 88.4199ZM174.46 85.8499V96.7499H173.37V85.8499H174.46ZM183.46 96.1499C182.64 95.6799 181.99 95.0199 181.52 94.1699C181.05 93.3199 180.81 92.3599 180.81 91.2899C180.81 90.2199 181.05 89.2599 181.52 88.4099C181.99 87.5599 182.64 86.8999 183.46 86.4299C184.28 85.9599 185.2 85.7199 186.2 85.7199C187.2 85.7199 188.14 85.9599 188.96 86.4299C189.78 86.8999 190.43 87.5599 190.89 88.4099C191.36 89.2599 191.59 90.2199 191.59 91.2899C191.59 92.3599 191.36 93.3199 190.89 94.1699C190.42 95.0199 189.78 95.6799 188.96 96.1499C188.14 96.6199 187.22 96.8599 186.2 96.8599C185.18 96.8599 184.28 96.6199 183.46 96.1499ZM188.38 95.3499C189.02 94.9799 189.53 94.4399 189.91 93.7399C190.29 93.0399 190.47 92.2299 190.47 91.2999C190.47 90.3699 190.28 89.5599 189.91 88.8699C189.54 88.1699 189.03 87.6399 188.38 87.2599C187.74 86.8899 187.01 86.6999 186.2 86.6999C185.39 86.6999 184.66 86.8899 184.02 87.2599C183.38 87.6299 182.87 88.1699 182.49 88.8699C182.12 89.5699 181.93 90.3799 181.93 91.2999C181.93 92.2199 182.12 93.0399 182.49 93.7399C182.86 94.4399 183.37 94.9799 184.02 95.3499C184.66 95.7199 185.39 95.9099 186.2 95.9099C187.01 95.9099 187.74 95.7199 188.38 95.3499ZM199 85.8499V92.7099C199 93.7899 199.26 94.5899 199.77 95.1099C200.28 95.6299 200.99 95.8899 201.88 95.8899C202.77 95.8899 203.47 95.6299 203.98 95.1199C204.48 94.6099 204.74 93.7999 204.74 92.7099V85.8499H205.83V92.6899C205.83 94.0699 205.46 95.1099 204.73 95.8099C204 96.5099 203.04 96.8499 201.87 96.8499C200.7 96.8499 199.74 96.4999 199.01 95.8099C198.28 95.1099 197.91 94.0699 197.91 92.6899V85.8499H199ZM214.04 96.4799C213.49 96.2299 213.07 95.8799 212.75 95.4399C212.44 94.9899 212.27 94.4899 212.25 93.9399H213.4C213.45 94.4699 213.69 94.9399 214.1 95.3399C214.52 95.7399 215.12 95.9399 215.92 95.9399C216.66 95.9399 217.24 95.7499 217.67 95.3699C218.1 94.9899 218.32 94.5099 218.32 93.9299C218.32 93.4599 218.2 93.0899 217.96 92.7999C217.72 92.5099 217.42 92.2999 217.07 92.1599C216.72 92.0199 216.23 91.8699 215.6 91.6999C214.87 91.4999 214.3 91.3099 213.87 91.1199C213.44 90.9299 213.08 90.6399 212.78 90.2499C212.48 89.8599 212.33 89.3199 212.33 88.6399C212.33 88.0799 212.48 87.5799 212.77 87.1399C213.06 86.6999 213.47 86.3499 214 86.0999C214.53 85.8499 215.14 85.7299 215.82 85.7299C216.83 85.7299 217.64 85.9799 218.26 86.4699C218.88 86.9599 219.23 87.5999 219.33 88.3799H218.14C218.07 87.9299 217.82 87.5399 217.41 87.1899C216.99 86.8399 216.43 86.6699 215.73 86.6699C215.07 86.6699 214.53 86.8399 214.09 87.1899C213.65 87.5399 213.43 88.0099 213.43 88.6199C213.43 89.0799 213.55 89.4499 213.79 89.7299C214.03 90.0099 214.33 90.2199 214.69 90.3699C215.05 90.5199 215.53 90.6699 216.15 90.8399C216.86 91.0399 217.43 91.2299 217.87 91.4199C218.31 91.6099 218.68 91.9099 218.98 92.2999C219.28 92.6999 219.43 93.2299 219.43 93.8899C219.43 94.3999 219.3 94.8799 219.02 95.3399C218.75 95.7999 218.35 96.1699 217.82 96.4499C217.29 96.7299 216.66 96.8699 215.92 96.8699C215.18 96.8699 214.57 96.7499 214.03 96.4999L214.04 96.4799ZM227 95.8599H230.91V96.7499H225.91V85.8499H227V95.8599ZM244.05 85.8499L240.56 92.5099V96.7499H239.47V92.5099L235.95 85.8499H237.18L240.02 91.5099L242.84 85.8499H244.06H244.05ZM275.8 0.389893V1.01989H274V5.71989H273.27V1.01989H271.47V0.389893H275.79H275.8ZM276.75 0.389893H277.78L279.31 4.89989L280.83 0.389893H281.86V5.71989H281.17V2.56989C281.17 2.45989 281.17 2.27989 281.17 2.02989C281.17 1.77989 281.17 1.50989 281.17 1.21989L279.65 5.71989H278.93L277.39 1.21989V1.37989C277.39 1.50989 277.39 1.70989 277.4 1.97989C277.41 2.24989 277.41 2.43989 277.41 2.56989V5.71989H276.72V0.389893H276.75ZM44.1801 6.23989C44.8801 4.29989 45.1201 3.94989 45.4701 3.94989C45.8201 3.94989 46.0601 4.23989 46.7601 6.05989C47.6401 8.28989 56.8501 32.5199 60.4301 41.4399C62.5401 46.6599 64.2401 47.5999 65.4801 47.9499C66.3601 48.2399 67.2401 48.2999 67.8301 48.2999C68.1801 48.2999 68.4201 48.4199 68.4201 48.6499C68.4201 48.9999 68.2801 49.1199 67.2501 49.1199H56.5201C55.7201 49.1199 55.5401 48.9899 55.5001 48.7399C55.4501 48.4499 55.7001 48.2299 56.2101 48.2399C56.4101 48.2399 56.6001 48.2099 56.6901 48.1799C57.0401 48.0599 57.3901 47.5299 57.0401 46.5999L51.5801 32.1699C51.4601 31.9399 51.3501 31.8199 51.0501 31.8199H38.4401C38.1501 31.8199 37.9701 31.9999 37.8501 32.2899L34.3301 42.6699C33.8001 44.1399 33.5101 45.5399 33.5101 46.5999C33.5101 47.7699 34.7401 48.2999 35.7401 48.2999H36.3301C36.7401 48.2999 36.9201 48.4199 36.9201 48.6499C36.9201 48.9999 36.5701 49.1199 36.0401 49.1199H24.8301C24.0701 49.1199 23.7201 48.9999 23.7201 48.6499C23.7201 48.4199 23.9501 48.2999 24.2501 48.2999C24.6601 48.2999 25.4801 48.2399 25.9501 48.1799C28.6501 47.8299 29.8201 45.5999 30.8801 42.6699L44.2001 6.23989H44.1801ZM50.2901 29.7099C50.5801 29.7099 50.5801 29.5299 50.5301 29.2999L44.9601 13.4599C44.6701 12.5799 44.3701 12.5799 44.0801 13.4599L38.9201 29.2999C38.8001 29.5899 38.9201 29.7099 39.1001 29.7099H50.3101H50.2901ZM245.92 20.8899C245.92 11.7399 245.92 10.0899 245.8 8.21989C245.68 6.22989 245.21 5.28989 243.28 4.87989C242.81 4.75989 241.81 4.71989 241.29 4.69989C241.03 4.68989 240.82 4.53989 240.82 4.29989C240.82 3.91989 241.11 3.86989 241.76 3.86989H255.31C259.01 3.86989 262.94 4.21989 266.05 6.44989C268.8 8.54989 270.1 11.9099 270.1 15.9599C270.1 20.2999 268.3 25.4199 263 28.8899C267.81 35.0499 271.8 40.2699 275.2 43.9099C278.37 47.2499 280.89 47.8999 282.36 48.1299C283.47 48.3099 284.3 48.3099 284.65 48.3099C284.94 48.3099 285.18 48.4899 285.18 48.6599C285.18 49.0099 284.83 49.1299 283.77 49.1299H279.6C276.31 49.1299 274.85 48.8399 273.32 48.0199C270.8 46.6699 268.74 43.7999 265.4 39.3999C262.94 36.1699 260.18 32.2399 259.01 30.7199C258.77 30.4899 258.6 30.3699 258.25 30.3699L251.03 30.2499C250.74 30.2499 250.62 30.4299 250.62 30.7199V32.1299C250.62 37.7599 250.62 42.3999 250.91 44.8599C251.09 46.5599 251.44 47.8499 253.2 48.0899C254.02 48.2099 255.31 48.3199 255.84 48.3199C256.19 48.3199 256.31 48.5399 256.3 48.7399C256.29 49.0599 256.01 49.1399 255.37 49.1399H242.64C241.99 49.1399 241.71 49.0799 241.7 48.7299C241.7 48.5199 241.84 48.3199 242.17 48.3199C242.7 48.3199 243.4 48.1999 243.93 48.0899C245.1 47.8399 245.4 46.5599 245.63 44.8599C245.92 42.3999 245.92 37.7599 245.92 32.1299V20.8999V20.8899ZM250.62 26.8899C250.7 28.0599 250.14 28.8699 257.19 28.5299C263.38 28.2399 265.17 21.3499 265.17 17.4799C265.17 10.1499 261.3 5.74989 255.02 5.74989C253.26 5.74989 251.68 5.92989 251.09 6.09989C250.8 6.21989 250.62 6.44989 250.62 6.79989V26.8899ZM113.12 12.4999C113.12 7.15989 113.41 5.45989 114.88 5.04989C115.76 4.75989 116.82 4.70989 117.29 4.69989C117.5 4.69989 117.75 4.57989 117.76 4.34989C117.78 3.93989 117.38 3.87989 116.82 3.87989C116.67 3.87989 116.52 3.87989 116.35 3.87989C114.76 3.87989 107.31 3.87989 106.16 3.87989C105.74 3.87989 105.34 3.87989 104.97 3.87989C104.27 3.87989 103.89 3.93989 103.91 4.34989C103.92 4.61989 104.2 4.69989 104.56 4.69989C105.09 4.69989 106.2 4.75989 107.32 5.04989C108.9 5.51989 109.49 7.03989 109.61 11.8599L110.26 41.2699C108.38 39.3299 101.99 32.1799 96.1801 25.9599C87.1501 16.2799 78.4001 6.82989 77.5201 5.83989C76.9301 5.18989 75.9401 3.87989 75.4701 3.87989C75.0001 3.87989 74.8101 4.32989 74.8201 6.88989L74.7601 40.5099C74.7601 45.8499 74.4701 47.5499 73.0001 47.9599C72.1201 48.2499 71.0601 48.2999 70.5901 48.3099C70.3801 48.3099 70.1301 48.4299 70.1201 48.6599C70.1001 49.0699 70.5001 49.1299 71.0601 49.1299C71.2101 49.1299 71.3601 49.1299 71.5301 49.1299C73.1201 49.1299 80.5701 49.1299 81.7201 49.1299C82.1401 49.1299 82.5401 49.1299 82.9101 49.1299C83.6101 49.1299 83.9901 49.0699 83.9701 48.6599C83.9601 48.3899 83.6801 48.3099 83.3201 48.3099C82.7901 48.3099 81.6801 48.2499 80.5601 47.9599C78.9801 47.4899 78.3901 45.9699 78.2701 41.1499L77.5101 13.0499C79.3901 15.1599 86.0201 22.5499 92.8201 29.8899C99.0401 36.5799 107.49 45.1999 108.13 45.7899C111.71 49.1299 111.94 49.1299 112.41 49.1299C112.82 49.1299 112.94 48.6399 112.94 45.3799L113.11 12.5099L113.12 12.4999ZM1.00011 48.3599C0.180114 47.9499 0.120117 47.7099 0.120117 46.1299C0.120117 43.1999 0.350118 40.8499 0.410118 39.9099C0.470118 39.2599 0.590112 38.9699 0.880112 38.9699C1.23011 38.9699 1.29012 39.1499 1.29012 39.6199C1.29012 40.1499 1.29012 40.9699 1.47012 41.7899C2.35012 46.1299 6.22012 47.7699 10.1501 47.7699C15.7801 47.7699 18.5401 43.7199 18.5401 39.9699C18.5401 35.9199 16.8401 33.5799 11.7901 29.4099L9.15012 27.2399C2.93012 22.1399 1.52011 18.4999 1.52011 14.5099C1.52011 8.22989 6.21012 3.94989 13.6601 3.94989C15.9501 3.94989 17.6501 4.17989 19.1201 4.53989C20.2401 4.76989 20.6901 4.87989 21.1601 4.95989C21.7501 5.06989 21.7601 5.23989 21.7601 5.52989C21.7601 5.81989 21.5201 11.6499 21.5201 11.7299C21.5001 12.4699 21.3801 12.7999 21.1101 12.7999C20.7601 12.7999 20.7001 12.5099 20.6401 12.0399C20.5801 11.3399 20.2301 9.74989 19.8801 9.10989C19.5301 8.45989 17.9401 5.99989 12.5501 5.99989C8.50012 5.99989 5.33012 8.51989 5.33012 12.8099C5.33012 16.1499 6.86011 18.2699 12.4901 22.6699L14.1301 23.9599C21.0501 29.4199 22.7001 33.0499 22.7001 37.7499C22.7001 40.1599 21.7601 44.6099 17.7101 47.4899C15.1901 49.2499 12.0201 49.9499 8.85011 49.9499C6.09011 49.9499 3.39011 49.5399 0.990112 48.3699L1.00011 48.3599ZM214.07 6.23989C214.77 4.29989 215.01 3.94989 215.36 3.94989C215.71 3.94989 215.95 4.23989 216.65 6.05989C217.53 8.28989 226.74 32.5199 230.32 41.4399C232.43 46.6599 234.13 47.5999 235.37 47.9499C236.25 48.2399 237.13 48.2999 237.72 48.2999C238.07 48.2999 238.31 48.4199 238.31 48.6499C238.31 48.9999 238.17 49.1199 237.14 49.1199H226.41C225.61 49.1199 225.43 48.9899 225.39 48.7399C225.34 48.4499 225.59 48.2299 226.1 48.2399C226.3 48.2399 226.49 48.2099 226.58 48.1799C226.93 48.0599 227.28 47.5299 226.93 46.5999L221.47 32.1699C221.35 31.9399 221.24 31.8199 220.94 31.8199H208.33C208.04 31.8199 207.86 31.9999 207.74 32.2899L204.22 42.6699C203.69 44.1399 203.4 45.5399 203.4 46.5999C203.4 47.7699 204.63 48.2999 205.63 48.2999H206.22C206.63 48.2999 206.81 48.4199 206.81 48.6499C206.81 48.9999 206.46 49.1199 205.93 49.1199H194.72C193.96 49.1199 193.61 48.9999 193.61 48.6499C193.61 48.4199 193.84 48.2999 194.14 48.2999C194.55 48.2999 195.37 48.2399 195.84 48.1799C198.54 47.8299 199.71 45.5999 200.77 42.6699L214.09 6.23989H214.07ZM220.17 29.7099C220.46 29.7099 220.46 29.5299 220.41 29.2999L214.84 13.4599C214.55 12.5799 214.25 12.5799 213.96 13.4599L208.8 29.2999C208.68 29.5899 208.8 29.7099 208.98 29.7099H220.19H220.17ZM167.91 6.23989C168.61 4.29989 168.85 3.94989 169.2 3.94989C169.55 3.94989 169.79 4.23989 170.49 6.05989C171.37 8.28989 180.58 32.5199 184.16 41.4399C186.27 46.6599 187.97 47.5999 189.21 47.9499C190.09 48.2399 190.97 48.2999 191.56 48.2999C191.91 48.2999 192.15 48.4199 192.15 48.6499C192.15 48.9999 192.01 49.1199 190.98 49.1199H180.25C179.45 49.1199 179.27 48.9899 179.23 48.7399C179.18 48.4499 179.43 48.2299 179.94 48.2399C180.14 48.2399 180.33 48.2099 180.42 48.1799C180.77 48.0599 181.12 47.5299 180.77 46.5999L175.31 32.1699C175.19 31.9399 175.08 31.8199 174.78 31.8199H162.17C161.88 31.8199 161.7 31.9999 161.58 32.2899L158.06 42.6699C157.53 44.1399 157.24 45.5399 157.24 46.5999C157.24 47.7699 158.47 48.2999 159.47 48.2999H160.06C160.47 48.2999 160.65 48.4199 160.65 48.6499C160.65 48.9999 160.3 49.1199 159.77 49.1199H148.56C147.8 49.1199 147.45 48.9999 147.45 48.6499C147.45 48.4199 147.68 48.2999 147.98 48.2999C148.39 48.2999 149.21 48.2399 149.68 48.1799C152.38 47.8299 153.55 45.5999 154.61 42.6699L167.93 6.23989H167.91ZM174.01 29.7099C174.3 29.7099 174.3 29.5299 174.25 29.2999L168.68 13.4599C168.39 12.5799 168.09 12.5799 167.8 13.4599L162.64 29.2999C162.52 29.5899 162.64 29.7099 162.82 29.7099H174.03H174.01ZM124.72 48.6499C123.9 48.2399 123.84 47.9999 123.84 46.4199C123.84 43.4899 124.07 41.1399 124.13 40.1999C124.19 39.5499 124.31 39.2599 124.6 39.2599C124.95 39.2599 125.01 39.4399 125.01 39.9099C125.01 40.4399 125.01 41.2599 125.19 42.0799C126.07 46.4199 129.94 48.0599 133.87 48.0599C139.5 48.0599 142.26 44.0099 142.26 40.2599C142.26 36.2099 140.56 33.8699 135.51 29.6999L132.87 27.5299C126.65 22.4299 125.24 18.7899 125.24 14.7999C125.24 8.51989 129.93 4.23989 137.38 4.23989C139.67 4.23989 141.37 4.46989 142.84 4.8299C143.96 5.0599 144.41 5.16989 144.88 5.24989C145.47 5.35989 145.48 5.52989 145.48 5.81989C145.48 6.10989 145.24 11.9399 145.24 12.0199C145.22 12.7599 145.1 13.0899 144.83 13.0899C144.48 13.0899 144.42 12.7999 144.36 12.3299C144.3 11.6299 143.95 10.0399 143.6 9.39989C143.25 8.7499 141.66 6.28989 136.27 6.28989C132.22 6.28989 129.05 8.80989 129.05 13.0999C129.05 16.4399 130.58 18.5599 136.21 22.9599L137.85 24.2499C144.77 29.7099 146.42 33.3399 146.42 38.0399C146.42 40.4499 145.48 44.8999 141.43 47.7799C138.91 49.5399 135.74 50.2399 132.57 50.2399C129.81 50.2399 127.11 49.8299 124.71 48.6599L124.72 48.6499Z" fill="#513117"/>
</svg>
